<?xml version="1.0" encoding="UTF-8" standalone="no"?>
<!DOCTYPE svg PUBLIC "-//W3C//DTD SVG 1.0//EN" "http://www.w3.org/TR/2001/PR-SVG-20010719/DTD/svg10.dtd">
<svg width="63cm" height="8cm" viewBox="39 299 1242 143" xmlns="http://www.w3.org/2000/svg" xmlns:xlink="http://www.w3.org/1999/xlink">
  <defs/>
  <g id="Background">
    <ellipse style="fill: #ffffff; fill-opacity: 1; stroke-opacity: 1; stroke-width: 2; stroke: #000000" cx="90" cy="370" rx="50" ry="50"/>
    <rect style="fill: #ffffff; fill-opacity: 1; stroke-opacity: 1; stroke-width: 2; stroke: #000000" x="60" y="300" width="60" height="40" rx="0" ry="0"/>
    <rect style="fill: #ffffff; fill-opacity: 1; stroke-opacity: 1; stroke-width: 2; stroke: #000000" x="60" y="400" width="60" height="40" rx="0" ry="0"/>
    <text font-size="28.2222" style="fill: #000000; fill-opacity: 1; stroke: none;text-anchor:middle;font-family:sans-serif;font-style:normal;font-weight:normal" x="90" y="379.775">
      <tspan x="90" y="379.775">A</tspan>
    </text>
    <text font-size="28.2222" style="fill: #000000; fill-opacity: 1; stroke: none;text-anchor:middle;font-family:sans-serif;font-style:normal;font-weight:normal" x="90" y="329.775">
      <tspan x="90" y="329.775">A1</tspan>
    </text>
    <text font-size="28.2222" style="fill: #000000; fill-opacity: 1; stroke: none;text-anchor:middle;font-family:sans-serif;font-style:normal;font-weight:normal" x="90" y="429.775">
      <tspan x="90" y="429.775">A2</tspan>
    </text>
    <ellipse style="fill: #ffffff; fill-opacity: 1; stroke-opacity: 1; stroke-width: 2; stroke: #000000" cx="450" cy="370" rx="50" ry="50"/>
    <rect style="fill: #ffffff; fill-opacity: 1; stroke-opacity: 1; stroke-width: 2; stroke: #000000" x="420" y="300" width="60" height="40" rx="0" ry="0"/>
    <rect style="fill: #ffffff; fill-opacity: 1; stroke-opacity: 1; stroke-width: 2; stroke: #000000" x="420" y="400" width="60" height="40" rx="0" ry="0"/>
    <text font-size="28.2222" style="fill: #000000; fill-opacity: 1; stroke: none;text-anchor:middle;font-family:sans-serif;font-style:normal;font-weight:normal" x="450" y="379.775">
      <tspan x="450" y="379.775">B</tspan>
    </text>
    <text font-size="28.2222" style="fill: #000000; fill-opacity: 1; stroke: none;text-anchor:middle;font-family:sans-serif;font-style:normal;font-weight:normal" x="450" y="329.775">
      <tspan x="450" y="329.775">B1</tspan>
    </text>
    <text font-size="28.2222" style="fill: #000000; fill-opacity: 1; stroke: none;text-anchor:middle;font-family:sans-serif;font-style:normal;font-weight:normal" x="450" y="429.775">
      <tspan x="450" y="429.775">B2</tspan>
    </text>
    <g>
      <line style="fill: none; stroke-opacity: 1; stroke-width: 2; stroke-dasharray: 20; stroke: #000000" x1="120" y1="320" x2="409" y2="320"/>
      <polygon style="fill: #000000; fill-opacity: 1; stroke-opacity: 1; stroke-width: 2; stroke: #000000" fill-rule="evenodd" points="409,325 419,320 409,315 "/>
    </g>
    <g>
      <line style="fill: none; stroke-opacity: 1; stroke-width: 2; stroke: #000000" x1="120" y1="420" x2="409" y2="420"/>
      <polygon style="fill: #000000; fill-opacity: 1; stroke-opacity: 1; stroke-width: 2; stroke: #000000" fill-rule="evenodd" points="409,425 419,420 409,415 "/>
    </g>
    <ellipse style="fill: #ffffff; fill-opacity: 1; stroke-opacity: 1; stroke-width: 2; stroke: #000000" cx="850" cy="370" rx="50" ry="50"/>
    <rect style="fill: #ffffff; fill-opacity: 1; stroke-opacity: 1; stroke-width: 2; stroke: #000000" x="820" y="300" width="60" height="40" rx="0" ry="0"/>
    <rect style="fill: #ffffff; fill-opacity: 1; stroke-opacity: 1; stroke-width: 2; stroke: #000000" x="820" y="400" width="60" height="40" rx="0" ry="0"/>
    <text font-size="28.2222" style="fill: #000000; fill-opacity: 1; stroke: none;text-anchor:middle;font-family:sans-serif;font-style:normal;font-weight:normal" x="850" y="379.775">
      <tspan x="850" y="379.775">C</tspan>
    </text>
    <text font-size="28.2222" style="fill: #000000; fill-opacity: 1; stroke: none;text-anchor:middle;font-family:sans-serif;font-style:normal;font-weight:normal" x="850" y="329.775">
      <tspan x="850" y="329.775">C1</tspan>
    </text>
    <text font-size="28.2222" style="fill: #000000; fill-opacity: 1; stroke: none;text-anchor:middle;font-family:sans-serif;font-style:normal;font-weight:normal" x="850" y="429.775">
      <tspan x="850" y="429.775">C2</tspan>
    </text>
    <ellipse style="fill: #ffffff; fill-opacity: 1; stroke-opacity: 1; stroke-width: 2; stroke: #000000" cx="1230" cy="370" rx="50" ry="50"/>
    <rect style="fill: #ffffff; fill-opacity: 1; stroke-opacity: 1; stroke-width: 2; stroke: #000000" x="1200" y="300" width="60" height="40" rx="0" ry="0"/>
    <rect style="fill: #ffffff; fill-opacity: 1; stroke-opacity: 1; stroke-width: 2; stroke: #000000" x="1200" y="400" width="60" height="40" rx="0" ry="0"/>
    <text font-size="28.2222" style="fill: #000000; fill-opacity: 1; stroke: none;text-anchor:middle;font-family:sans-serif;font-style:normal;font-weight:normal" x="1230" y="379.775">
      <tspan x="1230" y="379.775">D</tspan>
    </text>
    <text font-size="28.2222" style="fill: #000000; fill-opacity: 1; stroke: none;text-anchor:middle;font-family:sans-serif;font-style:normal;font-weight:normal" x="1230" y="329.775">
      <tspan x="1230" y="329.775">D1</tspan>
    </text>
    <text font-size="28.2222" style="fill: #000000; fill-opacity: 1; stroke: none;text-anchor:middle;font-family:sans-serif;font-style:normal;font-weight:normal" x="1230" y="429.775">
      <tspan x="1230" y="429.775">D2</tspan>
    </text>
    <g>
      <line style="fill: none; stroke-opacity: 1; stroke-width: 2; stroke: #000000" x1="480.995" y1="320" x2="809" y2="320"/>
      <polygon style="fill: #000000; fill-opacity: 1; stroke-opacity: 1; stroke-width: 2; stroke: #000000" fill-rule="evenodd" points="809,325 819,320 809,315 "/>
    </g>
    <g>
      <line style="fill: none; stroke-opacity: 1; stroke-width: 2; stroke-dasharray: 20; stroke: #000000" x1="880" y1="320" x2="1189" y2="320"/>
      <polygon style="fill: #000000; fill-opacity: 1; stroke-opacity: 1; stroke-width: 2; stroke: #000000" fill-rule="evenodd" points="1189,325 1199,320 1189,315 "/>
    </g>
    <g>
      <line style="fill: none; stroke-opacity: 1; stroke-width: 2; stroke-dasharray: 20; stroke: #000000" x1="480" y1="420" x2="809" y2="420"/>
      <polygon style="fill: #000000; fill-opacity: 1; stroke-opacity: 1; stroke-width: 2; stroke: #000000" fill-rule="evenodd" points="809,425 819,420 809,415 "/>
    </g>
    <g>
      <line style="fill: none; stroke-opacity: 1; stroke-width: 2; stroke: #000000" x1="880" y1="420" x2="1189" y2="420"/>
      <polygon style="fill: #000000; fill-opacity: 1; stroke-opacity: 1; stroke-width: 2; stroke: #000000" fill-rule="evenodd" points="1189,425 1199,420 1189,415 "/>
    </g>
  </g>
</svg>
