<?xml version="1.0" encoding="UTF-8" standalone="no"?>
<!DOCTYPE svg PUBLIC "-//W3C//DTD SVG 1.0//EN" "http://www.w3.org/TR/2001/PR-SVG-20010719/DTD/svg10.dtd">
<svg width="30cm" height="17cm" viewBox="137 18 591 325" xmlns="http://www.w3.org/2000/svg" xmlns:xlink="http://www.w3.org/1999/xlink">
  <g id="Background">
    <ellipse style="fill: #00ff00; fill-opacity: 1; stroke-opacity: 1; stroke-width: 2; stroke: #000000" cx="170" cy="290" rx="30" ry="30"/>
    <ellipse style="fill: #bfbfbf; fill-opacity: 1; stroke-opacity: 1; stroke-width: 2; stroke: #000000" cx="310" cy="170" rx="30" ry="30"/>
    <ellipse style="fill: #bfbfbf; fill-opacity: 1; stroke-opacity: 1; stroke-width: 2; stroke: #000000" cx="470" cy="190" rx="30" ry="30"/>
    <ellipse style="fill: #0000ff; fill-opacity: 1; stroke-opacity: 1; stroke-width: 2; stroke: #000000" cx="570" cy="310" rx="30" ry="30"/>
    <ellipse style="fill: #bfbfbf; fill-opacity: 1; stroke-opacity: 1; stroke-width: 2; stroke: #000000" cx="410" cy="50" rx="30" ry="30"/>
    <line style="fill: none; stroke-opacity: 1; stroke-width: 2; stroke: #000000" x1="193.533" y1="269.829" x2="286.467" y2="190.171"/>
    <line style="fill: none; stroke-opacity: 1; stroke-width: 2; stroke: #000000" x1="215.789" y1="107.192" x2="284.211" y2="152.808"/>
    <line style="fill: none; stroke-opacity: 1; stroke-width: 2; stroke: #000000" x1="329.836" y1="146.196" x2="390.164" y2="73.8037"/>
    <line style="fill: none; stroke-opacity: 1; stroke-width: 2; stroke: #000000" x1="340.752" y1="173.844" x2="439.248" y2="186.156"/>
    <line style="fill: none; stroke-opacity: 1; stroke-width: 2; stroke: #000000" x1="422.202" y1="78.4717" x2="457.798" y2="161.528"/>
    <line style="fill: none; stroke-opacity: 1; stroke-width: 2; stroke: #000000" x1="489.836" y1="213.804" x2="550.164" y2="286.196"/>
    <text font-size="22.6229" style="fill: #000000; fill-opacity: 1; stroke: none;text-anchor:start;font-family:sans-serif;font-style:normal;font-weight:normal" x="160" y="300">
      <tspan x="160" y="300">S</tspan>
    </text>
    <g>
      <path style="fill: none; stroke-opacity: 1; stroke-width: 2; stroke-dasharray: 4; stroke: #000000" d="M 193.566,269.854 A 62.774,62.774 0 0 0 290.304,199.07"/>
      <polygon style="fill: #000000; fill-opacity: 1; stroke-opacity: 1; stroke-width: 2; stroke: #000000" fill-rule="evenodd" points="287.526,192.187 296.603,198.715 291.014,198.827 287.75,203.365 "/>
    </g>
    <g>
      <rect style="fill: #00ff00; fill-opacity: 1; stroke: none" x="620" y="44.2402" width="65.65" height="19.764"/>
      <text font-size="16.9785" style="fill: #000000; fill-opacity: 1; stroke: none;text-anchor:start;font-family:sans-serif;font-style:normal;font-weight:normal" x="620" y="60">
        <tspan x="620" y="60">Sender </tspan>
      </text>
    </g>
    <g>
      <rect style="fill: #bfbfbf; fill-opacity: 1; stroke: none" x="620" y="84.2402" width="108.95" height="19.764"/>
      <text font-size="16.9785" style="fill: #000000; fill-opacity: 1; stroke: none;text-anchor:start;font-family:sans-serif;font-style:normal;font-weight:normal" x="620" y="100">
        <tspan x="620" y="100">Non-listener </tspan>
      </text>
    </g>
    <g>
      <path style="fill: none; stroke-opacity: 1; stroke-width: 2; stroke-dasharray: 4; stroke: #000000" d="M 338.842,181.355 A 50.6533,50.6533 0 0 0 437.614,203.37"/>
      <polygon style="fill: #000000; fill-opacity: 1; stroke-opacity: 1; stroke-width: 2; stroke: #000000" fill-rule="evenodd" points="439.08,196.135 443.303,206.487 438.508,203.614 433.332,205.725 "/>
    </g>
    <g>
      <path style="fill: none; stroke-opacity: 1; stroke-width: 2; stroke-dasharray: 4; stroke: #000000" d="M 488.88,214.53 A 47.1965,47.1965 0 0 0 541.507,292.619"/>
      <polygon style="fill: #000000; fill-opacity: 1; stroke-opacity: 1; stroke-width: 2; stroke: #000000" fill-rule="evenodd" points="547.606,288.493 543.461,298.877 542.004,293.48 536.812,291.407 "/>
    </g>
    <g>
      <rect style="fill: #0000ff; fill-opacity: 1; stroke: none" x="620" y="124.24" width="73.7" height="19.764"/>
      <text font-size="16.9785" style="fill: #ffffff; fill-opacity: 1; stroke: none;text-anchor:start;font-family:sans-serif;font-style:normal;font-weight:normal" x="620" y="140">
        <tspan x="620" y="140">Listener </tspan>
      </text>
    </g>
    <text font-size="22.6229" style="fill: #ffffff; fill-opacity: 1; stroke: none;text-anchor:start;font-family:sans-serif;font-style:normal;font-weight:normal" x="560" y="320">
      <tspan x="560" y="320">L</tspan>
    </text>
    <ellipse style="fill: #0000ff; fill-opacity: 1; stroke-opacity: 1; stroke-width: 2; stroke: #000000" cx="190" cy="90" rx="30" ry="30"/>
    <text font-size="22.6229" style="fill: #ffffff; fill-opacity: 1; stroke: none;text-anchor:start;font-family:sans-serif;font-style:normal;font-weight:normal" x="180" y="100">
      <tspan x="180" y="100">L</tspan>
    </text>
    <g>
      <path style="fill: none; stroke-opacity: 1; stroke-width: 2; stroke-dasharray: 4; stroke: #000000" d="M 200,290 A 69.2585,69.2585 0 0 0 303.964,208.814"/>
      <polygon style="fill: #000000; fill-opacity: 1; stroke-opacity: 1; stroke-width: 2; stroke: #000000" fill-rule="evenodd" points="301.057,201.97 310.191,208.418 304.603,208.579 301.38,213.146 "/>
    </g>
    <g>
      <path style="fill: none; stroke-opacity: 1; stroke-width: 2; stroke-dasharray: 4; stroke: #000000" d="M 285.603,150.877 A 41.9316,41.9316 0 0 0 227.57,94.1845"/>
      <polygon style="fill: #000000; fill-opacity: 1; stroke-opacity: 1; stroke-width: 2; stroke: #000000" fill-rule="evenodd" points="221.607,98.4448 225.314,87.897 226.995,93.2283 232.269,95.082 "/>
    </g>
  </g>
</svg>
