<?xml version="1.0" encoding="UTF-8" standalone="no"?>
<!DOCTYPE svg PUBLIC "-//W3C//DTD SVG 1.0//EN" "http://www.w3.org/TR/2001/PR-SVG-20010719/DTD/svg10.dtd">
<svg width="39cm" height="23cm" viewBox="-3 -41 779 443" xmlns="http://www.w3.org/2000/svg" xmlns:xlink="http://www.w3.org/1999/xlink">
  <defs/>
  <g id="Background">
    <ellipse style="fill: #bfbfbf; fill-opacity: 1; stroke-opacity: 1; stroke-width: 2; stroke: #000000" cx="170" cy="290" rx="30" ry="30"/>
    <ellipse style="fill: #bfbfbf; fill-opacity: 1; stroke-opacity: 1; stroke-width: 2; stroke: #000000" cx="190" cy="90" rx="30" ry="30"/>
    <ellipse style="fill: #bfbfbf; fill-opacity: 1; stroke-opacity: 1; stroke-width: 2; stroke: #000000" cx="310" cy="170" rx="30" ry="30"/>
    <ellipse style="fill: #bfbfbf; fill-opacity: 1; stroke-opacity: 1; stroke-width: 2; stroke: #000000" cx="470" cy="190" rx="30" ry="30"/>
    <ellipse style="fill: #bfbfbf; fill-opacity: 1; stroke-opacity: 1; stroke-width: 2; stroke: #000000" cx="570" cy="310" rx="30" ry="30"/>
    <ellipse style="fill: #bfbfbf; fill-opacity: 1; stroke-opacity: 1; stroke-width: 2; stroke: #000000" cx="410" cy="50" rx="30" ry="30"/>
    <line style="fill: none; stroke-opacity: 1; stroke-width: 2; stroke: #000000" x1="193.533" y1="269.829" x2="286.467" y2="190.171"/>
    <line style="fill: none; stroke-opacity: 1; stroke-width: 2; stroke: #000000" x1="215.789" y1="107.192" x2="284.211" y2="152.808"/>
    <line style="fill: none; stroke-opacity: 1; stroke-width: 2; stroke: #000000" x1="329.836" y1="146.196" x2="390.164" y2="73.8037"/>
    <line style="fill: none; stroke-opacity: 1; stroke-width: 2; stroke: #000000" x1="340.752" y1="173.844" x2="439.248" y2="186.156"/>
    <line style="fill: none; stroke-opacity: 1; stroke-width: 2; stroke: #000000" x1="422.202" y1="78.4717" x2="457.798" y2="161.528"/>
    <line style="fill: none; stroke-opacity: 1; stroke-width: 2; stroke: #000000" x1="489.836" y1="213.804" x2="550.164" y2="286.196"/>
    <g>
      <rect style="fill: #bfbfbf; fill-opacity: 1; stroke: none" x="620" y="44.2" width="156.15" height="19.8"/>
      <text font-size="16.9785" style="fill: #000000; fill-opacity: 1; stroke: none;text-anchor:start;font-family:sans-serif;font-style:normal;font-weight:normal" x="620" y="60">
        <tspan x="620" y="60">batman-adv node </tspan>
      </text>
    </g>
    <rect style="fill: #ffa500; fill-opacity: 1; stroke-opacity: 1; stroke-width: 2; stroke: #000000" x="120" y="40" width="60" height="40" rx="0" ry="0"/>
    <text font-size="16.9785" style="fill: #000000; fill-opacity: 1; stroke: none;text-anchor:start;font-family:sans-serif;font-style:normal;font-weight:normal" x="120" y="60">
      <tspan x="120" y="60">bridge</tspan>
    </text>
    <polyline style="fill: none; stroke-opacity: 1; stroke-width: 2; stroke-dasharray: 4; stroke: #000000" points="50,0 50,60 120,60 120,60 "/>
    <g>
      <path style="fill: #c9c9b6; fill-opacity: 1; stroke: none" fill-rule="evenodd" d="M 34.2936 -15.8278 L 68.2888,-15.8278 L 53.9951,-1.4856 L 20,-1.4856 L 34.2936,-15.8278z"/>
      <path style="fill: none; stroke-opacity: 1; stroke-width: 0.02; stroke: #494936" d="M 34.2936 -15.8278 L 68.2888,-15.8278 L 53.9951,-1.4856 L 20,-1.4856 L 34.2936,-15.8278"/>
      <path style="fill: none; stroke-opacity: 1; stroke-width: 0.02; stroke: #dbdbce" d="M 35.5988 -3.90837 L 35.5988,-3.832 L 35.6126,-3.76952 L 35.6335,-3.68622 L 35.6612,-3.60292 L 35.7029,-3.54044 L 35.7515,-3.46407 L 35.814,-3.39465 L 35.8764,-3.33218 L 35.9389,-3.25581 L 36.0222,-3.17945 L 36.1055,-3.11697 L 36.1958,-3.06144 L 36.2999,-3.0059 L 36.3971,-2.94342 L 36.522,-2.89483 L 36.6331,-2.83235 L 36.7581,-2.78376 L 36.8969,-2.73516 L 37.0358,-2.69351 L 37.1677,-2.65186 L 37.3134,-2.6102 L 37.4592,-2.56855 L 37.6119,-2.54773 L 37.7785,-2.51996 L 37.9382,-2.50607 L 38.1048,-2.47831 L 38.2575,-2.45748 L 38.4311,-2.43665 L 38.6047,-2.42971 L 38.7713,-2.42277 L 38.9379,-2.42277"/>
      <path style="fill: none; stroke-opacity: 1; stroke-width: 0.02; stroke: #dbdbce" d="M 38.5699 -2.42277 L 38.7365,-2.42277 L 38.8962,-2.42971 L 39.0559,-2.4436 L 39.2225,-2.46442 L 39.3891,-2.47831 L 39.5418,-2.50607 L 39.6946,-2.51996 L 39.8542,-2.55467 L 40,-2.58938 L 40.1527,-2.63103 L 40.2846,-2.67268 L 40.4235,-2.71434 L 40.5554,-2.76293 L 40.6803,-2.81152 L 40.7914,-2.86012 L 40.9094,-2.91565 L 41.0205,-2.97813 L 41.1177,-3.03367 L 41.2149,-3.10309 L 41.2982,-3.17251 L 41.3745,-3.24193 L 41.437,-3.30441 L 41.5064,-3.38077 L 41.562,-3.45713 L 41.6036,-3.51961 L 41.6522,-3.59597 L 41.673,-3.68622 L 41.6939,-3.76258 L 41.7147,-3.832 L 41.7216,-3.90837"/>
      <path style="fill: none; stroke-opacity: 1; stroke-width: 0.02; stroke: #dbdbce" d="M 39.3058 -6.69212 L 39.1322,-6.69212 L 38.9656,-6.68518 L 38.7921,-6.68518 L 38.6394,-6.67129 L 38.4728,-6.65047 L 38.3061,-6.63658 L 38.1465,-6.6227 L 37.9799,-6.58799 L 37.8341,-6.56022 L 37.6883,-6.5394 L 37.5425,-6.50469 L 37.3967,-6.46303 L 37.2648,-6.42832 L 37.1399,-6.38667 L 37.0149,-6.33114 L 36.8761,-6.28948 L 36.7789,-6.24089 L 36.6678,-6.19924 L 36.5637,-6.1437 L 36.4804,-6.08122 L 36.3901,-6.02569 L 36.3138,-5.97709 L 36.2374,-5.91461 L 36.1819,-5.85213 L 36.1263,-5.78271 L 36.0708,-5.72024 L 36.043,-5.6647 L 36.0083,-5.59528 L 35.9875,-5.53974 L 35.9806,-5.46338 L 35.9736,-5.40784"/>
      <path style="fill: none; stroke-opacity: 1; stroke-width: 0.02; stroke: #dbdbce" d="M 42.0826 -5.40784 L 42.0826,-5.47032 L 42.0757,-5.53974 L 42.0479,-5.60222 L 42.0201,-5.67858 L 41.9854,-5.73412 L 41.9299,-5.81048 L 41.8743,-5.86602 L 41.8188,-5.93544 L 41.7355,-5.98403 L 41.673,-6.05345 L 41.5897,-6.10899 L 41.4787,-6.15758 L 41.3884,-6.227 L 41.2843,-6.26171 L 41.1732,-6.31725 L 41.0482,-6.37279 L 40.9163,-6.41444 L 40.7844,-6.45609 L 40.6526,-6.4908 L 40.5137,-6.51857 L 40.3679,-6.55328 L 40.2152,-6.58799 L 40.0694,-6.60882 L 39.9167,-6.63658 L 39.764,-6.65047 L 39.6043,-6.67129 L 39.4377,-6.68518 L 39.2641,-6.68518 L 39.0975,-6.69212 L 38.9379,-6.69212"/>
      <path style="fill: #a5a585; fill-opacity: 1; stroke: none" fill-rule="evenodd" d="M 20 0 L 53.9951,0 L 53.9951,-1.4856 L 20,-1.4856 L 20,0z"/>
      <path style="fill: none; stroke-opacity: 1; stroke-width: 0.02; stroke: #494936" d="M 20 0 L 53.9951,0 L 53.9951,-1.4856 L 20,-1.4856 L 20,0"/>
      <path style="fill: #a5a585; fill-opacity: 1; stroke: none" fill-rule="evenodd" d="M 34.2936 -15.8278 L 68.2888,-15.8278 L 68.2888,-39.0837 L 34.2936,-39.0837 L 34.2936,-15.8278z"/>
      <path style="fill: none; stroke-opacity: 1; stroke-width: 0.02; stroke: #494936" d="M 34.2936 -15.8278 L 68.2888,-15.8278 L 68.2888,-39.0837 L 34.2936,-39.0837 L 34.2936,-15.8278"/>
      <path style="fill: #7a7a5a; fill-opacity: 1; stroke: none" fill-rule="evenodd" d="M 69.219 -16.7442 L 69.219,-40 L 68.2888,-39.0837 L 68.2888,-15.8278 L 69.219,-16.7442z"/>
      <path style="fill: none; stroke-opacity: 1; stroke-width: 0.02; stroke: #494936" d="M 69.219 -16.7442 L 69.219,-40 L 68.2888,-39.0837 L 68.2888,-15.8278 L 69.219,-16.7442"/>
      <path style="fill: #ffffff; fill-opacity: 1; stroke: none" fill-rule="evenodd" d="M 35.9736 -17.3065 L 66.6227,-17.3065 L 66.6227,-37.2162 L 35.9736,-37.2162 L 35.9736,-17.3065z"/>
      <path style="fill: none; stroke-opacity: 1; stroke-width: 0.02; stroke: #494936" d="M 35.9736 -17.3065 L 66.6227,-17.3065 L 66.6227,-37.2162 L 35.9736,-37.2162 L 35.9736,-17.3065"/>
      <path style="fill: #93936c; fill-opacity: 1; stroke: none" fill-rule="evenodd" d="M 35.9736 -14.7032 L 64.5679,-14.7032 L 57.1399,-7.25443 L 28.5456,-7.25443 L 35.9736,-14.7032z"/>
      <path style="fill: none; stroke-opacity: 1; stroke-width: 0.02; stroke: #494936" d="M 35.9736 -14.7032 L 64.5679,-14.7032 L 57.1399,-7.25443 L 28.5456,-7.25443 L 35.9736,-14.7032"/>
      <path style="fill: #7a7a5a; fill-opacity: 1; stroke: none" fill-rule="evenodd" d="M 40.4235 -4.38042 L 40.4235,-4.42208 L 40.4165,-4.46373 L 40.4096,-4.50538 L 40.3888,-4.55397 L 40.3818,-4.59563 L 40.354,-4.63034 L 40.3402,-4.67199 L 40.3054,-4.69976 L 40.2707,-4.74141 L 40.2499,-4.78306 L 40.2152,-4.81777 L 40.1736,-4.85248 L 40.1319,-4.89413 L 40.0833,-4.92884 L 40.0417,-4.94967 L 39.9931,-4.98438 L 39.9375,-5.01215 L 39.875,-5.03297 L 39.8264,-5.06768 L 39.764,-5.08157 L 39.7015,-5.10934 L 39.646,-5.12322 L 39.5765,-5.14405 L 39.5141,-5.15793 L 39.4377,-5.17182 L 39.3752,-5.19264 L 39.3058,-5.19958 L 39.2433,-5.19958 L 39.1739,-5.20653 L 39.0906,-5.20653 L 39.0351,-5.20653 L 39.0351,-5.20653 L 38.9587,-5.20653 L 38.8823,-5.20653 L 38.8199,-5.19958 L 38.7504,-5.19958 L 38.688,-5.19264 L 38.6116,-5.17182 L 38.5491,-5.15793 L 38.4797,-5.14405 L 38.4172,-5.12322 L 38.3547,-5.10934 L 38.2992,-5.08157 L 38.2298,-5.06768 L 38.1812,-5.03297 L 38.1257,-5.01215 L 38.0701,-4.98438 L 38.0215,-4.94967 L 37.9799,-4.92884 L 37.9313,-4.89413 L 37.8896,-4.85248 L 37.8549,-4.81777 L 37.8063,-4.78306 L 37.7855,-4.74141 L 37.7438,-4.69976 L 37.723,-4.67199 L 37.7022,-4.63034 L 37.6814,-4.59563 L 37.6675,-4.55397 L 37.6605,-4.50538 L 37.6467,-4.46373 L 37.6328,-4.42208 L 37.6328,-4.38042 L 37.6328,-4.38042 L 37.6328,-4.33183 L 37.6467,-4.29018 L 37.6605,-4.24852 L 37.6675,-4.20687 L 37.6814,-4.16522 L 37.7022,-4.13051 L 37.723,-4.08192 L 37.7438,-4.04721 L 37.7855,-4.00555 L 37.8063,-3.97779 L 37.8549,-3.93613 L 37.8896,-3.90142 L 37.9313,-3.85977 L 37.9799,-3.832 L 38.0215,-3.80423 L 38.0701,-3.76952 L 38.1257,-3.74176 L 38.1812,-3.72093 L 38.2298,-3.68622 L 38.2992,-3.67234 L 38.3547,-3.64457 L 38.4172,-3.63068 L 38.4797,-3.60986 L 38.5491,-3.59597 L 38.6116,-3.58209 L 38.688,-3.56821 L 38.7504,-3.55432 L 38.8199,-3.55432 L 38.8823,-3.55432 L 38.9587,-3.54738 L 39.0351,-3.54738 L 39.0351,-3.54738 L 39.0906,-3.54738 L 39.1739,-3.55432 L 39.2433,-3.55432 L 39.3058,-3.55432 L 39.3752,-3.56821 L 39.4377,-3.58209 L 39.5141,-3.59597 L 39.5765,-3.60986 L 39.646,-3.63068 L 39.7015,-3.64457 L 39.764,-3.67234 L 39.8264,-3.68622 L 39.875,-3.72093 L 39.9375,-3.74176 L 39.9931,-3.76952 L 40.0417,-3.80423 L 40.0833,-3.832 L 40.1319,-3.85977 L 40.1736,-3.90142 L 40.2152,-3.93613 L 40.2499,-3.97779 L 40.2707,-4.00555 L 40.3054,-4.04721 L 40.3402,-4.08192 L 40.354,-4.13051 L 40.3818,-4.16522 L 40.3888,-4.20687 L 40.4096,-4.24852 L 40.4165,-4.29018 L 40.4235,-4.33183 L 40.4235,-4.38042z"/>
      <path style="fill: none; stroke-opacity: 1; stroke-width: 0.02; stroke: #dbdbce" d="M 40.243 -4.46373 L 40.243,-4.50538 L 40.236,-4.54703 L 40.236,-4.58174 L 40.2152,-4.60951 L 40.2013,-4.66505 L 40.1944,-4.68587 L 40.1597,-4.72753 L 40.1319,-4.76918 L 40.1111,-4.79695 L 40.0833,-4.82471 L 40.0417,-4.85248 L 40.0069,-4.90108 L 39.9653,-4.92884 L 39.9236,-4.94967 L 39.8889,-4.98438 L 39.8334,-5.01215 L 39.7917,-5.02603 L 39.7431,-5.06074 L 39.6946,-5.07463 L 39.6321,-5.1024 L 39.5765,-5.11628 L 39.5141,-5.13016 L 39.4585,-5.15099 L 39.396,-5.16487 L 39.3336,-5.17182 L 39.2641,-5.19264 L 39.2086,-5.19958 L 39.1322,-5.20653 L 39.0767,-5.20653 L 39.0073,-5.20653 L 38.9448,-5.20653 L 38.9448,-5.20653 L 38.8754,-5.20653 L 38.8129,-5.20653 L 38.7435,-5.20653 L 38.688,-5.19958 L 38.6185,-5.19264 L 38.563,-5.17182 L 38.4866,-5.16487 L 38.4311,-5.15099 L 38.3825,-5.13016 L 38.3131,-5.11628 L 38.2575,-5.1024 L 38.1881,-5.07463 L 38.1534,-5.06074 L 38.0909,-5.02603 L 38.0493,-5.01215 L 38.0007,-4.98438 L 37.959,-4.94967 L 37.9174,-4.92884 L 37.8757,-4.90108 L 37.841,-4.85248 L 37.8063,-4.82471 L 37.7785,-4.79695 L 37.7438,-4.76918 L 37.73,-4.72753 L 37.7022,-4.68587 L 37.6883,-4.66505 L 37.6744,-4.60951 L 37.6605,-4.58174 L 37.6536,-4.54703 L 37.6467,-4.50538 L 37.6467,-4.46373 L 37.6467,-4.46373 L 37.6467,-4.42902 L 37.6536,-4.38737 L 37.6605,-4.34571 L 37.6744,-4.32489 L 37.6883,-4.28323 L 37.7022,-4.24158 L 37.73,-4.20687 L 37.7438,-4.17216 L 37.7785,-4.13051 L 37.8063,-4.10968 L 37.841,-4.07497 L 37.8757,-4.04026 L 37.9174,-4.00555 L 37.959,-3.98473 L 38.0007,-3.95002 L 38.0493,-3.92919 L 38.0909,-3.90142 L 38.1534,-3.87365 L 38.1881,-3.85977 L 38.2575,-3.832 L 38.3131,-3.81118 L 38.3825,-3.80423 L 38.4311,-3.78341 L 38.4866,-3.76952 L 38.563,-3.76258 L 38.6185,-3.74176 L 38.688,-3.72787 L 38.7435,-3.72787 L 38.8129,-3.72787 L 38.8754,-3.72787 L 38.9448,-3.72787 L 38.9448,-3.72787 L 39.0073,-3.72787 L 39.0767,-3.72787 L 39.1322,-3.72787 L 39.2086,-3.72787 L 39.2641,-3.74176 L 39.3336,-3.76258 L 39.396,-3.76952 L 39.4585,-3.78341 L 39.5141,-3.80423 L 39.5765,-3.81118 L 39.6321,-3.832 L 39.6946,-3.85977 L 39.7431,-3.87365 L 39.7917,-3.90142 L 39.8334,-3.92919 L 39.8889,-3.95002 L 39.9236,-3.98473 L 39.9653,-4.00555 L 40.0069,-4.04026 L 40.0417,-4.07497 L 40.0833,-4.10968 L 40.1111,-4.13051 L 40.1319,-4.17216 L 40.1597,-4.20687 L 40.1944,-4.24158 L 40.2013,-4.28323 L 40.2152,-4.32489 L 40.236,-4.34571 L 40.236,-4.38737 L 40.243,-4.42902 L 40.243,-4.46373"/>
      <path style="fill: none; stroke-opacity: 1; stroke-width: 0.02; stroke: #626248" d="M 35.7931 -3.72787 L 35.7931,-3.64457 L 35.807,-3.58209 L 35.8348,-3.50573 L 35.8556,-3.42242 L 35.8973,-3.353 L 35.9389,-3.29052 L 36.0014,-3.21416 L 36.0639,-3.1378 L 36.1333,-3.07532 L 36.2027,-3.0059 L 36.293,-2.94342 L 36.3763,-2.874 L 36.4873,-2.81847 L 36.5915,-2.76293 L 36.7025,-2.71434 L 36.8205,-2.65186 L 36.9524,-2.60326 L 37.0705,-2.55467 L 37.2232,-2.51302 L 37.362,-2.47136 L 37.5078,-2.42277 L 37.6536,-2.38806 L 37.8063,-2.36723 L 37.959,-2.33947 L 38.1257,-2.3117 L 38.2853,-2.29781 L 38.445,-2.27005 L 38.6116,-2.25616 L 38.7851,-2.24922 L 38.9518,-2.24922 L 39.1184,-2.24922"/>
      <path style="fill: none; stroke-opacity: 1; stroke-width: 0.02; stroke: #626248" d="M 38.7435 -2.24922 L 38.917,-2.24922 L 39.0767,-2.24922 L 39.2503,-2.2631 L 39.403,-2.28393 L 39.5627,-2.29781 L 39.7293,-2.3117 L 39.875,-2.33947 L 40.0347,-2.37418 L 40.1736,-2.40889 L 40.3263,-2.43665 L 40.4721,-2.47831 L 40.604,-2.51996 L 40.7359,-2.56855 L 40.8608,-2.63103 L 40.9858,-2.67963 L 41.0899,-2.73516 L 41.201,-2.7907 L 41.2982,-2.86012 L 41.3884,-2.91565 L 41.4787,-2.99202 L 41.555,-3.04755 L 41.6314,-3.11697 L 41.6939,-3.20028 L 41.7355,-3.27664 L 41.798,-3.33912 L 41.8258,-3.42242 L 41.8605,-3.49879 L 41.8882,-3.58209 L 41.8882,-3.64457 L 41.9021,-3.72787"/>
      <path style="fill: none; stroke-opacity: 1; stroke-width: 0.02; stroke: #626248" d="M 39.4863 -6.51163 L 39.3266,-6.51163 L 39.16,-6.50469 L 38.9934,-6.50469 L 38.8268,-6.4908 L 38.6532,-6.46998 L 38.4866,-6.46303 L 38.3409,-6.43527 L 38.1742,-6.41444 L 38.0215,-6.37279 L 37.8757,-6.3589 L 37.73,-6.31725 L 37.5911,-6.28948 L 37.4523,-6.24089 L 37.3273,-6.19924 L 37.2024,-6.15758 L 37.0705,-6.11593 L 36.9663,-6.06734 L 36.8553,-6.01874 L 36.7581,-5.95627 L 36.6678,-5.90073 L 36.5845,-5.85213 L 36.5012,-5.78271 L 36.4179,-5.73412 L 36.3693,-5.67858 L 36.3138,-5.60222 L 36.2652,-5.54669 L 36.2235,-5.47726 L 36.1958,-5.42173 L 36.1749,-5.35925 L 36.168,-5.28289 L 36.1611,-5.21347"/>
      <path style="fill: none; stroke-opacity: 1; stroke-width: 0.02; stroke: #626248" d="M 42.277 -5.21347 L 42.2631,-5.28983 L 42.2562,-5.35925 L 42.2423,-5.42173 L 42.2076,-5.49115 L 42.1659,-5.55363 L 42.1173,-5.62305 L 42.0618,-5.67858 L 41.9993,-5.74106 L 41.9299,-5.81048 L 41.8466,-5.86602 L 41.7633,-5.9285 L 41.673,-5.98403 L 41.562,-6.03263 L 41.4648,-6.08122 L 41.3468,-6.12982 L 41.2357,-6.18535 L 41.1107,-6.227 L 40.9788,-6.26171 L 40.833,-6.30337 L 40.6942,-6.33114 L 40.5554,-6.37279 L 40.4096,-6.40056 L 40.2569,-6.42832 L 40.0902,-6.45609 L 39.9445,-6.46998 L 39.7848,-6.4908 L 39.6182,-6.50469 L 39.4446,-6.50469 L 39.2919,-6.51163 L 39.1184,-6.51163"/>
      <path style="fill: #7a7a5a; fill-opacity: 1; stroke: none" fill-rule="evenodd" d="M 68.2888 -14.5227 L 53.9951,-0.180493 L 53.9951,-1.4856 L 68.2888,-15.8278 L 68.2888,-14.5227z"/>
      <path style="fill: none; stroke-opacity: 1; stroke-width: 0.02; stroke: #494936" d="M 68.2888 -14.5227 L 53.9951,-0.180493 L 53.9951,-1.4856 L 68.2888,-15.8278 L 68.2888,-14.5227"/>
      <path style="fill: #7a7a5a; fill-opacity: 1; stroke: none" fill-rule="evenodd" d="M 63.4641 -16.9247 L 63.4641,-16.5706 L 66.2478,-16.5706 L 66.2478,-16.9247 L 63.4641,-16.9247z"/>
      <path style="fill: none; stroke-opacity: 1; stroke-width: 0.02; stroke: #494936" d="M 63.4641 -16.9247 L 63.4641,-16.5706 L 66.2478,-16.5706 L 66.2478,-16.9247 L 63.4641,-16.9247"/>
      <path style="fill: none; stroke-opacity: 1; stroke-width: 0.02; stroke: #000000" d="M 62.7005 -12.8428 L 34.2936,-12.8428"/>
      <path style="fill: none; stroke-opacity: 1; stroke-width: 0.02; stroke: #000000" d="M 60.8539 -10.9754 L 32.4471,-10.9754"/>
      <path style="fill: none; stroke-opacity: 1; stroke-width: 0.02; stroke: #000000" d="M 59.0003 -9.11489 L 30.5866,-9.11489"/>
      <path style="fill: #c9c9b6; fill-opacity: 1; stroke: none" fill-rule="evenodd" d="M 35.2239 -40 L 69.219,-40 L 68.2888,-39.0837 L 34.2936,-39.0837 L 35.2239,-40z"/>
      <path style="fill: none; stroke-opacity: 1; stroke-width: 0.02; stroke: #494936" d="M 35.2239 -40 L 69.219,-40 L 68.2888,-39.0837 L 34.2936,-39.0837 L 35.2239,-40"/>
    </g>
    <g>
      <polyline style="fill: none; stroke-opacity: 1; stroke-width: 2; stroke-dasharray: 20; stroke: #000000" points="20,0 20,80 110.264,80 "/>
      <polygon style="fill: #000000; fill-opacity: 1; stroke-opacity: 1; stroke-width: 2; stroke: #000000" fill-rule="evenodd" points="117.764,80 107.764,85 110.264,80 107.764,75 "/>
    </g>
    <g>
      <rect style="fill: #ffffff; fill-opacity: 1; stroke-opacity: 1; stroke-width: 2; stroke: #000000" x="0" y="100" width="140" height="28"/>
      <rect style="fill: #ffffff; fill-opacity: 1; stroke-opacity: 1; stroke-width: 2; stroke: #000000" x="0" y="80" width="81" height="20"/>
      <text font-size="12.7998" style="fill: #000000; fill-opacity: 1; stroke: none;text-anchor:start;font-family:monospace;font-style:normal;font-weight:normal" x="2" y="95">MLD Report</text>
      <text font-size="16.9785" style="fill: #000000; fill-opacity: 1; stroke: none;text-anchor:start;font-family:sans-serif;font-style:normal;font-weight:normal" x="0" y="120">
        <tspan x="0" y="120">Want: ff12::123</tspan>
      </text>
    </g>
    <g>
      <path style="fill: #b7b79d; fill-opacity: 1; stroke: none" fill-rule="evenodd" d="M 320 367.339 L 320,399.876 L 340.277,399.876 L 340.277,367.339 L 320,367.339z"/>
      <path style="fill: #b7b79d; fill-opacity: 1; stroke: none" fill-rule="evenodd" d="M 320.111 367.462 L 320.111,400 L 340.388,400 L 340.388,367.462 L 320.111,367.462z"/>
      <path style="fill: none; stroke-opacity: 1; stroke-width: 0.02; stroke: #494936" d="M 320.111 367.462 L 320.111,400 L 340.388,400 L 340.388,367.462 L 320.111,367.462"/>
      <path style="fill: #000000; fill-opacity: 1; stroke: none" fill-rule="evenodd" d="M 321.347 376.118 L 329.376,376.118 L 329.376,378.96 L 321.347,378.96 L 321.347,376.118z"/>
      <path style="fill: none; stroke-opacity: 1; stroke-width: 0.02; stroke: #ecece7" d="M 321.347 376.118 L 329.371,376.118 L 329.371,378.956 L 321.347,378.956 L 321.347,376.118"/>
      <path style="fill: none; stroke-opacity: 1; stroke-width: 0.02; stroke: #494936" d="M 321.466 378.841 L 321.466,376.233 L 329.252,376.233"/>
      <path style="fill: #c9c9b6; fill-opacity: 1; stroke: none" fill-rule="evenodd" d="M 320 367.339 L 327.304,360 L 347.59,360 L 340.277,367.339 L 320,367.339z"/>
      <path style="fill: #c9c9b6; fill-opacity: 1; stroke: none" fill-rule="evenodd" d="M 320.111 367.462 L 327.428,360.111 L 347.705,360.111 L 340.388,367.462 L 320.111,367.462z"/>
      <path style="fill: none; stroke-opacity: 1; stroke-width: 0.02; stroke: #494936" d="M 320.111 367.462 L 327.428,360.111 L 347.705,360.111 L 340.388,367.462 L 320.111,367.462"/>
      <path style="fill: #7a7a5a; fill-opacity: 1; stroke: none" fill-rule="evenodd" d="M 340.277 399.876 L 347.59,392.525 L 347.59,360 L 340.277,367.339 L 340.277,399.876z"/>
      <path style="fill: #7a7a5a; fill-opacity: 1; stroke: none" fill-rule="evenodd" d="M 340.388 400 L 347.705,392.649 L 347.705,360.111 L 340.388,367.462 L 340.388,400z"/>
      <path style="fill: none; stroke-opacity: 1; stroke-width: 0.02; stroke: #494936" d="M 340.388 400 L 347.705,392.649 L 347.705,360.111 L 340.388,367.462 L 340.388,400"/>
      <path style="fill: none; stroke-opacity: 1; stroke-width: 2.24; stroke: #ecece7" d="M 340.277 371.016 L 320.234,371.016"/>
      <path style="fill: none; stroke-opacity: 1; stroke-width: 2.24; stroke: #494936" d="M 340.277 370.778 L 320.234,370.778"/>
      <path style="fill: none; stroke-opacity: 1; stroke-width: 3.06; stroke: #ecece7" d="M 339.8 371.259 L 339.804,371.255"/>
      <path style="fill: none; stroke-opacity: 1; stroke-width: 3.06; stroke: #494936" d="M 339.8 371.016 L 339.804,371.012"/>
      <path style="fill: #000000; fill-opacity: 1; stroke: none" fill-rule="evenodd" d="M 330.786 376.118 L 338.807,376.118 L 338.807,378.96 L 330.786,378.96 L 330.786,376.118z"/>
      <path style="fill: none; stroke-opacity: 1; stroke-width: 0.02; stroke: #ecece7" d="M 330.786 376.118 L 338.802,376.118 L 338.802,378.956 L 330.786,378.956 L 330.786,376.118"/>
      <path style="fill: none; stroke-opacity: 1; stroke-width: 0.02; stroke: #494936" d="M 330.897 378.841 L 330.897,376.233 L 338.683,376.233"/>
    </g>
    <g>
      <rect style="fill: #ffffff; fill-opacity: 1; stroke-opacity: 1; stroke-width: 2; stroke: #000000" x="240" y="320" width="140" height="28"/>
      <rect style="fill: #ffffff; fill-opacity: 1; stroke-opacity: 1; stroke-width: 2; stroke: #000000" x="240" y="300" width="73.3" height="20"/>
      <text font-size="12.7998" style="fill: #000000; fill-opacity: 1; stroke: none;text-anchor:start;font-family:monospace;font-style:normal;font-weight:normal" x="242" y="315">MLD Query</text>
    </g>
    <text font-size="16.9785" style="fill: #000000; fill-opacity: 1; stroke: none;text-anchor:start;font-family:sans-serif;font-style:normal;font-weight:normal" x="240" y="340">
      <tspan x="240" y="340">Want: Reports</tspan>
    </text>
    <line style="fill: none; stroke-opacity: 1; stroke-width: 4; stroke: #ff0000" x1="240" y1="280" x2="400" y2="400"/>
    <line style="fill: none; stroke-opacity: 1; stroke-width: 4; stroke: #ff0000" x1="240" y1="400" x2="400" y2="280"/>
    <line style="fill: none; stroke-opacity: 1; stroke-width: 4; stroke: #ff0000" x1="0" y1="80" x2="140" y2="140"/>
    <line style="fill: none; stroke-opacity: 1; stroke-width: 4; stroke: #ff0000" x1="0" y1="140" x2="140" y2="80"/>
    <g>
      <path style="fill: none; stroke-opacity: 1; stroke-width: 4; stroke: #ff0000" d="M 240,360 A 157.77,157.77 0 0 1 34.7646,150.738"/>
      <polygon style="fill: #ff0000; fill-opacity: 1; stroke-opacity: 1; stroke-width: 4; stroke: #ff0000" fill-rule="evenodd" points="37.8893,143.943 37.5779,155.119 34.3496,150.555 28.7616,150.399 "/>
    </g>
  </g>
</svg>
