<?xml version="1.0" encoding="UTF-8" standalone="no"?>
<!DOCTYPE svg PUBLIC "-//W3C//DTD SVG 1.0//EN" "http://www.w3.org/TR/2001/PR-SVG-20010719/DTD/svg10.dtd">
<svg width="39cm" height="21cm" viewBox="0 -61 777 403" xmlns="http://www.w3.org/2000/svg" xmlns:xlink="http://www.w3.org/1999/xlink">
  <defs/>
  <g id="Background">
    <ellipse style="fill: #bfbfbf; fill-opacity: 1; stroke-opacity: 1; stroke-width: 2; stroke: #000000" cx="170" cy="290" rx="30" ry="30"/>
    <ellipse style="fill: #bfbfbf; fill-opacity: 1; stroke-opacity: 1; stroke-width: 2; stroke: #000000" cx="190" cy="90" rx="30" ry="30"/>
    <ellipse style="fill: #bfbfbf; fill-opacity: 1; stroke-opacity: 1; stroke-width: 2; stroke: #000000" cx="310" cy="170" rx="30" ry="30"/>
    <ellipse style="fill: #bfbfbf; fill-opacity: 1; stroke-opacity: 1; stroke-width: 2; stroke: #000000" cx="470" cy="190" rx="30" ry="30"/>
    <ellipse style="fill: #bfbfbf; fill-opacity: 1; stroke-opacity: 1; stroke-width: 2; stroke: #000000" cx="570" cy="310" rx="30" ry="30"/>
    <ellipse style="fill: #bfbfbf; fill-opacity: 1; stroke-opacity: 1; stroke-width: 2; stroke: #000000" cx="410" cy="50" rx="30" ry="30"/>
    <line style="fill: none; stroke-opacity: 1; stroke-width: 2; stroke: #000000" x1="193.533" y1="269.829" x2="286.467" y2="190.171"/>
    <line style="fill: none; stroke-opacity: 1; stroke-width: 2; stroke: #000000" x1="215.789" y1="107.192" x2="284.211" y2="152.808"/>
    <line style="fill: none; stroke-opacity: 1; stroke-width: 2; stroke: #000000" x1="329.836" y1="146.196" x2="390.164" y2="73.8037"/>
    <line style="fill: none; stroke-opacity: 1; stroke-width: 2; stroke: #000000" x1="340.752" y1="173.844" x2="439.248" y2="186.156"/>
    <line style="fill: none; stroke-opacity: 1; stroke-width: 2; stroke: #000000" x1="422.202" y1="78.4717" x2="457.798" y2="161.528"/>
    <line style="fill: none; stroke-opacity: 1; stroke-width: 2; stroke: #000000" x1="489.836" y1="213.804" x2="550.164" y2="286.196"/>
    <g>
      <rect style="fill: #bfbfbf; fill-opacity: 1; stroke: none" x="620" y="44.2" width="156.15" height="19.8"/>
      <text font-size="16.9785" style="fill: #000000; fill-opacity: 1; stroke: none;text-anchor:start;font-family:sans-serif;font-style:normal;font-weight:normal" x="620" y="60">
        <tspan x="620" y="60">batman-adv node </tspan>
      </text>
    </g>
    <rect style="fill: #ffa500; fill-opacity: 1; stroke-opacity: 1; stroke-width: 2; stroke: #000000" x="120" y="40" width="60" height="40" rx="0" ry="0"/>
    <text font-size="16.9785" style="fill: #000000; fill-opacity: 1; stroke: none;text-anchor:start;font-family:sans-serif;font-style:normal;font-weight:normal" x="120" y="60">
      <tspan x="120" y="60">bridge</tspan>
    </text>
    <polyline style="fill: none; stroke-opacity: 1; stroke-width: 2; stroke-dasharray: 4; stroke: #000000" points="60,0 60,60 120,60 120,60 "/>
    <g>
      <path style="fill: #b7b79d; fill-opacity: 1; stroke: none" fill-rule="evenodd" d="M 40 -52.6614 L 40,-20.1236 L 60.277,-20.1236 L 60.277,-52.6614 L 40,-52.6614z"/>
      <path style="fill: #b7b79d; fill-opacity: 1; stroke: none" fill-rule="evenodd" d="M 40.1108 -52.5378 L 40.1108,-20 L 60.3878,-20 L 60.3878,-52.5378 L 40.1108,-52.5378z"/>
      <path style="fill: none; stroke-opacity: 1; stroke-width: 0.02; stroke: #494936" d="M 40.1108 -52.5378 L 40.1108,-20 L 60.3878,-20 L 60.3878,-52.5378 L 40.1108,-52.5378"/>
      <path style="fill: #000000; fill-opacity: 1; stroke: none" fill-rule="evenodd" d="M 41.3467 -43.8824 L 49.3757,-43.8824 L 49.3757,-41.0398 L 41.3467,-41.0398 L 41.3467,-43.8824z"/>
      <path style="fill: none; stroke-opacity: 1; stroke-width: 0.02; stroke: #ecece7" d="M 41.3467 -43.8824 L 49.3714,-43.8824 L 49.3714,-41.0441 L 41.3467,-41.0441 L 41.3467,-43.8824"/>
      <path style="fill: none; stroke-opacity: 1; stroke-width: 0.02; stroke: #494936" d="M 41.466 -41.1592 L 41.466,-43.7673 L 49.2521,-43.7673"/>
      <path style="fill: #c9c9b6; fill-opacity: 1; stroke: none" fill-rule="evenodd" d="M 40 -52.6614 L 47.3045,-60 L 67.59,-60 L 60.277,-52.6614 L 40,-52.6614z"/>
      <path style="fill: #c9c9b6; fill-opacity: 1; stroke: none" fill-rule="evenodd" d="M 40.1108 -52.5378 L 47.4281,-59.8892 L 67.7051,-59.8892 L 60.3878,-52.5378 L 40.1108,-52.5378z"/>
      <path style="fill: none; stroke-opacity: 1; stroke-width: 0.02; stroke: #494936" d="M 40.1108 -52.5378 L 47.4281,-59.8892 L 67.7051,-59.8892 L 60.3878,-52.5378 L 40.1108,-52.5378"/>
      <path style="fill: #7a7a5a; fill-opacity: 1; stroke: none" fill-rule="evenodd" d="M 60.277 -20.1236 L 67.59,-27.475 L 67.59,-60 L 60.277,-52.6614 L 60.277,-20.1236z"/>
      <path style="fill: #7a7a5a; fill-opacity: 1; stroke: none" fill-rule="evenodd" d="M 60.3878 -20 L 67.7051,-27.3514 L 67.7051,-59.8892 L 60.3878,-52.5378 L 60.3878,-20z"/>
      <path style="fill: none; stroke-opacity: 1; stroke-width: 0.02; stroke: #494936" d="M 60.3878 -20 L 67.7051,-27.3514 L 67.7051,-59.8892 L 60.3878,-52.5378 L 60.3878,-20"/>
      <path style="fill: none; stroke-opacity: 1; stroke-width: 2.24; stroke: #ecece7" d="M 60.277 -48.9836 L 40.2344,-48.9836"/>
      <path style="fill: none; stroke-opacity: 1; stroke-width: 2.24; stroke: #494936" d="M 60.277 -49.2222 L 40.2344,-49.2222"/>
      <path style="fill: none; stroke-opacity: 1; stroke-width: 3.06; stroke: #ecece7" d="M 59.7997 -48.7407 L 59.804,-48.7449"/>
      <path style="fill: none; stroke-opacity: 1; stroke-width: 3.06; stroke: #494936" d="M 59.7997 -48.9836 L 59.804,-48.9879"/>
      <path style="fill: #000000; fill-opacity: 1; stroke: none" fill-rule="evenodd" d="M 50.7863 -43.8824 L 58.8067,-43.8824 L 58.8067,-41.0398 L 50.7863,-41.0398 L 50.7863,-43.8824z"/>
      <path style="fill: none; stroke-opacity: 1; stroke-width: 0.02; stroke: #ecece7" d="M 50.7863 -43.8824 L 58.8025,-43.8824 L 58.8025,-41.0441 L 50.7863,-41.0441 L 50.7863,-43.8824"/>
      <path style="fill: none; stroke-opacity: 1; stroke-width: 0.02; stroke: #494936" d="M 50.8971 -41.1592 L 50.8971,-43.7673 L 58.6831,-43.7673"/>
    </g>
    <text font-size="16.9785" style="fill: #0000ff; fill-opacity: 1; stroke: none;text-anchor:start;font-family:sans-serif;font-style:normal;font-weight:normal" x="20" y="0">
      <tspan x="20" y="0">Querier</tspan>
    </text>
    <g>
      <path style="fill: #c9c9b6; fill-opacity: 1; stroke: none" fill-rule="evenodd" d="M 34.2936 124.172 L 68.2888,124.172 L 53.9951,138.514 L 20,138.514 L 34.2936,124.172z"/>
      <path style="fill: none; stroke-opacity: 1; stroke-width: 0.02; stroke: #494936" d="M 34.2936 124.172 L 68.2888,124.172 L 53.9951,138.514 L 20,138.514 L 34.2936,124.172"/>
      <path style="fill: none; stroke-opacity: 1; stroke-width: 0.02; stroke: #dbdbce" d="M 35.5988 136.092 L 35.5988,136.168 L 35.6126,136.23 L 35.6335,136.314 L 35.6612,136.397 L 35.7029,136.46 L 35.7515,136.536 L 35.814,136.605 L 35.8764,136.668 L 35.9389,136.744 L 36.0222,136.821 L 36.1055,136.883 L 36.1958,136.939 L 36.2999,136.994 L 36.3971,137.057 L 36.522,137.105 L 36.6331,137.168 L 36.7581,137.216 L 36.8969,137.265 L 37.0358,137.306 L 37.1677,137.348 L 37.3134,137.39 L 37.4592,137.431 L 37.6119,137.452 L 37.7785,137.48 L 37.9382,137.494 L 38.1048,137.522 L 38.2575,137.543 L 38.4311,137.563 L 38.6047,137.57 L 38.7713,137.577 L 38.9379,137.577"/>
      <path style="fill: none; stroke-opacity: 1; stroke-width: 0.02; stroke: #dbdbce" d="M 38.5699 137.577 L 38.7365,137.577 L 38.8962,137.57 L 39.0559,137.556 L 39.2225,137.536 L 39.3891,137.522 L 39.5418,137.494 L 39.6946,137.48 L 39.8542,137.445 L 40,137.411 L 40.1527,137.369 L 40.2846,137.327 L 40.4235,137.286 L 40.5554,137.237 L 40.6803,137.188 L 40.7914,137.14 L 40.9094,137.084 L 41.0205,137.022 L 41.1177,136.966 L 41.2149,136.897 L 41.2982,136.827 L 41.3745,136.758 L 41.437,136.696 L 41.5064,136.619 L 41.562,136.543 L 41.6036,136.48 L 41.6522,136.404 L 41.673,136.314 L 41.6939,136.237 L 41.7147,136.168 L 41.7216,136.092"/>
      <path style="fill: none; stroke-opacity: 1; stroke-width: 0.02; stroke: #dbdbce" d="M 39.3058 133.308 L 39.1322,133.308 L 38.9656,133.315 L 38.7921,133.315 L 38.6394,133.329 L 38.4728,133.35 L 38.3061,133.363 L 38.1465,133.377 L 37.9799,133.412 L 37.8341,133.44 L 37.6883,133.461 L 37.5425,133.495 L 37.3967,133.537 L 37.2648,133.572 L 37.1399,133.613 L 37.0149,133.669 L 36.8761,133.711 L 36.7789,133.759 L 36.6678,133.801 L 36.5637,133.856 L 36.4804,133.919 L 36.3901,133.974 L 36.3138,134.023 L 36.2374,134.085 L 36.1819,134.148 L 36.1263,134.217 L 36.0708,134.28 L 36.043,134.335 L 36.0083,134.405 L 35.9875,134.46 L 35.9806,134.537 L 35.9736,134.592"/>
      <path style="fill: none; stroke-opacity: 1; stroke-width: 0.02; stroke: #dbdbce" d="M 42.0826 134.592 L 42.0826,134.53 L 42.0757,134.46 L 42.0479,134.398 L 42.0201,134.321 L 41.9854,134.266 L 41.9299,134.19 L 41.8743,134.134 L 41.8188,134.065 L 41.7355,134.016 L 41.673,133.947 L 41.5897,133.891 L 41.4787,133.842 L 41.3884,133.773 L 41.2843,133.738 L 41.1732,133.683 L 41.0482,133.627 L 40.9163,133.586 L 40.7844,133.544 L 40.6526,133.509 L 40.5137,133.481 L 40.3679,133.447 L 40.2152,133.412 L 40.0694,133.391 L 39.9167,133.363 L 39.764,133.35 L 39.6043,133.329 L 39.4377,133.315 L 39.2641,133.315 L 39.0975,133.308 L 38.9379,133.308"/>
      <path style="fill: #a5a585; fill-opacity: 1; stroke: none" fill-rule="evenodd" d="M 20 140 L 53.9951,140 L 53.9951,138.514 L 20,138.514 L 20,140z"/>
      <path style="fill: none; stroke-opacity: 1; stroke-width: 0.02; stroke: #494936" d="M 20 140 L 53.9951,140 L 53.9951,138.514 L 20,138.514 L 20,140"/>
      <path style="fill: #a5a585; fill-opacity: 1; stroke: none" fill-rule="evenodd" d="M 34.2936 124.172 L 68.2888,124.172 L 68.2888,100.916 L 34.2936,100.916 L 34.2936,124.172z"/>
      <path style="fill: none; stroke-opacity: 1; stroke-width: 0.02; stroke: #494936" d="M 34.2936 124.172 L 68.2888,124.172 L 68.2888,100.916 L 34.2936,100.916 L 34.2936,124.172"/>
      <path style="fill: #7a7a5a; fill-opacity: 1; stroke: none" fill-rule="evenodd" d="M 69.219 123.256 L 69.219,100 L 68.2888,100.916 L 68.2888,124.172 L 69.219,123.256z"/>
      <path style="fill: none; stroke-opacity: 1; stroke-width: 0.02; stroke: #494936" d="M 69.219 123.256 L 69.219,100 L 68.2888,100.916 L 68.2888,124.172 L 69.219,123.256"/>
      <path style="fill: #ffffff; fill-opacity: 1; stroke: none" fill-rule="evenodd" d="M 35.9736 122.694 L 66.6227,122.694 L 66.6227,102.784 L 35.9736,102.784 L 35.9736,122.694z"/>
      <path style="fill: none; stroke-opacity: 1; stroke-width: 0.02; stroke: #494936" d="M 35.9736 122.694 L 66.6227,122.694 L 66.6227,102.784 L 35.9736,102.784 L 35.9736,122.694"/>
      <path style="fill: #93936c; fill-opacity: 1; stroke: none" fill-rule="evenodd" d="M 35.9736 125.297 L 64.5679,125.297 L 57.1399,132.746 L 28.5456,132.746 L 35.9736,125.297z"/>
      <path style="fill: none; stroke-opacity: 1; stroke-width: 0.02; stroke: #494936" d="M 35.9736 125.297 L 64.5679,125.297 L 57.1399,132.746 L 28.5456,132.746 L 35.9736,125.297"/>
      <path style="fill: #7a7a5a; fill-opacity: 1; stroke: none" fill-rule="evenodd" d="M 40.4235 135.62 L 40.4235,135.578 L 40.4165,135.536 L 40.4096,135.495 L 40.3888,135.446 L 40.3818,135.404 L 40.354,135.37 L 40.3402,135.328 L 40.3054,135.3 L 40.2707,135.259 L 40.2499,135.217 L 40.2152,135.182 L 40.1736,135.148 L 40.1319,135.106 L 40.0833,135.071 L 40.0417,135.05 L 39.9931,135.016 L 39.9375,134.988 L 39.875,134.967 L 39.8264,134.932 L 39.764,134.918 L 39.7015,134.891 L 39.646,134.877 L 39.5765,134.856 L 39.5141,134.842 L 39.4377,134.828 L 39.3752,134.807 L 39.3058,134.8 L 39.2433,134.8 L 39.1739,134.793 L 39.0906,134.793 L 39.0351,134.793 L 39.0351,134.793 L 38.9587,134.793 L 38.8823,134.793 L 38.8199,134.8 L 38.7504,134.8 L 38.688,134.807 L 38.6116,134.828 L 38.5491,134.842 L 38.4797,134.856 L 38.4172,134.877 L 38.3547,134.891 L 38.2992,134.918 L 38.2298,134.932 L 38.1812,134.967 L 38.1257,134.988 L 38.0701,135.016 L 38.0215,135.05 L 37.9799,135.071 L 37.9313,135.106 L 37.8896,135.148 L 37.8549,135.182 L 37.8063,135.217 L 37.7855,135.259 L 37.7438,135.3 L 37.723,135.328 L 37.7022,135.37 L 37.6814,135.404 L 37.6675,135.446 L 37.6605,135.495 L 37.6467,135.536 L 37.6328,135.578 L 37.6328,135.62 L 37.6328,135.62 L 37.6328,135.668 L 37.6467,135.71 L 37.6605,135.751 L 37.6675,135.793 L 37.6814,135.835 L 37.7022,135.869 L 37.723,135.918 L 37.7438,135.953 L 37.7855,135.994 L 37.8063,136.022 L 37.8549,136.064 L 37.8896,136.099 L 37.9313,136.14 L 37.9799,136.168 L 38.0215,136.196 L 38.0701,136.23 L 38.1257,136.258 L 38.1812,136.279 L 38.2298,136.314 L 38.2992,136.328 L 38.3547,136.355 L 38.4172,136.369 L 38.4797,136.39 L 38.5491,136.404 L 38.6116,136.418 L 38.688,136.432 L 38.7504,136.446 L 38.8199,136.446 L 38.8823,136.446 L 38.9587,136.453 L 39.0351,136.453 L 39.0351,136.453 L 39.0906,136.453 L 39.1739,136.446 L 39.2433,136.446 L 39.3058,136.446 L 39.3752,136.432 L 39.4377,136.418 L 39.5141,136.404 L 39.5765,136.39 L 39.646,136.369 L 39.7015,136.355 L 39.764,136.328 L 39.8264,136.314 L 39.875,136.279 L 39.9375,136.258 L 39.9931,136.23 L 40.0417,136.196 L 40.0833,136.168 L 40.1319,136.14 L 40.1736,136.099 L 40.2152,136.064 L 40.2499,136.022 L 40.2707,135.994 L 40.3054,135.953 L 40.3402,135.918 L 40.354,135.869 L 40.3818,135.835 L 40.3888,135.793 L 40.4096,135.751 L 40.4165,135.71 L 40.4235,135.668 L 40.4235,135.62z"/>
      <path style="fill: none; stroke-opacity: 1; stroke-width: 0.02; stroke: #dbdbce" d="M 40.243 135.536 L 40.243,135.495 L 40.236,135.453 L 40.236,135.418 L 40.2152,135.39 L 40.2013,135.335 L 40.1944,135.314 L 40.1597,135.272 L 40.1319,135.231 L 40.1111,135.203 L 40.0833,135.175 L 40.0417,135.148 L 40.0069,135.099 L 39.9653,135.071 L 39.9236,135.05 L 39.8889,135.016 L 39.8334,134.988 L 39.7917,134.974 L 39.7431,134.939 L 39.6946,134.925 L 39.6321,134.898 L 39.5765,134.884 L 39.5141,134.87 L 39.4585,134.849 L 39.396,134.835 L 39.3336,134.828 L 39.2641,134.807 L 39.2086,134.8 L 39.1322,134.793 L 39.0767,134.793 L 39.0073,134.793 L 38.9448,134.793 L 38.9448,134.793 L 38.8754,134.793 L 38.8129,134.793 L 38.7435,134.793 L 38.688,134.8 L 38.6185,134.807 L 38.563,134.828 L 38.4866,134.835 L 38.4311,134.849 L 38.3825,134.87 L 38.3131,134.884 L 38.2575,134.898 L 38.1881,134.925 L 38.1534,134.939 L 38.0909,134.974 L 38.0493,134.988 L 38.0007,135.016 L 37.959,135.05 L 37.9174,135.071 L 37.8757,135.099 L 37.841,135.148 L 37.8063,135.175 L 37.7785,135.203 L 37.7438,135.231 L 37.73,135.272 L 37.7022,135.314 L 37.6883,135.335 L 37.6744,135.39 L 37.6605,135.418 L 37.6536,135.453 L 37.6467,135.495 L 37.6467,135.536 L 37.6467,135.536 L 37.6467,135.571 L 37.6536,135.613 L 37.6605,135.654 L 37.6744,135.675 L 37.6883,135.717 L 37.7022,135.758 L 37.73,135.793 L 37.7438,135.828 L 37.7785,135.869 L 37.8063,135.89 L 37.841,135.925 L 37.8757,135.96 L 37.9174,135.994 L 37.959,136.015 L 38.0007,136.05 L 38.0493,136.071 L 38.0909,136.099 L 38.1534,136.126 L 38.1881,136.14 L 38.2575,136.168 L 38.3131,136.189 L 38.3825,136.196 L 38.4311,136.217 L 38.4866,136.23 L 38.563,136.237 L 38.6185,136.258 L 38.688,136.272 L 38.7435,136.272 L 38.8129,136.272 L 38.8754,136.272 L 38.9448,136.272 L 38.9448,136.272 L 39.0073,136.272 L 39.0767,136.272 L 39.1322,136.272 L 39.2086,136.272 L 39.2641,136.258 L 39.3336,136.237 L 39.396,136.23 L 39.4585,136.217 L 39.5141,136.196 L 39.5765,136.189 L 39.6321,136.168 L 39.6946,136.14 L 39.7431,136.126 L 39.7917,136.099 L 39.8334,136.071 L 39.8889,136.05 L 39.9236,136.015 L 39.9653,135.994 L 40.0069,135.96 L 40.0417,135.925 L 40.0833,135.89 L 40.1111,135.869 L 40.1319,135.828 L 40.1597,135.793 L 40.1944,135.758 L 40.2013,135.717 L 40.2152,135.675 L 40.236,135.654 L 40.236,135.613 L 40.243,135.571 L 40.243,135.536"/>
      <path style="fill: none; stroke-opacity: 1; stroke-width: 0.02; stroke: #626248" d="M 35.7931 136.272 L 35.7931,136.355 L 35.807,136.418 L 35.8348,136.494 L 35.8556,136.578 L 35.8973,136.647 L 35.9389,136.709 L 36.0014,136.786 L 36.0639,136.862 L 36.1333,136.925 L 36.2027,136.994 L 36.293,137.057 L 36.3763,137.126 L 36.4873,137.182 L 36.5915,137.237 L 36.7025,137.286 L 36.8205,137.348 L 36.9524,137.397 L 37.0705,137.445 L 37.2232,137.487 L 37.362,137.529 L 37.5078,137.577 L 37.6536,137.612 L 37.8063,137.633 L 37.959,137.661 L 38.1257,137.688 L 38.2853,137.702 L 38.445,137.73 L 38.6116,137.744 L 38.7851,137.751 L 38.9518,137.751 L 39.1184,137.751"/>
      <path style="fill: none; stroke-opacity: 1; stroke-width: 0.02; stroke: #626248" d="M 38.7435 137.751 L 38.917,137.751 L 39.0767,137.751 L 39.2503,137.737 L 39.403,137.716 L 39.5627,137.702 L 39.7293,137.688 L 39.875,137.661 L 40.0347,137.626 L 40.1736,137.591 L 40.3263,137.563 L 40.4721,137.522 L 40.604,137.48 L 40.7359,137.431 L 40.8608,137.369 L 40.9858,137.32 L 41.0899,137.265 L 41.201,137.209 L 41.2982,137.14 L 41.3884,137.084 L 41.4787,137.008 L 41.555,136.952 L 41.6314,136.883 L 41.6939,136.8 L 41.7355,136.723 L 41.798,136.661 L 41.8258,136.578 L 41.8605,136.501 L 41.8882,136.418 L 41.8882,136.355 L 41.9021,136.272"/>
      <path style="fill: none; stroke-opacity: 1; stroke-width: 0.02; stroke: #626248" d="M 39.4863 133.488 L 39.3266,133.488 L 39.16,133.495 L 38.9934,133.495 L 38.8268,133.509 L 38.6532,133.53 L 38.4866,133.537 L 38.3409,133.565 L 38.1742,133.586 L 38.0215,133.627 L 37.8757,133.641 L 37.73,133.683 L 37.5911,133.711 L 37.4523,133.759 L 37.3273,133.801 L 37.2024,133.842 L 37.0705,133.884 L 36.9663,133.933 L 36.8553,133.981 L 36.7581,134.044 L 36.6678,134.099 L 36.5845,134.148 L 36.5012,134.217 L 36.4179,134.266 L 36.3693,134.321 L 36.3138,134.398 L 36.2652,134.453 L 36.2235,134.523 L 36.1958,134.578 L 36.1749,134.641 L 36.168,134.717 L 36.1611,134.787"/>
      <path style="fill: none; stroke-opacity: 1; stroke-width: 0.02; stroke: #626248" d="M 42.277 134.787 L 42.2631,134.71 L 42.2562,134.641 L 42.2423,134.578 L 42.2076,134.509 L 42.1659,134.446 L 42.1173,134.377 L 42.0618,134.321 L 41.9993,134.259 L 41.9299,134.19 L 41.8466,134.134 L 41.7633,134.072 L 41.673,134.016 L 41.562,133.967 L 41.4648,133.919 L 41.3468,133.87 L 41.2357,133.815 L 41.1107,133.773 L 40.9788,133.738 L 40.833,133.697 L 40.6942,133.669 L 40.5554,133.627 L 40.4096,133.599 L 40.2569,133.572 L 40.0902,133.544 L 39.9445,133.53 L 39.7848,133.509 L 39.6182,133.495 L 39.4446,133.495 L 39.2919,133.488 L 39.1184,133.488"/>
      <path style="fill: #7a7a5a; fill-opacity: 1; stroke: none" fill-rule="evenodd" d="M 68.2888 125.477 L 53.9951,139.82 L 53.9951,138.514 L 68.2888,124.172 L 68.2888,125.477z"/>
      <path style="fill: none; stroke-opacity: 1; stroke-width: 0.02; stroke: #494936" d="M 68.2888 125.477 L 53.9951,139.82 L 53.9951,138.514 L 68.2888,124.172 L 68.2888,125.477"/>
      <path style="fill: #7a7a5a; fill-opacity: 1; stroke: none" fill-rule="evenodd" d="M 63.4641 123.075 L 63.4641,123.429 L 66.2478,123.429 L 66.2478,123.075 L 63.4641,123.075z"/>
      <path style="fill: none; stroke-opacity: 1; stroke-width: 0.02; stroke: #494936" d="M 63.4641 123.075 L 63.4641,123.429 L 66.2478,123.429 L 66.2478,123.075 L 63.4641,123.075"/>
      <path style="fill: none; stroke-opacity: 1; stroke-width: 0.02; stroke: #000000" d="M 62.7005 127.157 L 34.2936,127.157"/>
      <path style="fill: none; stroke-opacity: 1; stroke-width: 0.02; stroke: #000000" d="M 60.8539 129.025 L 32.4471,129.025"/>
      <path style="fill: none; stroke-opacity: 1; stroke-width: 0.02; stroke: #000000" d="M 59.0003 130.885 L 30.5866,130.885"/>
      <path style="fill: #c9c9b6; fill-opacity: 1; stroke: none" fill-rule="evenodd" d="M 35.2239 100 L 69.219,100 L 68.2888,100.916 L 34.2936,100.916 L 35.2239,100z"/>
      <path style="fill: none; stroke-opacity: 1; stroke-width: 0.02; stroke: #494936" d="M 35.2239 100 L 69.219,100 L 68.2888,100.916 L 34.2936,100.916 L 35.2239,100"/>
    </g>
    <text font-size="16.9785" style="fill: #0000ff; fill-opacity: 1; stroke: none;text-anchor:start;font-family:sans-serif;font-style:italic;font-weight:normal" x="0" y="160">
      <tspan x="0" y="160">Listener?</tspan>
    </text>
    <polyline style="fill: none; stroke-opacity: 1; stroke-width: 2; stroke-dasharray: 4; stroke: #000000" points="60,100 60,60 120,60 120,60 "/>
  </g>
</svg>
