<?xml version="1.0" encoding="UTF-8" standalone="no"?>
<!DOCTYPE svg PUBLIC "-//W3C//DTD SVG 1.0//EN" "http://www.w3.org/TR/2001/PR-SVG-20010719/DTD/svg10.dtd">
<svg width="22cm" height="12cm" viewBox="139 39 422 225" xmlns="http://www.w3.org/2000/svg" xmlns:xlink="http://www.w3.org/1999/xlink">
  <g id="Background">
    <g>
      <path style="fill: #0096d4; fill-opacity: 1; stroke: none" fill-rule="evenodd" d="M 260 119.915 L 260,136.817 L 326.864,136.817 L 326.864,119.915 L 260,119.915z"/>
      <path style="fill: none; stroke-opacity: 1; stroke-width: 0.02; stroke: #aae6ff" d="M 260 119.915 L 260,136.817 L 326.864,136.817 L 326.864,119.915 L 260,119.915"/>
      <path style="fill: #005a80; fill-opacity: 1; stroke: none" fill-rule="evenodd" d="M 326.864 119.915 L 347.57,100 L 347.57,116.902 L 326.864,136.817 L 326.864,119.915z"/>
      <path style="fill: none; stroke-opacity: 1; stroke-width: 0.02; stroke: #aae6ff" d="M 326.864 119.915 L 347.57,100 L 347.57,116.902 L 326.864,136.817 L 326.864,119.915"/>
      <path style="fill: #00b4ff; fill-opacity: 1; stroke: none" fill-rule="evenodd" d="M 326.864 119.915 L 347.57,100 L 280.66,100 L 260,119.915 L 326.864,119.915z"/>
      <path style="fill: none; stroke-opacity: 1; stroke-width: 0.02; stroke: #aae6ff" d="M 326.864 119.915 L 347.57,100 L 280.66,100 L 260,119.915 L 326.864,119.915"/>
      <path style="fill: #000000; fill-opacity: 1; stroke: none" fill-rule="evenodd" d="M 301.929 110.269 L 299.51,112.643 L 316.519,112.643 L 314.1,115.685 L 328.081,112.049 L 320.794,109.052 L 318.953,110.269 L 301.929,110.269z"/>
      <path style="fill: #000000; fill-opacity: 1; stroke: none" fill-rule="evenodd" d="M 310.449 102.419 L 308.015,104.823 L 325.039,104.823 L 321.996,107.835 L 336.586,103.636 L 328.69,100.593 L 327.503,102.419 L 310.449,102.419z"/>
      <path style="fill: #000000; fill-opacity: 1; stroke: none" fill-rule="evenodd" d="M 295.844 116.902 L 298.323,114.468 L 280.66,114.468 L 283.703,111.456 L 269.691,115.062 L 277.009,118.104 L 278.241,116.902 L 295.844,116.902z"/>
      <path style="fill: #000000; fill-opacity: 1; stroke: none" fill-rule="evenodd" d="M 303.77 108.413 L 306.204,106.055 L 289.18,106.055 L 292.238,103.012 L 277.618,107.227 L 285.513,110.269 L 286.731,108.413 L 303.77,108.413z"/>
      <path style="fill: #ffffff; fill-opacity: 1; stroke: none" fill-rule="evenodd" d="M 302.538 110.832 L 300.119,113.251 L 317.143,113.251 L 314.709,116.279 L 328.69,112.643 L 321.372,109.646 L 319.577,110.832 L 302.538,110.832z"/>
      <path style="fill: #ffffff; fill-opacity: 1; stroke: none" fill-rule="evenodd" d="M 311.057 103.012 L 308.623,105.416 L 325.647,105.416 L 322.605,108.413 L 337.21,104.199 L 329.314,101.202 L 328.081,103.012 L 311.057,103.012z"/>
      <path style="fill: #ffffff; fill-opacity: 1; stroke: none" fill-rule="evenodd" d="M 296.452 117.496 L 298.886,115.062 L 281.284,115.062 L 284.281,112.049 L 270.315,115.685 L 277.618,118.698 L 278.819,117.496 L 296.452,117.496z"/>
      <path style="fill: #ffffff; fill-opacity: 1; stroke: none" fill-rule="evenodd" d="M 304.348 109.052 L 306.813,106.618 L 289.758,106.618 L 292.816,103.636 L 278.241,107.835 L 286.137,110.832 L 287.324,109.052 L 304.348,109.052z"/>
    </g>
    <g>
      <path style="fill: #c9c9b6; fill-opacity: 1; stroke: none" fill-rule="evenodd" d="M 414.294 124.172 L 448.289,124.172 L 433.995,138.514 L 400,138.514 L 414.294,124.172z"/>
      <path style="fill: none; stroke-opacity: 1; stroke-width: 0.02; stroke: #494936" d="M 414.294 124.172 L 448.289,124.172 L 433.995,138.514 L 400,138.514 L 414.294,124.172"/>
      <path style="fill: none; stroke-opacity: 1; stroke-width: 0.02; stroke: #dbdbce" d="M 415.599 136.092 L 415.599,136.168 L 415.613,136.23 L 415.633,136.314 L 415.661,136.397 L 415.703,136.46 L 415.751,136.536 L 415.814,136.605 L 415.876,136.668 L 415.939,136.744 L 416.022,136.821 L 416.106,136.883 L 416.196,136.939 L 416.3,136.994 L 416.397,137.057 L 416.522,137.105 L 416.633,137.168 L 416.758,137.216 L 416.897,137.265 L 417.036,137.306 L 417.168,137.348 L 417.313,137.39 L 417.459,137.431 L 417.612,137.452 L 417.779,137.48 L 417.938,137.494 L 418.105,137.522 L 418.258,137.543 L 418.431,137.563 L 418.605,137.57 L 418.771,137.577 L 418.938,137.577"/>
      <path style="fill: none; stroke-opacity: 1; stroke-width: 0.02; stroke: #dbdbce" d="M 418.57 137.577 L 418.737,137.577 L 418.896,137.57 L 419.056,137.556 L 419.222,137.536 L 419.389,137.522 L 419.542,137.494 L 419.695,137.48 L 419.854,137.445 L 420,137.411 L 420.153,137.369 L 420.285,137.327 L 420.423,137.286 L 420.555,137.237 L 420.68,137.188 L 420.791,137.14 L 420.909,137.084 L 421.02,137.022 L 421.118,136.966 L 421.215,136.897 L 421.298,136.827 L 421.375,136.758 L 421.437,136.696 L 421.506,136.619 L 421.562,136.543 L 421.604,136.48 L 421.652,136.404 L 421.673,136.314 L 421.694,136.237 L 421.715,136.168 L 421.722,136.092"/>
      <path style="fill: none; stroke-opacity: 1; stroke-width: 0.02; stroke: #dbdbce" d="M 419.306 133.308 L 419.132,133.308 L 418.966,133.315 L 418.792,133.315 L 418.639,133.329 L 418.473,133.35 L 418.306,133.363 L 418.146,133.377 L 417.98,133.412 L 417.834,133.44 L 417.688,133.461 L 417.543,133.495 L 417.397,133.537 L 417.265,133.572 L 417.14,133.613 L 417.015,133.669 L 416.876,133.711 L 416.779,133.759 L 416.668,133.801 L 416.564,133.856 L 416.48,133.919 L 416.39,133.974 L 416.314,134.023 L 416.237,134.085 L 416.182,134.148 L 416.126,134.217 L 416.071,134.28 L 416.043,134.335 L 416.008,134.405 L 415.988,134.46 L 415.981,134.537 L 415.974,134.592"/>
      <path style="fill: none; stroke-opacity: 1; stroke-width: 0.02; stroke: #dbdbce" d="M 422.083 134.592 L 422.083,134.53 L 422.076,134.46 L 422.048,134.398 L 422.02,134.321 L 421.985,134.266 L 421.93,134.19 L 421.874,134.134 L 421.819,134.065 L 421.736,134.016 L 421.673,133.947 L 421.59,133.891 L 421.479,133.842 L 421.388,133.773 L 421.284,133.738 L 421.173,133.683 L 421.048,133.627 L 420.916,133.586 L 420.784,133.544 L 420.653,133.509 L 420.514,133.481 L 420.368,133.447 L 420.215,133.412 L 420.069,133.391 L 419.917,133.363 L 419.764,133.35 L 419.604,133.329 L 419.438,133.315 L 419.264,133.315 L 419.098,133.308 L 418.938,133.308"/>
      <path style="fill: #a5a585; fill-opacity: 1; stroke: none" fill-rule="evenodd" d="M 400 140 L 433.995,140 L 433.995,138.514 L 400,138.514 L 400,140z"/>
      <path style="fill: none; stroke-opacity: 1; stroke-width: 0.02; stroke: #494936" d="M 400 140 L 433.995,140 L 433.995,138.514 L 400,138.514 L 400,140"/>
      <path style="fill: #a5a585; fill-opacity: 1; stroke: none" fill-rule="evenodd" d="M 414.294 124.172 L 448.289,124.172 L 448.289,100.916 L 414.294,100.916 L 414.294,124.172z"/>
      <path style="fill: none; stroke-opacity: 1; stroke-width: 0.02; stroke: #494936" d="M 414.294 124.172 L 448.289,124.172 L 448.289,100.916 L 414.294,100.916 L 414.294,124.172"/>
      <path style="fill: #7a7a5a; fill-opacity: 1; stroke: none" fill-rule="evenodd" d="M 449.219 123.256 L 449.219,100 L 448.289,100.916 L 448.289,124.172 L 449.219,123.256z"/>
      <path style="fill: none; stroke-opacity: 1; stroke-width: 0.02; stroke: #494936" d="M 449.219 123.256 L 449.219,100 L 448.289,100.916 L 448.289,124.172 L 449.219,123.256"/>
      <path style="fill: #ffffff; fill-opacity: 1; stroke: none" fill-rule="evenodd" d="M 415.974 122.694 L 446.623,122.694 L 446.623,102.784 L 415.974,102.784 L 415.974,122.694z"/>
      <path style="fill: none; stroke-opacity: 1; stroke-width: 0.02; stroke: #494936" d="M 415.974 122.694 L 446.623,122.694 L 446.623,102.784 L 415.974,102.784 L 415.974,122.694"/>
      <path style="fill: #93936c; fill-opacity: 1; stroke: none" fill-rule="evenodd" d="M 415.974 125.297 L 444.568,125.297 L 437.14,132.746 L 408.546,132.746 L 415.974,125.297z"/>
      <path style="fill: none; stroke-opacity: 1; stroke-width: 0.02; stroke: #494936" d="M 415.974 125.297 L 444.568,125.297 L 437.14,132.746 L 408.546,132.746 L 415.974,125.297"/>
      <path style="fill: #7a7a5a; fill-opacity: 1; stroke: none" fill-rule="evenodd" d="M 420.423 135.62 L 420.423,135.578 L 420.417,135.536 L 420.41,135.495 L 420.389,135.446 L 420.382,135.404 L 420.354,135.37 L 420.34,135.328 L 420.305,135.3 L 420.271,135.259 L 420.25,135.217 L 420.215,135.182 L 420.174,135.148 L 420.132,135.106 L 420.083,135.071 L 420.042,135.05 L 419.993,135.016 L 419.938,134.988 L 419.875,134.967 L 419.826,134.932 L 419.764,134.918 L 419.701,134.891 L 419.646,134.877 L 419.577,134.856 L 419.514,134.842 L 419.438,134.828 L 419.375,134.807 L 419.306,134.8 L 419.243,134.8 L 419.174,134.793 L 419.091,134.793 L 419.035,134.793 L 419.035,134.793 L 418.959,134.793 L 418.882,134.793 L 418.82,134.8 L 418.75,134.8 L 418.688,134.807 L 418.612,134.828 L 418.549,134.842 L 418.48,134.856 L 418.417,134.877 L 418.355,134.891 L 418.299,134.918 L 418.23,134.932 L 418.181,134.967 L 418.126,134.988 L 418.07,135.016 L 418.022,135.05 L 417.98,135.071 L 417.931,135.106 L 417.89,135.148 L 417.855,135.182 L 417.806,135.217 L 417.785,135.259 L 417.744,135.3 L 417.723,135.328 L 417.702,135.37 L 417.681,135.404 L 417.667,135.446 L 417.661,135.495 L 417.647,135.536 L 417.633,135.578 L 417.633,135.62 L 417.633,135.62 L 417.633,135.668 L 417.647,135.71 L 417.661,135.751 L 417.667,135.793 L 417.681,135.835 L 417.702,135.869 L 417.723,135.918 L 417.744,135.953 L 417.785,135.994 L 417.806,136.022 L 417.855,136.064 L 417.89,136.099 L 417.931,136.14 L 417.98,136.168 L 418.022,136.196 L 418.07,136.23 L 418.126,136.258 L 418.181,136.279 L 418.23,136.314 L 418.299,136.328 L 418.355,136.355 L 418.417,136.369 L 418.48,136.39 L 418.549,136.404 L 418.612,136.418 L 418.688,136.432 L 418.75,136.446 L 418.82,136.446 L 418.882,136.446 L 418.959,136.453 L 419.035,136.453 L 419.035,136.453 L 419.091,136.453 L 419.174,136.446 L 419.243,136.446 L 419.306,136.446 L 419.375,136.432 L 419.438,136.418 L 419.514,136.404 L 419.577,136.39 L 419.646,136.369 L 419.701,136.355 L 419.764,136.328 L 419.826,136.314 L 419.875,136.279 L 419.938,136.258 L 419.993,136.23 L 420.042,136.196 L 420.083,136.168 L 420.132,136.14 L 420.174,136.099 L 420.215,136.064 L 420.25,136.022 L 420.271,135.994 L 420.305,135.953 L 420.34,135.918 L 420.354,135.869 L 420.382,135.835 L 420.389,135.793 L 420.41,135.751 L 420.417,135.71 L 420.423,135.668 L 420.423,135.62z"/>
      <path style="fill: none; stroke-opacity: 1; stroke-width: 0.02; stroke: #dbdbce" d="M 420.243 135.536 L 420.243,135.495 L 420.236,135.453 L 420.236,135.418 L 420.215,135.39 L 420.201,135.335 L 420.194,135.314 L 420.16,135.272 L 420.132,135.231 L 420.111,135.203 L 420.083,135.175 L 420.042,135.148 L 420.007,135.099 L 419.965,135.071 L 419.924,135.05 L 419.889,135.016 L 419.833,134.988 L 419.792,134.974 L 419.743,134.939 L 419.695,134.925 L 419.632,134.898 L 419.577,134.884 L 419.514,134.87 L 419.459,134.849 L 419.396,134.835 L 419.334,134.828 L 419.264,134.807 L 419.209,134.8 L 419.132,134.793 L 419.077,134.793 L 419.007,134.793 L 418.945,134.793 L 418.945,134.793 L 418.875,134.793 L 418.813,134.793 L 418.743,134.793 L 418.688,134.8 L 418.619,134.807 L 418.563,134.828 L 418.487,134.835 L 418.431,134.849 L 418.383,134.87 L 418.313,134.884 L 418.258,134.898 L 418.188,134.925 L 418.153,134.939 L 418.091,134.974 L 418.049,134.988 L 418.001,135.016 L 417.959,135.05 L 417.917,135.071 L 417.876,135.099 L 417.841,135.148 L 417.806,135.175 L 417.779,135.203 L 417.744,135.231 L 417.73,135.272 L 417.702,135.314 L 417.688,135.335 L 417.674,135.39 L 417.661,135.418 L 417.654,135.453 L 417.647,135.495 L 417.647,135.536 L 417.647,135.536 L 417.647,135.571 L 417.654,135.613 L 417.661,135.654 L 417.674,135.675 L 417.688,135.717 L 417.702,135.758 L 417.73,135.793 L 417.744,135.828 L 417.779,135.869 L 417.806,135.89 L 417.841,135.925 L 417.876,135.96 L 417.917,135.994 L 417.959,136.015 L 418.001,136.05 L 418.049,136.071 L 418.091,136.099 L 418.153,136.126 L 418.188,136.14 L 418.258,136.168 L 418.313,136.189 L 418.383,136.196 L 418.431,136.217 L 418.487,136.23 L 418.563,136.237 L 418.619,136.258 L 418.688,136.272 L 418.743,136.272 L 418.813,136.272 L 418.875,136.272 L 418.945,136.272 L 418.945,136.272 L 419.007,136.272 L 419.077,136.272 L 419.132,136.272 L 419.209,136.272 L 419.264,136.258 L 419.334,136.237 L 419.396,136.23 L 419.459,136.217 L 419.514,136.196 L 419.577,136.189 L 419.632,136.168 L 419.695,136.14 L 419.743,136.126 L 419.792,136.099 L 419.833,136.071 L 419.889,136.05 L 419.924,136.015 L 419.965,135.994 L 420.007,135.96 L 420.042,135.925 L 420.083,135.89 L 420.111,135.869 L 420.132,135.828 L 420.16,135.793 L 420.194,135.758 L 420.201,135.717 L 420.215,135.675 L 420.236,135.654 L 420.236,135.613 L 420.243,135.571 L 420.243,135.536"/>
      <path style="fill: none; stroke-opacity: 1; stroke-width: 0.02; stroke: #626248" d="M 415.793 136.272 L 415.793,136.355 L 415.807,136.418 L 415.835,136.494 L 415.856,136.578 L 415.897,136.647 L 415.939,136.709 L 416.001,136.786 L 416.064,136.862 L 416.133,136.925 L 416.203,136.994 L 416.293,137.057 L 416.376,137.126 L 416.487,137.182 L 416.591,137.237 L 416.703,137.286 L 416.821,137.348 L 416.952,137.397 L 417.07,137.445 L 417.223,137.487 L 417.362,137.529 L 417.508,137.577 L 417.654,137.612 L 417.806,137.633 L 417.959,137.661 L 418.126,137.688 L 418.285,137.702 L 418.445,137.73 L 418.612,137.744 L 418.785,137.751 L 418.952,137.751 L 419.118,137.751"/>
      <path style="fill: none; stroke-opacity: 1; stroke-width: 0.02; stroke: #626248" d="M 418.743 137.751 L 418.917,137.751 L 419.077,137.751 L 419.25,137.737 L 419.403,137.716 L 419.563,137.702 L 419.729,137.688 L 419.875,137.661 L 420.035,137.626 L 420.174,137.591 L 420.326,137.563 L 420.472,137.522 L 420.604,137.48 L 420.736,137.431 L 420.861,137.369 L 420.986,137.32 L 421.09,137.265 L 421.201,137.209 L 421.298,137.14 L 421.388,137.084 L 421.479,137.008 L 421.555,136.952 L 421.631,136.883 L 421.694,136.8 L 421.736,136.723 L 421.798,136.661 L 421.826,136.578 L 421.86,136.501 L 421.888,136.418 L 421.888,136.355 L 421.902,136.272"/>
      <path style="fill: none; stroke-opacity: 1; stroke-width: 0.02; stroke: #626248" d="M 419.486 133.488 L 419.327,133.488 L 419.16,133.495 L 418.993,133.495 L 418.827,133.509 L 418.653,133.53 L 418.487,133.537 L 418.341,133.565 L 418.174,133.586 L 418.022,133.627 L 417.876,133.641 L 417.73,133.683 L 417.591,133.711 L 417.452,133.759 L 417.327,133.801 L 417.202,133.842 L 417.07,133.884 L 416.966,133.933 L 416.855,133.981 L 416.758,134.044 L 416.668,134.099 L 416.585,134.148 L 416.501,134.217 L 416.418,134.266 L 416.369,134.321 L 416.314,134.398 L 416.265,134.453 L 416.224,134.523 L 416.196,134.578 L 416.175,134.641 L 416.168,134.717 L 416.161,134.787"/>
      <path style="fill: none; stroke-opacity: 1; stroke-width: 0.02; stroke: #626248" d="M 422.277 134.787 L 422.263,134.71 L 422.256,134.641 L 422.242,134.578 L 422.208,134.509 L 422.166,134.446 L 422.117,134.377 L 422.062,134.321 L 421.999,134.259 L 421.93,134.19 L 421.847,134.134 L 421.763,134.072 L 421.673,134.016 L 421.562,133.967 L 421.465,133.919 L 421.347,133.87 L 421.236,133.815 L 421.111,133.773 L 420.979,133.738 L 420.833,133.697 L 420.694,133.669 L 420.555,133.627 L 420.41,133.599 L 420.257,133.572 L 420.09,133.544 L 419.944,133.53 L 419.785,133.509 L 419.618,133.495 L 419.445,133.495 L 419.292,133.488 L 419.118,133.488"/>
      <path style="fill: #7a7a5a; fill-opacity: 1; stroke: none" fill-rule="evenodd" d="M 448.289 125.477 L 433.995,139.82 L 433.995,138.514 L 448.289,124.172 L 448.289,125.477z"/>
      <path style="fill: none; stroke-opacity: 1; stroke-width: 0.02; stroke: #494936" d="M 448.289 125.477 L 433.995,139.82 L 433.995,138.514 L 448.289,124.172 L 448.289,125.477"/>
      <path style="fill: #7a7a5a; fill-opacity: 1; stroke: none" fill-rule="evenodd" d="M 443.464 123.075 L 443.464,123.429 L 446.248,123.429 L 446.248,123.075 L 443.464,123.075z"/>
      <path style="fill: none; stroke-opacity: 1; stroke-width: 0.02; stroke: #494936" d="M 443.464 123.075 L 443.464,123.429 L 446.248,123.429 L 446.248,123.075 L 443.464,123.075"/>
      <path style="fill: none; stroke-opacity: 1; stroke-width: 0.02; stroke: #000000" d="M 442.7 127.157 L 414.294,127.157"/>
      <path style="fill: none; stroke-opacity: 1; stroke-width: 0.02; stroke: #000000" d="M 440.854 129.025 L 412.447,129.025"/>
      <path style="fill: none; stroke-opacity: 1; stroke-width: 0.02; stroke: #000000" d="M 439 130.885 L 410.587,130.885"/>
      <path style="fill: #c9c9b6; fill-opacity: 1; stroke: none" fill-rule="evenodd" d="M 415.224 100 L 449.219,100 L 448.289,100.916 L 414.294,100.916 L 415.224,100z"/>
      <path style="fill: none; stroke-opacity: 1; stroke-width: 0.02; stroke: #494936" d="M 415.224 100 L 449.219,100 L 448.289,100.916 L 414.294,100.916 L 415.224,100"/>
    </g>
    <line style="fill: none; stroke-opacity: 1; stroke-width: 2; stroke: #000000" x1="189.223" y1="119.228" x2="261.228" y2="118.713"/>
    <line style="fill: none; stroke-opacity: 1; stroke-width: 2; stroke: #000000" x1="345.7" y1="118.723" x2="414.33" y2="119.237"/>
    <line style="fill: none; stroke-opacity: 1; stroke-width: 2; stroke: #000000" x1="290.479" y1="136.795" x2="244.755" y2="200.013"/>
    <text font-size="16.9785" style="fill: #0000ff; fill-opacity: 1; stroke: none;text-anchor:start;font-family:sans-serif;font-style:normal;font-weight:normal" x="380" y="160">
      <tspan x="380" y="160">Listener</tspan>
    </text>
    <text font-size="16.9785" style="fill: #0000ff; fill-opacity: 1; stroke: none;text-anchor:start;font-family:sans-serif;font-style:normal;font-weight:normal" x="280" y="80">
      <tspan x="280" y="80">Switch</tspan>
    </text>
    <g>
      <path style="fill: #c9c9b6; fill-opacity: 1; stroke: none" fill-rule="evenodd" d="M 214.294 224.172 L 248.289,224.172 L 233.995,238.514 L 200,238.514 L 214.294,224.172z"/>
      <path style="fill: none; stroke-opacity: 1; stroke-width: 0.02; stroke: #494936" d="M 214.294 224.172 L 248.289,224.172 L 233.995,238.514 L 200,238.514 L 214.294,224.172"/>
      <path style="fill: none; stroke-opacity: 1; stroke-width: 0.02; stroke: #dbdbce" d="M 215.599 236.092 L 215.599,236.168 L 215.613,236.23 L 215.633,236.314 L 215.661,236.397 L 215.703,236.46 L 215.751,236.536 L 215.814,236.605 L 215.876,236.668 L 215.939,236.744 L 216.022,236.821 L 216.106,236.883 L 216.196,236.939 L 216.3,236.994 L 216.397,237.057 L 216.522,237.105 L 216.633,237.168 L 216.758,237.216 L 216.897,237.265 L 217.036,237.306 L 217.168,237.348 L 217.313,237.39 L 217.459,237.431 L 217.612,237.452 L 217.779,237.48 L 217.938,237.494 L 218.105,237.522 L 218.258,237.543 L 218.431,237.563 L 218.605,237.57 L 218.771,237.577 L 218.938,237.577"/>
      <path style="fill: none; stroke-opacity: 1; stroke-width: 0.02; stroke: #dbdbce" d="M 218.57 237.577 L 218.737,237.577 L 218.896,237.57 L 219.056,237.556 L 219.222,237.536 L 219.389,237.522 L 219.542,237.494 L 219.695,237.48 L 219.854,237.445 L 220,237.411 L 220.153,237.369 L 220.285,237.327 L 220.423,237.286 L 220.555,237.237 L 220.68,237.188 L 220.791,237.14 L 220.909,237.084 L 221.02,237.022 L 221.118,236.966 L 221.215,236.897 L 221.298,236.827 L 221.375,236.758 L 221.437,236.696 L 221.506,236.619 L 221.562,236.543 L 221.604,236.48 L 221.652,236.404 L 221.673,236.314 L 221.694,236.237 L 221.715,236.168 L 221.722,236.092"/>
      <path style="fill: none; stroke-opacity: 1; stroke-width: 0.02; stroke: #dbdbce" d="M 219.306 233.308 L 219.132,233.308 L 218.966,233.315 L 218.792,233.315 L 218.639,233.329 L 218.473,233.35 L 218.306,233.363 L 218.146,233.377 L 217.98,233.412 L 217.834,233.44 L 217.688,233.461 L 217.543,233.495 L 217.397,233.537 L 217.265,233.572 L 217.14,233.613 L 217.015,233.669 L 216.876,233.711 L 216.779,233.759 L 216.668,233.801 L 216.564,233.856 L 216.48,233.919 L 216.39,233.974 L 216.314,234.023 L 216.237,234.085 L 216.182,234.148 L 216.126,234.217 L 216.071,234.28 L 216.043,234.335 L 216.008,234.405 L 215.988,234.46 L 215.981,234.537 L 215.974,234.592"/>
      <path style="fill: none; stroke-opacity: 1; stroke-width: 0.02; stroke: #dbdbce" d="M 222.083 234.592 L 222.083,234.53 L 222.076,234.46 L 222.048,234.398 L 222.02,234.321 L 221.985,234.266 L 221.93,234.19 L 221.874,234.134 L 221.819,234.065 L 221.736,234.016 L 221.673,233.947 L 221.59,233.891 L 221.479,233.842 L 221.388,233.773 L 221.284,233.738 L 221.173,233.683 L 221.048,233.627 L 220.916,233.586 L 220.784,233.544 L 220.653,233.509 L 220.514,233.481 L 220.368,233.447 L 220.215,233.412 L 220.069,233.391 L 219.917,233.363 L 219.764,233.35 L 219.604,233.329 L 219.438,233.315 L 219.264,233.315 L 219.098,233.308 L 218.938,233.308"/>
      <path style="fill: #a5a585; fill-opacity: 1; stroke: none" fill-rule="evenodd" d="M 200 240 L 233.995,240 L 233.995,238.514 L 200,238.514 L 200,240z"/>
      <path style="fill: none; stroke-opacity: 1; stroke-width: 0.02; stroke: #494936" d="M 200 240 L 233.995,240 L 233.995,238.514 L 200,238.514 L 200,240"/>
      <path style="fill: #a5a585; fill-opacity: 1; stroke: none" fill-rule="evenodd" d="M 214.294 224.172 L 248.289,224.172 L 248.289,200.916 L 214.294,200.916 L 214.294,224.172z"/>
      <path style="fill: none; stroke-opacity: 1; stroke-width: 0.02; stroke: #494936" d="M 214.294 224.172 L 248.289,224.172 L 248.289,200.916 L 214.294,200.916 L 214.294,224.172"/>
      <path style="fill: #7a7a5a; fill-opacity: 1; stroke: none" fill-rule="evenodd" d="M 249.219 223.256 L 249.219,200 L 248.289,200.916 L 248.289,224.172 L 249.219,223.256z"/>
      <path style="fill: none; stroke-opacity: 1; stroke-width: 0.02; stroke: #494936" d="M 249.219 223.256 L 249.219,200 L 248.289,200.916 L 248.289,224.172 L 249.219,223.256"/>
      <path style="fill: #ffffff; fill-opacity: 1; stroke: none" fill-rule="evenodd" d="M 215.974 222.694 L 246.623,222.694 L 246.623,202.784 L 215.974,202.784 L 215.974,222.694z"/>
      <path style="fill: none; stroke-opacity: 1; stroke-width: 0.02; stroke: #494936" d="M 215.974 222.694 L 246.623,222.694 L 246.623,202.784 L 215.974,202.784 L 215.974,222.694"/>
      <path style="fill: #93936c; fill-opacity: 1; stroke: none" fill-rule="evenodd" d="M 215.974 225.297 L 244.568,225.297 L 237.14,232.746 L 208.546,232.746 L 215.974,225.297z"/>
      <path style="fill: none; stroke-opacity: 1; stroke-width: 0.02; stroke: #494936" d="M 215.974 225.297 L 244.568,225.297 L 237.14,232.746 L 208.546,232.746 L 215.974,225.297"/>
      <path style="fill: #7a7a5a; fill-opacity: 1; stroke: none" fill-rule="evenodd" d="M 220.423 235.62 L 220.423,235.578 L 220.417,235.536 L 220.41,235.495 L 220.389,235.446 L 220.382,235.404 L 220.354,235.37 L 220.34,235.328 L 220.305,235.3 L 220.271,235.259 L 220.25,235.217 L 220.215,235.182 L 220.174,235.148 L 220.132,235.106 L 220.083,235.071 L 220.042,235.05 L 219.993,235.016 L 219.938,234.988 L 219.875,234.967 L 219.826,234.932 L 219.764,234.918 L 219.701,234.891 L 219.646,234.877 L 219.577,234.856 L 219.514,234.842 L 219.438,234.828 L 219.375,234.807 L 219.306,234.8 L 219.243,234.8 L 219.174,234.793 L 219.091,234.793 L 219.035,234.793 L 219.035,234.793 L 218.959,234.793 L 218.882,234.793 L 218.82,234.8 L 218.75,234.8 L 218.688,234.807 L 218.612,234.828 L 218.549,234.842 L 218.48,234.856 L 218.417,234.877 L 218.355,234.891 L 218.299,234.918 L 218.23,234.932 L 218.181,234.967 L 218.126,234.988 L 218.07,235.016 L 218.022,235.05 L 217.98,235.071 L 217.931,235.106 L 217.89,235.148 L 217.855,235.182 L 217.806,235.217 L 217.785,235.259 L 217.744,235.3 L 217.723,235.328 L 217.702,235.37 L 217.681,235.404 L 217.667,235.446 L 217.661,235.495 L 217.647,235.536 L 217.633,235.578 L 217.633,235.62 L 217.633,235.62 L 217.633,235.668 L 217.647,235.71 L 217.661,235.751 L 217.667,235.793 L 217.681,235.835 L 217.702,235.869 L 217.723,235.918 L 217.744,235.953 L 217.785,235.994 L 217.806,236.022 L 217.855,236.064 L 217.89,236.099 L 217.931,236.14 L 217.98,236.168 L 218.022,236.196 L 218.07,236.23 L 218.126,236.258 L 218.181,236.279 L 218.23,236.314 L 218.299,236.328 L 218.355,236.355 L 218.417,236.369 L 218.48,236.39 L 218.549,236.404 L 218.612,236.418 L 218.688,236.432 L 218.75,236.446 L 218.82,236.446 L 218.882,236.446 L 218.959,236.453 L 219.035,236.453 L 219.035,236.453 L 219.091,236.453 L 219.174,236.446 L 219.243,236.446 L 219.306,236.446 L 219.375,236.432 L 219.438,236.418 L 219.514,236.404 L 219.577,236.39 L 219.646,236.369 L 219.701,236.355 L 219.764,236.328 L 219.826,236.314 L 219.875,236.279 L 219.938,236.258 L 219.993,236.23 L 220.042,236.196 L 220.083,236.168 L 220.132,236.14 L 220.174,236.099 L 220.215,236.064 L 220.25,236.022 L 220.271,235.994 L 220.305,235.953 L 220.34,235.918 L 220.354,235.869 L 220.382,235.835 L 220.389,235.793 L 220.41,235.751 L 220.417,235.71 L 220.423,235.668 L 220.423,235.62z"/>
      <path style="fill: none; stroke-opacity: 1; stroke-width: 0.02; stroke: #dbdbce" d="M 220.243 235.536 L 220.243,235.495 L 220.236,235.453 L 220.236,235.418 L 220.215,235.39 L 220.201,235.335 L 220.194,235.314 L 220.16,235.272 L 220.132,235.231 L 220.111,235.203 L 220.083,235.175 L 220.042,235.148 L 220.007,235.099 L 219.965,235.071 L 219.924,235.05 L 219.889,235.016 L 219.833,234.988 L 219.792,234.974 L 219.743,234.939 L 219.695,234.925 L 219.632,234.898 L 219.577,234.884 L 219.514,234.87 L 219.459,234.849 L 219.396,234.835 L 219.334,234.828 L 219.264,234.807 L 219.209,234.8 L 219.132,234.793 L 219.077,234.793 L 219.007,234.793 L 218.945,234.793 L 218.945,234.793 L 218.875,234.793 L 218.813,234.793 L 218.743,234.793 L 218.688,234.8 L 218.619,234.807 L 218.563,234.828 L 218.487,234.835 L 218.431,234.849 L 218.383,234.87 L 218.313,234.884 L 218.258,234.898 L 218.188,234.925 L 218.153,234.939 L 218.091,234.974 L 218.049,234.988 L 218.001,235.016 L 217.959,235.05 L 217.917,235.071 L 217.876,235.099 L 217.841,235.148 L 217.806,235.175 L 217.779,235.203 L 217.744,235.231 L 217.73,235.272 L 217.702,235.314 L 217.688,235.335 L 217.674,235.39 L 217.661,235.418 L 217.654,235.453 L 217.647,235.495 L 217.647,235.536 L 217.647,235.536 L 217.647,235.571 L 217.654,235.613 L 217.661,235.654 L 217.674,235.675 L 217.688,235.717 L 217.702,235.758 L 217.73,235.793 L 217.744,235.828 L 217.779,235.869 L 217.806,235.89 L 217.841,235.925 L 217.876,235.96 L 217.917,235.994 L 217.959,236.015 L 218.001,236.05 L 218.049,236.071 L 218.091,236.099 L 218.153,236.126 L 218.188,236.14 L 218.258,236.168 L 218.313,236.189 L 218.383,236.196 L 218.431,236.217 L 218.487,236.23 L 218.563,236.237 L 218.619,236.258 L 218.688,236.272 L 218.743,236.272 L 218.813,236.272 L 218.875,236.272 L 218.945,236.272 L 218.945,236.272 L 219.007,236.272 L 219.077,236.272 L 219.132,236.272 L 219.209,236.272 L 219.264,236.258 L 219.334,236.237 L 219.396,236.23 L 219.459,236.217 L 219.514,236.196 L 219.577,236.189 L 219.632,236.168 L 219.695,236.14 L 219.743,236.126 L 219.792,236.099 L 219.833,236.071 L 219.889,236.05 L 219.924,236.015 L 219.965,235.994 L 220.007,235.96 L 220.042,235.925 L 220.083,235.89 L 220.111,235.869 L 220.132,235.828 L 220.16,235.793 L 220.194,235.758 L 220.201,235.717 L 220.215,235.675 L 220.236,235.654 L 220.236,235.613 L 220.243,235.571 L 220.243,235.536"/>
      <path style="fill: none; stroke-opacity: 1; stroke-width: 0.02; stroke: #626248" d="M 215.793 236.272 L 215.793,236.355 L 215.807,236.418 L 215.835,236.494 L 215.856,236.578 L 215.897,236.647 L 215.939,236.709 L 216.001,236.786 L 216.064,236.862 L 216.133,236.925 L 216.203,236.994 L 216.293,237.057 L 216.376,237.126 L 216.487,237.182 L 216.591,237.237 L 216.703,237.286 L 216.821,237.348 L 216.952,237.397 L 217.07,237.445 L 217.223,237.487 L 217.362,237.529 L 217.508,237.577 L 217.654,237.612 L 217.806,237.633 L 217.959,237.661 L 218.126,237.688 L 218.285,237.702 L 218.445,237.73 L 218.612,237.744 L 218.785,237.751 L 218.952,237.751 L 219.118,237.751"/>
      <path style="fill: none; stroke-opacity: 1; stroke-width: 0.02; stroke: #626248" d="M 218.743 237.751 L 218.917,237.751 L 219.077,237.751 L 219.25,237.737 L 219.403,237.716 L 219.563,237.702 L 219.729,237.688 L 219.875,237.661 L 220.035,237.626 L 220.174,237.591 L 220.326,237.563 L 220.472,237.522 L 220.604,237.48 L 220.736,237.431 L 220.861,237.369 L 220.986,237.32 L 221.09,237.265 L 221.201,237.209 L 221.298,237.14 L 221.388,237.084 L 221.479,237.008 L 221.555,236.952 L 221.631,236.883 L 221.694,236.8 L 221.736,236.723 L 221.798,236.661 L 221.826,236.578 L 221.86,236.501 L 221.888,236.418 L 221.888,236.355 L 221.902,236.272"/>
      <path style="fill: none; stroke-opacity: 1; stroke-width: 0.02; stroke: #626248" d="M 219.486 233.488 L 219.327,233.488 L 219.16,233.495 L 218.993,233.495 L 218.827,233.509 L 218.653,233.53 L 218.487,233.537 L 218.341,233.565 L 218.174,233.586 L 218.022,233.627 L 217.876,233.641 L 217.73,233.683 L 217.591,233.711 L 217.452,233.759 L 217.327,233.801 L 217.202,233.842 L 217.07,233.884 L 216.966,233.933 L 216.855,233.981 L 216.758,234.044 L 216.668,234.099 L 216.585,234.148 L 216.501,234.217 L 216.418,234.266 L 216.369,234.321 L 216.314,234.398 L 216.265,234.453 L 216.224,234.523 L 216.196,234.578 L 216.175,234.641 L 216.168,234.717 L 216.161,234.787"/>
      <path style="fill: none; stroke-opacity: 1; stroke-width: 0.02; stroke: #626248" d="M 222.277 234.787 L 222.263,234.71 L 222.256,234.641 L 222.242,234.578 L 222.208,234.509 L 222.166,234.446 L 222.117,234.377 L 222.062,234.321 L 221.999,234.259 L 221.93,234.19 L 221.847,234.134 L 221.763,234.072 L 221.673,234.016 L 221.562,233.967 L 221.465,233.919 L 221.347,233.87 L 221.236,233.815 L 221.111,233.773 L 220.979,233.738 L 220.833,233.697 L 220.694,233.669 L 220.555,233.627 L 220.41,233.599 L 220.257,233.572 L 220.09,233.544 L 219.944,233.53 L 219.785,233.509 L 219.618,233.495 L 219.445,233.495 L 219.292,233.488 L 219.118,233.488"/>
      <path style="fill: #7a7a5a; fill-opacity: 1; stroke: none" fill-rule="evenodd" d="M 248.289 225.477 L 233.995,239.82 L 233.995,238.514 L 248.289,224.172 L 248.289,225.477z"/>
      <path style="fill: none; stroke-opacity: 1; stroke-width: 0.02; stroke: #494936" d="M 248.289 225.477 L 233.995,239.82 L 233.995,238.514 L 248.289,224.172 L 248.289,225.477"/>
      <path style="fill: #7a7a5a; fill-opacity: 1; stroke: none" fill-rule="evenodd" d="M 243.464 223.075 L 243.464,223.429 L 246.248,223.429 L 246.248,223.075 L 243.464,223.075z"/>
      <path style="fill: none; stroke-opacity: 1; stroke-width: 0.02; stroke: #494936" d="M 243.464 223.075 L 243.464,223.429 L 246.248,223.429 L 246.248,223.075 L 243.464,223.075"/>
      <path style="fill: none; stroke-opacity: 1; stroke-width: 0.02; stroke: #000000" d="M 242.7 227.157 L 214.294,227.157"/>
      <path style="fill: none; stroke-opacity: 1; stroke-width: 0.02; stroke: #000000" d="M 240.854 229.025 L 212.447,229.025"/>
      <path style="fill: none; stroke-opacity: 1; stroke-width: 0.02; stroke: #000000" d="M 239 230.885 L 210.587,230.885"/>
      <path style="fill: #c9c9b6; fill-opacity: 1; stroke: none" fill-rule="evenodd" d="M 215.224 200 L 249.219,200 L 248.289,200.916 L 214.294,200.916 L 215.224,200z"/>
      <path style="fill: none; stroke-opacity: 1; stroke-width: 0.02; stroke: #494936" d="M 215.224 200 L 249.219,200 L 248.289,200.916 L 214.294,200.916 L 215.224,200"/>
    </g>
    <g>
      <line style="fill: none; stroke-opacity: 1; stroke-width: 2; stroke-dasharray: 4; stroke: #00ff00" x1="415.224" y1="100" x2="357.306" y2="100"/>
      <polygon style="fill: #00ff00; fill-opacity: 1; stroke-opacity: 1; stroke-width: 2; stroke: #00ff00" fill-rule="evenodd" points="349.806,100 359.806,95 357.306,100 359.806,105 "/>
    </g>
    <g>
      <line style="fill: none; stroke-opacity: 1; stroke-width: 2; stroke-dasharray: 4; stroke: #00ff00" x1="260" y1="136.817" x2="220.853" y2="192.056"/>
      <polygon style="fill: #00ff00; fill-opacity: 1; stroke-opacity: 1; stroke-width: 2; stroke: #00ff00" fill-rule="evenodd" points="216.517,198.176 218.219,187.126 220.853,192.056 226.378,192.908 "/>
    </g>
    <g>
      <line style="fill: none; stroke-opacity: 1; stroke-width: 2; stroke-dasharray: 4; stroke: #00ff00" x1="280.66" y1="100" x2="197.441" y2="100"/>
      <polygon style="fill: #00ff00; fill-opacity: 1; stroke-opacity: 1; stroke-width: 2; stroke: #00ff00" fill-rule="evenodd" points="189.941,100 199.941,95 197.441,100 199.941,105 "/>
    </g>
    <g>
      <path style="fill: #c9c9b6; fill-opacity: 1; stroke: none" fill-rule="evenodd" d="M 154.294 124.172 L 188.289,124.172 L 173.995,138.514 L 140,138.514 L 154.294,124.172z"/>
      <path style="fill: none; stroke-opacity: 1; stroke-width: 0.02; stroke: #494936" d="M 154.294 124.172 L 188.289,124.172 L 173.995,138.514 L 140,138.514 L 154.294,124.172"/>
      <path style="fill: none; stroke-opacity: 1; stroke-width: 0.02; stroke: #dbdbce" d="M 155.599 136.092 L 155.599,136.168 L 155.613,136.23 L 155.633,136.314 L 155.661,136.397 L 155.703,136.46 L 155.751,136.536 L 155.814,136.605 L 155.876,136.668 L 155.939,136.744 L 156.022,136.821 L 156.106,136.883 L 156.196,136.939 L 156.3,136.994 L 156.397,137.057 L 156.522,137.105 L 156.633,137.168 L 156.758,137.216 L 156.897,137.265 L 157.036,137.306 L 157.168,137.348 L 157.313,137.39 L 157.459,137.431 L 157.612,137.452 L 157.779,137.48 L 157.938,137.494 L 158.105,137.522 L 158.258,137.543 L 158.431,137.563 L 158.605,137.57 L 158.771,137.577 L 158.938,137.577"/>
      <path style="fill: none; stroke-opacity: 1; stroke-width: 0.02; stroke: #dbdbce" d="M 158.57 137.577 L 158.737,137.577 L 158.896,137.57 L 159.056,137.556 L 159.222,137.536 L 159.389,137.522 L 159.542,137.494 L 159.695,137.48 L 159.854,137.445 L 160,137.411 L 160.153,137.369 L 160.285,137.327 L 160.423,137.286 L 160.555,137.237 L 160.68,137.188 L 160.791,137.14 L 160.909,137.084 L 161.02,137.022 L 161.118,136.966 L 161.215,136.897 L 161.298,136.827 L 161.375,136.758 L 161.437,136.696 L 161.506,136.619 L 161.562,136.543 L 161.604,136.48 L 161.652,136.404 L 161.673,136.314 L 161.694,136.237 L 161.715,136.168 L 161.722,136.092"/>
      <path style="fill: none; stroke-opacity: 1; stroke-width: 0.02; stroke: #dbdbce" d="M 159.306 133.308 L 159.132,133.308 L 158.966,133.315 L 158.792,133.315 L 158.639,133.329 L 158.473,133.35 L 158.306,133.363 L 158.146,133.377 L 157.98,133.412 L 157.834,133.44 L 157.688,133.461 L 157.543,133.495 L 157.397,133.537 L 157.265,133.572 L 157.14,133.613 L 157.015,133.669 L 156.876,133.711 L 156.779,133.759 L 156.668,133.801 L 156.564,133.856 L 156.48,133.919 L 156.39,133.974 L 156.314,134.023 L 156.237,134.085 L 156.182,134.148 L 156.126,134.217 L 156.071,134.28 L 156.043,134.335 L 156.008,134.405 L 155.988,134.46 L 155.981,134.537 L 155.974,134.592"/>
      <path style="fill: none; stroke-opacity: 1; stroke-width: 0.02; stroke: #dbdbce" d="M 162.083 134.592 L 162.083,134.53 L 162.076,134.46 L 162.048,134.398 L 162.02,134.321 L 161.985,134.266 L 161.93,134.19 L 161.874,134.134 L 161.819,134.065 L 161.736,134.016 L 161.673,133.947 L 161.59,133.891 L 161.479,133.842 L 161.388,133.773 L 161.284,133.738 L 161.173,133.683 L 161.048,133.627 L 160.916,133.586 L 160.784,133.544 L 160.653,133.509 L 160.514,133.481 L 160.368,133.447 L 160.215,133.412 L 160.069,133.391 L 159.917,133.363 L 159.764,133.35 L 159.604,133.329 L 159.438,133.315 L 159.264,133.315 L 159.098,133.308 L 158.938,133.308"/>
      <path style="fill: #a5a585; fill-opacity: 1; stroke: none" fill-rule="evenodd" d="M 140 140 L 173.995,140 L 173.995,138.514 L 140,138.514 L 140,140z"/>
      <path style="fill: none; stroke-opacity: 1; stroke-width: 0.02; stroke: #494936" d="M 140 140 L 173.995,140 L 173.995,138.514 L 140,138.514 L 140,140"/>
      <path style="fill: #a5a585; fill-opacity: 1; stroke: none" fill-rule="evenodd" d="M 154.294 124.172 L 188.289,124.172 L 188.289,100.916 L 154.294,100.916 L 154.294,124.172z"/>
      <path style="fill: none; stroke-opacity: 1; stroke-width: 0.02; stroke: #494936" d="M 154.294 124.172 L 188.289,124.172 L 188.289,100.916 L 154.294,100.916 L 154.294,124.172"/>
      <path style="fill: #7a7a5a; fill-opacity: 1; stroke: none" fill-rule="evenodd" d="M 189.219 123.256 L 189.219,100 L 188.289,100.916 L 188.289,124.172 L 189.219,123.256z"/>
      <path style="fill: none; stroke-opacity: 1; stroke-width: 0.02; stroke: #494936" d="M 189.219 123.256 L 189.219,100 L 188.289,100.916 L 188.289,124.172 L 189.219,123.256"/>
      <path style="fill: #ffffff; fill-opacity: 1; stroke: none" fill-rule="evenodd" d="M 155.974 122.694 L 186.623,122.694 L 186.623,102.784 L 155.974,102.784 L 155.974,122.694z"/>
      <path style="fill: none; stroke-opacity: 1; stroke-width: 0.02; stroke: #494936" d="M 155.974 122.694 L 186.623,122.694 L 186.623,102.784 L 155.974,102.784 L 155.974,122.694"/>
      <path style="fill: #93936c; fill-opacity: 1; stroke: none" fill-rule="evenodd" d="M 155.974 125.297 L 184.568,125.297 L 177.14,132.746 L 148.546,132.746 L 155.974,125.297z"/>
      <path style="fill: none; stroke-opacity: 1; stroke-width: 0.02; stroke: #494936" d="M 155.974 125.297 L 184.568,125.297 L 177.14,132.746 L 148.546,132.746 L 155.974,125.297"/>
      <path style="fill: #7a7a5a; fill-opacity: 1; stroke: none" fill-rule="evenodd" d="M 160.423 135.62 L 160.423,135.578 L 160.417,135.536 L 160.41,135.495 L 160.389,135.446 L 160.382,135.404 L 160.354,135.37 L 160.34,135.328 L 160.305,135.3 L 160.271,135.259 L 160.25,135.217 L 160.215,135.182 L 160.174,135.148 L 160.132,135.106 L 160.083,135.071 L 160.042,135.05 L 159.993,135.016 L 159.938,134.988 L 159.875,134.967 L 159.826,134.932 L 159.764,134.918 L 159.701,134.891 L 159.646,134.877 L 159.577,134.856 L 159.514,134.842 L 159.438,134.828 L 159.375,134.807 L 159.306,134.8 L 159.243,134.8 L 159.174,134.793 L 159.091,134.793 L 159.035,134.793 L 159.035,134.793 L 158.959,134.793 L 158.882,134.793 L 158.82,134.8 L 158.75,134.8 L 158.688,134.807 L 158.612,134.828 L 158.549,134.842 L 158.48,134.856 L 158.417,134.877 L 158.355,134.891 L 158.299,134.918 L 158.23,134.932 L 158.181,134.967 L 158.126,134.988 L 158.07,135.016 L 158.022,135.05 L 157.98,135.071 L 157.931,135.106 L 157.89,135.148 L 157.855,135.182 L 157.806,135.217 L 157.785,135.259 L 157.744,135.3 L 157.723,135.328 L 157.702,135.37 L 157.681,135.404 L 157.667,135.446 L 157.661,135.495 L 157.647,135.536 L 157.633,135.578 L 157.633,135.62 L 157.633,135.62 L 157.633,135.668 L 157.647,135.71 L 157.661,135.751 L 157.667,135.793 L 157.681,135.835 L 157.702,135.869 L 157.723,135.918 L 157.744,135.953 L 157.785,135.994 L 157.806,136.022 L 157.855,136.064 L 157.89,136.099 L 157.931,136.14 L 157.98,136.168 L 158.022,136.196 L 158.07,136.23 L 158.126,136.258 L 158.181,136.279 L 158.23,136.314 L 158.299,136.328 L 158.355,136.355 L 158.417,136.369 L 158.48,136.39 L 158.549,136.404 L 158.612,136.418 L 158.688,136.432 L 158.75,136.446 L 158.82,136.446 L 158.882,136.446 L 158.959,136.453 L 159.035,136.453 L 159.035,136.453 L 159.091,136.453 L 159.174,136.446 L 159.243,136.446 L 159.306,136.446 L 159.375,136.432 L 159.438,136.418 L 159.514,136.404 L 159.577,136.39 L 159.646,136.369 L 159.701,136.355 L 159.764,136.328 L 159.826,136.314 L 159.875,136.279 L 159.938,136.258 L 159.993,136.23 L 160.042,136.196 L 160.083,136.168 L 160.132,136.14 L 160.174,136.099 L 160.215,136.064 L 160.25,136.022 L 160.271,135.994 L 160.305,135.953 L 160.34,135.918 L 160.354,135.869 L 160.382,135.835 L 160.389,135.793 L 160.41,135.751 L 160.417,135.71 L 160.423,135.668 L 160.423,135.62z"/>
      <path style="fill: none; stroke-opacity: 1; stroke-width: 0.02; stroke: #dbdbce" d="M 160.243 135.536 L 160.243,135.495 L 160.236,135.453 L 160.236,135.418 L 160.215,135.39 L 160.201,135.335 L 160.194,135.314 L 160.16,135.272 L 160.132,135.231 L 160.111,135.203 L 160.083,135.175 L 160.042,135.148 L 160.007,135.099 L 159.965,135.071 L 159.924,135.05 L 159.889,135.016 L 159.833,134.988 L 159.792,134.974 L 159.743,134.939 L 159.695,134.925 L 159.632,134.898 L 159.577,134.884 L 159.514,134.87 L 159.459,134.849 L 159.396,134.835 L 159.334,134.828 L 159.264,134.807 L 159.209,134.8 L 159.132,134.793 L 159.077,134.793 L 159.007,134.793 L 158.945,134.793 L 158.945,134.793 L 158.875,134.793 L 158.813,134.793 L 158.743,134.793 L 158.688,134.8 L 158.619,134.807 L 158.563,134.828 L 158.487,134.835 L 158.431,134.849 L 158.383,134.87 L 158.313,134.884 L 158.258,134.898 L 158.188,134.925 L 158.153,134.939 L 158.091,134.974 L 158.049,134.988 L 158.001,135.016 L 157.959,135.05 L 157.917,135.071 L 157.876,135.099 L 157.841,135.148 L 157.806,135.175 L 157.779,135.203 L 157.744,135.231 L 157.73,135.272 L 157.702,135.314 L 157.688,135.335 L 157.674,135.39 L 157.661,135.418 L 157.654,135.453 L 157.647,135.495 L 157.647,135.536 L 157.647,135.536 L 157.647,135.571 L 157.654,135.613 L 157.661,135.654 L 157.674,135.675 L 157.688,135.717 L 157.702,135.758 L 157.73,135.793 L 157.744,135.828 L 157.779,135.869 L 157.806,135.89 L 157.841,135.925 L 157.876,135.96 L 157.917,135.994 L 157.959,136.015 L 158.001,136.05 L 158.049,136.071 L 158.091,136.099 L 158.153,136.126 L 158.188,136.14 L 158.258,136.168 L 158.313,136.189 L 158.383,136.196 L 158.431,136.217 L 158.487,136.23 L 158.563,136.237 L 158.619,136.258 L 158.688,136.272 L 158.743,136.272 L 158.813,136.272 L 158.875,136.272 L 158.945,136.272 L 158.945,136.272 L 159.007,136.272 L 159.077,136.272 L 159.132,136.272 L 159.209,136.272 L 159.264,136.258 L 159.334,136.237 L 159.396,136.23 L 159.459,136.217 L 159.514,136.196 L 159.577,136.189 L 159.632,136.168 L 159.695,136.14 L 159.743,136.126 L 159.792,136.099 L 159.833,136.071 L 159.889,136.05 L 159.924,136.015 L 159.965,135.994 L 160.007,135.96 L 160.042,135.925 L 160.083,135.89 L 160.111,135.869 L 160.132,135.828 L 160.16,135.793 L 160.194,135.758 L 160.201,135.717 L 160.215,135.675 L 160.236,135.654 L 160.236,135.613 L 160.243,135.571 L 160.243,135.536"/>
      <path style="fill: none; stroke-opacity: 1; stroke-width: 0.02; stroke: #626248" d="M 155.793 136.272 L 155.793,136.355 L 155.807,136.418 L 155.835,136.494 L 155.856,136.578 L 155.897,136.647 L 155.939,136.709 L 156.001,136.786 L 156.064,136.862 L 156.133,136.925 L 156.203,136.994 L 156.293,137.057 L 156.376,137.126 L 156.487,137.182 L 156.591,137.237 L 156.703,137.286 L 156.821,137.348 L 156.952,137.397 L 157.07,137.445 L 157.223,137.487 L 157.362,137.529 L 157.508,137.577 L 157.654,137.612 L 157.806,137.633 L 157.959,137.661 L 158.126,137.688 L 158.285,137.702 L 158.445,137.73 L 158.612,137.744 L 158.785,137.751 L 158.952,137.751 L 159.118,137.751"/>
      <path style="fill: none; stroke-opacity: 1; stroke-width: 0.02; stroke: #626248" d="M 158.743 137.751 L 158.917,137.751 L 159.077,137.751 L 159.25,137.737 L 159.403,137.716 L 159.563,137.702 L 159.729,137.688 L 159.875,137.661 L 160.035,137.626 L 160.174,137.591 L 160.326,137.563 L 160.472,137.522 L 160.604,137.48 L 160.736,137.431 L 160.861,137.369 L 160.986,137.32 L 161.09,137.265 L 161.201,137.209 L 161.298,137.14 L 161.388,137.084 L 161.479,137.008 L 161.555,136.952 L 161.631,136.883 L 161.694,136.8 L 161.736,136.723 L 161.798,136.661 L 161.826,136.578 L 161.86,136.501 L 161.888,136.418 L 161.888,136.355 L 161.902,136.272"/>
      <path style="fill: none; stroke-opacity: 1; stroke-width: 0.02; stroke: #626248" d="M 159.486 133.488 L 159.327,133.488 L 159.16,133.495 L 158.993,133.495 L 158.827,133.509 L 158.653,133.53 L 158.487,133.537 L 158.341,133.565 L 158.174,133.586 L 158.022,133.627 L 157.876,133.641 L 157.73,133.683 L 157.591,133.711 L 157.452,133.759 L 157.327,133.801 L 157.202,133.842 L 157.07,133.884 L 156.966,133.933 L 156.855,133.981 L 156.758,134.044 L 156.668,134.099 L 156.585,134.148 L 156.501,134.217 L 156.418,134.266 L 156.369,134.321 L 156.314,134.398 L 156.265,134.453 L 156.224,134.523 L 156.196,134.578 L 156.175,134.641 L 156.168,134.717 L 156.161,134.787"/>
      <path style="fill: none; stroke-opacity: 1; stroke-width: 0.02; stroke: #626248" d="M 162.277 134.787 L 162.263,134.71 L 162.256,134.641 L 162.242,134.578 L 162.208,134.509 L 162.166,134.446 L 162.117,134.377 L 162.062,134.321 L 161.999,134.259 L 161.93,134.19 L 161.847,134.134 L 161.763,134.072 L 161.673,134.016 L 161.562,133.967 L 161.465,133.919 L 161.347,133.87 L 161.236,133.815 L 161.111,133.773 L 160.979,133.738 L 160.833,133.697 L 160.694,133.669 L 160.555,133.627 L 160.41,133.599 L 160.257,133.572 L 160.09,133.544 L 159.944,133.53 L 159.785,133.509 L 159.618,133.495 L 159.445,133.495 L 159.292,133.488 L 159.118,133.488"/>
      <path style="fill: #7a7a5a; fill-opacity: 1; stroke: none" fill-rule="evenodd" d="M 188.289 125.477 L 173.995,139.82 L 173.995,138.514 L 188.289,124.172 L 188.289,125.477z"/>
      <path style="fill: none; stroke-opacity: 1; stroke-width: 0.02; stroke: #494936" d="M 188.289 125.477 L 173.995,139.82 L 173.995,138.514 L 188.289,124.172 L 188.289,125.477"/>
      <path style="fill: #7a7a5a; fill-opacity: 1; stroke: none" fill-rule="evenodd" d="M 183.464 123.075 L 183.464,123.429 L 186.248,123.429 L 186.248,123.075 L 183.464,123.075z"/>
      <path style="fill: none; stroke-opacity: 1; stroke-width: 0.02; stroke: #494936" d="M 183.464 123.075 L 183.464,123.429 L 186.248,123.429 L 186.248,123.075 L 183.464,123.075"/>
      <path style="fill: none; stroke-opacity: 1; stroke-width: 0.02; stroke: #000000" d="M 182.7 127.157 L 154.294,127.157"/>
      <path style="fill: none; stroke-opacity: 1; stroke-width: 0.02; stroke: #000000" d="M 180.854 129.025 L 152.447,129.025"/>
      <path style="fill: none; stroke-opacity: 1; stroke-width: 0.02; stroke: #000000" d="M 179 130.885 L 150.587,130.885"/>
      <path style="fill: #c9c9b6; fill-opacity: 1; stroke: none" fill-rule="evenodd" d="M 155.224 100 L 189.219,100 L 188.289,100.916 L 154.294,100.916 L 155.224,100z"/>
      <path style="fill: none; stroke-opacity: 1; stroke-width: 0.02; stroke: #494936" d="M 155.224 100 L 189.219,100 L 188.289,100.916 L 154.294,100.916 L 155.224,100"/>
    </g>
    <text font-size="16.9785" style="fill: #0000ff; fill-opacity: 1; stroke: none;text-anchor:start;font-family:sans-serif;font-style:normal;font-weight:normal" x="180" y="260">
      <tspan x="180" y="260">Listener</tspan>
    </text>
    <text font-size="16.9785" style="fill: #ff0000; fill-opacity: 1; stroke: none;text-anchor:start;font-family:sans-serif;font-style:normal;font-weight:normal" x="240" y="220">
      <tspan x="240" y="220">X</tspan>
    </text>
    <g>
      <line style="fill: none; stroke-opacity: 1; stroke-width: 2; stroke-dasharray: 4; stroke: #ff0000" x1="294.371" y1="147.944" x2="255.224" y2="203.182"/>
      <polygon style="fill: #ff0000; fill-opacity: 1; stroke-opacity: 1; stroke-width: 2; stroke: #ff0000" fill-rule="evenodd" points="298.707,141.824 297.004,152.874 294.371,147.944 288.846,147.092 "/>
    </g>
    <g>
      <rect style="fill: #ffffff; fill-opacity: 1; stroke-opacity: 1; stroke-width: 2; stroke: #000000" x="420" y="60" width="140" height="28"/>
      <rect style="fill: #ffffff; fill-opacity: 1; stroke-opacity: 1; stroke-width: 2; stroke: #000000" x="420" y="40" width="81" height="20"/>
      <text font-size="12.7998" style="fill: #000000; fill-opacity: 1; stroke: none;text-anchor:start;font-family:monospace;font-style:normal;font-weight:normal" x="422" y="55">MLD Report</text>
      <text font-size="16.9785" style="fill: #000000; fill-opacity: 1; stroke: none;text-anchor:start;font-family:sans-serif;font-style:normal;font-weight:normal" x="420" y="80">
        <tspan x="420" y="80">Want: ff12::123</tspan>
      </text>
    </g>
    <g>
      <rect style="fill: #ffffff; fill-opacity: 1; stroke-opacity: 1; stroke-width: 2; stroke: #000000" x="260" y="220" width="140" height="28"/>
      <rect style="fill: #ffffff; fill-opacity: 1; stroke-opacity: 1; stroke-width: 2; stroke: #000000" x="260" y="200" width="81" height="20"/>
      <text font-size="12.7998" style="fill: #000000; fill-opacity: 1; stroke: none;text-anchor:start;font-family:monospace;font-style:normal;font-weight:normal" x="262" y="215">MLD Report</text>
      <text font-size="16.9785" style="fill: #000000; fill-opacity: 1; stroke: none;text-anchor:start;font-family:sans-serif;font-style:normal;font-weight:normal" x="260" y="240">
        <tspan x="260" y="240">Want: ff12::123</tspan>
      </text>
    </g>
  </g>
</svg>
