<?xml version="1.0" encoding="UTF-8" standalone="no"?>
<!DOCTYPE svg PUBLIC "-//W3C//DTD SVG 1.0//EN" "http://www.w3.org/TR/2001/PR-SVG-20010719/DTD/svg10.dtd">
<svg width="31cm" height="21cm" viewBox="137 18 604 404" xmlns="http://www.w3.org/2000/svg" xmlns:xlink="http://www.w3.org/1999/xlink">
  <defs/>
  <g id="Background">
    <ellipse style="fill: #00ff00; fill-opacity: 1; stroke-opacity: 1; stroke-width: 2; stroke: #000000" cx="170" cy="290" rx="30" ry="30"/>
    <ellipse style="fill: #bfbfbf; fill-opacity: 1; stroke-opacity: 1; stroke-width: 2; stroke: #000000" cx="190" cy="90" rx="30" ry="30"/>
    <ellipse style="fill: #bfbfbf; fill-opacity: 1; stroke-opacity: 1; stroke-width: 2; stroke: #000000" cx="310" cy="170" rx="30" ry="30"/>
    <ellipse style="fill: #bfbfbf; fill-opacity: 1; stroke-opacity: 1; stroke-width: 2; stroke: #000000" cx="470" cy="190" rx="30" ry="30"/>
    <ellipse style="fill: #0000ff; fill-opacity: 1; stroke-opacity: 1; stroke-width: 2; stroke: #000000" cx="570" cy="310" rx="30" ry="30"/>
    <ellipse style="fill: #bfbfbf; fill-opacity: 1; stroke-opacity: 1; stroke-width: 2; stroke: #000000" cx="410" cy="50" rx="30" ry="30"/>
    <line style="fill: none; stroke-opacity: 1; stroke-width: 2; stroke: #000000" x1="193.533" y1="269.829" x2="286.467" y2="190.171"/>
    <line style="fill: none; stroke-opacity: 1; stroke-width: 2; stroke: #000000" x1="215.789" y1="107.192" x2="284.211" y2="152.808"/>
    <line style="fill: none; stroke-opacity: 1; stroke-width: 2; stroke: #000000" x1="329.836" y1="146.196" x2="390.164" y2="73.8037"/>
    <line style="fill: none; stroke-opacity: 1; stroke-width: 2; stroke: #000000" x1="340.752" y1="173.844" x2="439.248" y2="186.156"/>
    <line style="fill: none; stroke-opacity: 1; stroke-width: 2; stroke: #000000" x1="422.202" y1="78.4717" x2="457.798" y2="161.528"/>
    <line style="fill: none; stroke-opacity: 1; stroke-width: 2; stroke: #000000" x1="489.836" y1="213.804" x2="550.164" y2="286.196"/>
    <text font-size="22.6229" style="fill: #000000; fill-opacity: 1; stroke: none;text-anchor:start;font-family:sans-serif;font-style:normal;font-weight:normal" x="160" y="300">
      <tspan x="160" y="300">S</tspan>
    </text>
    <g>
      <path style="fill: none; stroke-opacity: 1; stroke-width: 2; stroke-dasharray: 4; stroke: #000000" d="M 193.566,269.854 A 62.774,62.774 0 0 0 290.304,199.07"/>
      <polygon style="fill: #000000; fill-opacity: 1; stroke-opacity: 1; stroke-width: 2; stroke: #000000" fill-rule="evenodd" points="287.526,192.187 296.603,198.715 291.014,198.827 287.75,203.365 "/>
    </g>
    <g>
      <rect style="fill: #00ff00; fill-opacity: 1; stroke: none" x="620" y="44.2" width="65.65" height="19.8"/>
      <text font-size="16.9785" style="fill: #000000; fill-opacity: 1; stroke: none;text-anchor:start;font-family:sans-serif;font-style:normal;font-weight:normal" x="620" y="60">
        <tspan x="620" y="60">Sender </tspan>
      </text>
    </g>
    <g>
      <path style="fill: none; stroke-opacity: 1; stroke-width: 2; stroke-dasharray: 4; stroke: #000000" d="M 338.842,181.355 A 50.6533,50.6533 0 0 0 437.614,203.37"/>
      <polygon style="fill: #000000; fill-opacity: 1; stroke-opacity: 1; stroke-width: 2; stroke: #000000" fill-rule="evenodd" points="439.08,196.135 443.303,206.487 438.508,203.614 433.332,205.725 "/>
    </g>
    <g>
      <path style="fill: none; stroke-opacity: 1; stroke-width: 2; stroke-dasharray: 4; stroke: #000000" d="M 488.88,214.53 A 47.1965,47.1965 0 0 0 541.507,292.619"/>
      <polygon style="fill: #000000; fill-opacity: 1; stroke-opacity: 1; stroke-width: 2; stroke: #000000" fill-rule="evenodd" points="547.606,288.493 543.461,298.877 542.004,293.48 536.812,291.407 "/>
    </g>
    <g>
      <rect style="fill: #0000ff; fill-opacity: 1; stroke: none" x="620" y="84.2" width="73.7" height="19.8"/>
      <text font-size="16.9785" style="fill: #ffffff; fill-opacity: 1; stroke: none;text-anchor:start;font-family:sans-serif;font-style:normal;font-weight:normal" x="620" y="100">
        <tspan x="620" y="100">Listener </tspan>
      </text>
    </g>
    <text font-size="22.6229" style="fill: #ffffff; fill-opacity: 1; stroke: none;text-anchor:start;font-family:sans-serif;font-style:normal;font-weight:normal" x="560" y="320">
      <tspan x="560" y="320">L</tspan>
    </text>
    <rect style="fill: #ffffff; fill-opacity: 1; stroke-opacity: 1; stroke-width: 2; stroke: #000000" x="580" y="200" width="160" height="100" rx="0" ry="0"/>
    <text font-size="13.5467" style="fill: #0000ff; fill-opacity: 1; stroke: none;text-anchor:start;font-family:sans-serif;font-style:normal;font-weight:normal" x="600" y="240">
      <tspan x="600" y="240">33:33:00:00:00:01</tspan>
      <tspan x="600" y="256.933">33:33:FF:13:4F:EC</tspan>
      <tspan x="600" y="273.867">01:00:05:00:00:01</tspan>
      <tspan x="600" y="290.8">...</tspan>
      <tspan x="600" y="307.733"></tspan>
    </text>
    <text font-size="16.9785" style="fill: #000000; fill-opacity: 1; stroke: none;text-anchor:start;font-family:sans-serif;font-style:normal;font-weight:normal" x="580" y="220">
      <tspan x="580" y="220">Wanted:</tspan>
    </text>
    <g>
      <rect style="fill: #ffffff; fill-opacity: 1; stroke-opacity: 1; stroke-width: 2; stroke: #000000" x="220" y="300" width="200" height="120"/>
      <rect style="fill: #ffffff; fill-opacity: 1; stroke-opacity: 1; stroke-width: 2; stroke: #000000" x="220" y="280" width="96.4" height="20"/>
      <text font-size="12.7998" style="fill: #000000; fill-opacity: 1; stroke: none;text-anchor:start;font-family:monospace;font-style:normal;font-weight:normal" x="222" y="295">batadv-ucast</text>
    </g>
    <rect style="fill: #ffffff; fill-opacity: 1; stroke-opacity: 1; stroke-width: 2; stroke-dasharray: 20; stroke: #000000" x="220" y="340" width="180" height="80" rx="0" ry="0"/>
    <text font-size="16.9785" style="fill: #000000; fill-opacity: 1; stroke: none;text-anchor:start;font-family:sans-serif;font-style:normal;font-weight:normal" x="220" y="360">
      <tspan x="220" y="360">Frame:</tspan>
    </text>
    <text font-size="13.5467" style="fill: #000000; fill-opacity: 1; stroke: none;text-anchor:start;font-family:sans-serif;font-style:normal;font-weight:normal" x="240" y="380">
      <tspan x="240" y="380">To: 33:33:FF:13:4F:EC</tspan>
      <tspan x="240" y="396.933">Data: ...</tspan>
    </text>
    <text font-size="13.5467" style="fill: #0000ff; fill-opacity: 1; stroke: none;text-anchor:start;font-family:sans-serif;font-style:normal;font-weight:normal" x="240" y="320">
      <tspan x="240" y="320">To: (L)</tspan>
    </text>
  </g>
</svg>
