<?xml version="1.0" encoding="UTF-8" standalone="no"?>
<!DOCTYPE svg PUBLIC "-//W3C//DTD SVG 1.0//EN" "http://www.w3.org/TR/2001/PR-SVG-20010719/DTD/svg10.dtd">
<svg width="47cm" height="25cm" viewBox="9 82 929 499" xmlns="http://www.w3.org/2000/svg" xmlns:xlink="http://www.w3.org/1999/xlink">
  <g id="Background">
    <g>
      <path style="fill: none; stroke-opacity: 1; stroke-width: 0.12; stroke: #805d00" d="M 307.183 253.245 L 306.136,250.452 L 304.928,247.709 L 303.518,245.015 L 301.907,242.371 L 300.054,239.777 L 298.081,237.283 L 295.946,234.839 L 293.529,232.395 L 291.032,230.2 L 288.454,228.005 L 285.554,225.81 L 282.654,223.865 L 279.472,221.969 L 276.21,220.223 L 272.867,218.527 L 269.363,217.031 L 265.778,215.584 L 262.032,214.288 L 258.246,213.09 L 254.46,212.093 L 250.473,211.245 L 246.445,210.546 L 242.417,209.898 L 238.35,209.499 L 234.282,209.2 L 230.093,209 L 225.984,209 L 221.876,209.05 L 217.768,209.349 L 213.66,209.798 L 209.632,210.297 L 205.604,211.045 L 201.657,211.843 L 197.79,212.891 L 193.924,213.988 L 190.259,215.235 L 186.593,216.632 L 183.089,218.029 L 179.666,219.675 L 176.403,221.471 L 173.221,223.316 L 170.201,225.212 L 167.341,227.357 L 164.602,229.502 L 162.024,231.746 L 159.608,234.141 L 157.433,236.485 L 155.338,238.979 L 153.526,241.623 L 151.834,244.217 L 150.384,246.91 L 149.055,249.604 L 148.008,252.397 L 147.162,255.191"/>
      <path style="fill: none; stroke-opacity: 1; stroke-width: 0.12; stroke: #805d00" d="M 159.084 251.699 L 156.587,249.903 L 154.049,248.257 L 151.391,246.711 L 148.612,245.314 L 145.752,243.967 L 142.893,242.87 L 139.952,241.773 L 136.932,240.875 L 133.911,240.176 L 130.769,239.528 L 127.668,239.079 L 124.566,238.78 L 121.425,238.58 L 118.203,238.58 L 115.142,238.63 L 112,238.929 L 108.778,239.278 L 105.717,239.827 L 102.696,240.525 L 99.5946,241.423 L 96.6544,242.321 L 93.7544,243.518 L 90.8948,244.765 L 88.0754,246.062 L 85.3768,247.609 L 82.799,249.205 L 80.3019,250.951 L 77.8852,252.697 L 75.5089,254.742 L 73.3742,256.787 L 71.2395,258.932 L 69.2659,261.227 L 67.4534,263.521 L 65.7215,265.965 L 64.191,268.509 L 62.7813,271.003 L 61.4521,273.697 L 60.2841,276.341 L 59.3175,279.134 L 58.5119,281.878 L 57.7869,284.721 L 57.3036,287.564 L 56.9008,290.408 L 56.7397,293.201 L 56.6592,296.194 L 56.8605,299.037 L 57.1022,301.88 L 57.505,304.724"/>
      <path style="fill: none; stroke-opacity: 1; stroke-width: 0.12; stroke: #805d00" d="M 43.2871 395.958 L 43.1663,398.502 L 43.408,401.046 L 43.6496,403.59 L 44.1732,406.184 L 44.7774,408.728 L 45.5829,411.272 L 46.5496,413.766 L 47.6773,416.16 L 48.9259,418.505 L 50.2551,420.849 L 51.8259,423.144 L 53.4773,425.339 L 55.3703,427.484 L 57.3036,429.579 L 59.398,431.524 L 61.573,433.42 L 63.9091,435.215 L 66.3257,436.911 L 68.8631,438.508 L 71.5214,440.004 L 74.2603,441.451 L 77.0394,442.698 L 79.9394,443.845 L 82.9602,444.942 L 85.9407,445.89 L 89.0017,446.638 L 92.1434,447.436 L 95.3655,447.885 L 98.5474,448.434 L 101.729,448.683 L 104.992,448.933 L 108.254,448.933 L 111.476,448.833 L 114.699,448.683 L 117.921,448.334 L 121.103,447.835 L 124.325,447.187 L 127.386,446.539 L 130.528,445.641 L 133.508,444.693 L 136.408,443.645 L 139.308,442.448 L 142.087,441.101 L 144.866,439.705 L 147.484,438.158 L 149.941,436.562"/>
      <path style="fill: none; stroke-opacity: 1; stroke-width: 0.12; stroke: #805d00" d="M 365.384 308.764 L 370.579,300.733 L 371.546,298.538 L 372.311,296.443 L 372.916,294.199 L 373.399,291.954 L 373.721,289.759 L 373.842,287.564 L 373.882,285.27 L 373.761,282.975 L 373.479,280.73 L 373.036,278.536 L 372.392,276.341 L 371.627,274.146 L 370.781,272.001 L 369.734,269.856 L 368.485,267.861 L 367.116,265.766 L 365.706,263.82 L 364.055,261.925 L 362.323,260.079 L 360.47,258.234 L 358.496,256.588 L 356.402,254.991 L 354.187,253.345 L 351.891,251.899 L 349.434,250.452 L 346.937,249.205 L 344.359,248.008 L 341.66,246.96 L 338.922,245.963 L 336.142,245.065 L 333.283,244.217 L 330.343,243.568 L 327.443,242.97 L 324.462,242.571 L 321.441,242.271 L 318.38,242.022 L 315.319,241.822 L 312.218,241.822 L 309.197,242.022 L 306.136,242.271 L 303.115,242.571 L 300.135,242.97 L 297.194,243.568 L 294.254,244.217"/>
      <path style="fill: none; stroke-opacity: 1; stroke-width: 0.12; stroke: #805d00" d="M 377.749 371.366 L 385.804,363.235 L 387.013,360.841 L 388.221,358.347 L 389.147,355.903 L 389.913,353.359 L 390.436,350.865 L 390.839,348.371 L 391,345.777 L 390.96,343.283 L 390.718,340.639 L 390.275,338.145 L 389.711,335.601 L 388.946,333.107 L 387.939,330.662 L 386.811,328.268 L 385.401,325.874 L 383.911,323.579 L 382.139,321.285 L 380.327,319.09 L 378.272,316.945 L 365.384,308.764"/>
      <path style="fill: none; stroke-opacity: 1; stroke-width: 0.12; stroke: #805d00" d="M 299.047 462.401 L 302.068,463.449 L 305.049,464.496 L 308.11,465.244 L 311.171,465.843 L 314.312,466.192 L 317.373,466.442 L 320.475,466.491 L 323.576,466.192 L 326.718,465.893 L 329.779,465.294 L 332.799,464.596 L 335.82,463.648 L 338.801,462.451 L 341.701,461.204 L 344.601,459.707 L 347.38,458.111 L 350.078,456.266 L 352.696,454.37 L 355.274,452.175 L 357.731,449.881 L 360.067,447.436 L 362.323,444.892 L 364.498,442.199 L 366.511,439.356 L 368.445,436.313 L 370.136,433.32 L 371.828,430.028 L 373.318,426.835 L 374.647,423.493 L 375.856,420.051 L 376.943,416.51 L 377.91,412.868 L 378.635,409.327 L 379.279,405.685 L 379.763,401.994 L 380.045,398.253 L 380.125,394.512 L 380.125,390.77 L 379.924,387.029 L 379.642,383.288 L 379.118,379.547 L 378.434,375.955 L 377.749,372.364"/>
      <path style="fill: none; stroke-opacity: 1; stroke-width: 0.12; stroke: #805d00" d="M 59.8813 306.619 L 57.7466,306.869 L 55.5314,307.168 L 53.3564,307.667 L 51.262,308.215 L 49.1273,308.914 L 47.0329,309.662 L 45.0191,310.61 L 43.0455,311.607 L 41.0719,312.755 L 39.2594,314.002 L 37.3664,315.299 L 35.6345,316.745 L 33.9428,318.192 L 32.3317,319.838 L 30.7207,321.534 L 29.311,323.28 L 27.9013,325.126 L 26.6527,327.071 L 25.4443,329.016 L 24.3971,331.061 L 23.3902,333.107 L 22.4236,335.252 L 21.618,337.446 L 20.893,339.641 L 20.2889,341.986 L 19.8458,344.28 L 19.4028,346.575 L 19.1611,348.919 L 19,351.314 L 19,353.658 L 19,356.003 L 19.2417,358.347 L 19.4833,360.741 L 19.8458,362.986 L 20.3694,365.281 L 20.893,367.575 L 21.618,369.82 L 22.5041,372.015 L 23.3902,374.16 L 24.3971,376.305 L 25.5249,378.3 L 26.6929,380.245 L 27.9415,382.241 L 29.311,383.986 L 30.8012,385.782 L 32.372,387.478 L 33.9831,389.124 L 35.715,390.521 L 37.4067,391.968 L 39.2594,393.264 L 41.1524,394.512 L 43.0858,395.709"/>
      <path style="fill: none; stroke-opacity: 1; stroke-width: 0.12; stroke: #805d00" d="M 134.515 434.716 L 135.039,437.46 L 135.844,440.104 L 136.851,442.847 L 138.18,445.541 L 139.67,448.135 L 141.322,450.629 L 143.255,453.123 L 145.35,455.617 L 147.726,457.962 L 150.263,460.306 L 152.922,462.451 L 155.862,464.646 L 159.003,466.741 L 162.185,468.686 L 165.609,470.532 L 169.153,472.278 L 172.939,473.924 L 176.725,475.47 L 180.713,476.817 L 184.781,478.214 L 188.97,479.311 L 193.239,480.408 L 197.589,481.256 L 202.1,482.055 L 206.571,482.753 L 211.122,483.252 L 215.673,483.651 L 220.265,483.9 L 224.897,484 L 229.529,483.95 L 234.12,483.751 L 238.712,483.401 L 243.344,483.052 L 247.855,482.404 L 252.285,481.705 L 256.716,480.857 L 261.026,479.91 L 265.255,478.712 L 269.403,477.515 L 273.391,476.169 L 277.338,474.672 L 281.124,473.126 L 284.749,471.43 L 288.253,469.634 L 291.556,467.738 L 294.778,465.743 L 297.758,463.598 L 300.578,461.453 L 303.236,459.109 L 305.612,456.864 L 307.868,454.37 L 309.882,451.926 L 311.654,449.382 L 313.305,446.838"/>
    </g>
    <g>
      <path style="fill: none; stroke-opacity: 1; stroke-width: 0.04; stroke: #805d00" d="M 855.662 148.327 L 854.645,145.97 L 853.473,143.656 L 852.105,141.383 L 850.541,139.153 L 848.743,136.965 L 846.828,134.861 L 844.757,132.799 L 842.411,130.737 L 839.988,128.885 L 837.487,127.033 L 834.672,125.182 L 831.858,123.541 L 828.77,121.941 L 825.604,120.469 L 822.36,119.038 L 818.96,117.775 L 815.481,116.555 L 811.846,115.461 L 808.172,114.451 L 804.498,113.609 L 800.628,112.894 L 796.72,112.305 L 792.811,111.757 L 788.863,111.421 L 784.916,111.168 L 780.851,111 L 776.864,111 L 772.877,111.042 L 768.89,111.295 L 764.904,111.673 L 760.995,112.094 L 757.086,112.725 L 753.256,113.399 L 749.504,114.282 L 745.751,115.208 L 742.194,116.26 L 738.638,117.439 L 735.237,118.617 L 731.915,120.006 L 728.749,121.521 L 725.661,123.078 L 722.73,124.677 L 719.954,126.486 L 717.297,128.296 L 714.795,130.19 L 712.45,132.21 L 710.339,134.187 L 708.307,136.291 L 706.548,138.522 L 704.906,140.71 L 703.499,142.983 L 702.209,145.255 L 701.193,147.612 L 700.372,149.968"/>
      <path style="fill: none; stroke-opacity: 1; stroke-width: 0.04; stroke: #805d00" d="M 711.942 147.022 L 709.518,145.508 L 707.056,144.119 L 704.476,142.814 L 701.779,141.636 L 699.004,140.5 L 696.229,139.574 L 693.376,138.648 L 690.444,137.891 L 687.513,137.301 L 684.464,136.754 L 681.455,136.376 L 678.445,136.123 L 675.396,135.955 L 672.269,135.955 L 669.299,135.997 L 666.25,136.249 L 663.123,136.544 L 660.153,137.007 L 657.221,137.596 L 654.211,138.354 L 651.358,139.111 L 648.544,140.121 L 645.769,141.173 L 643.033,142.267 L 640.414,143.572 L 637.913,144.918 L 635.489,146.391 L 633.144,147.864 L 630.838,149.59 L 628.766,151.315 L 626.695,153.124 L 624.78,155.06 L 623.021,156.996 L 621.34,159.058 L 619.855,161.204 L 618.487,163.308 L 617.197,165.581 L 616.063,167.811 L 615.125,170.168 L 614.344,172.482 L 613.64,174.881 L 613.171,177.28 L 612.78,179.678 L 612.624,182.035 L 612.546,184.56 L 612.741,186.959 L 612.976,189.357 L 613.366,191.756"/>
      <path style="fill: none; stroke-opacity: 1; stroke-width: 0.04; stroke: #805d00" d="M 599.569 268.725 L 599.452,270.871 L 599.686,273.017 L 599.921,275.163 L 600.429,277.352 L 601.015,279.498 L 601.797,281.644 L 602.735,283.748 L 603.829,285.768 L 605.041,287.746 L 606.331,289.724 L 607.855,291.66 L 609.458,293.511 L 611.295,295.321 L 613.171,297.088 L 615.203,298.729 L 617.314,300.328 L 619.581,301.843 L 621.926,303.274 L 624.389,304.621 L 626.968,305.883 L 629.626,307.104 L 632.323,308.156 L 635.137,309.124 L 638.069,310.05 L 640.961,310.849 L 643.932,311.48 L 646.981,312.154 L 650.107,312.532 L 653.195,312.995 L 656.283,313.206 L 659.449,313.416 L 662.615,313.416 L 665.742,313.332 L 668.869,313.206 L 671.996,312.911 L 675.083,312.49 L 678.21,311.943 L 681.181,311.396 L 684.23,310.639 L 687.122,309.839 L 689.936,308.955 L 692.75,307.945 L 695.447,306.809 L 698.144,305.631 L 700.685,304.326 L 703.069,302.98"/>
      <path style="fill: none; stroke-opacity: 1; stroke-width: 0.04; stroke: #805d00" d="M 912.141 195.165 L 917.183,188.389 L 918.121,186.538 L 918.864,184.77 L 919.45,182.877 L 919.919,180.983 L 920.232,179.131 L 920.349,177.28 L 920.388,175.344 L 920.271,173.408 L 919.998,171.514 L 919.568,169.663 L 918.942,167.811 L 918.2,165.96 L 917.379,164.15 L 916.362,162.34 L 915.151,160.657 L 913.822,158.89 L 912.454,157.249 L 910.851,155.649 L 909.171,154.092 L 907.373,152.535 L 905.457,151.147 L 903.425,149.8 L 901.275,148.411 L 899.047,147.191 L 896.663,145.97 L 894.24,144.918 L 891.738,143.908 L 889.119,143.025 L 886.462,142.183 L 883.765,141.426 L 880.989,140.71 L 878.136,140.163 L 875.322,139.658 L 872.43,139.321 L 869.498,139.069 L 866.528,138.859 L 863.557,138.69 L 860.547,138.69 L 857.616,138.859 L 854.645,139.069 L 851.714,139.321 L 848.822,139.658 L 845.968,140.163 L 843.115,140.71"/>
      <path style="fill: none; stroke-opacity: 1; stroke-width: 0.04; stroke: #805d00" d="M 924.141 247.978 L 931.958,241.119 L 933.13,239.099 L 934.303,236.995 L 935.202,234.933 L 935.945,232.786 L 936.453,230.682 L 936.844,228.578 L 937,226.39 L 936.961,224.286 L 936.726,222.055 L 936.296,219.951 L 935.749,217.805 L 935.007,215.701 L 934.029,213.639 L 932.935,211.619 L 931.567,209.599 L 930.121,207.663 L 928.401,205.727 L 926.642,203.876 L 924.649,202.066 L 912.141,195.165"/>
      <path style="fill: none; stroke-opacity: 1; stroke-width: 0.04; stroke: #805d00" d="M 847.766 324.778 L 850.698,325.662 L 853.59,326.546 L 856.561,327.177 L 859.531,327.682 L 862.58,327.977 L 865.55,328.187 L 868.56,328.229 L 871.57,327.977 L 874.618,327.724 L 877.589,327.219 L 880.52,326.63 L 883.452,325.83 L 886.344,324.82 L 889.159,323.768 L 891.973,322.506 L 894.67,321.159 L 897.288,319.602 L 899.829,318.003 L 902.331,316.151 L 904.715,314.216 L 906.982,312.154 L 909.171,310.007 L 911.281,307.735 L 913.236,305.336 L 915.112,302.769 L 916.753,300.244 L 918.395,297.467 L 919.841,294.774 L 921.131,291.954 L 922.304,289.05 L 923.359,286.063 L 924.297,282.991 L 925.001,280.003 L 925.626,276.931 L 926.095,273.817 L 926.369,270.66 L 926.447,267.504 L 926.447,264.348 L 926.251,261.192 L 925.978,258.036 L 925.47,254.88 L 924.805,251.85 L 924.141,248.82"/>
      <path style="fill: none; stroke-opacity: 1; stroke-width: 0.04; stroke: #805d00" d="M 615.672 193.355 L 613.601,193.566 L 611.451,193.818 L 609.341,194.239 L 607.308,194.702 L 605.236,195.291 L 603.204,195.922 L 601.25,196.722 L 599.334,197.563 L 597.419,198.531 L 595.66,199.583 L 593.823,200.677 L 592.143,201.898 L 590.501,203.118 L 588.938,204.507 L 587.374,205.938 L 586.006,207.411 L 584.638,208.968 L 583.426,210.609 L 582.254,212.25 L 581.238,213.976 L 580.26,215.701 L 579.322,217.51 L 578.541,219.362 L 577.837,221.214 L 577.251,223.192 L 576.821,225.127 L 576.391,227.063 L 576.156,229.041 L 576,231.061 L 576,233.039 L 576,235.017 L 576.235,236.995 L 576.469,239.015 L 576.821,240.908 L 577.329,242.844 L 577.837,244.78 L 578.541,246.673 L 579.4,248.525 L 580.26,250.335 L 581.238,252.144 L 582.332,253.827 L 583.465,255.469 L 584.677,257.152 L 586.006,258.625 L 587.452,260.14 L 588.977,261.571 L 590.54,262.959 L 592.221,264.138 L 593.862,265.358 L 595.66,266.452 L 597.497,267.504 L 599.374,268.514"/>
      <path style="fill: none; stroke-opacity: 1; stroke-width: 0.04; stroke: #805d00" d="M 688.099 301.423 L 688.607,303.737 L 689.389,305.968 L 690.366,308.282 L 691.656,310.555 L 693.102,312.743 L 694.705,314.847 L 696.581,316.951 L 698.613,319.055 L 700.919,321.033 L 703.382,323.011 L 705.962,324.82 L 708.815,326.672 L 711.864,328.44 L 714.951,330.081 L 718.274,331.638 L 721.713,333.111 L 725.387,334.499 L 729.061,335.804 L 732.931,336.94 L 736.879,338.118 L 740.944,339.044 L 745.087,339.97 L 749.308,340.685 L 753.686,341.359 L 758.024,341.948 L 762.441,342.369 L 766.858,342.705 L 771.314,342.916 L 775.809,343 L 780.303,342.958 L 784.759,342.79 L 789.215,342.495 L 793.71,342.2 L 798.088,341.653 L 802.387,341.064 L 806.687,340.349 L 810.869,339.549 L 814.973,338.539 L 818.999,337.529 L 822.868,336.393 L 826.699,335.131 L 830.373,333.826 L 833.891,332.395 L 837.291,330.88 L 840.496,329.281 L 843.623,327.598 L 846.515,325.788 L 849.252,323.979 L 851.831,322.001 L 854.137,320.107 L 856.326,318.003 L 858.28,315.941 L 860,313.795 L 861.603,311.649"/>
    </g>
    <text font-size="12.8" style="fill: #000000; fill-opacity: 1; stroke: none;text-anchor:middle;font-family:sans-serif;font-style:normal;font-weight:normal" x="218.622" y="344.724">
      <tspan x="218.622" y="344.724">BATMAN-ADV</tspan>
      <tspan x="218.622" y="360.724">cloud1</tspan>
    </text>
    <text font-size="12.8" style="fill: #000000; fill-opacity: 1; stroke: none;text-anchor:middle;font-family:sans-serif;font-style:normal;font-weight:normal" x="769.72" y="224.946">
      <tspan x="769.72" y="224.946">BATMAN-ADV</tspan>
      <tspan x="769.72" y="240.946">cloud2</tspan>
    </text>
    <ellipse style="fill: #ffffff; fill-opacity: 1; stroke-opacity: 1; stroke-width: 2; stroke: #000000" cx="239.25" cy="219.25" rx="27.25" ry="27.25"/>
    <text font-size="22.5778" style="fill: #000000; fill-opacity: 1; stroke: none;text-anchor:middle;font-family:sans-serif;font-style:normal;font-weight:normal" x="239.25" y="227.075">
      <tspan x="239.25" y="227.075">A</tspan>
    </text>
    <ellipse style="fill: #ffffff; fill-opacity: 1; stroke-opacity: 1; stroke-width: 2; stroke: #000000" cx="336.15" cy="451.55" rx="27.25" ry="27.25"/>
    <text font-size="22.5778" style="fill: #000000; fill-opacity: 1; stroke: none;text-anchor:middle;font-family:sans-serif;font-style:normal;font-weight:normal" x="336.15" y="459.375">
      <tspan x="336.15" y="459.375">B</tspan>
    </text>
    <ellipse style="fill: #ffffff; fill-opacity: 1; stroke-opacity: 1; stroke-width: 2; stroke: #000000" cx="735.05" cy="330.85" rx="27.25" ry="27.25"/>
    <text font-size="22.5778" style="fill: #000000; fill-opacity: 1; stroke: none;text-anchor:middle;font-family:sans-serif;font-style:normal;font-weight:normal" x="735.05" y="338.675">
      <tspan x="735.05" y="338.675">E</tspan>
    </text>
    <ellipse style="fill: #ffffff; fill-opacity: 1; stroke-opacity: 1; stroke-width: 2; stroke: #000000" cx="624.95" cy="165.15" rx="27.25" ry="27.25"/>
    <text font-size="22.5778" style="fill: #000000; fill-opacity: 1; stroke: none;text-anchor:middle;font-family:sans-serif;font-style:normal;font-weight:normal" x="624.95" y="172.975">
      <tspan x="624.95" y="172.975">D</tspan>
    </text>
    <path style="fill: none; stroke-opacity: 1; stroke-width: 4; stroke: #ff0000" d="M 267.234,215.315 A 196.62,196.62 0 0 1 596.963,169.065"/>
    <path style="fill: none; stroke-opacity: 1; stroke-width: 4; stroke: #ff0000" d="M 363.198,443.373 A 296.34,296.34 0 0 0 708.006,339.041"/>
    <line style="fill: none; stroke-opacity: 1; stroke-width: 4; stroke-dasharray: 16; stroke: #0000ff" x1="126.34" y1="318.856" x2="218.06" y2="237.944"/>
    <line style="fill: none; stroke-opacity: 1; stroke-width: 4; stroke-dasharray: 16; stroke: #0000ff" x1="130.486" y1="350.054" x2="310.814" y2="439.046"/>
    <ellipse style="fill: #ffffff; fill-opacity: 1; stroke-opacity: 1; stroke-width: 2; stroke: #000000" cx="105.15" cy="337.55" rx="27.25" ry="27.25"/>
    <text font-size="22.5778" style="fill: #000000; fill-opacity: 1; stroke: none;text-anchor:middle;font-family:sans-serif;font-style:normal;font-weight:normal" x="105.15" y="345.375">
      <tspan x="105.15" y="345.375">C</tspan>
    </text>
    <line style="fill: none; stroke-opacity: 1; stroke-width: 0.02; stroke-dasharray: 4; stroke: #000000" x1="93.5392" y1="363.289" x2="79.2766" y2="394.907"/>
    <line style="fill: none; stroke-opacity: 1; stroke-width: 0.02; stroke-dasharray: 4; stroke: #000000" x1="35.02" y1="529.02" x2="106.02" y2="529.02"/>
    <line style="fill: none; stroke-opacity: 1; stroke-width: 4; stroke-dasharray: 16; stroke: #0000ff" x1="34.82" y1="550.22" x2="105.82" y2="550.22"/>
    <line style="fill: none; stroke-opacity: 1; stroke-width: 4; stroke: #ff0000" x1="34.62" y1="575.42" x2="105.62" y2="575.42"/>
    <text font-size="12.8" style="fill: #000000; fill-opacity: 1; stroke: none;text-anchor:start;font-family:sans-serif;font-style:normal;font-weight:normal" x="125.02" y="534.02">
      <tspan x="125.02" y="534.02">non-mesh connection</tspan>
    </text>
    <text font-size="12.8" style="fill: #000000; fill-opacity: 1; stroke: none;text-anchor:start;font-family:sans-serif;font-style:normal;font-weight:normal" x="124.02" y="554.02">
      <tspan x="124.02" y="554.02">multi-hop Batman-adv links</tspan>
    </text>
    <text font-size="12.8" style="fill: #000000; fill-opacity: 1; stroke: none;text-anchor:start;font-family:sans-serif;font-style:normal;font-weight:normal" x="125.02" y="578.02">
      <tspan x="125.02" y="578.02">links external to any batman-adv cloud, potentially multi-hop. Run batman-adv</tspan>
    </text>
    <text font-size="12.8" style="fill: #000000; fill-opacity: 1; stroke: none;text-anchor:start;font-family:sans-serif;font-style:normal;font-weight:normal" x="400.02" y="94.0202">
      <tspan x="400.02" y="94.0202">Link1</tspan>
    </text>
    <text font-size="12.8" style="fill: #000000; fill-opacity: 1; stroke: none;text-anchor:start;font-family:sans-serif;font-style:normal;font-weight:normal" x="535.02" y="470.02">
      <tspan x="535.02" y="470.02">Link2</tspan>
    </text>
    <text font-size="12.8" style="fill: #000000; fill-opacity: 1; stroke: none;text-anchor:start;font-family:sans-serif;font-style:normal;font-weight:700" x="9.02002" y="510.02">
      <tspan x="9.02002" y="510.02">LEGEND:</tspan>
    </text>
    <text font-size="12.8" style="fill: #000000; fill-opacity: 1; stroke: none;text-anchor:start;font-family:sans-serif;font-style:normal;font-weight:normal" x="218.622" y="348.274">
      <tspan x="218.622" y="348.274"></tspan>
    </text>
    <text font-size="12.8" style="fill: #000000; fill-opacity: 1; stroke: none;text-anchor:start;font-family:sans-serif;font-style:normal;font-weight:normal" x="218.622" y="348.274">
      <tspan x="218.622" y="348.274"></tspan>
    </text>
    <text font-size="12.8" style="fill: #000000; fill-opacity: 1; stroke: none;text-anchor:start;font-family:sans-serif;font-style:normal;font-weight:normal" x="118" y="271">
      <tspan x="118" y="271">TQ=90%</tspan>
    </text>
    <text font-size="12.8" style="fill: #000000; fill-opacity: 1; stroke: none;text-anchor:start;font-family:sans-serif;font-style:normal;font-weight:normal" x="210" y="428">
      <tspan x="210" y="428">TQ=80%</tspan>
    </text>
    <text font-size="12.8" style="fill: #000000; fill-opacity: 1; stroke: none;text-anchor:start;font-family:sans-serif;font-style:normal;font-weight:normal" x="408" y="119">
      <tspan x="408" y="119">TQ=50%</tspan>
    </text>
    <text font-size="12.8" style="fill: #000000; fill-opacity: 1; stroke: none;text-anchor:start;font-family:sans-serif;font-style:normal;font-weight:normal" x="488" y="446">
      <tspan x="488" y="446">TQ=100%</tspan>
    </text>
    <g>
      <rect style="fill: #ffffff; fill-opacity: 1; stroke-opacity: 1; stroke-width: 0.02; stroke: #000000" x="25" y="394.888" width="90" height="41.1667" rx="0" ry="0"/>
      <text font-size="16.9333" style="fill: #000000; fill-opacity: 1; stroke: none;text-anchor:middle;font-family:sans-serif;font-style:normal;font-weight:normal" x="70" y="420.638">
        <tspan x="70" y="420.638">Client</tspan>
      </text>
    </g>
  </g>
</svg>
