<?xml version="1.0" encoding="UTF-8" standalone="no"?>
<!DOCTYPE svg PUBLIC "-//W3C//DTD SVG 1.0//EN" "http://www.w3.org/TR/2001/PR-SVG-20010719/DTD/svg10.dtd">
<svg width="19cm" height="15cm" viewBox="219 124 363 298" xmlns="http://www.w3.org/2000/svg" xmlns:xlink="http://www.w3.org/1999/xlink">
  <g id="Hintergrund">
    <g>
      <path style="fill: #b6c7c9; fill-opacity: 1; stroke: none" fill-rule="evenodd" d="M 483.614 225.931 L 483.54,223.657 L 483.283,221.382 L 482.804,219.147 L 482.142,216.913 L 481.258,214.638 L 480.264,212.443 L 479.013,210.288 L 477.614,208.173 L 476.104,206.058 L 474.337,204.063 L 472.46,202.068 L 470.398,200.192 L 468.153,198.317 L 465.797,196.561 L 463.294,194.845 L 460.606,193.249 L 457.845,191.692 L 454.974,190.256 L 451.955,188.899 L 448.826,187.662 L 445.587,186.465 L 442.237,185.467 L 438.887,184.469 L 435.39,183.631 L 431.819,182.873 L 428.248,182.235 L 424.604,181.716 L 420.922,181.357 L 417.204,181.038 L 413.45,180.878 L 409.695,180.798 L 409.695,180.798 L 405.977,180.878 L 402.185,181.038 L 398.504,181.357 L 394.822,181.716 L 391.141,182.235 L 387.57,182.873 L 384,183.631 L 380.539,184.469 L 377.116,185.467 L 373.839,186.465 L 370.6,187.662 L 367.508,188.899 L 364.452,190.256 L 361.581,191.692 L 358.783,193.249 L 356.096,194.845 L 353.592,196.561 L 351.236,198.317 L 348.991,200.192 L 346.929,202.068 L 345.052,204.063 L 343.322,206.058 L 341.739,208.173 L 340.414,210.288 L 339.162,212.443 L 338.131,214.638 L 337.248,216.913 L 336.659,219.147 L 336.18,221.382 L 335.849,223.657 L 335.812,225.931 L 335.812,225.931 L 335.849,228.246 L 336.18,230.521 L 336.659,232.795 L 337.248,235.03 L 338.131,237.265 L 339.162,239.459 L 340.414,241.614 L 341.739,243.769 L 343.322,245.844 L 345.052,247.84 L 346.929,249.835 L 348.991,251.75 L 351.236,253.586 L 353.592,255.342 L 356.096,257.058 L 358.783,258.694 L 361.581,260.171 L 364.452,261.687 L 367.508,263.044 L 370.6,264.281 L 373.839,265.398 L 377.116,266.476 L 380.539,267.433 L 384,268.271 L 387.57,269.03 L 391.141,269.668 L 394.822,270.147 L 398.504,270.546 L 402.185,270.905 L 405.977,271.025 L 409.695,271.065 L 409.695,271.065 L 413.45,271.025 L 417.204,270.905 L 420.922,270.546 L 424.604,270.147 L 428.248,269.668 L 431.819,269.03 L 435.39,268.271 L 438.887,267.433 L 442.237,266.476 L 445.587,265.398 L 448.826,264.281 L 451.955,263.044 L 454.974,261.687 L 457.845,260.171 L 460.606,258.694 L 463.294,257.058 L 465.797,255.342 L 468.153,253.586 L 470.398,251.75 L 472.46,249.835 L 474.337,247.84 L 476.104,245.844 L 477.614,243.769 L 479.013,241.614 L 480.264,239.459 L 481.258,237.265 L 482.142,235.03 L 482.804,232.795 L 483.283,230.521 L 483.54,228.246 L 483.614,225.931z"/>
      <path style="fill: #b6c7c9; fill-opacity: 1; stroke: none" fill-rule="evenodd" d="M 367.765 249.635 L 367.692,247.361 L 367.434,245.086 L 367.139,242.851 L 366.624,240.577 L 365.961,238.342 L 365.152,236.147 L 364.194,233.992 L 363.164,231.877 L 361.986,229.762 L 360.66,227.767 L 359.225,225.772 L 357.642,223.896 L 355.875,222.021 L 354.071,220.265 L 352.157,218.549 L 350.095,216.953 L 348.034,215.396 L 345.751,213.96 L 343.469,212.603 L 341.039,211.406 L 338.61,210.169 L 336.07,209.091 L 333.419,208.173 L 330.769,207.335 L 328.045,206.577 L 325.284,205.939 L 322.486,205.42 L 319.651,205.061 L 316.854,204.742 L 313.982,204.542 L 311.111,204.502 L 311.111,204.502 L 308.239,204.542 L 305.368,204.742 L 302.497,205.061 L 299.699,205.42 L 296.864,205.939 L 294.104,206.577 L 291.416,207.335 L 288.766,208.173 L 286.152,209.091 L 283.612,210.169 L 281.109,211.406 L 278.753,212.603 L 276.397,213.96 L 274.188,215.396 L 272.09,216.953 L 270.028,218.549 L 268.114,220.265 L 266.273,222.021 L 264.543,223.896 L 262.997,225.772 L 261.524,227.767 L 260.236,229.762 L 259.021,231.877 L 257.954,233.992 L 257.033,236.147 L 256.223,238.342 L 255.561,240.577 L 255.082,242.851 L 254.714,245.086 L 254.493,247.361 L 254.42,249.635 L 254.42,249.635 L 254.493,251.95 L 254.714,254.225 L 255.082,256.499 L 255.561,258.734 L 256.223,260.969 L 257.033,263.163 L 257.954,265.318 L 259.021,267.433 L 260.236,269.548 L 261.524,271.544 L 262.997,273.539 L 264.543,275.414 L 266.273,277.29 L 268.114,279.046 L 270.028,280.762 L 272.09,282.358 L 274.188,283.874 L 276.397,285.311 L 278.753,286.748 L 281.109,287.985 L 283.612,289.102 L 286.152,290.219 L 288.766,291.137 L 291.416,291.975 L 294.104,292.734 L 296.864,293.332 L 299.699,293.851 L 302.497,294.25 L 305.368,294.609 L 308.239,294.729 L 311.111,294.769 L 311.111,294.769 L 313.982,294.729 L 316.854,294.609 L 319.651,294.25 L 322.486,293.851 L 325.284,293.332 L 328.045,292.734 L 330.769,291.975 L 333.419,291.137 L 336.07,290.219 L 338.61,289.102 L 341.039,287.985 L 343.469,286.748 L 345.751,285.311 L 348.034,283.874 L 350.095,282.358 L 352.157,280.762 L 354.071,279.046 L 355.875,277.29 L 357.642,275.414 L 359.225,273.539 L 360.66,271.544 L 361.986,269.548 L 363.164,267.433 L 364.194,265.318 L 365.152,263.163 L 365.961,260.969 L 366.624,258.734 L 367.139,256.499 L 367.434,254.225 L 367.692,251.95 L 367.765,249.635z"/>
      <path style="fill: #b6c7c9; fill-opacity: 1; stroke: none" fill-rule="evenodd" d="M 296.312 295.726 L 296.275,293.851 L 296.165,291.975 L 295.907,290.1 L 295.576,288.264 L 295.097,286.508 L 294.545,284.673 L 293.956,282.877 L 293.257,281.161 L 292.447,279.445 L 291.527,277.809 L 290.533,276.252 L 289.465,274.656 L 288.324,273.14 L 287.109,271.663 L 285.784,270.307 L 284.422,269.03 L 283.023,267.713 L 281.55,266.555 L 279.968,265.438 L 278.348,264.401 L 276.691,263.483 L 274.961,262.605 L 273.231,261.847 L 271.427,261.168 L 269.586,260.53 L 267.746,260.051 L 265.868,259.572 L 263.917,259.293 L 262.003,259.053 L 260.126,258.933 L 258.175,258.854 L 258.175,258.854 L 256.223,258.933 L 254.272,259.053 L 252.358,259.293 L 250.481,259.572 L 248.566,260.051 L 246.689,260.53 L 244.885,261.168 L 243.118,261.847 L 241.314,262.605 L 239.584,263.483 L 237.928,264.401 L 236.308,265.438 L 234.762,266.555 L 233.252,267.713 L 231.854,269.03 L 230.492,270.307 L 229.203,271.663 L 227.951,273.14 L 226.81,274.656 L 225.743,276.252 L 224.749,277.809 L 223.902,279.445 L 223.092,281.161 L 222.393,282.877 L 221.73,284.673 L 221.178,286.508 L 220.773,288.264 L 220.442,290.1 L 220.147,291.975 L 220,293.851 L 220,295.726 L 220,295.726 L 220,297.522 L 220.147,299.398 L 220.442,301.233 L 220.773,303.069 L 221.178,304.945 L 221.73,306.701 L 222.393,308.456 L 223.092,310.212 L 223.902,311.928 L 224.749,313.564 L 225.743,315.161 L 226.81,316.717 L 227.951,318.233 L 229.203,319.67 L 230.492,321.027 L 231.854,322.344 L 233.252,323.66 L 234.762,324.778 L 236.308,325.895 L 237.928,326.933 L 239.584,327.89 L 241.314,328.768 L 243.118,329.527 L 244.885,330.205 L 246.689,330.804 L 248.566,331.322 L 250.481,331.761 L 252.358,332.12 L 254.272,332.32 L 256.223,332.44 L 258.175,332.519 L 258.175,332.519 L 260.126,332.44 L 262.003,332.32 L 263.917,332.12 L 265.868,331.761 L 267.746,331.322 L 269.586,330.804 L 271.427,330.205 L 273.231,329.527 L 274.961,328.768 L 276.691,327.89 L 278.348,326.933 L 279.968,325.895 L 281.55,324.778 L 283.023,323.66 L 284.422,322.344 L 285.784,321.027 L 287.109,319.67 L 288.324,318.233 L 289.465,316.717 L 290.533,315.161 L 291.527,313.564 L 292.447,311.928 L 293.257,310.212 L 293.956,308.456 L 294.545,306.701 L 295.097,304.945 L 295.576,303.069 L 295.907,301.233 L 296.165,299.398 L 296.275,297.522 L 296.312,295.726z"/>
      <path style="fill: #b6c7c9; fill-opacity: 1; stroke: none" fill-rule="evenodd" d="M 357.936 331.203 L 357.9,329.167 L 357.642,327.172 L 357.237,325.137 L 356.758,323.142 L 356.096,321.186 L 355.323,319.231 L 354.329,317.315 L 353.298,315.44 L 352.046,313.684 L 350.721,311.848 L 349.212,310.093 L 347.629,308.456 L 345.935,306.82 L 344.095,305.184 L 342.144,303.708 L 340.082,302.271 L 337.91,300.954 L 335.628,299.637 L 333.309,298.48 L 330.879,297.323 L 328.339,296.325 L 325.762,295.367 L 323.112,294.529 L 320.424,293.771 L 317.663,293.133 L 314.829,292.614 L 312.031,292.135 L 309.16,291.736 L 306.288,291.496 L 303.38,291.337 L 300.435,291.297 L 300.435,291.297 L 297.527,291.337 L 294.656,291.496 L 291.711,291.736 L 288.876,292.135 L 286.005,292.614 L 283.244,293.133 L 280.483,293.771 L 277.759,294.529 L 275.108,295.367 L 272.568,296.325 L 270.028,297.323 L 267.599,298.48 L 265.243,299.637 L 262.997,300.954 L 260.825,302.271 L 258.764,303.708 L 256.812,305.184 L 254.972,306.82 L 253.242,308.456 L 251.659,310.093 L 250.149,311.848 L 248.787,313.684 L 247.609,315.44 L 246.542,317.315 L 245.548,319.231 L 244.738,321.186 L 244.149,323.142 L 243.597,325.137 L 243.229,327.172 L 243.008,329.167 L 242.934,331.203 L 242.934,331.203 L 243.008,333.198 L 243.229,335.233 L 243.597,337.228 L 244.149,339.224 L 244.738,341.179 L 245.548,343.134 L 246.542,345.09 L 247.609,346.965 L 248.787,348.761 L 250.149,350.517 L 251.659,352.273 L 253.242,353.949 L 254.972,355.625 L 256.812,357.221 L 258.764,358.698 L 260.825,360.094 L 262.997,361.451 L 265.243,362.728 L 267.599,363.925 L 270.028,365.083 L 272.568,366.08 L 275.108,367.038 L 277.759,367.836 L 280.483,368.594 L 283.244,369.233 L 286.005,369.791 L 288.876,370.31 L 291.711,370.669 L 294.656,370.909 L 297.527,371.068 L 300.435,371.068 L 300.435,371.068 L 303.38,371.068 L 306.288,370.909 L 309.16,370.669 L 312.031,370.31 L 314.829,369.791 L 317.663,369.233 L 320.424,368.594 L 323.112,367.836 L 325.762,367.038 L 328.339,366.08 L 330.879,365.083 L 333.309,363.925 L 335.628,362.728 L 337.91,361.451 L 340.082,360.094 L 342.144,358.698 L 344.095,357.221 L 345.935,355.625 L 347.629,353.949 L 349.212,352.273 L 350.721,350.517 L 352.046,348.761 L 353.298,346.965 L 354.329,345.09 L 355.323,343.134 L 356.096,341.179 L 356.758,339.224 L 357.237,337.228 L 357.642,335.233 L 357.9,333.198 L 357.936,331.203z"/>
      <path style="fill: #b6c7c9; fill-opacity: 1; stroke: none" fill-rule="evenodd" d="M 495.946 351.834 L 495.799,349.4 L 495.505,346.965 L 494.916,344.611 L 494.142,342.256 L 493.185,339.902 L 492.007,337.627 L 490.608,335.393 L 488.989,333.118 L 487.148,330.923 L 485.16,328.808 L 482.915,326.773 L 480.559,324.778 L 477.982,322.822 L 475.258,320.947 L 472.276,319.151 L 469.257,317.475 L 466.018,315.839 L 462.631,314.323 L 459.171,312.926 L 455.489,311.609 L 451.771,310.372 L 447.906,309.294 L 443.967,308.257 L 439.881,307.379 L 435.795,306.581 L 431.598,305.942 L 427.401,305.384 L 423.058,304.985 L 418.824,304.705 L 414.443,304.466 L 410.1,304.466 L 410.1,304.466 L 405.756,304.466 L 401.412,304.705 L 397.105,304.985 L 392.835,305.384 L 388.564,305.942 L 384.405,306.581 L 380.282,307.379 L 376.269,308.257 L 372.256,309.294 L 368.465,310.372 L 364.673,311.609 L 361.065,312.926 L 357.568,314.323 L 354.218,315.839 L 350.979,317.475 L 347.887,319.151 L 344.978,320.947 L 342.254,322.822 L 339.641,324.778 L 337.248,326.773 L 335.039,328.808 L 333.088,330.923 L 331.247,333.118 L 329.628,335.393 L 328.229,337.627 L 327.014,339.902 L 326.057,342.256 L 325.247,344.611 L 324.695,346.965 L 324.363,349.4 L 324.253,351.834 L 324.253,351.834 L 324.363,354.148 L 324.695,356.583 L 325.247,358.937 L 326.057,361.331 L 327.014,363.686 L 328.229,365.96 L 329.628,368.195 L 331.247,370.47 L 333.088,372.665 L 335.039,374.78 L 337.248,376.815 L 339.641,378.89 L 342.254,380.765 L 344.978,382.641 L 347.887,384.397 L 350.979,386.153 L 354.218,387.749 L 357.568,389.265 L 361.065,390.662 L 364.673,392.019 L 368.465,393.176 L 372.256,394.293 L 376.269,395.291 L 380.282,396.169 L 384.405,397.007 L 388.564,397.606 L 392.835,398.164 L 397.105,398.603 L 401.412,398.883 L 405.756,399.122 L 410.1,399.122 L 410.1,399.122 L 414.443,399.122 L 418.824,398.883 L 423.058,398.603 L 427.401,398.164 L 431.598,397.606 L 435.795,397.007 L 439.881,396.169 L 443.967,395.291 L 447.906,394.293 L 451.771,393.176 L 455.489,392.019 L 459.171,390.662 L 462.631,389.265 L 466.018,387.749 L 469.257,386.153 L 472.276,384.397 L 475.258,382.641 L 477.982,380.765 L 480.559,378.89 L 482.915,376.815 L 485.16,374.78 L 487.148,372.665 L 488.989,370.47 L 490.608,368.195 L 492.007,365.96 L 493.185,363.686 L 494.142,361.331 L 494.916,358.937 L 495.505,356.583 L 495.799,354.148 L 495.946,351.834z"/>
      <path style="fill: #b6c7c9; fill-opacity: 1; stroke: none" fill-rule="evenodd" d="M 543.582 242.612 L 543.545,240.856 L 543.324,239.02 L 542.919,237.225 L 542.477,235.469 L 541.815,233.753 L 541.078,231.997 L 540.158,230.281 L 539.091,228.605 L 537.949,227.009 L 536.698,225.373 L 535.262,223.816 L 533.716,222.3 L 532.096,220.903 L 530.292,219.467 L 528.452,218.15 L 526.427,216.913 L 524.366,215.636 L 522.23,214.518 L 519.948,213.481 L 517.629,212.483 L 515.273,211.565 L 512.77,210.727 L 510.23,209.969 L 507.653,209.291 L 505.002,208.692 L 502.352,208.293 L 499.628,207.814 L 496.903,207.495 L 494.106,207.295 L 491.345,207.176 L 488.547,207.096 L 488.547,207.096 L 485.712,207.176 L 482.951,207.295 L 480.154,207.495 L 477.43,207.814 L 474.742,208.293 L 472.055,208.692 L 469.441,209.291 L 466.828,209.969 L 464.288,210.727 L 461.784,211.565 L 459.392,212.483 L 457.109,213.481 L 454.827,214.518 L 452.692,215.636 L 450.63,216.913 L 448.642,218.15 L 446.765,219.467 L 444.961,220.903 L 443.341,222.3 L 441.832,223.816 L 440.359,225.373 L 439.108,227.009 L 437.967,228.605 L 436.899,230.281 L 435.979,231.997 L 435.243,233.753 L 434.617,235.469 L 434.101,237.225 L 433.77,239.02 L 433.586,240.856 L 433.476,242.612 L 433.476,242.612 L 433.586,244.408 L 433.77,246.204 L 434.101,247.959 L 434.617,249.755 L 435.243,251.511 L 435.979,253.227 L 436.899,254.943 L 437.967,256.619 L 439.108,258.295 L 440.359,259.851 L 441.832,261.368 L 443.341,262.924 L 444.961,264.361 L 446.765,265.717 L 448.642,267.074 L 450.63,268.351 L 452.692,269.548 L 454.827,270.666 L 457.109,271.783 L 459.392,272.781 L 461.784,273.659 L 464.288,274.537 L 466.828,275.255 L 469.441,275.893 L 472.055,276.532 L 474.742,277.011 L 477.43,277.41 L 480.154,277.769 L 482.951,277.929 L 485.712,278.128 L 488.547,278.128 L 488.547,278.128 L 491.345,278.128 L 494.106,277.929 L 496.903,277.769 L 499.628,277.41 L 502.352,277.011 L 505.002,276.532 L 507.653,275.893 L 510.23,275.255 L 512.77,274.537 L 515.273,273.659 L 517.629,272.781 L 519.948,271.783 L 522.23,270.666 L 524.366,269.548 L 526.427,268.351 L 528.452,267.074 L 530.292,265.717 L 532.096,264.361 L 533.716,262.924 L 535.262,261.368 L 536.698,259.851 L 537.949,258.295 L 539.091,256.619 L 540.158,254.943 L 541.078,253.227 L 541.815,251.511 L 542.477,249.755 L 542.919,247.959 L 543.324,246.204 L 543.545,244.408 L 543.582,242.612z"/>
      <path style="fill: #b6c7c9; fill-opacity: 1; stroke: none" fill-rule="evenodd" d="M 559.19 288.224 L 559.08,286.428 L 558.932,284.633 L 558.564,282.877 L 558.086,281.121 L 557.423,279.325 L 556.687,277.649 L 555.803,275.893 L 554.736,274.257 L 553.595,272.581 L 552.343,271.025 L 550.907,269.429 L 549.361,267.952 L 547.778,266.555 L 545.974,265.079 L 544.134,263.802 L 542.22,262.485 L 540.158,261.288 L 537.949,260.171 L 535.777,259.093 L 533.458,258.095 L 531.102,257.178 L 528.636,256.34 L 526.133,255.621 L 523.556,254.943 L 520.905,254.344 L 518.255,253.865 L 515.567,253.466 L 512.806,253.107 L 510.082,252.948 L 507.321,252.828 L 504.56,252.748 L 504.56,252.748 L 501.763,252.828 L 499.039,252.948 L 496.278,253.107 L 493.59,253.466 L 490.903,253.865 L 488.216,254.344 L 485.602,254.943 L 483.062,255.621 L 480.522,256.34 L 478.055,257.178 L 475.699,258.095 L 473.38,259.093 L 471.135,260.171 L 469.036,261.288 L 466.975,262.485 L 464.95,263.802 L 463.11,265.079 L 461.379,266.555 L 459.796,267.952 L 458.25,269.429 L 456.851,271.025 L 455.526,272.581 L 454.385,274.257 L 453.391,275.893 L 452.471,277.649 L 451.661,279.325 L 451.072,281.121 L 450.593,282.877 L 450.225,284.633 L 450.004,286.428 L 449.968,288.224 L 449.968,288.224 L 450.004,290.02 L 450.225,291.856 L 450.593,293.611 L 451.072,295.367 L 451.661,297.123 L 452.471,298.839 L 453.391,300.595 L 454.385,302.231 L 455.526,303.827 L 456.851,305.463 L 458.25,306.98 L 459.796,308.496 L 461.379,309.933 L 463.11,311.33 L 464.95,312.686 L 466.975,313.923 L 469.036,315.161 L 471.135,316.278 L 473.38,317.315 L 475.699,318.313 L 478.055,319.231 L 480.522,320.069 L 483.062,320.827 L 485.602,321.545 L 488.216,322.144 L 490.903,322.543 L 493.59,323.022 L 496.278,323.301 L 499.039,323.541 L 501.763,323.66 L 504.56,323.7 L 504.56,323.7 L 507.321,323.66 L 510.082,323.541 L 512.806,323.301 L 515.567,323.022 L 518.255,322.543 L 520.905,322.144 L 523.556,321.545 L 526.133,320.827 L 528.636,320.069 L 531.102,319.231 L 533.458,318.313 L 535.777,317.315 L 537.949,316.278 L 540.158,315.161 L 542.22,313.923 L 544.134,312.686 L 545.974,311.33 L 547.778,309.933 L 549.361,308.496 L 550.907,306.98 L 552.343,305.463 L 553.595,303.827 L 554.736,302.231 L 555.803,300.595 L 556.687,298.839 L 557.423,297.123 L 558.086,295.367 L 558.564,293.611 L 558.932,291.856 L 559.08,290.02 L 559.19,288.224z"/>
      <path style="fill: #b6c7c9; fill-opacity: 1; stroke: none" fill-rule="evenodd" d="M 548.515 325.935 L 548.441,323.022 L 548.22,320.029 L 547.926,317.156 L 547.447,314.203 L 546.821,311.33 L 546.048,308.496 L 545.165,305.703 L 544.097,302.949 L 542.956,300.276 L 541.741,297.642 L 540.342,295.088 L 538.796,292.654 L 537.176,290.259 L 535.409,287.985 L 533.569,285.79 L 531.654,283.675 L 529.593,281.68 L 527.495,279.884 L 525.249,278.128 L 522.967,276.532 L 520.611,275.015 L 518.218,273.659 L 515.715,272.382 L 513.175,271.264 L 510.524,270.307 L 507.91,269.548 L 505.186,268.83 L 502.499,268.311 L 499.812,267.952 L 497.087,267.713 L 494.327,267.673 L 494.327,267.673 L 491.566,267.713 L 488.841,267.952 L 486.081,268.311 L 483.393,268.83 L 480.743,269.548 L 478.055,270.307 L 475.479,271.264 L 472.939,272.382 L 470.435,273.659 L 467.969,275.015 L 465.613,276.532 L 463.33,278.128 L 461.159,279.884 L 458.987,281.68 L 456.962,283.675 L 455.011,285.79 L 453.17,287.985 L 451.44,290.259 L 449.783,292.654 L 448.311,295.088 L 446.912,297.642 L 445.624,300.276 L 444.482,302.949 L 443.489,305.703 L 442.605,308.496 L 441.832,311.33 L 441.206,314.203 L 440.728,317.156 L 440.359,320.029 L 440.139,323.022 L 440.065,325.935 L 440.065,325.935 L 440.139,328.888 L 440.359,331.881 L 440.728,334.754 L 441.206,337.667 L 441.832,340.62 L 442.605,343.414 L 443.489,346.167 L 444.482,348.961 L 445.624,351.594 L 446.912,354.228 L 448.311,356.822 L 449.783,359.256 L 451.44,361.611 L 453.17,363.925 L 455.011,366.12 L 456.962,368.195 L 458.987,370.19 L 461.159,372.066 L 463.33,373.782 L 465.613,375.418 L 467.969,376.895 L 470.435,378.291 L 472.939,379.528 L 475.479,380.646 L 478.055,381.564 L 480.743,382.402 L 483.393,383.04 L 486.081,383.559 L 488.841,383.918 L 491.566,384.157 L 494.327,384.277 L 494.327,384.277 L 497.087,384.157 L 499.812,383.918 L 502.499,383.559 L 505.186,383.04 L 507.91,382.402 L 510.524,381.564 L 513.175,380.646 L 515.715,379.528 L 518.218,378.291 L 520.611,376.895 L 522.967,375.418 L 525.249,373.782 L 527.495,372.066 L 529.593,370.19 L 531.654,368.195 L 533.569,366.12 L 535.409,363.925 L 537.176,361.611 L 538.796,359.256 L 540.342,356.822 L 541.741,354.228 L 542.956,351.594 L 544.097,348.961 L 545.165,346.167 L 546.048,343.414 L 546.821,340.62 L 547.447,337.667 L 547.926,334.754 L 548.22,331.881 L 548.441,328.888 L 548.515,325.935z"/>
      <path style="fill: #b6c7c9; fill-opacity: 1; stroke: none" fill-rule="evenodd" d="M 501.689 290.858 L 501.542,287.865 L 501.1,284.992 L 500.401,281.999 L 499.443,279.126 L 498.192,276.252 L 496.646,273.379 L 494.842,270.586 L 492.744,267.832 L 490.461,265.159 L 487.884,262.565 L 485.013,259.971 L 481.958,257.497 L 478.644,255.182 L 475.11,252.868 L 471.356,250.633 L 467.453,248.558 L 463.294,246.603 L 458.95,244.727 L 454.495,242.971 L 449.82,241.335 L 444.998,239.859 L 440.065,238.462 L 435.022,237.225 L 429.868,236.147 L 424.567,235.229 L 419.192,234.391 L 413.781,233.753 L 408.296,233.234 L 402.774,232.795 L 397.215,232.596 L 391.583,232.516 L 391.583,232.516 L 386.024,232.596 L 380.466,232.795 L 374.944,233.234 L 369.422,233.753 L 364.01,234.391 L 358.636,235.229 L 353.372,236.147 L 348.218,237.225 L 343.101,238.462 L 338.242,239.859 L 333.419,241.335 L 328.707,242.971 L 324.216,244.727 L 319.946,246.603 L 315.749,248.558 L 311.81,250.633 L 308.129,252.868 L 304.558,255.182 L 301.245,257.497 L 298.227,259.971 L 295.355,262.565 L 292.815,265.159 L 290.496,267.832 L 288.361,270.586 L 286.594,273.379 L 285.084,276.252 L 283.759,279.126 L 282.802,281.999 L 282.103,284.992 L 281.661,287.865 L 281.55,290.858 L 281.55,290.858 L 281.661,293.771 L 282.103,296.724 L 282.802,299.637 L 283.759,302.59 L 285.084,305.463 L 286.594,308.297 L 288.361,311.05 L 290.496,313.844 L 292.815,316.557 L 295.355,319.151 L 298.227,321.665 L 301.245,324.139 L 304.558,326.534 L 308.129,328.808 L 311.81,331.003 L 315.749,333.118 L 319.946,335.113 L 324.216,336.989 L 328.707,338.745 L 333.419,340.301 L 338.242,341.857 L 343.101,343.174 L 348.218,344.411 L 353.372,345.529 L 358.636,346.486 L 364.01,347.285 L 369.422,347.963 L 374.944,348.482 L 380.466,348.841 L 386.024,349.12 L 391.583,349.16 L 391.583,349.16 L 397.215,349.12 L 402.774,348.841 L 408.296,348.482 L 413.781,347.963 L 419.192,347.285 L 424.567,346.486 L 429.868,345.529 L 435.022,344.411 L 440.065,343.174 L 444.998,341.857 L 449.82,340.301 L 454.495,338.745 L 458.95,336.989 L 463.294,335.113 L 467.453,333.118 L 471.356,331.003 L 475.11,328.808 L 478.644,326.534 L 481.958,324.139 L 485.013,321.665 L 487.884,319.151 L 490.461,316.557 L 492.744,313.844 L 494.842,311.05 L 496.646,308.297 L 498.192,305.463 L 499.443,302.59 L 500.401,299.637 L 501.1,296.724 L 501.542,293.771 L 501.689,290.858z"/>
      <path style="fill: #b6c7c9; fill-opacity: 1; stroke: none" fill-rule="evenodd" d="M 410.541 225.532 L 483.393,215.476 L 482.473,213.281 L 481.332,211.047 L 480.08,208.852 L 478.571,206.737 L 476.951,204.702 L 475.11,202.627 L 473.196,200.671 L 470.987,198.796 L 468.742,196.96 L 466.312,195.204 L 463.699,193.528 L 460.974,191.972 L 458.103,190.455 L 455.121,188.979 L 452.029,187.662 L 448.826,186.465 L 445.587,185.268 L 442.163,184.27 L 438.703,183.352 L 435.206,182.514 L 431.561,181.796 L 427.917,181.237 L 424.236,180.718 L 420.518,180.359 L 416.763,180.12 L 412.971,180 L 409.216,180 L 405.424,180.12 L 401.633,180.279 L 397.951,180.599 L 394.233,181.117 L 390.552,181.636 L 386.908,182.354 L 383.337,183.113 L 379.877,183.991 L 376.49,184.988 L 373.14,186.106 L 369.9,187.263 L 366.845,188.58 L 363.826,189.976 L 360.918,191.453 L 358.157,193.009 L 355.544,194.685 L 353.077,196.441 L 350.721,198.237 L 348.512,200.112 L 346.451,202.068 L 344.573,204.063 L 342.954,206.178 L 341.371,208.213 L 340.009,210.408 L 338.867,212.563 L 337.91,214.798 L 337.1,217.032 L 410.541,225.532z"/>
      <path style="fill: none; stroke-opacity: 1; stroke-width: 0.02; stroke: #6c8f93" d="M 483.393 215.396 L 482.436,213.162 L 481.332,210.967 L 480.043,208.772 L 478.571,206.697 L 476.877,204.622 L 475.074,202.587 L 473.123,200.631 L 470.914,198.756 L 468.631,196.96 L 466.275,195.204 L 463.625,193.448 L 460.974,191.892 L 458.066,190.375 L 455.084,188.979 L 452.029,187.582 L 448.826,186.385 L 445.55,185.268 L 442.126,184.23 L 438.666,183.352 L 435.206,182.514 L 431.561,181.796 L 427.88,181.237 L 424.199,180.718 L 420.481,180.359 L 416.763,180.12 L 412.934,180 L 409.179,180 L 405.424,180.12 L 401.67,180.279 L 397.915,180.599 L 394.233,181.117 L 390.552,181.596 L 386.945,182.275 L 383.411,183.113 L 379.877,183.991 L 376.527,184.988 L 373.177,186.106 L 369.974,187.263 L 366.845,188.54 L 363.863,189.976 L 360.955,191.453 L 358.194,192.969 L 355.58,194.645 L 353.077,196.361 L 350.721,198.197 L 348.512,200.073 L 346.524,201.988 L 344.61,204.063 L 342.954,206.058 L 341.408,208.173 L 340.082,210.288 L 338.867,212.483 L 337.91,214.718 L 337.137,216.953"/>
      <path style="fill: #b6c7c9; fill-opacity: 1; stroke: none" fill-rule="evenodd" d="M 311.479 249.196 L 348.218,214.279 L 345.935,212.842 L 343.543,211.486 L 341.113,210.288 L 338.61,209.091 L 336.07,208.054 L 333.419,207.096 L 330.695,206.298 L 328.008,205.54 L 325.173,204.941 L 322.375,204.422 L 319.504,204.063 L 316.633,203.784 L 313.761,203.624 L 310.89,203.624 L 307.982,203.704 L 305.11,203.943 L 302.239,204.223 L 299.405,204.662 L 296.607,205.22 L 293.846,205.859 L 291.085,206.617 L 288.434,207.495 L 285.784,208.493 L 283.244,209.57 L 280.777,210.767 L 278.421,212.084 L 276.065,213.481 L 273.857,214.917 L 271.758,216.514 L 269.697,218.15 L 267.783,219.906 L 266.016,221.662 L 264.322,223.577 L 262.776,225.492 L 261.304,227.488 L 260.015,229.563 L 258.8,231.678 L 257.77,233.793 L 256.849,235.988 L 256.113,238.222 L 255.524,240.457 L 255.009,242.772 L 254.641,245.086 L 254.493,247.361 L 254.42,249.635 L 254.53,251.95 L 254.751,254.304 L 255.193,256.539 L 311.479,249.196z"/>
      <path style="fill: none; stroke-opacity: 1; stroke-width: 0.02; stroke: #6c8f93" d="M 348.034 214.159 L 345.751,212.723 L 343.432,211.406 L 341.003,210.169 L 338.463,209.051 L 335.849,207.974 L 333.235,207.056 L 330.548,206.218 L 327.787,205.5 L 325.026,204.941 L 322.155,204.422 L 319.32,204.063 L 316.485,203.784 L 313.614,203.624 L 310.669,203.624 L 307.871,203.704 L 305,203.943 L 302.055,204.223 L 299.257,204.702 L 296.496,205.22 L 293.662,205.939 L 290.974,206.657 L 288.324,207.575 L 285.71,208.572 L 283.133,209.65 L 280.667,210.847 L 278.311,212.164 L 276.029,213.521 L 273.82,215.037 L 271.648,216.554 L 269.697,218.27 L 267.746,219.946 L 265.942,221.781 L 264.285,223.617 L 262.702,225.532 L 261.304,227.568 L 260.015,229.643 L 258.8,231.758 L 257.733,233.873 L 256.849,236.107 L 256.113,238.262 L 255.45,240.537 L 255.009,242.851 L 254.641,245.126 L 254.493,247.401 L 254.42,249.715 L 254.604,251.99 L 254.825,254.304 L 255.193,256.619"/>
      <path style="fill: #b6c7c9; fill-opacity: 1; stroke: none" fill-rule="evenodd" d="M 301.245 330.764 L 242.124,329.527 L 242.124,331.642 L 242.235,333.637 L 242.529,335.752 L 243.008,337.747 L 243.56,339.782 L 244.259,341.857 L 245.18,343.773 L 246.137,345.728 L 247.352,347.644 L 248.64,349.479 L 250.002,351.355 L 251.622,353.111 L 253.242,354.827 L 255.082,356.463 L 256.96,358.059 L 258.984,359.576 L 261.156,360.972 L 263.365,362.329 L 265.684,363.686 L 268.114,364.843 L 270.617,365.96 L 273.231,367.038 L 275.881,367.916 L 278.532,368.794 L 281.33,369.552 L 284.164,370.19 L 287.036,370.709 L 289.944,371.188 L 292.852,371.547 L 295.797,371.787 L 298.779,371.906 L 301.797,371.906 L 304.706,371.827 L 307.687,371.667 L 310.632,371.428 L 313.54,371.068 L 316.485,370.55 L 319.283,369.951 L 322.155,369.313 L 324.842,368.475 L 327.566,367.676 L 330.217,366.679 L 332.72,365.601 L 335.26,364.444 L 337.579,363.207 L 339.898,361.93 L 301.245,330.764z"/>
      <path style="fill: none; stroke-opacity: 1; stroke-width: 0.02; stroke: #6c8f93" d="M 242.198 329.527 L 242.087,331.562 L 242.308,333.637 L 242.529,335.672 L 243.008,337.747 L 243.56,339.742 L 244.296,341.778 L 245.18,343.773 L 246.21,345.728 L 247.352,347.604 L 248.566,349.479 L 250.002,351.275 L 251.511,353.071 L 253.242,354.747 L 255.009,356.463 L 256.923,357.979 L 258.911,359.496 L 261.046,360.972 L 263.255,362.329 L 265.574,363.606 L 268.003,364.803 L 270.507,365.921 L 273.047,366.958 L 275.697,367.916 L 278.458,368.794 L 281.182,369.472 L 283.98,370.111 L 286.851,370.709 L 289.796,371.108 L 292.705,371.547 L 295.613,371.707 L 298.595,371.906 L 301.576,371.906 L 304.521,371.906 L 307.466,371.707 L 310.411,371.428 L 313.32,371.068 L 316.265,370.59 L 319.062,370.031 L 321.934,369.352 L 324.658,368.554 L 327.308,367.676 L 329.959,366.719 L 332.499,365.681 L 335.039,364.564 L 337.432,363.327 L 339.677,362.05"/>
      <path style="fill: #b6c7c9; fill-opacity: 1; stroke: none" fill-rule="evenodd" d="M 489.357 241.774 L 541.373,253.307 L 542.256,251.591 L 542.919,249.875 L 543.545,248.119 L 543.913,246.323 L 544.281,244.527 L 544.355,242.732 L 544.355,240.896 L 544.281,239.14 L 543.987,237.344 L 543.582,235.549 L 542.993,233.793 L 542.293,232.037 L 541.483,230.361 L 540.526,228.645 L 539.422,227.009 L 538.17,225.373 L 536.771,223.777 L 535.336,222.26 L 533.753,220.784 L 532.059,219.387 L 530.256,217.95 L 528.268,216.673 L 526.28,215.436 L 524.108,214.279 L 521.936,213.162 L 519.654,212.164 L 517.298,211.166 L 514.831,210.288 L 512.328,209.49 L 509.751,208.772 L 507.1,208.173 L 504.487,207.655 L 501.726,207.176 L 499.002,206.817 L 496.241,206.537 L 493.443,206.418 L 490.682,206.298 L 487.921,206.298 L 485.123,206.418 L 482.326,206.577 L 479.602,206.857 L 476.841,207.216 L 474.117,207.655 L 471.429,208.213 L 489.357,241.774z"/>
      <path style="fill: none; stroke-opacity: 1; stroke-width: 0.02; stroke: #6c8f93" d="M 536.587 259.811 L 541.336,253.387 L 542.22,251.711 L 542.919,249.955 L 543.471,248.199 L 543.913,246.403 L 544.207,244.607 L 544.318,242.851 L 544.355,240.976 L 544.244,239.22 L 543.987,237.424 L 543.582,235.629 L 542.993,233.873 L 542.293,232.117 L 541.52,230.401 L 540.563,228.765 L 539.422,227.049 L 538.17,225.413 L 536.882,223.816 L 535.372,222.3 L 533.79,220.824 L 532.096,219.387 L 530.292,218.03 L 528.378,216.753 L 526.353,215.476 L 524.255,214.279 L 522.01,213.202 L 519.727,212.164 L 517.371,211.206 L 514.905,210.408 L 512.401,209.57 L 509.861,208.812 L 507.248,208.173 L 504.56,207.655 L 501.91,207.176 L 499.186,206.817 L 496.425,206.577 L 493.627,206.418 L 490.829,206.298 L 487.995,206.298 L 485.234,206.418 L 482.436,206.577 L 479.675,206.817 L 476.951,207.176 L 474.264,207.615 L 471.576,208.173"/>
      <path style="fill: #b6c7c9; fill-opacity: 1; stroke: none" fill-rule="evenodd" d="M 496.756 288.663 L 555.325,303.269 L 556.503,301.353 L 557.46,299.478 L 558.343,297.482 L 559.043,295.487 L 559.521,293.492 L 559.853,291.496 L 559.963,289.421 L 559.963,287.386 L 559.742,285.351 L 559.411,283.356 L 558.822,281.321 L 558.123,279.365 L 557.202,277.41 L 556.208,275.454 L 554.957,273.579 L 553.558,271.783 L 552.049,269.947 L 550.318,268.152 L 548.478,266.476 L 496.756,288.663z"/>
      <path style="fill: none; stroke-opacity: 1; stroke-width: 0.02; stroke: #6c8f93" d="M 547.889 309.893 L 555.251,303.348 L 556.356,301.473 L 557.46,299.478 L 558.307,297.522 L 559.006,295.487 L 559.485,293.492 L 559.853,291.496 L 560,289.421 L 559.963,287.386 L 559.742,285.311 L 559.337,283.316 L 558.822,281.321 L 558.123,279.325 L 557.202,277.33 L 556.172,275.375 L 554.883,273.459 L 553.521,271.663 L 551.901,269.828 L 550.245,268.072 L 548.367,266.396 L 536.587,259.811"/>
      <path style="fill: #b6c7c9; fill-opacity: 1; stroke: none" fill-rule="evenodd" d="M 494.29 327.212 L 475.81,382.641 L 478.534,383.519 L 481.295,384.317 L 484.056,384.916 L 486.927,385.395 L 489.725,385.754 L 492.523,385.913 L 495.431,385.913 L 498.265,385.754 L 501.063,385.514 L 503.898,385.035 L 506.659,384.437 L 509.42,383.758 L 512.144,382.88 L 514.831,381.803 L 517.408,380.646 L 519.985,379.329 L 522.488,377.892 L 524.918,376.296 L 527.274,374.66 L 529.519,372.784 L 531.654,370.829 L 533.716,368.794 L 535.704,366.599 L 537.581,364.324 L 539.275,361.97 L 540.894,359.496 L 542.44,356.982 L 543.803,354.348 L 545.017,351.714 L 546.159,348.961 L 547.116,346.127 L 547.999,343.254 L 548.699,340.381 L 549.288,337.428 L 549.656,334.515 L 549.987,331.522 L 550.061,328.529 L 550.061,325.536 L 549.913,322.543 L 549.619,319.55 L 549.177,316.597 L 548.625,313.684 L 547.889,310.811 L 494.29,327.212z"/>
      <path style="fill: none; stroke-opacity: 1; stroke-width: 0.02; stroke: #6c8f93" d="M 475.957 382.681 L 478.718,383.639 L 481.442,384.397 L 484.24,385.035 L 487.038,385.434 L 489.909,385.754 L 492.707,385.913 L 495.541,385.993 L 498.376,385.754 L 501.247,385.514 L 504.045,385.035 L 506.806,384.437 L 509.567,383.679 L 512.291,382.801 L 514.942,381.763 L 517.592,380.566 L 520.132,379.289 L 522.599,377.892 L 524.991,376.296 L 527.347,374.54 L 529.593,372.705 L 531.728,370.709 L 533.79,368.674 L 535.777,366.559 L 537.618,364.245 L 539.385,361.85 L 540.931,359.456 L 542.477,356.862 L 543.839,354.228 L 545.054,351.594 L 546.159,348.841 L 547.152,345.968 L 548.036,343.134 L 548.699,340.221 L 549.288,337.308 L 549.729,334.395 L 549.987,331.402 L 550.061,328.409 L 550.061,325.416 L 549.877,322.423 L 549.619,319.43 L 549.14,316.477 L 548.515,313.564 L 547.889,310.691"/>
      <path style="fill: #b6c7c9; fill-opacity: 1; stroke: none" fill-rule="evenodd" d="M 260.162 295.726 L 257.365,258.095 L 255.303,258.295 L 253.352,258.534 L 251.291,258.933 L 249.303,259.412 L 247.352,259.971 L 245.437,260.689 L 243.56,261.368 L 241.719,262.286 L 239.879,263.163 L 238.149,264.161 L 236.455,265.278 L 234.835,266.436 L 233.252,267.673 L 231.817,269.03 L 230.381,270.386 L 229.056,271.823 L 227.804,273.339 L 226.663,274.936 L 225.522,276.532 L 224.528,278.248 L 223.681,280.004 L 222.871,281.759 L 222.098,283.515 L 221.509,285.351 L 221.031,287.227 L 220.589,289.102 L 220.258,291.018 L 220.11,292.973 L 220,294.849 L 220,296.764 L 220.11,298.64 L 220.331,300.595 L 220.663,302.471 L 221.031,304.346 L 221.583,306.222 L 222.172,308.057 L 222.908,309.853 L 223.718,311.609 L 224.638,313.325 L 225.632,315.041 L 226.773,316.597 L 227.915,318.193 L 229.203,319.71 L 230.565,321.146 L 231.964,322.543 L 233.473,323.82 L 235.056,325.057 L 236.676,326.254 L 238.406,327.332 L 240.1,328.329 L 241.94,329.247 L 260.162,295.726z"/>
      <path style="fill: none; stroke-opacity: 1; stroke-width: 0.02; stroke: #6c8f93" d="M 257.365 258.095 L 255.414,258.295 L 253.389,258.534 L 251.401,258.933 L 249.487,259.372 L 247.536,259.931 L 245.621,260.53 L 243.781,261.288 L 241.977,262.086 L 240.173,262.964 L 238.517,263.962 L 236.786,265.039 L 235.204,266.156 L 233.657,267.354 L 232.185,268.67 L 230.712,270.027 L 229.424,271.384 L 228.136,272.9 L 226.994,274.417 L 225.89,276.013 L 224.933,277.649 L 224.013,279.325 L 223.129,281.001 L 222.393,282.757 L 221.73,284.553 L 221.178,286.389 L 220.773,288.224 L 220.368,290.1 L 220.147,291.975 L 220,293.851 L 220,295.726 L 220,297.602 L 220.221,299.478 L 220.442,301.353 L 220.773,303.229 L 221.252,305.064 L 221.73,306.86 L 222.393,308.616 L 223.203,310.452 L 224.013,312.168 L 224.933,313.804 L 225.964,315.44 L 227.031,317.036 L 228.172,318.553 L 229.424,320.029 L 230.786,321.426 L 232.222,322.783 L 233.694,324.059 L 235.277,325.257 L 236.823,326.414 L 238.517,327.451 L 240.247,328.409 L 242.014,329.327"/>
      <path style="fill: #b6c7c9; fill-opacity: 1; stroke: none" fill-rule="evenodd" d="M 409.29 356.144 L 325.505,360.493 L 326.057,362.688 L 326.756,364.923 L 327.713,367.078 L 328.928,369.193 L 330.217,371.228 L 331.799,373.303 L 333.53,375.298 L 335.481,377.294 L 337.653,379.169 L 339.972,381.045 L 342.401,382.801 L 345.089,384.517 L 347.887,386.153 L 350.868,387.749 L 353.997,389.186 L 357.237,390.622 L 360.697,391.899 L 364.158,393.176 L 367.802,394.293 L 371.52,395.371 L 375.422,396.249 L 379.324,397.127 L 383.263,397.845 L 387.386,398.484 L 391.509,399.002 L 395.669,399.401 L 399.792,399.721 L 404.026,399.88 L 408.296,400 L 412.492,400 L 416.763,399.84 L 420.959,399.601 L 425.119,399.242 L 429.242,398.723 L 433.365,398.164 L 437.341,397.486 L 441.317,396.648 L 445.182,395.85 L 449.01,394.852 L 452.692,393.735 L 456.226,392.538 L 459.686,391.261 L 463.036,389.864 L 466.239,388.427 L 469.294,386.911 L 472.129,385.315 L 474.89,383.639 L 477.43,381.883 L 479.859,380.047 L 482.105,378.172 L 484.093,376.296 L 485.933,374.301 L 487.627,372.226 L 489.062,370.19 L 409.29,356.144z"/>
      <path style="fill: none; stroke-opacity: 1; stroke-width: 0.02; stroke: #6c8f93" d="M 325.578 360.573 L 326.057,362.728 L 326.793,364.923 L 327.713,367.078 L 328.928,369.193 L 330.29,371.308 L 331.799,373.303 L 333.566,375.298 L 335.481,377.294 L 337.653,379.169 L 339.972,381.045 L 342.401,382.801 L 345.089,384.517 L 347.96,386.153 L 350.868,387.749 L 353.997,389.186 L 357.237,390.622 L 360.697,391.899 L 364.158,393.136 L 367.802,394.293 L 371.52,395.371 L 375.349,396.249 L 379.251,397.127 L 383.227,397.845 L 387.35,398.484 L 391.436,399.002 L 395.595,399.362 L 399.755,399.721 L 403.952,399.88 L 408.185,400 L 412.419,399.96 L 416.615,399.84 L 420.812,399.521 L 425.045,399.242 L 429.168,398.723 L 433.218,398.124 L 437.267,397.486 L 441.206,396.728 L 445.071,395.85 L 448.863,394.852 L 452.508,393.735 L 456.115,392.538 L 459.576,391.301 L 462.889,389.984 L 466.091,388.507 L 469.11,386.991 L 472.055,385.395 L 474.779,383.639 L 477.356,381.923 L 479.786,380.087 L 481.958,378.291 L 484.019,376.296 L 485.86,374.341 L 487.479,372.305 L 488.989,370.23"/>
    </g>
  </g>
  <g id="Vordergrund">
    <g>
      <path style="fill: #0078aa; fill-opacity: 1; stroke-opacity: 1; stroke-width: 0.02; stroke: #000000" fill-rule="evenodd" d="M 375.909 166.823 C 375.909,170.678 367.871,173.725 357.955,173.725 C 348.038,173.725 340,170.598 340,166.823 L 340,193.098 C 340,196.955 348.038,200 357.955,200 C 367.871,200 375.909,196.875 375.909,193.098 L 375.909,166.823z"/>
      <path style="fill: none; stroke-opacity: 1; stroke-width: 0.2; stroke: #add6e7" d="M 375.909 166.823 C 375.909,170.678 367.871,173.725 357.955,173.725 C 348.038,173.725 340,170.598 340,166.823 L 340,193.098 C 340,196.955 348.038,200 357.955,200 C 367.871,200 375.909,196.875 375.909,193.098 L 375.909,166.823"/>
      <path style="fill: #00b4ff; fill-opacity: 1; stroke-opacity: 1; stroke-width: 0.02; stroke: #000000" fill-rule="evenodd" d="M 357.955 173.805 C 367.871,173.805 375.909,170.677 375.909,166.902 C 375.909,163.046 367.871,160 357.955,160 C 348.038,160 340,163.125 340,166.902 C 340,170.758 348.038,173.805 357.955,173.805z"/>
      <path style="fill: none; stroke-opacity: 1; stroke-width: 0.2; stroke: #add6e7" d="M 357.955 173.805 C 367.871,173.805 375.909,170.677 375.909,166.902 C 375.909,163.046 367.871,160 357.955,160 C 348.038,160 340,163.125 340,166.902 C 340,170.758 348.038,173.805 357.955,173.805"/>
      <path style="fill: #ffffff; fill-opacity: 1; stroke-opacity: 1; stroke-width: 0.02; stroke: #ffffff" fill-rule="evenodd" d="M 353.855 164.092 L 355.338,166.315 L 349.732,167.612 L 350.956,166.592 L 342.293,165.111 L 344.466,163.482 L 352.826,164.897 L 353.855,164.092 L 353.855,164.092z"/>
      <path style="fill: #ffffff; fill-opacity: 1; stroke-opacity: 1; stroke-width: 0.02; stroke: #ffffff" fill-rule="evenodd" d="M 361.743 169.484 L 360.73,167.193 L 365.787,166.182 L 364.909,166.968 L 373.337,168.407 L 371.315,170.024 L 362.937,168.45 L 361.742,169.483 L 361.743,169.484z"/>
      <path style="fill: #ffffff; fill-opacity: 1; stroke-opacity: 1; stroke-width: 0.02; stroke: #ffffff" fill-rule="evenodd" d="M 358.98 162.878 L 364.642,161.328 L 364.709,163.754 L 363.294,163.484 L 360.53,165.776 L 357.894,165.393 L 360.745,163.151 L 358.981,162.878 L 358.98,162.878z"/>
      <path style="fill: #ffffff; fill-opacity: 1; stroke-opacity: 1; stroke-width: 0.02; stroke: #ffffff" fill-rule="evenodd" d="M 356.552 171.575 L 351.157,172.586 L 350.955,170.09 L 352.506,170.428 L 355.474,167.895 L 358.102,168.339 L 354.932,171.103 L 356.552,171.577 L 356.552,171.575z"/>
      <path style="fill: #ffffff; fill-opacity: 1; stroke-opacity: 1; stroke-width: 0.02; stroke: #ffffff" fill-rule="evenodd" d="M 358.231 183.013 L 358.231,177.352 L 359.192,177.352 L 357.776,175.217 L 356.359,177.352 L 357.319,177.352 L 357.319,183.013 L 358.232,183.013 L 358.231,183.013z"/>
      <path style="fill: #ffffff; fill-opacity: 1; stroke-opacity: 1; stroke-width: 0.02; stroke: #ffffff" fill-rule="evenodd" d="M 355.345 183.831 L 351.342,179.828 L 352.021,179.15 L 349.508,178.641 L 350.017,181.154 L 350.696,180.475 L 354.699,184.476 L 355.346,183.83 L 355.345,183.831z"/>
      <path style="fill: #ffffff; fill-opacity: 1; stroke-opacity: 1; stroke-width: 0.02; stroke: #ffffff" fill-rule="evenodd" d="M 353.88 186.533 L 348.218,186.533 L 348.218,185.572 L 346.082,186.988 L 348.218,188.406 L 348.218,187.445 L 353.88,187.445 L 353.88,186.532 L 353.88,186.533z"/>
      <path style="fill: #ffffff; fill-opacity: 1; stroke-opacity: 1; stroke-width: 0.02; stroke: #ffffff" fill-rule="evenodd" d="M 354.698 189.339 L 350.695,193.342 L 350.016,192.664 L 349.507,195.176 L 352.02,194.668 L 351.341,193.989 L 355.344,189.985 L 354.698,189.339 L 354.698,189.339z"/>
      <path style="fill: #ffffff; fill-opacity: 1; stroke-opacity: 1; stroke-width: 0.02; stroke: #ffffff" fill-rule="evenodd" d="M 357.318 190.803 L 357.318,196.464 L 356.358,196.464 L 357.775,198.601 L 359.191,196.464 L 358.23,196.464 L 358.23,190.803 L 357.317,190.803 L 357.318,190.803z"/>
      <path style="fill: #ffffff; fill-opacity: 1; stroke-opacity: 1; stroke-width: 0.02; stroke: #ffffff" fill-rule="evenodd" d="M 360.206 189.985 L 364.207,193.989 L 363.529,194.668 L 366.043,195.176 L 365.534,192.664 L 364.854,193.342 L 360.853,189.339 L 360.207,189.985 L 360.206,189.985z"/>
      <path style="fill: #ffffff; fill-opacity: 1; stroke-opacity: 1; stroke-width: 0.02; stroke: #ffffff" fill-rule="evenodd" d="M 361.67 187.366 L 367.332,187.366 L 367.332,188.327 L 369.467,186.909 L 367.332,185.493 L 367.332,186.454 L 361.67,186.454 L 361.67,187.367 L 361.67,187.366z"/>
      <path style="fill: #ffffff; fill-opacity: 1; stroke-opacity: 1; stroke-width: 0.02; stroke: #ffffff" fill-rule="evenodd" d="M 360.853 184.477 L 364.854,180.476 L 365.534,181.155 L 366.043,178.642 L 363.529,179.151 L 364.207,179.829 L 360.206,183.832 L 360.853,184.477z"/>
      <path style="fill: #e4405c; fill-opacity: 1; stroke-opacity: 1; stroke-width: 0.02; stroke: #ffffff" fill-rule="evenodd" d="M 361.239 191.654 C 363.89,189.797 364.535,186.143 362.678,183.49 C 360.821,180.838 357.166,180.194 354.515,182.051 C 351.864,183.908 351.221,187.563 353.078,190.215 C 354.934,192.867 358.589,193.51 361.239,191.654z"/>
    </g>
    <g>
      <path style="fill: none; stroke-opacity: 1; stroke-width: 0.8; stroke: #00aed9" d="M 272.883 358.401 L 272.883,340.469"/>
      <path style="fill: none; stroke-opacity: 1; stroke-width: 4; stroke: #00aed9" d="M 272.883 358.111 L 272.883,345.811"/>
      <path style="fill: #000000; fill-opacity: 1; stroke: none" fill-rule="evenodd" d="M 273.404 342.192 L 272.308,342.192 L 272.308,340 L 273.404,340 L 273.404,342.192z"/>
      <path style="fill: none; stroke-opacity: 1; stroke-width: 2; stroke: #00aed9" d="M 273.404 342.192 L 272.308,342.192 L 272.308,340 L 273.404,340 L 273.404,342.192"/>
      <path style="fill: none; stroke-opacity: 1; stroke-width: 0.8; stroke: #00aed9" d="M 246.304 358.401 L 246.304,340.469"/>
      <path style="fill: none; stroke-opacity: 1; stroke-width: 4; stroke: #00aed9" d="M 246.304 358.111 L 246.304,345.811"/>
      <path style="fill: #000000; fill-opacity: 1; stroke: none" fill-rule="evenodd" d="M 246.824 342.192 L 245.728,342.192 L 245.728,340 L 246.824,340 L 246.824,342.192z"/>
      <path style="fill: none; stroke-opacity: 1; stroke-width: 2; stroke: #00aed9" d="M 246.824 342.192 L 245.728,342.192 L 245.728,340 L 246.824,340 L 246.824,342.192"/>
      <path style="fill: #00aed9; fill-opacity: 1; stroke: none" fill-rule="evenodd" d="M 280.318 360.677 C 280.318,365.007 271.293,368.516 260.159,368.516 C 249.025,368.516 240,365.007 240,360.677 L 240,372.16 C 240,376.49 249.025,380 260.159,380 C 271.293,380 280.318,376.49 280.318,372.16 L 280.318,360.677z"/>
      <path style="fill: none; stroke-opacity: 1; stroke-width: 0.8; stroke: #ffffff" d="M 280.318 360.677 C 280.318,365.007 271.293,368.516 260.159,368.516 C 249.025,368.516 240,365.007 240,360.677 L 240,372.16 C 240,376.49 249.025,380 260.159,380 C 271.293,380 280.318,376.49 280.318,372.16 L 280.318,360.677"/>
      <path style="fill: #00aed9; fill-opacity: 1; stroke: none" fill-rule="evenodd" d="M 260.159 368.516 C 271.293,368.516 280.318,365.007 280.318,360.677 C 280.318,356.347 271.293,352.837 260.159,352.837 C 249.025,352.837 240,356.347 240,360.677 C 240,365.007 249.025,368.516 260.159,368.516z"/>
      <path style="fill: none; stroke-opacity: 1; stroke-width: 0.8; stroke: #ffffff" d="M 260.159 368.516 C 271.293,368.516 280.318,365.007 280.318,360.677 C 280.318,356.347 271.293,352.837 260.159,352.837 C 249.025,352.837 240,356.347 240,360.677 C 240,365.007 249.025,368.516 260.159,368.516"/>
      <path style="fill: #ffffff; fill-opacity: 1; stroke: none" fill-rule="evenodd" d="M 255.555 357.612 L 257.22,360.109 L 250.927,361.563 L 252.301,360.419 L 242.574,358.756 L 245.015,356.927 L 254.4,358.516 L 255.555,357.612z"/>
      <path style="fill: #ffffff; fill-opacity: 1; stroke: none" fill-rule="evenodd" d="M 264.413 363.666 L 263.276,361.093 L 268.953,359.958 L 267.968,360.84 L 277.431,362.456 L 275.162,364.272 L 265.754,362.507 L 264.413,363.666z"/>
      <path style="fill: #ffffff; fill-opacity: 1; stroke: none" fill-rule="evenodd" d="M 261.308 356.248 L 267.667,354.508 L 267.742,357.234 L 266.153,356.93 L 263.048,359.503 L 260.088,359.072 L 263.29,356.554 L 261.308,356.248z"/>
      <path style="fill: #ffffff; fill-opacity: 1; stroke: none" fill-rule="evenodd" d="M 258.583 366.014 L 252.528,367.149 L 252.301,364.349 L 254.041,364.726 L 257.374,361.88 L 260.324,362.38 L 256.767,365.484 L 258.583,366.014z"/>
    </g>
    <g>
      <path style="fill: none; stroke-opacity: 1; stroke-width: 0.8; stroke: #00aed9" d="M 432.883 398.401 L 432.883,380.469"/>
      <path style="fill: none; stroke-opacity: 1; stroke-width: 4; stroke: #00aed9" d="M 432.883 398.111 L 432.883,385.811"/>
      <path style="fill: #000000; fill-opacity: 1; stroke: none" fill-rule="evenodd" d="M 433.404 382.192 L 432.308,382.192 L 432.308,380 L 433.404,380 L 433.404,382.192z"/>
      <path style="fill: none; stroke-opacity: 1; stroke-width: 2; stroke: #00aed9" d="M 433.404 382.192 L 432.308,382.192 L 432.308,380 L 433.404,380 L 433.404,382.192"/>
      <path style="fill: none; stroke-opacity: 1; stroke-width: 0.8; stroke: #00aed9" d="M 406.304 398.401 L 406.304,380.469"/>
      <path style="fill: none; stroke-opacity: 1; stroke-width: 4; stroke: #00aed9" d="M 406.304 398.111 L 406.304,385.811"/>
      <path style="fill: #000000; fill-opacity: 1; stroke: none" fill-rule="evenodd" d="M 406.824 382.192 L 405.728,382.192 L 405.728,380 L 406.824,380 L 406.824,382.192z"/>
      <path style="fill: none; stroke-opacity: 1; stroke-width: 2; stroke: #00aed9" d="M 406.824 382.192 L 405.728,382.192 L 405.728,380 L 406.824,380 L 406.824,382.192"/>
      <path style="fill: #00aed9; fill-opacity: 1; stroke: none" fill-rule="evenodd" d="M 440.318 400.677 C 440.318,405.007 431.293,408.516 420.159,408.516 C 409.025,408.516 400,405.007 400,400.677 L 400,412.16 C 400,416.49 409.025,420 420.159,420 C 431.293,420 440.318,416.49 440.318,412.16 L 440.318,400.677z"/>
      <path style="fill: none; stroke-opacity: 1; stroke-width: 0.8; stroke: #ffffff" d="M 440.318 400.677 C 440.318,405.007 431.293,408.516 420.159,408.516 C 409.025,408.516 400,405.007 400,400.677 L 400,412.16 C 400,416.49 409.025,420 420.159,420 C 431.293,420 440.318,416.49 440.318,412.16 L 440.318,400.677"/>
      <path style="fill: #00aed9; fill-opacity: 1; stroke: none" fill-rule="evenodd" d="M 420.159 408.516 C 431.293,408.516 440.318,405.007 440.318,400.677 C 440.318,396.347 431.293,392.837 420.159,392.837 C 409.025,392.837 400,396.347 400,400.677 C 400,405.007 409.025,408.516 420.159,408.516z"/>
      <path style="fill: none; stroke-opacity: 1; stroke-width: 0.8; stroke: #ffffff" d="M 420.159 408.516 C 431.293,408.516 440.318,405.007 440.318,400.677 C 440.318,396.347 431.293,392.837 420.159,392.837 C 409.025,392.837 400,396.347 400,400.677 C 400,405.007 409.025,408.516 420.159,408.516"/>
      <path style="fill: #ffffff; fill-opacity: 1; stroke: none" fill-rule="evenodd" d="M 415.555 397.612 L 417.22,400.109 L 410.927,401.563 L 412.301,400.419 L 402.574,398.756 L 405.015,396.927 L 414.4,398.516 L 415.555,397.612z"/>
      <path style="fill: #ffffff; fill-opacity: 1; stroke: none" fill-rule="evenodd" d="M 424.413 403.666 L 423.276,401.093 L 428.953,399.958 L 427.968,400.84 L 437.431,402.456 L 435.162,404.272 L 425.754,402.507 L 424.413,403.666z"/>
      <path style="fill: #ffffff; fill-opacity: 1; stroke: none" fill-rule="evenodd" d="M 421.308 396.248 L 427.667,394.508 L 427.742,397.234 L 426.153,396.93 L 423.048,399.503 L 420.088,399.072 L 423.29,396.554 L 421.308,396.248z"/>
      <path style="fill: #ffffff; fill-opacity: 1; stroke: none" fill-rule="evenodd" d="M 418.583 406.014 L 412.528,407.149 L 412.301,404.349 L 414.041,404.726 L 417.374,401.88 L 420.324,402.38 L 416.767,405.484 L 418.583,406.014z"/>
    </g>
    <g>
      <path style="fill: none; stroke-opacity: 1; stroke-width: 0.8; stroke: #00aed9" d="M 572.883 278.401 L 572.883,260.469"/>
      <path style="fill: none; stroke-opacity: 1; stroke-width: 4; stroke: #00aed9" d="M 572.883 278.111 L 572.883,265.811"/>
      <path style="fill: #000000; fill-opacity: 1; stroke: none" fill-rule="evenodd" d="M 573.404 262.192 L 572.308,262.192 L 572.308,260 L 573.404,260 L 573.404,262.192z"/>
      <path style="fill: none; stroke-opacity: 1; stroke-width: 2; stroke: #00aed9" d="M 573.404 262.192 L 572.308,262.192 L 572.308,260 L 573.404,260 L 573.404,262.192"/>
      <path style="fill: none; stroke-opacity: 1; stroke-width: 0.8; stroke: #00aed9" d="M 546.304 278.401 L 546.304,260.469"/>
      <path style="fill: none; stroke-opacity: 1; stroke-width: 4; stroke: #00aed9" d="M 546.304 278.111 L 546.304,265.811"/>
      <path style="fill: #000000; fill-opacity: 1; stroke: none" fill-rule="evenodd" d="M 546.824 262.192 L 545.728,262.192 L 545.728,260 L 546.824,260 L 546.824,262.192z"/>
      <path style="fill: none; stroke-opacity: 1; stroke-width: 2; stroke: #00aed9" d="M 546.824 262.192 L 545.728,262.192 L 545.728,260 L 546.824,260 L 546.824,262.192"/>
      <path style="fill: #00aed9; fill-opacity: 1; stroke: none" fill-rule="evenodd" d="M 580.318 280.677 C 580.318,285.007 571.293,288.516 560.159,288.516 C 549.025,288.516 540,285.007 540,280.677 L 540,292.16 C 540,296.49 549.025,300 560.159,300 C 571.293,300 580.318,296.49 580.318,292.16 L 580.318,280.677z"/>
      <path style="fill: none; stroke-opacity: 1; stroke-width: 0.8; stroke: #ffffff" d="M 580.318 280.677 C 580.318,285.007 571.293,288.516 560.159,288.516 C 549.025,288.516 540,285.007 540,280.677 L 540,292.16 C 540,296.49 549.025,300 560.159,300 C 571.293,300 580.318,296.49 580.318,292.16 L 580.318,280.677"/>
      <path style="fill: #00aed9; fill-opacity: 1; stroke: none" fill-rule="evenodd" d="M 560.159 288.516 C 571.293,288.516 580.318,285.007 580.318,280.677 C 580.318,276.347 571.293,272.837 560.159,272.837 C 549.025,272.837 540,276.347 540,280.677 C 540,285.007 549.025,288.516 560.159,288.516z"/>
      <path style="fill: none; stroke-opacity: 1; stroke-width: 0.8; stroke: #ffffff" d="M 560.159 288.516 C 571.293,288.516 580.318,285.007 580.318,280.677 C 580.318,276.347 571.293,272.837 560.159,272.837 C 549.025,272.837 540,276.347 540,280.677 C 540,285.007 549.025,288.516 560.159,288.516"/>
      <path style="fill: #ffffff; fill-opacity: 1; stroke: none" fill-rule="evenodd" d="M 555.555 277.612 L 557.22,280.109 L 550.927,281.563 L 552.301,280.419 L 542.574,278.756 L 545.015,276.927 L 554.4,278.516 L 555.555,277.612z"/>
      <path style="fill: #ffffff; fill-opacity: 1; stroke: none" fill-rule="evenodd" d="M 564.413 283.666 L 563.276,281.093 L 568.953,279.958 L 567.968,280.84 L 577.431,282.456 L 575.162,284.272 L 565.754,282.507 L 564.413,283.666z"/>
      <path style="fill: #ffffff; fill-opacity: 1; stroke: none" fill-rule="evenodd" d="M 561.308 276.248 L 567.667,274.508 L 567.742,277.234 L 566.153,276.93 L 563.048,279.503 L 560.088,279.072 L 563.29,276.554 L 561.308,276.248z"/>
      <path style="fill: #ffffff; fill-opacity: 1; stroke: none" fill-rule="evenodd" d="M 558.583 286.014 L 552.528,287.149 L 552.301,284.349 L 554.041,284.726 L 557.374,281.88 L 560.324,282.38 L 556.767,285.484 L 558.583,286.014z"/>
    </g>
    <text font-size="16.9785" style="fill: #ff0000; fill-opacity: 1; stroke: none;text-anchor:start;font-family:sans-serif;font-style:normal;font-weight:normal" x="320" y="140">
      <tspan x="320" y="140">gw server</tspan>
    </text>
    <path style="fill: none; stroke-opacity: 1; stroke-width: 2; stroke-dasharray: 4; stroke: #000000" d="M 300,180 A 65,65 0 0 0 420,180"/>
    <path style="fill: none; stroke-opacity: 1; stroke-width: 2; stroke-dasharray: 4; stroke: #000000" d="M 280,200 A 100,100 0 0 0 440,200"/>
    <path style="fill: none; stroke-opacity: 1; stroke-width: 2; stroke-dasharray: 4; stroke: #000000" d="M 260,220 A 145,145 0 0 0 460,220"/>
    <text font-size="16.9785" style="fill: #000000; fill-opacity: 1; stroke: none;text-anchor:start;font-family:sans-serif;font-style:normal;font-weight:normal" x="420" y="200">
      <tspan x="420" y="200">ARP Req @30kbit/s</tspan>
    </text>
    <path style="fill: none; stroke-opacity: 1; stroke-width: 2; stroke-dasharray: 4; stroke: #000000" d="M 240,240 A 200,200 0 0 0 480,240"/>
    <text font-size="16.9785" style="fill: #000000; fill-opacity: 1; stroke: none;text-anchor:start;font-family:sans-serif;font-style:normal;font-weight:normal" x="340" y="320">
      <tspan x="340" y="320">1000 nodes</tspan>
    </text>
  </g>
</svg>
