<?xml version="1.0" encoding="UTF-8" standalone="no"?>
<!DOCTYPE svg PUBLIC "-//W3C//DTD SVG 1.0//EN" "http://www.w3.org/TR/2001/PR-SVG-20010719/DTD/svg10.dtd">
<svg width="27cm" height="11cm" viewBox="240 79 535 213" xmlns="http://www.w3.org/2000/svg" xmlns:xlink="http://www.w3.org/1999/xlink">
  <g id="Background">
    <line style="fill: none; stroke-opacity: 1; stroke-width: 1; stroke: #000000" x1="320" y1="100" x2="700" y2="100"/>
    <line style="fill: none; stroke-opacity: 1; stroke-width: 1; stroke: #000000" x1="320" y1="160" x2="700" y2="160"/>
    <line style="fill: none; stroke-opacity: 1; stroke-width: 1; stroke: #000000" x1="320" y1="280" x2="700" y2="280"/>
    <text font-size="12.8" style="fill: #000000; fill-opacity: 1; stroke: none;text-anchor:start;font-family:sans-serif;font-style:normal;font-weight:normal" x="721" y="158">
      <tspan x="721" y="158">BATMAN</tspan>
      <tspan xml:space="preserve" x="721" y="174"> module</tspan>
    </text>
    <text font-size="12.8" style="fill: #000000; fill-opacity: 1; stroke: none;text-anchor:start;font-family:sans-serif;font-style:normal;font-weight:normal" x="720" y="100">
      <tspan x="720" y="100">batctl</tspan>
    </text>
    <text font-size="12.8" style="fill: #000000; fill-opacity: 1; stroke: none;text-anchor:start;font-family:sans-serif;font-style:normal;font-weight:normal" x="720" y="273">
      <tspan x="720" y="273">BATMAN</tspan>
      <tspan xml:space="preserve" x="720" y="289"> module</tspan>
    </text>
    <g>
      <line style="fill: none; stroke-opacity: 1; stroke-width: 1; stroke: #000000" x1="340" y1="100" x2="359.293" y2="157.879"/>
      <polyline style="fill: none; stroke-opacity: 1; stroke-width: 1; stroke: #000000" points="351.741,151.034 359.646,158.939 361.228,147.871 "/>
    </g>
    <g>
      <line style="fill: none; stroke-opacity: 1; stroke-width: 1; stroke: #ff0000" x1="380" y1="160" x2="419.293" y2="277.879"/>
      <polyline style="fill: none; stroke-opacity: 1; stroke-width: 1; stroke: #ff0000" points="411.741,271.034 419.646,278.939 421.228,267.871 "/>
    </g>
    <g>
      <line style="fill: none; stroke-opacity: 1; stroke-width: 1; stroke: #ff0000" x1="420" y1="160" x2="459.293" y2="277.879"/>
      <polyline style="fill: none; stroke-opacity: 1; stroke-width: 1; stroke: #ff0000" points="451.741,271.034 459.646,278.939 461.228,267.871 "/>
    </g>
    <g>
      <line style="fill: none; stroke-opacity: 1; stroke-width: 1; stroke: #ff0000" x1="400" y1="160" x2="439.293" y2="277.879"/>
      <polyline style="fill: none; stroke-opacity: 1; stroke-width: 1; stroke: #ff0000" points="431.741,271.034 439.646,278.939 441.228,267.871 "/>
    </g>
    <g>
      <line style="fill: none; stroke-opacity: 1; stroke-width: 1; stroke: #0000ff" x1="420" y1="280" x2="479" y2="162"/>
      <polyline style="fill: none; stroke-opacity: 1; stroke-width: 1; stroke: #0000ff" points="479.5,172.18 479.5,161 470.556,167.708 "/>
    </g>
    <g>
      <line style="fill: none; stroke-opacity: 1; stroke-width: 1; stroke: #0000ff" x1="440" y1="280" x2="499" y2="162"/>
      <polyline style="fill: none; stroke-opacity: 1; stroke-width: 1; stroke: #0000ff" points="499.5,172.18 499.5,161 490.556,167.708 "/>
    </g>
    <g>
      <line style="fill: none; stroke-opacity: 1; stroke-width: 1; stroke: #0000ff" x1="460" y1="280" x2="519" y2="162"/>
      <polyline style="fill: none; stroke-opacity: 1; stroke-width: 1; stroke: #0000ff" points="519.5,172.18 519.5,161 510.556,167.708 "/>
    </g>
    <g>
      <line style="fill: none; stroke-opacity: 1; stroke-width: 1; stroke: #0000ff" x1="540" y1="280" x2="599" y2="162"/>
      <polyline style="fill: none; stroke-opacity: 1; stroke-width: 1; stroke: #0000ff" points="599.5,172.18 599.5,161 590.556,167.708 "/>
    </g>
    <g>
      <line style="fill: none; stroke-opacity: 1; stroke-width: 1; stroke: #0000ff" x1="560" y1="280" x2="619" y2="162"/>
      <polyline style="fill: none; stroke-opacity: 1; stroke-width: 1; stroke: #0000ff" points="619.5,172.18 619.5,161 610.556,167.708 "/>
    </g>
    <text font-size="28.2222" style="fill: #0000ff; fill-opacity: 1; stroke: none;text-anchor:start;font-family:sans-serif;font-style:normal;font-weight:normal" x="520" y="220">
      <tspan x="520" y="220">....</tspan>
    </text>
    <g>
      <line style="fill: none; stroke-opacity: 1; stroke-width: 1; stroke: #000000" x1="640" y1="160" x2="659.293" y2="102.121"/>
      <polyline style="fill: none; stroke-opacity: 1; stroke-width: 1; stroke: #000000" points="661.228,112.129 659.646,101.061 651.741,108.966 "/>
    </g>
    <line style="fill: none; stroke-opacity: 1; stroke-width: 2; stroke: #ff0000" x1="300" y1="100" x2="300" y2="160"/>
    <text font-size="12.8" style="fill: #ff0000; fill-opacity: 1; stroke: none;text-anchor:start;font-family:sans-serif;font-style:normal;font-weight:normal" x="240" y="133">
      <tspan x="240" y="133">SENDER</tspan>
    </text>
    <text font-size="12.8" style="fill: #ff0000; fill-opacity: 1; stroke: none;text-anchor:start;font-family:sans-serif;font-style:normal;font-weight:normal" x="240" y="280">
      <tspan x="240" y="280">RECEIVER</tspan>
    </text>
    <text font-size="12.8" style="fill: #000000; fill-opacity: 1; stroke: none;text-anchor:start;font-family:sans-serif;font-style:normal;font-weight:normal" x="309" y="92">
      <tspan x="309" y="92">batctl bw ....</tspan>
    </text>
    <text font-size="12.8" style="fill: #000000; fill-opacity: 1; stroke: none;text-anchor:start;font-family:sans-serif;font-style:normal;font-weight:normal" x="619" y="91">
      <tspan x="619" y="91">Bandwidth:...</tspan>
    </text>
    <text font-size="10.16" style="fill: #000000; fill-opacity: 1; stroke: none;text-anchor:start;font-family:sans-serif;font-style:normal;font-weight:normal" x="360" y="120">
      <tspan x="360" y="120">PACKET</tspan>
      <tspan x="360" y="132.7">through </tspan>
      <tspan x="360" y="145.4">local SOCKET</tspan>
    </text>
    <text font-size="10.16" style="fill: #000000; fill-opacity: 1; stroke: none;text-anchor:start;font-family:sans-serif;font-style:normal;font-weight:normal" x="580" y="120">
      <tspan x="580" y="120">PACKET</tspan>
      <tspan x="580" y="132.7">through </tspan>
      <tspan x="580" y="145.4">local SOCKET</tspan>
    </text>
    <text font-size="10.16" style="fill: #ff0000; fill-opacity: 1; stroke: none;text-anchor:start;font-family:sans-serif;font-style:normal;font-weight:normal" x="320" y="216">
      <tspan x="320" y="216">ICMP packets</tspan>
      <tspan x="320" y="228.7">with msg_type</tspan>
      <tspan x="320" y="241.4">BW_METER</tspan>
    </text>
    <text font-size="10.16" style="fill: #0000ff; fill-opacity: 1; stroke: none;text-anchor:start;font-family:sans-serif;font-style:normal;font-weight:normal" x="605" y="222">
      <tspan x="605" y="222">ACKs, ICMP </tspan>
      <tspan x="605" y="234.7">packets with </tspan>
      <tspan x="605" y="247.4">msg_type </tspan>
      <tspan x="605" y="260.1">BW_ACK</tspan>
    </text>
  </g>
</svg>
