<?xml version="1.0" encoding="UTF-8" standalone="no"?>
<!DOCTYPE svg PUBLIC "-//W3C//DTD SVG 1.0//EN" "http://www.w3.org/TR/2001/PR-SVG-20010719/DTD/svg10.dtd">
<svg width="47cm" height="24cm" viewBox="98 -32 931 464" xmlns="http://www.w3.org/2000/svg" xmlns:xlink="http://www.w3.org/1999/xlink">
  <defs/>
  <g id="Background">
    <ellipse style="fill: #ffffff; fill-opacity: 1; stroke-opacity: 1; stroke-width: 3; stroke: #000000" cx="130" cy="130" rx="30" ry="30"/>
    <ellipse style="fill: #ffffff; fill-opacity: 1; stroke-opacity: 1; stroke-width: 3; stroke: #000000" cx="230" cy="130" rx="30" ry="30"/>
    <ellipse style="fill: #ffffff; fill-opacity: 1; stroke-opacity: 1; stroke-width: 3; stroke: #000000" cx="330" cy="130" rx="30" ry="30"/>
    <ellipse style="fill: #ffffff; fill-opacity: 1; stroke-opacity: 1; stroke-width: 3; stroke: #000000" cx="430" cy="130" rx="30" ry="30"/>
    <ellipse style="fill: #ffffff; fill-opacity: 1; stroke-opacity: 1; stroke-width: 3; stroke: #000000" cx="530" cy="130" rx="30" ry="30"/>
    <line style="fill: none; stroke-opacity: 1; stroke-width: 6; stroke: #000000" x1="530" y1="100" x2="530" y2="60"/>
    <line style="fill: none; stroke-opacity: 1; stroke-width: 6; stroke: #000000" x1="430" y1="100" x2="430" y2="60"/>
    <line style="fill: none; stroke-opacity: 1; stroke-width: 6; stroke: #000000" x1="330" y1="100" x2="330" y2="60"/>
    <line style="fill: none; stroke-opacity: 1; stroke-width: 6; stroke: #000000" x1="230" y1="100" x2="230" y2="60"/>
    <line style="fill: none; stroke-opacity: 1; stroke-width: 6; stroke: #000000" x1="130" y1="98.5205" x2="130" y2="60"/>
    <line style="fill: none; stroke-opacity: 1; stroke-width: 6; stroke: #000000" x1="430" y1="60" x2="430" y2="10"/>
    <ellipse style="fill: #ffffff; fill-opacity: 1; stroke-opacity: 1; stroke-width: 3; stroke: #000000" cx="430" cy="-10" rx="100" ry="20"/>
    <text font-size="16.9333" style="fill: #000000; fill-opacity: 1; stroke: none;text-anchor:middle;font-family:sans-serif;font-style:normal;font-weight:normal" x="430" y="-4.125">
      <tspan x="430" y="-4.125">Internet Gateway</tspan>
    </text>
    <ellipse style="fill: #ffffff; fill-opacity: 1; stroke-opacity: 1; stroke-width: 3; stroke: #000000" cx="490" cy="320" rx="30" ry="30"/>
    <ellipse style="fill: #ffffff; fill-opacity: 1; stroke-opacity: 1; stroke-width: 3; stroke: #000000" cx="340" cy="250" rx="30" ry="30"/>
    <ellipse style="fill: #ffffff; fill-opacity: 1; stroke-opacity: 1; stroke-width: 3; stroke: #000000" cx="170" cy="310" rx="30" ry="30"/>
    <line style="fill: none; stroke-opacity: 1; stroke-width: 3; stroke-dasharray: 2; stroke: #000000" x1="498.494" y1="130" x2="461.506" y2="130"/>
    <line style="fill: none; stroke-opacity: 1; stroke-width: 3; stroke-dasharray: 2; stroke: #000000" x1="523.51" y1="160.83" x2="496.49" y2="289.17"/>
    <line style="fill: none; stroke-opacity: 1; stroke-width: 3; stroke-dasharray: 2; stroke: #000000" x1="439.487" y1="160.041" x2="480.513" y2="289.959"/>
    <line style="fill: none; stroke-opacity: 1; stroke-width: 3; stroke-dasharray: 2; stroke: #000000" x1="358.902" y1="224.797" x2="411.098" y2="155.203"/>
    <line style="fill: none; stroke-opacity: 1; stroke-width: 3; stroke-dasharray: 2; stroke: #000000" x1="368.537" y1="263.317" x2="461.463" y2="306.683"/>
    <line style="fill: none; stroke-opacity: 1; stroke-width: 3; stroke-dasharray: 2; stroke: #000000" x1="337.402" y1="218.828" x2="332.598" y2="161.172"/>
    <line style="fill: none; stroke-opacity: 1; stroke-width: 3; stroke-dasharray: 2; stroke: #000000" x1="261.506" y1="130" x2="298.494" y2="130"/>
    <line style="fill: none; stroke-opacity: 1; stroke-width: 3; stroke-dasharray: 2; stroke: #000000" x1="361.506" y1="130" x2="398.494" y2="130"/>
    <line style="fill: none; stroke-opacity: 1; stroke-width: 3; stroke-dasharray: 2; stroke: #000000" x1="220.037" y1="159.888" x2="179.963" y2="280.112"/>
    <line style="fill: none; stroke-opacity: 1; stroke-width: 3; stroke-dasharray: 2; stroke: #000000" x1="163.184" y1="279.326" x2="136.816" y2="160.674"/>
    <line style="fill: none; stroke-opacity: 1; stroke-width: 3; stroke-dasharray: 2; stroke: #000000" x1="199.634" y1="299.541" x2="310.366" y2="260.459"/>
    <line style="fill: none; stroke-opacity: 1; stroke-width: 3; stroke-dasharray: 2; stroke: #000000" x1="198.494" y1="130" x2="161.506" y2="130"/>
    <rect style="fill: #ffffff; fill-opacity: 1; stroke-opacity: 1; stroke-width: 3; stroke: #000000" x="460" y="380" width="60" height="50" rx="0" ry="0"/>
    <line style="fill: none; stroke-opacity: 1; stroke-width: 6; stroke: #000000" x1="490" y1="350" x2="490" y2="380"/>
    <text font-size="12.8" style="fill: #000000; fill-opacity: 1; stroke: none;text-anchor:middle;font-family:sans-serif;font-style:normal;font-weight:normal" x="490" y="409.45">
      <tspan x="490" y="409.45">Client</tspan>
    </text>
    <g>
      <line style="fill: none; stroke-opacity: 1; stroke-width: 3; stroke-dasharray: 2; stroke: #0000ff" x1="540" y1="180" x2="522.255" y2="268.723"/>
      <polygon style="fill: #0000ff; fill-opacity: 1; stroke-opacity: 1; stroke-width: 3; stroke: #0000ff" fill-rule="evenodd" points="517.352,267.743 520.294,278.529 527.158,269.704 "/>
    </g>
    <g>
      <line style="fill: none; stroke-opacity: 1; stroke-width: 3; stroke-dasharray: 2; stroke: #0000ff" x1="380" y1="280" x2="430.431" y2="313.621"/>
      <polygon style="fill: #0000ff; fill-opacity: 1; stroke-opacity: 1; stroke-width: 3; stroke: #0000ff" fill-rule="evenodd" points="427.658,317.781 438.752,319.168 433.205,309.461 "/>
    </g>
    <g>
      <line style="fill: none; stroke-opacity: 1; stroke-width: 3; stroke-dasharray: 2; stroke: #0000ff" x1="420" y1="180" x2="455.729" y2="269.323"/>
      <polygon style="fill: #0000ff; fill-opacity: 1; stroke-opacity: 1; stroke-width: 3; stroke: #0000ff" fill-rule="evenodd" points="451.087,271.179 459.443,278.607 460.371,267.466 "/>
    </g>
    <g>
      <line style="fill: none; stroke-opacity: 1; stroke-width: 3; stroke-dasharray: 2; stroke: #0000ff" x1="320" y1="180" x2="320" y2="208.5"/>
      <polygon style="fill: #0000ff; fill-opacity: 1; stroke-opacity: 1; stroke-width: 3; stroke: #0000ff" fill-rule="evenodd" points="315,208.5 320,218.5 325,208.5 "/>
    </g>
    <g>
      <line style="fill: none; stroke-opacity: 1; stroke-width: 3; stroke-dasharray: 2; stroke: #0000ff" x1="300" y1="250" x2="220.91" y2="276.363"/>
      <polygon style="fill: #0000ff; fill-opacity: 1; stroke-opacity: 1; stroke-width: 3; stroke: #0000ff" fill-rule="evenodd" points="219.329,271.62 211.423,279.526 222.491,281.107 "/>
    </g>
    <g>
      <line style="fill: none; stroke-opacity: 1; stroke-width: 3; stroke-dasharray: 2; stroke: #0000ff" x1="200" y1="160" x2="182.789" y2="228.843"/>
      <polygon style="fill: #0000ff; fill-opacity: 1; stroke-opacity: 1; stroke-width: 3; stroke: #0000ff" fill-rule="evenodd" points="177.938,227.631 180.364,238.545 187.64,230.056 "/>
    </g>
    <g>
      <line style="fill: none; stroke-opacity: 1; stroke-width: 3; stroke-dasharray: 2; stroke: #0000ff" x1="120" y1="180" x2="137.211" y2="248.843"/>
      <polygon style="fill: #0000ff; fill-opacity: 1; stroke-opacity: 1; stroke-width: 3; stroke: #0000ff" fill-rule="evenodd" points="132.36,250.056 139.636,258.545 142.062,247.631 "/>
    </g>
    <g>
      <line style="fill: none; stroke-opacity: 1; stroke-width: 3; stroke-dasharray: 2; stroke: #0000ff" x1="190" y1="140" x2="181.5" y2="140"/>
      <polygon style="fill: #0000ff; fill-opacity: 1; stroke-opacity: 1; stroke-width: 3; stroke: #0000ff" fill-rule="evenodd" points="181.5,135 171.5,140 181.5,145 "/>
    </g>
    <g>
      <line style="fill: none; stroke-opacity: 1; stroke-width: 3; stroke-dasharray: 2; stroke: #0000ff" x1="270" y1="140" x2="278.5" y2="140"/>
      <polygon style="fill: #0000ff; fill-opacity: 1; stroke-opacity: 1; stroke-width: 3; stroke: #0000ff" fill-rule="evenodd" points="278.5,145 288.5,140 278.5,135 "/>
    </g>
    <g>
      <line style="fill: none; stroke-opacity: 1; stroke-width: 3; stroke-dasharray: 2; stroke: #0000ff" x1="390" y1="140" x2="381.5" y2="140"/>
      <polygon style="fill: #0000ff; fill-opacity: 1; stroke-opacity: 1; stroke-width: 3; stroke: #0000ff" fill-rule="evenodd" points="381.5,135 371.5,140 381.5,145 "/>
    </g>
    <g>
      <line style="fill: none; stroke-opacity: 1; stroke-width: 3; stroke-dasharray: 2; stroke: #0000ff" x1="470" y1="140" x2="478.5" y2="140"/>
      <polygon style="fill: #0000ff; fill-opacity: 1; stroke-opacity: 1; stroke-width: 3; stroke: #0000ff" fill-rule="evenodd" points="478.5,145 488.5,140 478.5,135 "/>
    </g>
    <g>
      <line style="fill: none; stroke-opacity: 1; stroke-width: 3; stroke: #0000ff" x1="440" y1="20" x2="440" y2="88.5"/>
      <polygon style="fill: #0000ff; fill-opacity: 1; stroke-opacity: 1; stroke-width: 3; stroke: #0000ff" fill-rule="evenodd" points="435,88.5 440,98.5 445,88.5 "/>
    </g>
    <line style="fill: none; stroke-opacity: 1; stroke-width: 8; stroke: #ff0000" x1="400" y1="270" x2="430" y2="300"/>
    <line style="fill: none; stroke-opacity: 1; stroke-width: 8; stroke: #ff0000" x1="400" y1="300" x2="430" y2="270"/>
    <line style="fill: none; stroke-opacity: 1; stroke-width: 8; stroke: #ff0000" x1="360" y1="190" x2="390" y2="220"/>
    <line style="fill: none; stroke-opacity: 1; stroke-width: 8; stroke: #ff0000" x1="360" y1="220" x2="390" y2="190"/>
    <line style="fill: none; stroke-opacity: 1; stroke-width: 8; stroke: #ff0000" x1="220" y1="270" x2="250" y2="300"/>
    <line style="fill: none; stroke-opacity: 1; stroke-width: 8; stroke: #ff0000" x1="220" y1="300" x2="250" y2="270"/>
    <line style="fill: none; stroke-opacity: 1; stroke-width: 8; stroke: #ff0000" x1="180" y1="190" x2="210" y2="220"/>
    <line style="fill: none; stroke-opacity: 1; stroke-width: 8; stroke: #ff0000" x1="180" y1="220" x2="210" y2="190"/>
    <line style="fill: none; stroke-opacity: 1; stroke-width: 6; stroke: #000000" x1="530" y1="60" x2="130" y2="60"/>
    <g>
      <line style="fill: none; stroke-opacity: 1; stroke-width: 3; stroke: #0000ff" x1="440" y1="40" x2="528.5" y2="40"/>
      <polygon style="fill: #0000ff; fill-opacity: 1; stroke-opacity: 1; stroke-width: 3; stroke: #0000ff" fill-rule="evenodd" points="528.5,45 538.5,40 528.5,35 "/>
    </g>
    <g>
      <line style="fill: none; stroke-opacity: 1; stroke-width: 3; stroke: #0000ff" x1="540" y1="40" x2="540" y2="88.5"/>
      <polygon style="fill: #0000ff; fill-opacity: 1; stroke-opacity: 1; stroke-width: 3; stroke: #0000ff" fill-rule="evenodd" points="535,88.5 540,98.5 545,88.5 "/>
    </g>
    <g>
      <line style="fill: none; stroke-opacity: 1; stroke-width: 3; stroke: #0000ff" x1="440" y1="40" x2="131.5" y2="40"/>
      <polygon style="fill: #0000ff; fill-opacity: 1; stroke-opacity: 1; stroke-width: 3; stroke: #0000ff" fill-rule="evenodd" points="131.5,35 121.5,40 131.5,45 "/>
    </g>
    <g>
      <line style="fill: none; stroke-opacity: 1; stroke-width: 3; stroke: #0000ff" x1="140" y1="40" x2="140" y2="88.5"/>
      <polygon style="fill: #0000ff; fill-opacity: 1; stroke-opacity: 1; stroke-width: 3; stroke: #0000ff" fill-rule="evenodd" points="135,88.5 140,98.5 145,88.5 "/>
    </g>
    <g>
      <line style="fill: none; stroke-opacity: 1; stroke-width: 3; stroke: #0000ff" x1="240" y1="40" x2="240" y2="88.5"/>
      <polygon style="fill: #0000ff; fill-opacity: 1; stroke-opacity: 1; stroke-width: 3; stroke: #0000ff" fill-rule="evenodd" points="235,88.5 240,98.5 245,88.5 "/>
    </g>
    <g>
      <line style="fill: none; stroke-opacity: 1; stroke-width: 3; stroke: #0000ff" x1="340" y1="40" x2="340" y2="88.5"/>
      <polygon style="fill: #0000ff; fill-opacity: 1; stroke-opacity: 1; stroke-width: 3; stroke: #0000ff" fill-rule="evenodd" points="335,88.5 340,98.5 345,88.5 "/>
    </g>
    <line style="fill: none; stroke-opacity: 1; stroke-width: 8; stroke: #ff0000" x1="520" y1="200" x2="550" y2="230"/>
    <line style="fill: none; stroke-opacity: 1; stroke-width: 8; stroke: #ff0000" x1="520" y1="230" x2="550" y2="200"/>
    <text font-size="16.9333" style="fill: #000000; fill-opacity: 1; stroke: none;text-anchor:start;font-family:sans-serif;font-style:normal;font-weight:normal" x="580" y="200">
      <tspan x="580" y="200">duplicates are detected</tspan>
      <tspan x="580" y="221.167">and eliminated</tspan>
    </text>
    <text font-size="16.9333" style="fill: #000000; fill-opacity: 1; stroke: none;text-anchor:start;font-family:sans-serif;font-style:normal;font-weight:normal" x="580" y="40">
      <tspan x="580" y="40">every backbone gateway</tspan>
      <tspan x="580" y="61.1667">forwards the broadcast into the mesh</tspan>
      <tspan x="580" y="82.3333">(if the source was not claimed)</tspan>
    </text>
    <line style="fill: none; stroke-opacity: 1; stroke-width: 8; stroke: #ff0000" x1="460" y1="130" x2="490" y2="160"/>
    <line style="fill: none; stroke-opacity: 1; stroke-width: 8; stroke: #ff0000" x1="460" y1="160" x2="491.214" y2="131.213"/>
    <line style="fill: none; stroke-opacity: 1; stroke-width: 8; stroke: #ff0000" x1="260" y1="130" x2="290" y2="160"/>
    <line style="fill: none; stroke-opacity: 1; stroke-width: 8; stroke: #ff0000" x1="260" y1="160" x2="291.214" y2="131.213"/>
    <line style="fill: none; stroke-opacity: 1; stroke-width: 8; stroke: #ff0000" x1="160" y1="130" x2="190" y2="160"/>
    <line style="fill: none; stroke-opacity: 1; stroke-width: 8; stroke: #ff0000" x1="160" y1="160" x2="191.213" y2="131.213"/>
    <line style="fill: none; stroke-opacity: 1; stroke-width: 8; stroke: #ff0000" x1="360" y1="130" x2="390" y2="160"/>
    <line style="fill: none; stroke-opacity: 1; stroke-width: 8; stroke: #ff0000" x1="360" y1="160" x2="391.214" y2="131.213"/>
    <text font-size="16.9333" style="fill: #000000; fill-opacity: 1; stroke: none;text-anchor:start;font-family:sans-serif;font-style:normal;font-weight:normal" x="580" y="120">
      <tspan x="580" y="120">backbone gateways don't forward broadcasts</tspan>
      <tspan x="580" y="141.167">into the LAN originated by other backbone gateways</tspan>
    </text>
  </g>
</svg>
