<?xml version="1.0" encoding="UTF-8" standalone="no"?>
<!DOCTYPE svg PUBLIC "-//W3C//DTD SVG 1.0//EN" "http://www.w3.org/TR/2001/PR-SVG-20010719/DTD/svg10.dtd">
<svg width="34cm" height="24cm" viewBox="98 -32 668 464" xmlns="http://www.w3.org/2000/svg" xmlns:xlink="http://www.w3.org/1999/xlink">
  <defs/>
  <g id="Background">
    <ellipse style="fill: #ffffff; fill-opacity: 1; stroke-opacity: 1; stroke-width: 3; stroke: #000000" cx="130" cy="130" rx="30" ry="30"/>
    <ellipse style="fill: #ffffff; fill-opacity: 1; stroke-opacity: 1; stroke-width: 3; stroke: #000000" cx="230" cy="130" rx="30" ry="30"/>
    <ellipse style="fill: #ffffff; fill-opacity: 1; stroke-opacity: 1; stroke-width: 3; stroke: #000000" cx="330" cy="130" rx="30" ry="30"/>
    <ellipse style="fill: #ffffff; fill-opacity: 1; stroke-opacity: 1; stroke-width: 3; stroke: #000000" cx="430" cy="130" rx="30" ry="30"/>
    <ellipse style="fill: #ffffff; fill-opacity: 1; stroke-opacity: 1; stroke-width: 3; stroke: #000000" cx="530" cy="130" rx="30" ry="30"/>
    <line style="fill: none; stroke-opacity: 1; stroke-width: 6; stroke: #000000" x1="530" y1="100" x2="530" y2="60"/>
    <line style="fill: none; stroke-opacity: 1; stroke-width: 6; stroke: #000000" x1="430" y1="100" x2="430" y2="60"/>
    <line style="fill: none; stroke-opacity: 1; stroke-width: 6; stroke: #000000" x1="330" y1="100" x2="330" y2="60"/>
    <line style="fill: none; stroke-opacity: 1; stroke-width: 6; stroke: #000000" x1="230" y1="100" x2="230" y2="60"/>
    <line style="fill: none; stroke-opacity: 1; stroke-width: 6; stroke: #000000" x1="130" y1="98.5205" x2="130" y2="60"/>
    <line style="fill: none; stroke-opacity: 1; stroke-width: 6; stroke: #000000" x1="430" y1="60" x2="430" y2="10"/>
    <ellipse style="fill: #ffffff; fill-opacity: 1; stroke-opacity: 1; stroke-width: 3; stroke: #000000" cx="430" cy="-10" rx="100" ry="20"/>
    <text font-size="16.9333" style="fill: #000000; fill-opacity: 1; stroke: none;text-anchor:middle;font-family:sans-serif;font-style:normal;font-weight:normal" x="430" y="-4.125">
      <tspan x="430" y="-4.125">Internet Gateway</tspan>
    </text>
    <ellipse style="fill: #ffffff; fill-opacity: 1; stroke-opacity: 1; stroke-width: 3; stroke: #000000" cx="490" cy="320" rx="30" ry="30"/>
    <ellipse style="fill: #ffffff; fill-opacity: 1; stroke-opacity: 1; stroke-width: 3; stroke: #000000" cx="340" cy="250" rx="30" ry="30"/>
    <ellipse style="fill: #ffffff; fill-opacity: 1; stroke-opacity: 1; stroke-width: 3; stroke: #000000" cx="170" cy="310" rx="30" ry="30"/>
    <line style="fill: none; stroke-opacity: 1; stroke-width: 3; stroke-dasharray: 2; stroke: #000000" x1="498.494" y1="130" x2="461.506" y2="130"/>
    <line style="fill: none; stroke-opacity: 1; stroke-width: 3; stroke-dasharray: 2; stroke: #000000" x1="523.51" y1="160.83" x2="496.49" y2="289.17"/>
    <line style="fill: none; stroke-opacity: 1; stroke-width: 3; stroke-dasharray: 2; stroke: #000000" x1="439.487" y1="160.041" x2="480.513" y2="289.959"/>
    <line style="fill: none; stroke-opacity: 1; stroke-width: 3; stroke-dasharray: 2; stroke: #000000" x1="358.902" y1="224.797" x2="411.098" y2="155.203"/>
    <line style="fill: none; stroke-opacity: 1; stroke-width: 3; stroke-dasharray: 2; stroke: #000000" x1="368.537" y1="263.317" x2="461.463" y2="306.683"/>
    <line style="fill: none; stroke-opacity: 1; stroke-width: 3; stroke-dasharray: 2; stroke: #000000" x1="337.402" y1="218.828" x2="332.598" y2="161.172"/>
    <line style="fill: none; stroke-opacity: 1; stroke-width: 3; stroke-dasharray: 2; stroke: #000000" x1="261.506" y1="130" x2="298.494" y2="130"/>
    <line style="fill: none; stroke-opacity: 1; stroke-width: 3; stroke-dasharray: 2; stroke: #000000" x1="361.506" y1="130" x2="398.494" y2="130"/>
    <line style="fill: none; stroke-opacity: 1; stroke-width: 3; stroke-dasharray: 2; stroke: #000000" x1="220.037" y1="159.888" x2="179.963" y2="280.112"/>
    <line style="fill: none; stroke-opacity: 1; stroke-width: 3; stroke-dasharray: 2; stroke: #000000" x1="163.184" y1="279.326" x2="136.816" y2="160.674"/>
    <line style="fill: none; stroke-opacity: 1; stroke-width: 3; stroke-dasharray: 2; stroke: #000000" x1="199.634" y1="299.541" x2="310.366" y2="260.459"/>
    <line style="fill: none; stroke-opacity: 1; stroke-width: 3; stroke-dasharray: 2; stroke: #000000" x1="198.494" y1="130" x2="161.506" y2="130"/>
    <rect style="fill: #ffffff; fill-opacity: 1; stroke-opacity: 1; stroke-width: 3; stroke: #000000" x="460" y="380" width="60" height="50" rx="0" ry="0"/>
    <line style="fill: none; stroke-opacity: 1; stroke-width: 6; stroke: #000000" x1="490" y1="350" x2="490" y2="380"/>
    <text font-size="12.8" style="fill: #000000; fill-opacity: 1; stroke: none;text-anchor:middle;font-family:sans-serif;font-style:normal;font-weight:normal" x="490" y="409.45">
      <tspan x="490" y="409.45">Client</tspan>
    </text>
    <g>
      <line style="fill: none; stroke-opacity: 1; stroke-width: 3; stroke-dasharray: 2; stroke: #0000ff" x1="466.07" y1="269.192" x2="430" y2="170"/>
      <polygon style="fill: #0000ff; fill-opacity: 1; stroke-opacity: 1; stroke-width: 3; stroke: #0000ff" fill-rule="evenodd" points="461.371,270.901 469.487,278.59 470.769,267.484 "/>
    </g>
    <g>
      <line style="fill: none; stroke-opacity: 1; stroke-width: 3; stroke: #0000ff" x1="440" y1="88.5" x2="440" y2="20"/>
      <polygon style="fill: #0000ff; fill-opacity: 1; stroke-opacity: 1; stroke-width: 3; stroke: #0000ff" fill-rule="evenodd" points="435,88.5 440,98.5 445,88.5 "/>
    </g>
    <line style="fill: none; stroke-opacity: 1; stroke-width: 6; stroke: #000000" x1="530" y1="60" x2="130" y2="60"/>
    <line style="fill: none; stroke-opacity: 1; stroke-width: 8; stroke: #4dbd38" x1="430" y1="100" x2="440" y2="120"/>
    <line style="fill: none; stroke-opacity: 1; stroke-width: 8; stroke: #4dbd38" x1="460" y1="80" x2="440" y2="120"/>
    <text font-size="16.9333" style="fill: #000000; fill-opacity: 1; stroke: none;text-anchor:start;font-family:sans-serif;font-style:normal;font-weight:normal" x="580" y="80">
      <tspan x="580" y="80">source is not claimed,</tspan>
      <tspan x="580" y="101.167">forward it</tspan>
    </text>
  </g>
</svg>
