<?xml version="1.0" encoding="UTF-8" standalone="no"?>
<!DOCTYPE svg PUBLIC "-//W3C//DTD SVG 1.0//EN" "http://www.w3.org/TR/2001/PR-SVG-20010719/DTD/svg10.dtd">
<svg width="39cm" height="24cm" viewBox="98 -32 776 464" xmlns="http://www.w3.org/2000/svg" xmlns:xlink="http://www.w3.org/1999/xlink">
  <defs/>
  <g id="Background">
    <ellipse style="fill: #ffffff; fill-opacity: 1; stroke-opacity: 1; stroke-width: 3; stroke: #000000" cx="130" cy="130" rx="30" ry="30"/>
    <ellipse style="fill: #ffffff; fill-opacity: 1; stroke-opacity: 1; stroke-width: 3; stroke: #000000" cx="230" cy="130" rx="30" ry="30"/>
    <ellipse style="fill: #ffffff; fill-opacity: 1; stroke-opacity: 1; stroke-width: 3; stroke: #000000" cx="330" cy="130" rx="30" ry="30"/>
    <ellipse style="fill: #ffffff; fill-opacity: 1; stroke-opacity: 1; stroke-width: 3; stroke: #000000" cx="430" cy="130" rx="30" ry="30"/>
    <ellipse style="fill: #ffffff; fill-opacity: 1; stroke-opacity: 1; stroke-width: 3; stroke: #000000" cx="530" cy="130" rx="30" ry="30"/>
    <line style="fill: none; stroke-opacity: 1; stroke-width: 6; stroke: #000000" x1="530" y1="100" x2="530" y2="60"/>
    <line style="fill: none; stroke-opacity: 1; stroke-width: 6; stroke: #000000" x1="430" y1="100" x2="430" y2="60"/>
    <line style="fill: none; stroke-opacity: 1; stroke-width: 6; stroke: #000000" x1="330" y1="100" x2="330" y2="60"/>
    <line style="fill: none; stroke-opacity: 1; stroke-width: 6; stroke: #000000" x1="230" y1="100" x2="230" y2="60"/>
    <line style="fill: none; stroke-opacity: 1; stroke-width: 6; stroke: #000000" x1="130" y1="98.5205" x2="130" y2="60"/>
    <line style="fill: none; stroke-opacity: 1; stroke-width: 6; stroke: #000000" x1="430" y1="60" x2="430" y2="10"/>
    <ellipse style="fill: #ffffff; fill-opacity: 1; stroke-opacity: 1; stroke-width: 3; stroke: #000000" cx="430" cy="-10" rx="100" ry="20"/>
    <text font-size="16.9333" style="fill: #000000; fill-opacity: 1; stroke: none;text-anchor:middle;font-family:sans-serif;font-style:normal;font-weight:normal" x="430" y="-4.125">
      <tspan x="430" y="-4.125">Internet Gateway</tspan>
    </text>
    <ellipse style="fill: #ffffff; fill-opacity: 1; stroke-opacity: 1; stroke-width: 3; stroke: #000000" cx="490" cy="320" rx="30" ry="30"/>
    <ellipse style="fill: #ffffff; fill-opacity: 1; stroke-opacity: 1; stroke-width: 3; stroke: #000000" cx="340" cy="250" rx="30" ry="30"/>
    <ellipse style="fill: #ffffff; fill-opacity: 1; stroke-opacity: 1; stroke-width: 3; stroke: #000000" cx="170" cy="310" rx="30" ry="30"/>
    <line style="fill: none; stroke-opacity: 1; stroke-width: 3; stroke-dasharray: 2; stroke: #000000" x1="498.494" y1="130" x2="461.506" y2="130"/>
    <line style="fill: none; stroke-opacity: 1; stroke-width: 3; stroke-dasharray: 2; stroke: #000000" x1="523.51" y1="160.83" x2="496.49" y2="289.17"/>
    <line style="fill: none; stroke-opacity: 1; stroke-width: 3; stroke-dasharray: 2; stroke: #000000" x1="439.487" y1="160.041" x2="480.513" y2="289.959"/>
    <line style="fill: none; stroke-opacity: 1; stroke-width: 3; stroke-dasharray: 2; stroke: #000000" x1="358.902" y1="224.797" x2="411.098" y2="155.203"/>
    <line style="fill: none; stroke-opacity: 1; stroke-width: 3; stroke-dasharray: 2; stroke: #000000" x1="368.537" y1="263.317" x2="461.463" y2="306.683"/>
    <line style="fill: none; stroke-opacity: 1; stroke-width: 3; stroke-dasharray: 2; stroke: #000000" x1="337.402" y1="218.828" x2="332.598" y2="161.172"/>
    <line style="fill: none; stroke-opacity: 1; stroke-width: 3; stroke-dasharray: 2; stroke: #000000" x1="261.506" y1="130" x2="298.494" y2="130"/>
    <line style="fill: none; stroke-opacity: 1; stroke-width: 3; stroke-dasharray: 2; stroke: #000000" x1="361.506" y1="130" x2="398.494" y2="130"/>
    <line style="fill: none; stroke-opacity: 1; stroke-width: 3; stroke-dasharray: 2; stroke: #000000" x1="220.037" y1="159.888" x2="179.963" y2="280.112"/>
    <line style="fill: none; stroke-opacity: 1; stroke-width: 3; stroke-dasharray: 2; stroke: #000000" x1="163.184" y1="279.326" x2="136.816" y2="160.674"/>
    <line style="fill: none; stroke-opacity: 1; stroke-width: 3; stroke-dasharray: 2; stroke: #000000" x1="199.634" y1="299.541" x2="310.366" y2="260.459"/>
    <line style="fill: none; stroke-opacity: 1; stroke-width: 3; stroke-dasharray: 2; stroke: #000000" x1="198.494" y1="130" x2="161.506" y2="130"/>
    <rect style="fill: #ffffff; fill-opacity: 1; stroke-opacity: 1; stroke-width: 3; stroke: #000000" x="460" y="380" width="60" height="50" rx="0" ry="0"/>
    <line style="fill: none; stroke-opacity: 1; stroke-width: 6; stroke: #000000" x1="490" y1="350" x2="490" y2="380"/>
    <text font-size="12.8" style="fill: #000000; fill-opacity: 1; stroke: none;text-anchor:middle;font-family:sans-serif;font-style:normal;font-weight:normal" x="490" y="409.45">
      <tspan x="490" y="409.45">Client</tspan>
    </text>
    <g>
      <line style="fill: none; stroke-opacity: 1; stroke-width: 3; stroke-dasharray: 2; stroke: #0000ff" x1="510" y1="280" x2="527.745" y2="191.277"/>
      <polygon style="fill: #0000ff; fill-opacity: 1; stroke-opacity: 1; stroke-width: 3; stroke: #0000ff" fill-rule="evenodd" points="532.648,192.257 529.706,181.471 522.842,190.296 "/>
    </g>
    <g>
      <line style="fill: none; stroke-opacity: 1; stroke-width: 3; stroke-dasharray: 2; stroke: #0000ff" x1="440" y1="310" x2="380.57" y2="284.53"/>
      <polygon style="fill: #0000ff; fill-opacity: 1; stroke-opacity: 1; stroke-width: 3; stroke: #0000ff" fill-rule="evenodd" points="382.54,279.934 371.379,280.591 378.601,289.126 "/>
    </g>
    <g>
      <line style="fill: none; stroke-opacity: 1; stroke-width: 3; stroke-dasharray: 2; stroke: #0000ff" x1="470" y1="280" x2="433.93" y2="180.808"/>
      <polygon style="fill: #0000ff; fill-opacity: 1; stroke-opacity: 1; stroke-width: 3; stroke: #0000ff" fill-rule="evenodd" points="438.629,179.099 430.513,171.41 429.231,182.516 "/>
    </g>
    <g>
      <line style="fill: none; stroke-opacity: 1; stroke-width: 3; stroke-dasharray: 2; stroke: #0000ff" x1="330" y1="210" x2="322.789" y2="181.157"/>
      <polygon style="fill: #0000ff; fill-opacity: 1; stroke-opacity: 1; stroke-width: 3; stroke: #0000ff" fill-rule="evenodd" points="327.64,179.944 320.364,171.455 317.938,182.369 "/>
    </g>
    <g>
      <line style="fill: none; stroke-opacity: 1; stroke-width: 3; stroke-dasharray: 2; stroke: #0000ff" x1="300" y1="250" x2="220.91" y2="276.363"/>
      <polygon style="fill: #0000ff; fill-opacity: 1; stroke-opacity: 1; stroke-width: 3; stroke: #0000ff" fill-rule="evenodd" points="219.329,271.62 211.423,279.526 222.491,281.107 "/>
    </g>
    <g>
      <line style="fill: none; stroke-opacity: 1; stroke-width: 3; stroke-dasharray: 2; stroke: #0000ff" x1="170" y1="260" x2="205.729" y2="170.677"/>
      <polygon style="fill: #0000ff; fill-opacity: 1; stroke-opacity: 1; stroke-width: 3; stroke: #0000ff" fill-rule="evenodd" points="210.371,172.534 209.443,161.393 201.087,168.821 "/>
    </g>
    <g>
      <line style="fill: none; stroke-opacity: 1; stroke-width: 3; stroke-dasharray: 2; stroke: #0000ff" x1="150" y1="270" x2="123.305" y2="181.015"/>
      <polygon style="fill: #0000ff; fill-opacity: 1; stroke-opacity: 1; stroke-width: 3; stroke: #0000ff" fill-rule="evenodd" points="128.094,179.578 120.431,171.437 118.515,182.452 "/>
    </g>
    <g>
      <line style="fill: none; stroke-opacity: 1; stroke-width: 3; stroke-dasharray: 2; stroke: #0000ff" x1="190" y1="140" x2="181.5" y2="140"/>
      <polygon style="fill: #0000ff; fill-opacity: 1; stroke-opacity: 1; stroke-width: 3; stroke: #0000ff" fill-rule="evenodd" points="181.5,135 171.5,140 181.5,145 "/>
    </g>
    <g>
      <line style="fill: none; stroke-opacity: 1; stroke-width: 3; stroke-dasharray: 2; stroke: #0000ff" x1="270" y1="140" x2="278.5" y2="140"/>
      <polygon style="fill: #0000ff; fill-opacity: 1; stroke-opacity: 1; stroke-width: 3; stroke: #0000ff" fill-rule="evenodd" points="278.5,145 288.5,140 278.5,135 "/>
    </g>
    <g>
      <line style="fill: none; stroke-opacity: 1; stroke-width: 3; stroke-dasharray: 2; stroke: #0000ff" x1="390" y1="140" x2="381.5" y2="140"/>
      <polygon style="fill: #0000ff; fill-opacity: 1; stroke-opacity: 1; stroke-width: 3; stroke: #0000ff" fill-rule="evenodd" points="381.5,135 371.5,140 381.5,145 "/>
    </g>
    <g>
      <line style="fill: none; stroke-opacity: 1; stroke-width: 3; stroke-dasharray: 2; stroke: #0000ff" x1="470" y1="140" x2="478.5" y2="140"/>
      <polygon style="fill: #0000ff; fill-opacity: 1; stroke-opacity: 1; stroke-width: 3; stroke: #0000ff" fill-rule="evenodd" points="478.5,145 488.5,140 478.5,135 "/>
    </g>
    <g>
      <line style="fill: none; stroke-opacity: 1; stroke-width: 3; stroke: #0000ff" x1="440" y1="100" x2="440" y2="31.5"/>
      <polygon style="fill: #0000ff; fill-opacity: 1; stroke-opacity: 1; stroke-width: 3; stroke: #0000ff" fill-rule="evenodd" points="445,31.5 440,21.5 435,31.5 "/>
    </g>
    <line style="fill: none; stroke-opacity: 1; stroke-width: 8; stroke: #ff0000" x1="520" y1="140" x2="550" y2="170"/>
    <line style="fill: none; stroke-opacity: 1; stroke-width: 8; stroke: #ff0000" x1="520" y1="170" x2="550" y2="140"/>
    <line style="fill: none; stroke-opacity: 1; stroke-width: 8; stroke: #ff0000" x1="320" y1="140" x2="350" y2="170"/>
    <line style="fill: none; stroke-opacity: 1; stroke-width: 8; stroke: #ff0000" x1="320" y1="170" x2="350" y2="140"/>
    <line style="fill: none; stroke-opacity: 1; stroke-width: 8; stroke: #ff0000" x1="220" y1="140" x2="250" y2="170"/>
    <line style="fill: none; stroke-opacity: 1; stroke-width: 8; stroke: #ff0000" x1="220" y1="170" x2="250" y2="140"/>
    <line style="fill: none; stroke-opacity: 1; stroke-width: 8; stroke: #ff0000" x1="120" y1="140" x2="150" y2="170"/>
    <line style="fill: none; stroke-opacity: 1; stroke-width: 8; stroke: #ff0000" x1="120" y1="170" x2="150" y2="140"/>
    <line style="fill: none; stroke-opacity: 1; stroke-width: 6; stroke: #000000" x1="530" y1="60" x2="130" y2="60"/>
    <line style="fill: none; stroke-opacity: 1; stroke-width: 8; stroke: #4dbd38" x1="420" y1="150" x2="430" y2="170"/>
    <line style="fill: none; stroke-opacity: 1; stroke-width: 8; stroke: #4dbd38" x1="450" y1="130" x2="430" y2="170"/>
    <text font-size="16.9333" style="fill: #000000; fill-opacity: 1; stroke: none;text-anchor:start;font-family:sans-serif;font-style:normal;font-weight:normal" x="580" y="120">
      <tspan x="580" y="120">only one backbone gateway</tspan>
      <tspan x="580" y="141.167">claims and forwards the broadcast</tspan>
    </text>
  </g>
</svg>
