<?xml version="1.0" encoding="UTF-8" standalone="no"?>
<!DOCTYPE svg PUBLIC "-//W3C//DTD SVG 1.0//EN" "http://www.w3.org/TR/2001/PR-SVG-20010719/DTD/svg10.dtd">
<svg width="63cm" height="25cm" viewBox="-21 139 1243 482" xmlns="http://www.w3.org/2000/svg" xmlns:xlink="http://www.w3.org/1999/xlink">
  <defs/>
  <g id="Hintergrund"/>
  <g id="Background"/>
  <g id="Background"/>
  <g id="Background"/>
  <g id="Background"/>
  <g id="New layer 1">
    <g>
      <path style="fill: #ffffff; fill-opacity: 1; stroke: none" fill-rule="evenodd" d="M 847.23 350.985 L 847.083,347.47 L 846.568,343.954 L 845.612,340.501 L 844.214,337.047 L 842.522,333.532 L 840.537,330.14 L 837.962,326.748 L 835.241,323.541 L 832.078,320.334 L 828.694,317.127 L 824.943,314.167 L 820.751,311.206 L 816.264,308.308 L 811.63,305.532 L 806.555,303.004 L 801.259,300.475 L 795.669,298.07 L 789.932,295.85 L 783.9,293.815 L 777.648,291.841 L 771.176,289.991 L 764.482,288.387 L 757.789,286.907 L 750.802,285.551 L 743.593,284.502 L 736.459,283.454 L 729.25,282.652 L 721.748,282.035 L 714.319,281.603 L 706.817,281.295 L 699.461,281.233 L 699.461,281.233 L 691.959,281.295 L 684.456,281.603 L 676.954,282.035 L 669.599,282.652 L 662.317,283.454 L 655.182,284.502 L 648.048,285.551 L 641.134,286.907 L 634.293,288.387 L 627.747,289.991 L 621.274,291.841 L 614.949,293.815 L 608.917,295.85 L 603.033,298.07 L 597.516,300.475 L 592.294,303.004 L 587.293,305.532 L 582.438,308.308 L 578.098,311.206 L 573.979,314.167 L 570.155,317.127 L 566.624,320.334 L 563.608,323.541 L 560.74,326.748 L 558.313,330.14 L 556.253,333.532 L 554.635,337.047 L 553.311,340.501 L 552.355,343.954 L 551.693,347.47 L 551.546,350.985 L 551.546,350.985 L 551.693,354.5 L 552.355,358.139 L 553.311,361.593 L 554.635,365.108 L 556.253,368.562 L 558.313,371.83 L 560.74,375.222 L 563.608,378.553 L 566.624,381.759 L 570.155,384.843 L 573.979,387.927 L 578.098,390.887 L 582.438,393.662 L 587.293,396.438 L 592.294,399.089 L 597.516,401.556 L 603.033,403.9 L 608.917,406.12 L 614.949,408.34 L 621.274,410.252 L 627.747,411.979 L 634.293,413.706 L 641.134,415.186 L 648.048,416.419 L 655.182,417.591 L 662.317,418.516 L 669.599,419.318 L 676.954,419.935 L 684.456,420.366 L 691.959,420.675 L 699.461,420.736 L 699.461,420.736 L 706.817,420.675 L 714.319,420.366 L 721.748,419.935 L 729.25,419.318 L 736.459,418.516 L 743.593,417.591 L 750.802,416.419 L 757.789,415.186 L 764.482,413.706 L 771.176,411.979 L 777.648,410.252 L 783.9,408.34 L 789.932,406.12 L 795.669,403.9 L 801.259,401.556 L 806.555,399.089 L 811.63,396.438 L 816.264,393.662 L 820.751,390.887 L 824.943,387.927 L 828.694,384.843 L 832.078,381.759 L 835.241,378.553 L 837.962,375.222 L 840.537,371.83 L 842.522,368.562 L 844.214,365.108 L 845.612,361.593 L 846.568,358.139 L 847.083,354.5 L 847.23,350.985z"/>
      <path style="fill: #ffffff; fill-opacity: 1; stroke: none" fill-rule="evenodd" d="M 615.463 387.618 L 615.316,384.103 L 614.875,380.588 L 614.287,377.134 L 613.183,373.619 L 611.859,370.165 L 610.315,366.773 L 608.476,363.381 L 606.269,360.174 L 603.916,356.967 L 601.194,353.76 L 598.326,350.8 L 595.163,347.84 L 591.853,345.003 L 588.175,342.166 L 584.277,339.637 L 580.305,337.047 L 575.965,334.703 L 571.626,332.483 L 566.845,330.386 L 562.064,328.475 L 557.209,326.624 L 552.134,325.021 L 546.838,323.541 L 541.542,322.184 L 536.1,321.135 L 530.583,320.087 L 524.993,319.285 L 519.329,318.669 L 513.739,318.175 L 507.855,317.929 L 502.118,317.867 L 502.118,317.867 L 496.528,317.929 L 490.717,318.175 L 485.054,318.669 L 479.316,319.285 L 473.726,320.087 L 468.21,321.135 L 462.767,322.184 L 457.471,323.541 L 452.249,325.021 L 447.174,326.624 L 442.246,328.475 L 437.465,330.386 L 432.831,332.483 L 428.344,334.703 L 424.078,337.047 L 420.032,339.637 L 416.281,342.166 L 412.604,345.003 L 409.147,347.84 L 405.984,350.8 L 403.189,353.76 L 400.394,356.967 L 398.114,360.174 L 395.907,363.381 L 394.068,366.773 L 392.45,370.165 L 391.2,373.619 L 390.096,377.134 L 389.434,380.588 L 388.993,384.103 L 388.919,387.618 L 388.919,387.618 L 388.993,391.134 L 389.434,394.772 L 390.096,398.226 L 391.2,401.68 L 392.45,405.133 L 394.068,408.464 L 395.907,411.856 L 398.114,415.186 L 400.394,418.393 L 403.189,421.477 L 405.984,424.56 L 409.147,427.52 L 412.604,430.296 L 416.281,433.071 L 420.032,435.723 L 424.078,438.128 L 428.344,440.595 L 432.831,442.753 L 437.465,444.912 L 442.246,446.886 L 447.174,448.612 L 452.249,450.339 L 457.471,451.696 L 462.767,453.053 L 468.21,454.225 L 473.726,455.15 L 479.316,456.013 L 485.054,456.568 L 490.717,457 L 496.528,457.308 L 502.118,457.37 L 502.118,457.37 L 507.855,457.308 L 513.739,457 L 519.329,456.568 L 524.993,456.013 L 530.583,455.15 L 536.1,454.225 L 541.542,453.053 L 546.838,451.696 L 552.134,450.339 L 557.209,448.612 L 562.064,446.886 L 566.845,444.912 L 571.626,442.753 L 575.965,440.595 L 580.305,438.128 L 584.277,435.723 L 588.175,433.071 L 591.853,430.296 L 595.163,427.52 L 598.326,424.56 L 601.194,421.477 L 603.916,418.393 L 606.269,415.186 L 608.476,411.856 L 610.315,408.464 L 611.859,405.133 L 613.183,401.68 L 614.287,398.226 L 614.875,394.772 L 615.316,391.134 L 615.463,387.618z"/>
      <path style="fill: #ffffff; fill-opacity: 1; stroke: none" fill-rule="evenodd" d="M 472.623 458.788 L 472.476,455.89 L 472.329,453.053 L 471.74,450.154 L 471.005,447.317 L 470.269,444.542 L 469.166,441.767 L 467.842,439.053 L 466.445,436.278 L 464.826,433.749 L 462.988,431.097 L 461.075,428.692 L 459.016,426.225 L 456.736,423.882 L 454.235,421.723 L 451.66,419.565 L 448.939,417.591 L 445.997,415.618 L 442.981,413.767 L 439.965,412.102 L 436.729,410.437 L 433.346,409.019 L 429.889,407.662 L 426.432,406.428 L 422.754,405.38 L 419.15,404.455 L 415.399,403.715 L 411.721,402.975 L 407.823,402.543 L 404.071,402.173 L 400.173,401.926 L 396.275,401.865 L 396.275,401.865 L 392.376,401.926 L 388.478,402.173 L 384.653,402.543 L 380.902,402.975 L 377.224,403.715 L 373.4,404.455 L 369.722,405.38 L 366.191,406.428 L 362.734,407.662 L 359.277,409.019 L 355.894,410.437 L 352.658,412.102 L 349.495,413.767 L 346.626,415.618 L 343.684,417.591 L 340.963,419.565 L 338.388,421.723 L 335.888,423.882 L 333.607,426.225 L 331.474,428.692 L 329.488,431.097 L 327.797,433.749 L 326.178,436.278 L 324.634,439.053 L 323.457,441.767 L 322.354,444.542 L 321.545,447.317 L 320.883,450.154 L 320.294,453.053 L 320,455.89 L 320,458.788 L 320,458.788 L 320,461.625 L 320.294,464.586 L 320.883,467.361 L 321.545,470.198 L 322.354,473.096 L 323.457,475.81 L 324.634,478.523 L 326.178,481.175 L 327.797,483.889 L 329.488,486.356 L 331.474,488.884 L 333.607,491.29 L 335.888,493.633 L 338.388,495.853 L 340.963,497.95 L 343.684,500.047 L 346.626,502.021 L 349.495,503.748 L 352.658,505.474 L 355.894,507.078 L 359.277,508.558 L 362.734,509.915 L 366.191,511.087 L 369.722,512.197 L 373.4,513.06 L 377.224,513.923 L 380.902,514.54 L 384.653,515.095 L 388.478,515.342 L 392.376,515.589 L 396.275,515.712 L 396.275,515.712 L 400.173,515.589 L 404.071,515.342 L 407.823,515.095 L 411.721,514.54 L 415.399,513.923 L 419.15,513.06 L 422.754,512.197 L 426.432,511.087 L 429.889,509.915 L 433.346,508.558 L 436.729,507.078 L 439.965,505.474 L 442.981,503.748 L 445.997,502.021 L 448.939,500.047 L 451.66,497.95 L 454.235,495.853 L 456.736,493.633 L 459.016,491.29 L 461.075,488.884 L 462.988,486.356 L 464.826,483.889 L 466.445,481.175 L 467.842,478.523 L 469.166,475.81 L 470.269,473.096 L 471.005,470.198 L 471.74,467.361 L 472.329,464.586 L 472.476,461.625 L 472.623,458.788z"/>
      <path style="fill: #ffffff; fill-opacity: 1; stroke: none" fill-rule="evenodd" d="M 595.898 513.615 L 595.678,510.531 L 595.236,507.386 L 594.574,504.303 L 593.471,501.219 L 592.221,498.197 L 590.602,495.237 L 588.69,492.276 L 586.484,489.316 L 584.056,486.541 L 581.408,483.766 L 578.54,481.114 L 575.303,478.462 L 571.773,475.872 L 568.095,473.466 L 564.27,471.184 L 560.151,468.964 L 555.812,466.929 L 551.251,464.956 L 546.618,463.105 L 541.763,461.317 L 536.688,459.775 L 531.466,458.357 L 526.243,457 L 520.874,455.828 L 515.357,454.903 L 509.694,453.978 L 504.104,453.238 L 498.367,452.683 L 492.556,452.313 L 486.672,452.066 L 480.861,452.004 L 480.861,452.004 L 475.124,452.066 L 469.24,452.313 L 463.429,452.683 L 457.692,453.238 L 452.102,453.978 L 446.438,454.903 L 440.922,455.828 L 435.552,457 L 430.33,458.357 L 425.108,459.775 L 420.032,461.317 L 415.178,463.105 L 410.544,464.956 L 405.91,466.929 L 401.644,468.964 L 397.525,471.184 L 393.627,473.466 L 389.949,475.872 L 386.492,478.462 L 383.256,481.114 L 380.387,483.766 L 377.666,486.541 L 375.165,489.316 L 373.032,492.276 L 371.193,495.237 L 369.648,498.197 L 368.251,501.219 L 367.295,504.303 L 366.486,507.386 L 366.044,510.531 L 365.971,513.615 L 365.971,513.615 L 366.044,516.822 L 366.486,519.906 L 367.295,522.989 L 368.251,526.073 L 369.648,529.157 L 371.193,532.055 L 373.032,535.015 L 375.165,538.037 L 377.666,540.751 L 380.387,543.526 L 383.256,546.301 L 386.492,548.83 L 389.949,551.359 L 393.627,553.887 L 397.525,556.169 L 401.644,558.328 L 405.91,560.424 L 410.544,562.336 L 415.178,564.248 L 420.032,565.975 L 425.108,567.578 L 430.33,569.059 L 435.552,570.292 L 440.922,571.464 L 446.438,572.512 L 452.102,573.314 L 457.692,574.054 L 463.429,574.671 L 469.24,575.041 L 475.124,575.288 L 480.861,575.288 L 480.861,575.288 L 486.672,575.288 L 492.556,575.041 L 498.367,574.671 L 504.104,574.054 L 509.694,573.314 L 515.357,572.512 L 520.874,571.464 L 526.243,570.292 L 531.466,569.059 L 536.688,567.578 L 541.763,565.975 L 546.618,564.248 L 551.251,562.336 L 555.812,560.424 L 560.151,558.328 L 564.27,556.169 L 568.095,553.887 L 571.773,551.359 L 575.303,548.83 L 578.54,546.301 L 581.408,543.526 L 584.056,540.751 L 586.484,538.037 L 588.69,535.015 L 590.602,532.055 L 592.221,529.157 L 593.471,526.073 L 594.574,522.989 L 595.236,519.906 L 595.678,516.822 L 595.898,513.615z"/>
      <path style="fill: #ffffff; fill-opacity: 1; stroke: none" fill-rule="evenodd" d="M 871.87 545.438 L 871.576,541.738 L 870.988,538.037 L 869.884,534.399 L 868.266,530.76 L 866.354,527.121 L 864,523.606 L 861.131,520.091 L 857.969,516.637 L 854.365,513.183 L 850.246,509.915 L 845.832,506.831 L 841.051,503.624 L 835.976,500.664 L 830.46,497.827 L 824.502,495.052 L 818.471,492.4 L 811.998,489.995 L 805.231,487.651 L 798.317,485.431 L 790.962,483.396 L 783.533,481.545 L 775.81,479.757 L 767.939,478.215 L 759.775,476.92 L 751.537,475.687 L 743.152,474.638 L 734.767,473.836 L 726.161,473.096 L 717.555,472.726 L 708.876,472.356 L 700.123,472.356 L 700.123,472.356 L 691.518,472.356 L 682.838,472.726 L 674.233,473.096 L 665.627,473.836 L 657.168,474.638 L 648.857,475.687 L 640.619,476.92 L 632.454,478.215 L 624.584,479.757 L 616.861,481.545 L 609.359,483.396 L 602.077,485.431 L 595.089,487.651 L 588.396,489.995 L 581.923,492.4 L 575.818,495.052 L 569.934,497.827 L 564.418,500.664 L 559.269,503.624 L 554.488,506.831 L 550.075,509.915 L 546.029,513.183 L 542.499,516.637 L 539.262,520.091 L 536.467,523.606 L 534.04,527.121 L 532.128,530.76 L 530.509,534.399 L 529.406,538.037 L 528.744,541.738 L 528.524,545.438 L 528.524,545.438 L 528.744,549.2 L 529.406,552.9 L 530.509,556.539 L 532.128,560.239 L 534.04,563.878 L 536.467,567.332 L 539.262,570.847 L 542.499,574.301 L 546.029,577.754 L 550.075,581.023 L 554.488,584.168 L 559.269,587.252 L 564.418,590.274 L 569.934,593.173 L 575.818,595.886 L 581.923,598.538 L 588.396,601.067 L 595.089,603.41 L 602.077,605.507 L 609.359,607.604 L 616.861,609.516 L 624.584,611.119 L 632.454,612.723 L 640.619,614.141 L 648.857,615.375 L 657.168,616.3 L 665.627,617.101 L 674.233,617.841 L 682.838,618.273 L 691.518,618.643 L 700.123,618.643 L 700.123,618.643 L 708.876,618.643 L 717.555,618.273 L 726.161,617.841 L 734.767,617.101 L 743.152,616.3 L 751.537,615.375 L 759.775,614.141 L 767.939,612.723 L 775.81,611.119 L 783.533,609.516 L 790.962,607.604 L 798.317,605.507 L 805.231,603.41 L 811.998,601.067 L 818.471,598.538 L 824.502,595.886 L 830.46,593.173 L 835.976,590.274 L 841.051,587.252 L 845.832,584.168 L 850.246,581.023 L 854.365,577.754 L 857.969,574.301 L 861.131,570.847 L 864,567.332 L 866.354,563.878 L 868.266,560.239 L 869.884,556.539 L 870.988,552.9 L 871.576,549.2 L 871.87,545.438z"/>
      <path style="fill: #ffffff; fill-opacity: 1; stroke: none" fill-rule="evenodd" d="M 967.122 376.764 L 967.048,374.05 L 966.607,371.275 L 965.945,368.438 L 964.842,365.725 L 963.665,362.949 L 962.047,360.297 L 960.281,357.646 L 958.222,355.117 L 955.942,352.588 L 953.294,350.122 L 950.499,347.778 L 947.409,345.434 L 944.1,343.214 L 940.569,340.994 L 936.818,338.959 L 932.919,337.047 L 928.8,335.073 L 924.461,333.347 L 919.974,331.681 L 915.267,330.14 L 910.486,328.721 L 905.558,327.488 L 900.482,326.316 L 895.334,325.268 L 889.964,324.342 L 884.742,323.602 L 879.226,323.047 L 873.709,322.492 L 868.193,322.122 L 862.676,321.999 L 857.086,321.937 L 857.086,321.937 L 851.496,321.999 L 845.979,322.122 L 840.316,322.492 L 834.946,323.047 L 829.504,323.602 L 824.061,324.342 L 818.912,325.268 L 813.616,326.316 L 808.541,327.488 L 803.686,328.721 L 798.832,330.14 L 794.198,331.681 L 789.638,333.347 L 785.445,335.073 L 781.253,337.047 L 777.207,338.959 L 773.529,340.994 L 769.999,343.214 L 766.689,345.434 L 763.673,347.778 L 760.805,350.122 L 758.304,352.588 L 755.95,355.117 L 753.817,357.646 L 752.052,360.297 L 750.507,362.949 L 749.183,365.725 L 748.227,368.438 L 747.492,371.275 L 747.124,374.05 L 746.977,376.764 L 746.977,376.764 L 747.124,379.478 L 747.492,382.253 L 748.227,385.09 L 749.183,387.803 L 750.507,390.579 L 752.052,393.231 L 753.817,395.882 L 755.95,398.349 L 758.304,401.001 L 760.805,403.345 L 763.673,405.75 L 766.689,408.094 L 769.999,410.314 L 773.529,412.534 L 777.207,414.569 L 781.253,416.543 L 785.445,418.393 L 789.638,420.181 L 794.198,421.847 L 798.832,423.388 L 803.686,424.807 L 808.541,426.04 L 813.616,427.212 L 818.912,428.26 L 824.061,429.186 L 829.504,429.926 L 834.946,430.481 L 840.316,431.036 L 845.979,431.406 L 851.496,431.529 L 857.086,431.591 L 857.086,431.591 L 862.676,431.529 L 868.193,431.406 L 873.709,431.036 L 879.226,430.481 L 884.742,429.926 L 889.964,429.186 L 895.334,428.26 L 900.482,427.212 L 905.558,426.04 L 910.486,424.807 L 915.267,423.388 L 919.974,421.847 L 924.461,420.181 L 928.8,418.393 L 932.919,416.543 L 936.818,414.569 L 940.569,412.534 L 944.1,410.314 L 947.409,408.094 L 950.499,405.75 L 953.294,403.345 L 955.942,401.001 L 958.222,398.349 L 960.281,395.882 L 962.047,393.231 L 963.665,390.579 L 964.842,387.803 L 965.945,385.09 L 966.607,382.253 L 967.048,379.478 L 967.122,376.764z"/>
      <path style="fill: #ffffff; fill-opacity: 1; stroke: none" fill-rule="evenodd" d="M 998.308 447.256 L 998.235,444.542 L 997.867,441.767 L 997.058,438.93 L 996.102,436.216 L 994.925,433.441 L 993.307,430.789 L 991.541,428.137 L 989.555,425.67 L 987.275,423.08 L 984.627,420.675 L 981.759,418.27 L 978.817,415.988 L 975.507,413.706 L 972.05,411.486 L 968.372,409.512 L 964.327,407.539 L 960.281,405.627 L 956.015,403.9 L 951.528,402.235 L 946.895,400.693 L 942.187,399.274 L 937.186,397.979 L 932.184,396.808 L 927.109,395.882 L 921.886,394.896 L 916.517,394.156 L 911.148,393.477 L 905.778,392.984 L 900.262,392.675 L 894.745,392.49 L 889.229,392.429 L 889.229,392.429 L 883.565,392.49 L 878.049,392.675 L 872.679,392.984 L 867.236,393.477 L 861.793,394.156 L 856.424,394.896 L 851.202,395.882 L 846.127,396.808 L 841.051,397.979 L 836.123,399.274 L 831.416,400.693 L 826.856,402.235 L 822.295,403.9 L 818.029,405.627 L 813.984,407.539 L 809.938,409.512 L 806.261,411.486 L 802.877,413.706 L 799.567,415.988 L 796.478,418.27 L 793.757,420.675 L 791.035,423.08 L 788.755,425.67 L 786.769,428.137 L 785.004,430.789 L 783.459,433.441 L 782.209,436.216 L 781.253,438.93 L 780.443,441.767 L 780.076,444.542 L 779.929,447.256 L 779.929,447.256 L 780.076,449.969 L 780.443,452.744 L 781.253,455.52 L 782.209,458.233 L 783.459,461.07 L 785.004,463.722 L 786.769,466.312 L 788.755,468.841 L 791.035,471.431 L 793.757,473.898 L 796.478,476.242 L 799.567,478.523 L 802.877,480.805 L 806.261,483.026 L 809.938,485.061 L 813.984,486.973 L 818.029,488.884 L 822.295,490.55 L 826.856,492.276 L 831.416,493.818 L 836.123,495.237 L 841.051,496.47 L 846.127,497.58 L 851.202,498.629 L 856.424,499.554 L 861.793,500.294 L 867.236,501.034 L 872.679,501.466 L 878.049,501.836 L 883.565,502.021 L 889.229,502.082 L 889.229,502.082 L 894.745,502.021 L 900.262,501.836 L 905.778,501.466 L 911.148,501.034 L 916.517,500.294 L 921.886,499.554 L 927.109,498.629 L 932.184,497.58 L 937.186,496.47 L 942.187,495.237 L 946.895,493.818 L 951.528,492.276 L 956.015,490.55 L 960.281,488.884 L 964.327,486.973 L 968.372,485.061 L 972.05,483.026 L 975.507,480.805 L 978.817,478.523 L 981.759,476.242 L 984.627,473.898 L 987.275,471.431 L 989.555,468.841 L 991.541,466.312 L 993.307,463.722 L 994.925,461.07 L 996.102,458.233 L 997.058,455.52 L 997.867,452.744 L 998.235,449.969 L 998.308,447.256z"/>
      <path style="fill: #ffffff; fill-opacity: 1; stroke: none" fill-rule="evenodd" d="M 977.051 505.536 L 976.831,501.034 L 976.537,496.408 L 975.801,491.968 L 974.845,487.404 L 973.521,482.902 L 972.05,478.523 L 970.284,474.268 L 968.151,470.013 L 966.018,465.881 L 963.37,461.872 L 960.649,457.863 L 957.56,454.101 L 954.323,450.401 L 950.94,446.886 L 947.262,443.432 L 943.217,440.287 L 939.171,437.203 L 934.979,434.243 L 930.566,431.591 L 926.005,429.124 L 921.151,426.842 L 916.37,424.683 L 911.442,422.772 L 906.293,421.045 L 900.997,419.565 L 895.775,418.393 L 890.332,417.283 L 885.036,416.481 L 879.593,415.988 L 874.15,415.618 L 868.634,415.433 L 868.634,415.433 L 863.117,415.618 L 857.601,415.988 L 852.158,416.481 L 846.789,417.283 L 841.419,418.393 L 836.123,419.565 L 830.975,421.045 L 825.826,422.772 L 820.824,424.683 L 815.97,426.842 L 811.189,429.124 L 806.628,431.591 L 802.142,434.243 L 797.949,437.203 L 793.904,440.287 L 790.005,443.432 L 786.328,446.886 L 782.797,450.401 L 779.561,454.101 L 776.619,457.863 L 773.824,461.872 L 771.176,465.881 L 768.969,470.013 L 766.91,474.268 L 765.218,478.523 L 763.673,482.902 L 762.423,487.404 L 761.467,491.968 L 760.658,496.408 L 760.29,501.034 L 760.143,505.536 L 760.143,505.536 L 760.29,510.1 L 760.658,514.725 L 761.467,519.166 L 762.423,523.668 L 763.673,528.108 L 765.218,532.487 L 766.91,536.866 L 768.969,541.121 L 771.176,545.191 L 773.824,549.262 L 776.619,553.27 L 779.561,556.971 L 782.797,560.671 L 786.328,564.248 L 790.005,567.578 L 793.904,570.847 L 797.949,573.931 L 802.142,576.829 L 806.628,579.481 L 811.189,582.01 L 815.97,584.292 L 820.824,586.45 L 825.826,588.362 L 830.975,590.089 L 836.123,591.507 L 841.419,592.802 L 846.789,593.789 L 852.158,594.591 L 857.601,595.146 L 863.117,595.516 L 868.634,595.701 L 868.634,595.701 L 874.15,595.516 L 879.593,595.146 L 885.036,594.591 L 890.332,593.789 L 895.775,592.802 L 900.997,591.507 L 906.293,590.089 L 911.442,588.362 L 916.37,586.45 L 921.151,584.292 L 926.005,582.01 L 930.566,579.481 L 934.979,576.829 L 939.171,573.931 L 943.217,570.847 L 947.262,567.578 L 950.94,564.248 L 954.323,560.671 L 957.56,556.971 L 960.649,553.27 L 963.37,549.262 L 966.018,545.191 L 968.151,541.121 L 970.284,536.866 L 972.05,532.487 L 973.521,528.108 L 974.845,523.668 L 975.801,519.166 L 976.537,514.725 L 976.831,510.1 L 977.051,505.536z"/>
      <path style="fill: #ffffff; fill-opacity: 1; stroke: none" fill-rule="evenodd" d="M 883.345 451.264 L 883.05,446.762 L 882.315,442.198 L 880.77,437.635 L 878.784,433.133 L 876.357,428.692 L 873.268,424.252 L 869.59,419.996 L 865.471,415.679 L 860.837,411.547 L 855.762,407.6 L 849.951,403.653 L 843.846,399.829 L 837.3,396.129 L 830.239,392.552 L 822.737,389.16 L 814.866,385.953 L 806.628,382.87 L 797.949,380.094 L 789.049,377.257 L 779.634,374.79 L 769.999,372.509 L 760.143,370.35 L 750.066,368.438 L 739.621,366.773 L 729.03,365.293 L 718.365,363.998 L 707.479,362.949 L 696.593,362.148 L 685.56,361.654 L 674.306,361.284 L 663.2,361.223 L 663.2,361.223 L 652.093,361.284 L 640.986,361.654 L 629.953,362.148 L 618.92,362.949 L 608.035,363.998 L 597.369,365.293 L 586.851,366.773 L 576.407,368.438 L 566.256,370.35 L 556.474,372.509 L 546.838,374.79 L 537.423,377.257 L 528.45,380.094 L 519.918,382.87 L 511.533,385.953 L 503.663,389.16 L 496.234,392.552 L 489.173,396.129 L 482.479,399.829 L 476.374,403.653 L 470.784,407.6 L 465.562,411.547 L 460.928,415.679 L 456.736,419.996 L 453.131,424.252 L 450.042,428.692 L 447.541,433.133 L 445.555,437.635 L 444.158,442.198 L 443.422,446.762 L 443.055,451.264 L 443.055,451.264 L 443.422,455.828 L 444.158,460.392 L 445.555,464.956 L 447.541,469.396 L 450.042,473.898 L 453.131,478.215 L 456.736,482.532 L 460.928,486.849 L 465.562,490.981 L 470.784,495.052 L 476.374,498.937 L 482.479,502.761 L 489.173,506.461 L 496.234,509.915 L 503.663,513.368 L 511.533,516.637 L 519.918,519.721 L 528.45,522.496 L 537.423,525.333 L 546.838,527.8 L 556.474,530.02 L 566.256,532.24 L 576.407,534.09 L 586.851,535.755 L 597.369,537.297 L 608.035,538.469 L 618.92,539.579 L 629.953,540.381 L 640.986,540.936 L 652.093,541.306 L 663.2,541.368 L 663.2,541.368 L 674.306,541.306 L 685.56,540.936 L 696.593,540.381 L 707.479,539.579 L 718.365,538.469 L 729.03,537.297 L 739.621,535.755 L 750.066,534.09 L 760.143,532.24 L 769.999,530.02 L 779.634,527.8 L 789.049,525.333 L 797.949,522.496 L 806.628,519.721 L 814.866,516.637 L 822.737,513.368 L 830.239,509.915 L 837.3,506.461 L 843.846,502.761 L 849.951,498.937 L 855.762,495.052 L 860.837,490.981 L 865.471,486.849 L 869.59,482.532 L 873.268,478.215 L 876.357,473.898 L 878.784,469.396 L 880.77,464.956 L 882.315,460.392 L 883.05,455.828 L 883.345,451.264z"/>
      <path style="fill: #ffffff; fill-opacity: 1; stroke: none" fill-rule="evenodd" d="M 701.006 350.43 L 846.789,334.827 L 844.876,331.373 L 842.743,328.043 L 840.169,324.712 L 837.227,321.382 L 833.917,318.114 L 830.239,315.03 L 826.341,312.008 L 822.075,309.048 L 817.514,306.211 L 812.586,303.497 L 807.438,300.845 L 801.995,298.502 L 796.331,296.158 L 790.373,293.876 L 784.121,291.903 L 777.722,289.991 L 771.176,288.141 L 764.409,286.599 L 757.421,285.18 L 750.434,283.885 L 743.152,282.775 L 735.87,281.912 L 728.441,281.11 L 721.086,280.555 L 713.584,280.247 L 705.934,280 L 698.432,280 L 690.782,280.062 L 683.353,280.432 L 675.924,280.925 L 668.422,281.603 L 661.067,282.59 L 653.932,283.515 L 646.65,284.749 L 639.736,286.167 L 632.896,287.709 L 626.349,289.374 L 619.877,291.224 L 613.551,293.198 L 607.52,295.418 L 601.856,297.7 L 596.34,300.105 L 590.97,302.695 L 586.042,305.409 L 581.335,308.184 L 576.922,311.145 L 572.95,314.167 L 569.272,317.25 L 565.741,320.395 L 562.726,323.602 L 560.004,326.994 L 557.724,330.386 L 555.812,333.84 L 554.194,337.355 L 701.006,350.43z"/>
      <path style="fill: none; stroke-opacity: 1; stroke-width: 0.02; stroke: #6c8f93" d="M 846.715 334.703 L 844.876,331.25 L 842.743,327.858 L 840.095,324.466 L 837.08,321.259 L 833.77,318.052 L 830.165,314.968 L 826.194,311.946 L 821.854,308.924 L 817.294,306.211 L 812.513,303.497 L 807.217,300.784 L 801.847,298.378 L 796.11,295.973 L 790.153,293.876 L 784.048,291.718 L 777.648,289.929 L 771.102,288.141 L 764.335,286.537 L 757.348,285.057 L 750.36,283.824 L 743.152,282.775 L 735.797,281.912 L 728.441,281.11 L 720.939,280.555 L 713.363,280.247 L 705.934,280 L 698.284,280 L 690.782,280.062 L 683.427,280.432 L 675.777,280.925 L 668.422,281.603 L 661.067,282.467 L 653.932,283.515 L 646.724,284.749 L 639.736,286.167 L 632.969,287.709 L 626.423,289.313 L 619.95,291.163 L 613.625,293.198 L 607.667,295.418 L 601.93,297.7 L 596.487,300.044 L 591.117,302.634 L 586.116,305.224 L 581.408,308.123 L 577.142,311.083 L 573.023,313.981 L 569.272,317.065 L 565.962,320.334 L 562.799,323.541 L 560.151,326.809 L 557.724,330.201 L 555.812,333.655 L 554.267,337.109"/>
      <path style="fill: #ffffff; fill-opacity: 1; stroke: none" fill-rule="evenodd" d="M 503.001 386.94 L 576.407,332.977 L 571.994,330.818 L 567.213,328.721 L 562.432,326.748 L 557.43,325.021 L 552.208,323.417 L 546.912,321.937 L 541.542,320.642 L 536.026,319.594 L 530.509,318.545 L 524.846,317.805 L 519.109,317.25 L 513.372,316.757 L 507.561,316.572 L 501.824,316.51 L 496.087,316.572 L 490.276,316.942 L 484.612,317.373 L 478.875,318.114 L 473.285,318.915 L 467.769,320.025 L 462.252,321.197 L 456.956,322.492 L 451.734,323.972 L 446.659,325.638 L 441.657,327.488 L 436.95,329.585 L 432.242,331.681 L 427.829,333.963 L 423.637,336.369 L 419.518,338.959 L 415.693,341.611 L 412.015,344.324 L 408.705,347.346 L 405.542,350.245 L 402.747,353.328 L 400.026,356.597 L 397.672,359.804 L 395.613,363.134 L 393.774,366.465 L 392.229,369.918 L 390.979,373.372 L 390.096,377.011 L 389.361,380.526 L 388.919,384.041 L 388.919,387.618 L 388.993,391.134 L 389.581,394.772 L 390.317,398.288 L 503.001,386.94z"/>
      <path style="fill: none; stroke-opacity: 1; stroke-width: 0.02; stroke: #6c8f93" d="M 576.112 332.792 L 571.552,330.571 L 566.845,328.536 L 561.99,326.624 L 556.915,324.836 L 551.693,323.232 L 546.471,321.876 L 541.101,320.519 L 535.585,319.409 L 530.068,318.545 L 524.405,317.744 L 518.667,317.127 L 512.93,316.757 L 507.12,316.572 L 501.382,316.51 L 495.572,316.633 L 489.908,317.003 L 484.097,317.435 L 478.434,318.114 L 472.844,318.977 L 467.327,320.087 L 461.884,321.197 L 456.588,322.677 L 451.44,324.096 L 446.365,325.823 L 441.363,327.734 L 436.582,329.708 L 431.948,331.805 L 427.535,334.025 L 423.416,336.554 L 419.297,339.082 L 415.472,341.734 L 411.942,344.509 L 408.558,347.408 L 405.469,350.43 L 402.527,353.575 L 399.952,356.659 L 397.525,359.927 L 395.613,363.258 L 393.774,366.711 L 392.156,370.103 L 390.979,373.619 L 390.096,377.134 L 389.361,380.649 L 388.919,384.103 L 388.919,387.803 L 389.14,391.319 L 389.581,394.834 L 390.39,398.349"/>
      <path style="fill: #ffffff; fill-opacity: 1; stroke: none" fill-rule="evenodd" d="M 482.479 512.998 L 364.353,511.087 L 364.353,514.232 L 364.573,517.439 L 365.088,520.707 L 365.971,523.791 L 367.148,526.936 L 368.545,530.02 L 370.31,533.104 L 372.37,536.126 L 374.65,539.086 L 377.224,541.984 L 380.167,544.821 L 383.182,547.535 L 386.639,550.187 L 390.096,552.715 L 393.995,555.182 L 398.114,557.526 L 402.233,559.684 L 406.719,561.843 L 411.427,563.878 L 416.281,565.667 L 421.356,567.393 L 426.432,569.059 L 431.727,570.415 L 437.17,571.772 L 442.76,572.944 L 448.424,573.931 L 454.088,574.732 L 459.972,575.473 L 465.783,575.904 L 471.667,576.398 L 477.698,576.583 L 483.656,576.583 L 489.614,576.459 L 495.425,576.213 L 501.309,575.843 L 507.267,575.226 L 513.077,574.486 L 518.667,573.499 L 524.331,572.512 L 529.847,571.279 L 535.217,569.922 L 540.439,568.38 L 545.514,566.777 L 550.516,565.05 L 555.37,563.138 L 559.931,561.041 L 482.479,512.998z"/>
      <path style="fill: none; stroke-opacity: 1; stroke-width: 0.02; stroke: #6c8f93" d="M 364.353 511.087 L 364.206,514.232 L 364.573,517.439 L 365.088,520.522 L 365.971,523.791 L 367.074,526.875 L 368.692,530.02 L 370.31,533.104 L 372.37,536.126 L 374.65,539.024 L 377.224,541.923 L 380.019,544.76 L 383.035,547.473 L 386.419,550.063 L 390.096,552.715 L 393.774,554.997 L 397.746,557.403 L 402.085,559.623 L 406.499,561.781 L 411.206,563.755 L 416.061,565.605 L 420.989,567.332 L 426.137,568.874 L 431.433,570.415 L 436.95,571.649 L 442.466,572.821 L 447.983,573.869 L 453.72,574.732 L 459.531,575.411 L 465.341,575.904 L 471.299,576.274 L 477.183,576.583 L 483.215,576.583 L 489.025,576.583 L 494.983,576.213 L 500.867,575.843 L 506.678,575.288 L 512.415,574.486 L 518.153,573.684 L 523.89,572.574 L 529.333,571.402 L 534.702,570.045 L 539.924,568.565 L 544.999,566.962 L 550.075,565.235 L 554.856,563.323 L 559.342,561.35"/>
      <path style="fill: #ffffff; fill-opacity: 1; stroke: none" fill-rule="evenodd" d="M 858.704 375.469 L 962.856,393.292 L 964.474,390.579 L 965.945,387.927 L 967.048,385.213 L 967.931,382.5 L 968.446,379.724 L 968.74,376.826 L 968.74,374.112 L 968.446,371.337 L 967.931,368.623 L 967.048,365.848 L 965.945,363.134 L 964.474,360.421 L 962.929,357.769 L 960.943,355.117 L 958.737,352.527 L 956.309,350.06 L 953.588,347.593 L 950.572,345.249 L 947.336,342.968 L 944.026,340.809 L 940.348,338.65 L 936.524,336.615 L 932.478,334.703 L 928.138,332.915 L 923.799,331.25 L 919.239,329.708 L 914.458,328.166 L 909.603,326.748 L 904.528,325.576 L 899.453,324.466 L 894.083,323.541 L 888.861,322.739 L 883.345,321.999 L 877.902,321.506 L 872.385,321.012 L 866.795,320.827 L 861.279,320.58 L 855.762,320.642 L 850.172,320.827 L 844.582,321.135 L 839.065,321.506 L 833.622,322.061 L 828.18,322.739 L 822.81,323.602 L 858.704,375.469z"/>
      <path style="fill: none; stroke-opacity: 1; stroke-width: 0.02; stroke: #6c8f93" d="M 952.558 403.345 L 962.635,393.416 L 964.327,390.702 L 965.724,388.05 L 967.048,385.336 L 967.857,382.561 L 968.446,379.848 L 968.74,377.134 L 968.813,374.297 L 968.446,371.46 L 968.004,368.685 L 967.048,365.91 L 966.018,363.258 L 964.621,360.544 L 963.003,357.892 L 961.09,355.24 L 958.81,352.712 L 956.383,350.183 L 953.735,347.778 L 950.793,345.434 L 947.63,343.153 L 944.1,340.871 L 940.569,338.835 L 936.744,336.739 L 932.625,334.827 L 928.433,332.977 L 924.019,331.25 L 919.386,329.708 L 914.678,328.228 L 909.897,326.933 L 904.896,325.638 L 899.747,324.589 L 894.451,323.541 L 889.229,322.739 L 883.786,321.999 L 878.343,321.506 L 872.753,321.135 L 867.236,320.827 L 861.646,320.58 L 855.983,320.58 L 850.466,320.827 L 844.876,321.135 L 839.36,321.506 L 833.917,321.999 L 828.547,322.739 L 823.178,323.541"/>
      <path style="fill: #ffffff; fill-opacity: 1; stroke: none" fill-rule="evenodd" d="M 873.415 447.996 L 990.512,470.444 L 992.865,467.484 L 994.925,464.586 L 996.617,461.564 L 997.941,458.48 L 999.044,455.396 L 999.632,452.251 L 999.853,449.106 L 999.779,446.022 L 999.412,442.815 L 998.75,439.67 L 997.573,436.586 L 996.175,433.564 L 994.484,430.604 L 992.35,427.582 L 989.923,424.683 L 987.128,421.847 L 984.112,419.071 L 980.729,416.358 L 977.051,413.767 L 873.415,447.996z"/>
      <path style="fill: none; stroke-opacity: 1; stroke-width: 0.02; stroke: #6c8f93" d="M 975.139 480.744 L 990.512,470.691 L 992.792,467.731 L 994.925,464.647 L 996.543,461.625 L 997.941,458.48 L 999.044,455.396 L 999.706,452.313 L 1000,449.106 L 1000,446.022 L 999.412,442.753 L 998.75,439.67 L 997.72,436.525 L 996.175,433.441 L 994.336,430.419 L 992.35,427.397 L 989.85,424.498 L 986.981,421.6 L 983.745,418.825 L 980.435,416.111 L 976.757,413.459 L 952.558,403.345"/>
      <path style="fill: #ffffff; fill-opacity: 1; stroke: none" fill-rule="evenodd" d="M 868.56 507.571 L 831.563,593.173 L 837.006,594.529 L 842.449,595.701 L 848.039,596.688 L 853.776,597.428 L 859.44,597.983 L 865.03,598.168 L 870.693,598.23 L 876.431,597.983 L 882.021,597.613 L 887.684,596.873 L 893.201,595.948 L 898.864,594.899 L 904.234,593.543 L 909.603,591.877 L 914.752,590.089 L 919.974,588.054 L 924.829,585.833 L 929.757,583.367 L 934.464,580.715 L 938.951,577.939 L 943.217,574.917 L 947.336,571.772 L 951.308,568.38 L 955.059,564.927 L 958.442,561.226 L 961.826,557.526 L 964.768,553.517 L 967.563,549.508 L 969.99,545.376 L 972.27,541.121 L 974.33,536.742 L 975.875,532.425 L 977.346,527.861 L 978.522,523.298 L 979.405,518.796 L 979.92,514.17 L 980.214,509.545 L 980.214,504.919 L 979.846,500.294 L 979.332,495.73 L 978.375,491.228 L 977.198,486.603 L 975.801,482.224 L 868.56,507.571z"/>
      <path style="fill: none; stroke-opacity: 1; stroke-width: 0.02; stroke: #6c8f93" d="M 831.931 593.234 L 837.374,594.591 L 842.89,595.886 L 848.407,596.811 L 854.07,597.49 L 859.66,597.983 L 865.398,598.23 L 871.061,598.353 L 876.651,597.983 L 882.388,597.613 L 888.052,596.873 L 893.568,595.948 L 899.011,594.776 L 904.528,593.358 L 909.971,591.816 L 915.12,589.966 L 920.121,587.992 L 925.196,585.71 L 929.977,583.305 L 934.685,580.653 L 939.171,577.754 L 943.511,574.732 L 947.63,571.587 L 951.455,568.319 L 955.206,564.68 L 958.737,561.041 L 961.973,557.341 L 964.842,553.27 L 967.637,549.262 L 970.137,545.191 L 972.418,540.936 L 974.403,536.496 L 976.095,532.055 L 977.346,527.615 L 978.522,523.174 L 979.405,518.549 L 979.92,513.985 L 980.214,509.36 L 980.214,504.673 L 979.846,500.109 L 979.184,495.483 L 978.375,490.858 L 977.125,486.356 L 975.727,481.977"/>
      <path style="fill: #ffffff; fill-opacity: 1; stroke: none" fill-rule="evenodd" d="M 400.394 458.788 L 394.73,400.693 L 390.611,401.001 L 386.639,401.371 L 382.594,402.05 L 378.622,402.666 L 374.65,403.653 L 370.825,404.578 L 367.074,405.75 L 363.396,407.107 L 359.792,408.464 L 356.262,410.005 L 352.952,411.794 L 349.716,413.521 L 346.626,415.556 L 343.611,417.591 L 340.742,419.688 L 338.094,421.908 L 335.593,424.252 L 333.313,426.719 L 331.107,429.186 L 329.047,431.837 L 327.355,434.551 L 325.737,437.265 L 324.193,439.978 L 323.016,442.815 L 322.059,445.714 L 321.177,448.551 L 320.662,451.511 L 320.221,454.533 L 320,457.432 L 320,460.392 L 320.221,463.414 L 320.662,466.312 L 321.177,469.273 L 322.059,472.11 L 323.163,475.008 L 324.34,477.845 L 325.811,480.559 L 327.429,483.396 L 329.268,485.986 L 331.254,488.576 L 333.534,491.166 L 335.814,493.51 L 338.388,495.853 L 341.11,498.135 L 343.905,500.294 L 346.847,502.206 L 350.083,504.118 L 353.32,506.029 L 356.63,507.633 L 360.16,509.175 L 363.691,510.655 L 400.394,458.788z"/>
      <path style="fill: none; stroke-opacity: 1; stroke-width: 0.02; stroke: #6c8f93" d="M 394.877 400.693 L 390.832,401.001 L 386.86,401.371 L 382.814,401.926 L 378.916,402.666 L 375.165,403.468 L 371.267,404.455 L 367.515,405.627 L 363.911,406.86 L 360.454,408.279 L 356.997,409.82 L 353.54,411.424 L 350.378,413.151 L 347.288,415.001 L 344.346,416.974 L 341.551,419.133 L 338.83,421.23 L 336.255,423.512 L 333.975,425.979 L 331.695,428.384 L 329.856,430.851 L 328.017,433.441 L 326.252,436.093 L 324.781,438.806 L 323.531,441.52 L 322.354,444.357 L 321.545,447.256 L 320.736,450.093 L 320.294,452.991 L 320,455.89 L 320,458.85 L 320,461.687 L 320.441,464.647 L 320.883,467.607 L 321.545,470.383 L 322.501,473.22 L 323.531,476.057 L 324.781,478.832 L 326.252,481.545 L 328.017,484.197 L 329.856,486.849 L 331.916,489.316 L 334.049,491.721 L 336.402,494.188 L 338.83,496.408 L 341.551,498.567 L 344.42,500.664 L 347.362,502.576 L 350.525,504.488 L 353.761,506.214 L 356.997,507.818 L 360.454,509.36 L 364.132,510.84"/>
      <path style="fill: #ffffff; fill-opacity: 1; stroke: none" fill-rule="evenodd" d="M 698.579 552.284 L 531.024,558.944 L 532.128,562.336 L 533.525,565.667 L 535.438,569.059 L 537.718,572.327 L 540.439,575.596 L 543.602,578.741 L 547.059,581.825 L 550.957,584.847 L 555.223,587.807 L 559.931,590.706 L 564.859,593.358 L 570.228,596.071 L 575.818,598.6 L 581.776,601.067 L 588.102,603.348 L 594.574,605.507 L 601.415,607.481 L 608.402,609.392 L 615.684,611.119 L 623.113,612.723 L 630.836,614.203 L 638.706,615.56 L 646.65,616.67 L 654.741,617.656 L 663.052,618.458 L 671.29,619.075 L 679.749,619.568 L 688.061,619.815 L 696.666,620 L 705.051,619.938 L 713.584,619.753 L 721.969,619.26 L 730.28,618.767 L 738.592,618.026 L 746.756,617.101 L 754.773,616.115 L 762.644,614.82 L 770.44,613.463 L 778.016,611.921 L 785.445,610.317 L 792.506,608.406 L 799.42,606.494 L 806.114,604.335 L 812.513,602.053 L 818.544,599.71 L 824.428,597.243 L 829.871,594.591 L 835.02,592.001 L 839.727,589.164 L 844.214,586.265 L 848.333,583.182 L 852.011,580.221 L 855.321,577.014 L 858.116,573.869 L 698.579,552.284z"/>
      <path style="fill: none; stroke-opacity: 1; stroke-width: 0.02; stroke: #6c8f93" d="M 531.024 559.068 L 532.128,562.398 L 533.599,565.79 L 535.438,569.12 L 537.865,572.389 L 540.439,575.658 L 543.602,578.741 L 547.133,581.825 L 550.957,584.908 L 555.37,587.807 L 559.931,590.706 L 564.859,593.358 L 570.228,596.071 L 575.818,598.6 L 581.776,601.067 L 588.102,603.348 L 594.648,605.507 L 601.268,607.481 L 608.402,609.392 L 615.537,611.119 L 623.039,612.723 L 630.615,614.203 L 638.486,615.56 L 646.503,616.67 L 654.594,617.533 L 662.832,618.458 L 671.07,619.013 L 679.455,619.568 L 687.987,619.753 L 696.372,620 L 704.831,619.938 L 713.289,619.753 L 721.674,619.26 L 729.986,618.828 L 738.224,618.026 L 746.462,617.101 L 754.553,616.115 L 762.349,614.943 L 770.146,613.463 L 777.722,612.044 L 785.004,610.317 L 792.212,608.467 L 799.126,606.555 L 805.746,604.397 L 812.145,602.238 L 818.25,599.771 L 824.061,597.428 L 829.577,594.714 L 834.652,592.062 L 839.58,589.287 L 843.846,586.45 L 847.965,583.367 L 851.643,580.345 L 854.953,577.199 L 857.969,574.054"/>
    </g>
  </g>
  <g id="Background">
    <rect style="fill: #ffffff; fill-opacity: 1; stroke-opacity: 1; stroke-width: 2; stroke: #000000" x="180" y="180" width="280" height="220" rx="0" ry="0"/>
    <rect style="fill: #ffffff; fill-opacity: 1; stroke-opacity: 1; stroke-width: 2; stroke: #000000" x="900" y="140" width="300" height="260" rx="0" ry="0"/>
    <rect style="fill: #ffffff; fill-opacity: 1; stroke-opacity: 1; stroke-width: 2; stroke: #000000" x="1080" y="320" width="80" height="60" rx="0" ry="0"/>
    <rect style="fill: #ffffff; fill-opacity: 1; stroke-opacity: 1; stroke-width: 2; stroke: #000000" x="280" y="200" width="80" height="60" rx="0" ry="0"/>
    <text font-size="23.7067" style="fill: #000000; fill-opacity: 1; stroke: none;text-anchor:start;font-family:sans-serif;font-style:normal;font-weight:normal" x="300" y="240">
      <tspan x="300" y="240">br0</tspan>
    </text>
    <rect style="fill: #ffffff; fill-opacity: 1; stroke-opacity: 1; stroke-width: 2; stroke: #000000" x="200" y="320" width="80" height="60" rx="0" ry="0"/>
    <text font-size="23.7067" style="fill: #000000; fill-opacity: 1; stroke: none;text-anchor:start;font-family:sans-serif;font-style:normal;font-weight:normal" x="220" y="360">
      <tspan x="220" y="360">eth0</tspan>
    </text>
    <rect style="fill: #ffffff; fill-opacity: 1; stroke-opacity: 1; stroke-width: 2; stroke: #000000" x="360" y="320" width="80" height="60" rx="0" ry="0"/>
    <text font-size="23.7067" style="fill: #000000; fill-opacity: 1; stroke: none;text-anchor:start;font-family:sans-serif;font-style:normal;font-weight:normal" x="380" y="360">
      <tspan x="380" y="360">bat0</tspan>
    </text>
    <polyline style="fill: none; stroke-opacity: 1; stroke-width: 2; stroke: #000000" points="240,320 240,290 320,290 320,260 "/>
    <polyline style="fill: none; stroke-opacity: 1; stroke-width: 2; stroke: #000000" points="400,320 400,290 320,290 320,260 "/>
    <rect style="fill: #ffffff; fill-opacity: 1; stroke-opacity: 1; stroke-width: 2; stroke: #000000" x="1000" y="200" width="80" height="60" rx="0" ry="0"/>
    <text font-size="23.7067" style="fill: #000000; fill-opacity: 1; stroke: none;text-anchor:start;font-family:sans-serif;font-style:normal;font-weight:normal" x="1020" y="240">
      <tspan x="1020" y="240">br0</tspan>
    </text>
    <rect style="fill: #ffffff; fill-opacity: 1; stroke-opacity: 1; stroke-width: 2; stroke: #000000" x="920" y="320" width="80" height="60" rx="0" ry="0"/>
    <text font-size="23.7067" style="fill: #000000; fill-opacity: 1; stroke: none;text-anchor:start;font-family:sans-serif;font-style:normal;font-weight:normal" x="1100" y="360">
      <tspan x="1100" y="360">eth0</tspan>
    </text>
    <text font-size="23.7067" style="fill: #000000; fill-opacity: 1; stroke: none;text-anchor:start;font-family:sans-serif;font-style:normal;font-weight:normal" x="940" y="360">
      <tspan x="940" y="360">bat0</tspan>
    </text>
    <polyline style="fill: none; stroke-opacity: 1; stroke-width: 2; stroke: #000000" points="960,320 960,290 1040,290 1040,260 "/>
    <polyline style="fill: none; stroke-opacity: 1; stroke-width: 2; stroke: #000000" points="1120,320 1120,290 1040,290 1040,260 "/>
    <ellipse style="fill: #ea7227; fill-opacity: 1; stroke-opacity: 1; stroke-width: 2; stroke: #000000" cx="1190" cy="450" rx="30" ry="30"/>
    <text font-size="23.7067" style="fill: #000000; fill-opacity: 1; stroke: none;text-anchor:start;font-family:sans-serif;font-style:normal;font-weight:normal" x="1180" y="460">
      <tspan x="1180" y="460">B</tspan>
    </text>
    <polyline style="fill: none; stroke-opacity: 1; stroke-width: 2; stroke: #000000" points="1120,380 1120,460 1160,460 1160,460 "/>
    <ellipse style="fill: #ffffff; fill-opacity: 1; stroke-opacity: 1; stroke-width: 2; stroke: #000000" cx="170" cy="450" rx="30" ry="30"/>
    <polyline style="fill: none; stroke-opacity: 1; stroke-width: 2; stroke: #000000" points="240,380 240,460 200,460 200,450 "/>
    <text font-size="23.7067" style="fill: #000000; fill-opacity: 1; stroke: none;text-anchor:start;font-family:sans-serif;font-style:normal;font-weight:normal" x="160" y="460">
      <tspan x="160" y="460">A</tspan>
    </text>
    <text font-size="23.7067" style="fill: #000000; fill-opacity: 1; stroke: none;text-anchor:start;font-family:sans-serif;font-style:normal;font-weight:normal" x="200" y="220">
      <tspan x="200" y="220">X</tspan>
    </text>
    <text font-size="23.7067" style="fill: #000000; fill-opacity: 1; stroke: none;text-anchor:start;font-family:sans-serif;font-style:normal;font-weight:normal" x="920" y="180">
      <tspan x="920" y="180">Y</tspan>
    </text>
    <g>
      <path style="fill: none; stroke-opacity: 1; stroke-width: 2; stroke-dasharray: 20; stroke: #ea7227" d="M 1168.79,471.214 A 4164.08,4164.08 0 0 1 200.883,472.346"/>
      <polygon style="fill: #ea7227; fill-opacity: 1; stroke-opacity: 1; stroke-width: 2; stroke: #ea7227" fill-rule="evenodd" points="193.434,471.476 203.952,467.685 200.882,472.357 202.778,477.616 "/>
    </g>
    <text font-size="18.0622" style="fill: #ea7227; fill-opacity: 1; stroke: none;text-anchor:start;font-family:sans-serif;font-style:normal;font-weight:normal" x="660" y="480">
      <tspan x="660" y="480">OK?</tspan>
    </text>
    <text font-size="18.0622" style="fill: #ea7227; fill-opacity: 1; stroke: none;text-anchor:start;font-family:sans-serif;font-style:normal;font-weight:normal" x="1080" y="520">
      <tspan x="1080" y="520">Multicast Sender</tspan>
    </text>
    <text font-size="18.0622" style="fill: #ea7227; fill-opacity: 1; stroke: none;text-anchor:start;font-family:sans-serif;font-style:normal;font-weight:normal" x="140" y="520">
      <tspan x="140" y="520">Multicast Receiver</tspan>
    </text>
    <line style="fill: none; stroke-opacity: 1; stroke-width: 2; stroke: #000000" x1="200" y1="350" x2="140" y2="350"/>
    <ellipse style="fill: #ffffff; fill-opacity: 1; stroke-opacity: 1; stroke-width: 2; stroke: #000000" cx="110" cy="350" rx="30" ry="30"/>
    <text font-size="23.7067" style="fill: #000000; fill-opacity: 1; stroke: none;text-anchor:start;font-family:sans-serif;font-style:normal;font-weight:normal" x="100" y="360">
      <tspan x="100" y="360">C</tspan>
    </text>
    <rect style="fill: #ffffff; fill-opacity: 1; stroke-opacity: 1; stroke-width: 2; stroke: #000000" x="-20" y="280" width="120" height="60" rx="0" ry="0"/>
    <text font-size="23.7067" style="fill: #000000; fill-opacity: 1; stroke: none;text-anchor:start;font-family:sans-serif;font-style:normal;font-weight:normal" x="0" y="320">
      <tspan x="0" y="320">Querier</tspan>
    </text>
  </g>
</svg>
