<?xml version="1.0" encoding="UTF-8" standalone="no"?>
<!DOCTYPE svg PUBLIC "-//W3C//DTD SVG 1.0//EN" "http://www.w3.org/TR/2001/PR-SVG-20010719/DTD/svg10.dtd">
<svg width="34cm" height="17cm" viewBox="53 89 669 335" xmlns="http://www.w3.org/2000/svg" xmlns:xlink="http://www.w3.org/1999/xlink">
  <g id="Background">
    <g>
      <ellipse style="fill: #ffffff; fill-opacity: 1; stroke-opacity: 1; stroke-width: 0.02; stroke: #000000" cx="350.52" cy="127.26" rx="28.4802" ry="27.7401"/>
      <text font-size="12.8" style="fill: #000000; fill-opacity: 1; stroke: none;text-anchor:middle;font-family:sans-serif;font-style:normal;font-weight:normal" x="350.52" y="131.16">
        <tspan x="350.52" y="131.16">C</tspan>
      </text>
    </g>
    <g>
      <ellipse style="fill: #ffffff; fill-opacity: 1; stroke-opacity: 1; stroke-width: 0.02; stroke: #000000" cx="82.1802" cy="395.54" rx="28.4802" ry="27.7401"/>
      <text font-size="12.8" style="fill: #000000; fill-opacity: 1; stroke: none;text-anchor:middle;font-family:sans-serif;font-style:normal;font-weight:normal" x="82.1802" y="399.44">
        <tspan x="82.1802" y="399.44">F</tspan>
      </text>
    </g>
    <g>
      <ellipse style="fill: #ffffff; fill-opacity: 1; stroke-opacity: 1; stroke-width: 0.02; stroke: #000000" cx="83.8802" cy="138.34" rx="28.4802" ry="27.7401"/>
      <text font-size="12.8" style="fill: #000000; fill-opacity: 1; stroke: none;text-anchor:middle;font-family:sans-serif;font-style:normal;font-weight:normal" x="83.8802" y="142.24">
        <tspan x="83.8802" y="142.24">A</tspan>
      </text>
    </g>
    <g>
      <ellipse style="fill: #ffffff; fill-opacity: 1; stroke-opacity: 1; stroke-width: 0.02; stroke: #000000" cx="219.58" cy="269.14" rx="28.4802" ry="27.7401"/>
      <text font-size="12.8" style="fill: #000000; fill-opacity: 1; stroke: none;text-anchor:middle;font-family:sans-serif;font-style:normal;font-weight:normal" x="219.58" y="273.04">
        <tspan x="219.58" y="273.04">B</tspan>
      </text>
    </g>
    <g>
      <ellipse style="fill: #ffffff; fill-opacity: 1; stroke-opacity: 1; stroke-width: 0.02; stroke: #000000" cx="528.28" cy="116.94" rx="28.4802" ry="27.7401"/>
      <text font-size="12.8" style="fill: #000000; fill-opacity: 1; stroke: none;text-anchor:middle;font-family:sans-serif;font-style:normal;font-weight:normal" x="528.28" y="120.84">
        <tspan x="528.28" y="120.84">D</tspan>
      </text>
    </g>
    <g>
      <ellipse style="fill: #ffffff; fill-opacity: 1; stroke-opacity: 1; stroke-width: 0.02; stroke: #000000" cx="351.98" cy="388.74" rx="28.4802" ry="27.7401"/>
      <text font-size="12.8" style="fill: #000000; fill-opacity: 1; stroke: none;text-anchor:middle;font-family:sans-serif;font-style:normal;font-weight:normal" x="351.98" y="392.64">
        <tspan x="351.98" y="392.64">G</tspan>
      </text>
    </g>
    <g>
      <ellipse style="fill: #ffffff; fill-opacity: 1; stroke-opacity: 1; stroke-width: 0.02; stroke: #000000" cx="529.68" cy="380.54" rx="28.4802" ry="27.7401"/>
      <text font-size="12.8" style="fill: #000000; fill-opacity: 1; stroke: none;text-anchor:middle;font-family:sans-serif;font-style:normal;font-weight:normal" x="529.68" y="384.44">
        <tspan x="529.68" y="384.44">H</tspan>
      </text>
    </g>
    <g>
      <ellipse style="fill: #ffffff; fill-opacity: 1; stroke-opacity: 1; stroke-width: 0.02; stroke: #000000" cx="693.38" cy="258.34" rx="28.4802" ry="27.7401"/>
      <text font-size="12.8" style="fill: #000000; fill-opacity: 1; stroke: none;text-anchor:middle;font-family:sans-serif;font-style:normal;font-weight:normal" x="693.38" y="262.24">
        <tspan x="693.38" y="262.24">E</tspan>
      </text>
    </g>
    <rect style="fill: #ffffff; fill-opacity: 1; stroke-opacity: 1; stroke-width: 0.02; stroke: #000000" x="209.646" y="230" width="22.9839" height="23.75" rx="0" ry="0"/>
    <rect style="fill: #ffffff; fill-opacity: 1; stroke-opacity: 1; stroke-width: 0.02; stroke: #000000" x="71.7" y="152.8" width="22.9839" height="23.75" rx="0" ry="0"/>
    <rect style="fill: #ffffff; fill-opacity: 1; stroke-opacity: 1; stroke-width: 0.02; stroke: #000000" x="70.4" y="358.6" width="22.9839" height="23.75" rx="0" ry="0"/>
    <rect style="fill: #ffffff; fill-opacity: 1; stroke-opacity: 1; stroke-width: 0.02; stroke: #000000" x="210.1" y="284.4" width="22.9839" height="23.75" rx="0" ry="0"/>
    <rect style="fill: #ffffff; fill-opacity: 1; stroke-opacity: 1; stroke-width: 0.02; stroke: #000000" x="337.8" y="143.2" width="22.9839" height="23.75" rx="0" ry="0"/>
    <rect style="fill: #ffffff; fill-opacity: 1; stroke-opacity: 1; stroke-width: 0.02; stroke: #000000" x="516.5" y="131" width="22.9839" height="23.75" rx="0" ry="0"/>
    <rect style="fill: #ffffff; fill-opacity: 1; stroke-opacity: 1; stroke-width: 0.02; stroke: #000000" x="341.2" y="347.8" width="22.9839" height="23.75" rx="0" ry="0"/>
    <rect style="fill: #ffffff; fill-opacity: 1; stroke-opacity: 1; stroke-width: 0.02; stroke: #000000" x="517.9" y="341.6" width="22.9839" height="23.75" rx="0" ry="0"/>
    <rect style="fill: #ffffff; fill-opacity: 1; stroke-opacity: 1; stroke-width: 0.02; stroke: #000000" x="653.6" y="244.4" width="22.9839" height="23.75" rx="0" ry="0"/>
    <path style="fill: none; stroke-opacity: 1; stroke-width: 0.02; stroke: #000000" d="M 93.3858,364.381 A 119.217,119.217 0 0 0 210.099,302.401"/>
    <path style="fill: none; stroke-opacity: 1; stroke-width: 0.02; stroke: #000000" d="M 233.081,302.388 A 99.2659,99.2659 0 0 0 341.2,359.676"/>
    <path style="fill: none; stroke-opacity: 1; stroke-width: 0.02; stroke: #000000" d="M 364.184,359.676 A 137.807,137.807 0 0 0 517.9,353.474"/>
    <path style="fill: none; stroke-opacity: 1; stroke-width: 0.02; stroke: #000000" d="M 540.884,353.474 A 115.308,115.308 0 0 0 653.605,265.294"/>
    <path style="fill: none; stroke-opacity: 1; stroke-width: 0.02; stroke: #000000" d="M 94.6925,170.608 A 83.6181,83.6181 0 0 1 209.646,230"/>
    <path style="fill: none; stroke-opacity: 1; stroke-width: 0.02; stroke: #000000" d="M 232.63,230 A 99.9882,99.9882 0 0 1 337.801,162.424"/>
    <path style="fill: none; stroke-opacity: 1; stroke-width: 0.02; stroke: #000000" d="M 360.784,155.075 A 186.033,186.033 0 0 1 516.502,143.705"/>
    <path style="fill: none; stroke-opacity: 1; stroke-width: 0.02; stroke: #000000" d="M 539.491,151.382 A 116.686,116.686 0 0 1 665.092,244.4"/>
    <g>
      <line style="fill: none; stroke-opacity: 1; stroke-width: 3; stroke: #00ff00" x1="98" y1="355" x2="189.668" y2="300.544"/>
      <polygon style="fill: #00ff00; fill-opacity: 1; stroke-opacity: 1; stroke-width: 3; stroke: #00ff00" fill-rule="evenodd" points="196.116,296.713 190.073,306.119 189.668,300.544 184.965,297.522 "/>
    </g>
    <g>
      <line style="fill: none; stroke-opacity: 1; stroke-width: 3; stroke: #00ff00" x1="242" y1="236" x2="324.305" y2="174.497"/>
      <polygon style="fill: #00ff00; fill-opacity: 1; stroke-opacity: 1; stroke-width: 3; stroke: #00ff00" fill-rule="evenodd" points="330.313,170.008 325.296,179.999 324.305,174.497 319.31,171.988 "/>
    </g>
    <g>
      <line style="fill: none; stroke-opacity: 1; stroke-width: 3; stroke: #00ff00" x1="380" y1="152" x2="493.147" y2="150.175"/>
      <polygon style="fill: #00ff00; fill-opacity: 1; stroke-opacity: 1; stroke-width: 3; stroke: #00ff00" fill-rule="evenodd" points="500.646,150.054 490.728,155.215 493.147,150.175 490.567,145.216 "/>
    </g>
    <g>
      <line style="fill: none; stroke-opacity: 1; stroke-width: 3; stroke: #00ff00" x1="549" y1="156" x2="640.648" y2="232.068"/>
      <polygon style="fill: #00ff00; fill-opacity: 1; stroke-opacity: 1; stroke-width: 3; stroke: #00ff00" fill-rule="evenodd" points="646.419,236.858 635.531,234.319 640.648,232.068 641.918,226.624 "/>
    </g>
    <g>
      <line style="fill: none; stroke-opacity: 1; stroke-width: 3; stroke: #ff0000" x1="108" y1="175" x2="193.867" y2="230.135"/>
      <polygon style="fill: #ff0000; fill-opacity: 1; stroke-opacity: 1; stroke-width: 3; stroke: #ff0000" fill-rule="evenodd" points="200.178,234.188 189.061,232.992 193.867,230.135 194.465,224.577 "/>
    </g>
    <g>
      <line style="fill: none; stroke-opacity: 1; stroke-width: 3; stroke: #ff0000" x1="236" y1="300" x2="324.252" y2="343.226"/>
      <polygon style="fill: #ff0000; fill-opacity: 1; stroke-opacity: 1; stroke-width: 3; stroke: #ff0000" fill-rule="evenodd" points="330.988,346.525 319.808,346.616 324.252,343.226 324.207,337.636 "/>
    </g>
    <g>
      <line style="fill: none; stroke-opacity: 1; stroke-width: 3; stroke: #ff0000" x1="372" y1="355" x2="497.153" y2="350.399"/>
      <polygon style="fill: #ff0000; fill-opacity: 1; stroke-opacity: 1; stroke-width: 3; stroke: #ff0000" fill-rule="evenodd" points="504.648,350.123 494.839,355.487 497.153,350.399 494.471,345.494 "/>
    </g>
    <g>
      <line style="fill: none; stroke-opacity: 1; stroke-width: 3; stroke: #ff0000" x1="550" y1="340" x2="639.295" y2="273.484"/>
      <polygon style="fill: #ff0000; fill-opacity: 1; stroke-opacity: 1; stroke-width: 3; stroke: #ff0000" fill-rule="evenodd" points="645.31,269.004 640.277,278.987 639.295,273.484 634.304,270.968 "/>
    </g>
    <text font-size="12.8" style="fill: #000000; fill-opacity: 1; stroke: none;text-anchor:middle;font-family:sans-serif;font-style:normal;font-weight:normal" x="221.138" y="246.326">
      <tspan x="221.138" y="246.326">B1</tspan>
    </text>
    <text font-size="12.8" style="fill: #000000; fill-opacity: 1; stroke: none;text-anchor:middle;font-family:sans-serif;font-style:normal;font-weight:normal" x="221.592" y="300.724">
      <tspan x="221.592" y="300.724">B2</tspan>
    </text>
  </g>
</svg>
