<?xml version="1.0" encoding="UTF-8" standalone="no"?>
<!DOCTYPE svg PUBLIC "-//W3C//DTD SVG 1.0//EN" "http://www.w3.org/TR/2001/PR-SVG-20010719/DTD/svg10.dtd">
<svg width="99cm" height="51cm" viewBox="-1 59 1963 1002" xmlns="http://www.w3.org/2000/svg" xmlns:xlink="http://www.w3.org/1999/xlink">
  <defs/>
  <g id="batman-adv">
    <rect style="fill: #ffffff; fill-opacity: 1; stroke-opacity: 1; stroke-width: 2; stroke: #ff0000" x="780" y="260" width="160" height="120" rx="0" ry="0"/>
    <path style="fill: none; stroke-opacity: 1; stroke-width: 2; stroke-dasharray: 20; stroke: #000000" d="M 1680,700 A 58.8889,58.8889 0 1 0 1680,600"/>
    <path style="fill: none; stroke-opacity: 1; stroke-width: 2; stroke-dasharray: 20; stroke: #000000" d="M 1680,720 A 87.5,87.5 0 1 0 1680,580"/>
    <path style="fill: none; stroke-opacity: 1; stroke-width: 2; stroke-dasharray: 20; stroke: #000000" d="M 1680,740 A 120.25,120.25 0 1 0 1680,560"/>
    <rect style="fill: none; stroke-opacity: 1; stroke-width: 2; stroke: #000000" x="960" y="60" width="680" height="1000" rx="0" ry="0"/>
    <text font-size="12.8" style="fill: #000000; fill-opacity: 1; stroke: none;text-anchor:start;font-family:sans-serif;font-style:normal;font-weight:normal" x="1300" y="560">
      <tspan x="1300" y="560"></tspan>
    </text>
    <rect style="fill: #ffffff; fill-opacity: 1; stroke-opacity: 1; stroke-width: 2; stroke: #000000" x="420" y="180" width="120" height="280" rx="0" ry="0"/>
    <rect style="fill: #ffffff; fill-opacity: 1; stroke-opacity: 1; stroke-width: 2; stroke: #000000" x="1580" y="180" width="120" height="280" rx="0" ry="0"/>
    <rect style="fill: #ffffff; fill-opacity: 1; stroke-opacity: 1; stroke-width: 2; stroke: #000000" x="1580" y="520" width="120" height="280" rx="0" ry="0"/>
    <rect style="fill: #ffffff; fill-opacity: 1; stroke-opacity: 1; stroke-width: 2; stroke: #ff0000" x="1300" y="260" width="160" height="120" rx="0" ry="0"/>
    <rect style="fill: #ffffff; fill-opacity: 1; stroke-opacity: 1; stroke-width: 2; stroke: #ff0000" x="1200" y="800" width="160" height="120" rx="0" ry="0"/>
  </g>
  <g id="Background">
    <rect style="fill: #ffffff; fill-opacity: 1; stroke-opacity: 1; stroke-width: 2; stroke: #000000" x="40" y="260" width="160" height="120" rx="0" ry="0"/>
    <rect style="fill: #ffffff; fill-opacity: 1; stroke-opacity: 1; stroke-width: 2; stroke: #000000" x="960" y="60" width="200" height="60" rx="0" ry="0"/>
    <line style="fill: none; stroke-opacity: 1; stroke-width: 2; stroke-dasharray: 20; stroke: #000000" x1="0" y1="400" x2="420" y2="400"/>
    <line style="fill: none; stroke-opacity: 1; stroke-width: 2; stroke-dasharray: 20; stroke: #000000" x1="0" y1="420" x2="420" y2="420"/>
    <polygon style="fill: #ffffff; fill-opacity: 1; stroke-opacity: 1; stroke-width: 2; stroke: #ff0000" fill-rule="evenodd" points="1440,920 1560,1000 1620,920 1500,840 "/>
    <text font-size="40.64" style="fill: #000000; fill-opacity: 1; stroke: none;text-anchor:start;font-family:sans-serif;font-style:normal;font-weight:normal" x="800" y="320">
      <tspan x="800" y="320">Video</tspan>
    </text>
    <g>
      <line style="fill: none; stroke-opacity: 1; stroke-width: 2; stroke: #000000" x1="1700" y1="320" x2="1737.89" y2="149.504"/>
      <polygon style="fill: #000000; fill-opacity: 1; stroke-opacity: 1; stroke-width: 2; stroke: #000000" fill-rule="evenodd" points="1739.51,142.183 1742.23,153.029 1737.89,149.504 1732.46,150.86 "/>
    </g>
    <g>
      <line style="fill: none; stroke-opacity: 1; stroke-width: 2; stroke: #000000" x1="1700" y1="320" x2="1810.76" y2="283.079"/>
      <polygon style="fill: #000000; fill-opacity: 1; stroke-opacity: 1; stroke-width: 2; stroke: #000000" fill-rule="evenodd" points="1817.88,280.707 1809.97,288.613 1810.76,283.079 1806.81,279.126 "/>
    </g>
    <g>
      <line style="fill: none; stroke-opacity: 1; stroke-width: 2; stroke: #000000" x1="1700" y1="320" x2="1950.38" y2="358.52"/>
      <polygon style="fill: #000000; fill-opacity: 1; stroke-opacity: 1; stroke-width: 2; stroke: #000000" fill-rule="evenodd" points="1957.79,359.66 1947.15,363.081 1950.38,358.52 1948.67,353.198 "/>
    </g>
    <polygon style="fill: #ffffff; fill-opacity: 1; stroke-opacity: 1; stroke-width: 2; stroke: #000000" fill-rule="evenodd" points="1040,320 1140,420 1240,320 1140,220 "/>
    <text font-size="27.0933" style="fill: #000000; fill-opacity: 1; stroke: none;text-anchor:start;font-family:sans-serif;font-style:normal;font-weight:normal" x="1020" y="180">
      <tspan x="1020" y="180">Algorithm Selection:</tspan>
      <tspan xml:space="preserve" x="1020" y="213.867">        Flooding?</tspan>
    </text>
    <line style="fill: none; stroke-opacity: 1; stroke-width: 2; stroke-dasharray: 20; stroke: #000000" x1="540" y1="400" x2="1120" y2="400"/>
    <line style="fill: none; stroke-opacity: 1; stroke-width: 2; stroke-dasharray: 20; stroke: #000000" x1="540" y1="420" x2="1120" y2="420"/>
    <line style="fill: none; stroke-opacity: 1; stroke-width: 2; stroke-dasharray: 20; stroke: #000000" x1="1160" y1="420" x2="1580" y2="420"/>
    <line style="fill: none; stroke-opacity: 1; stroke-width: 2; stroke-dasharray: 20; stroke: #000000" x1="1160" y1="400" x2="1580" y2="400"/>
    <text font-size="27.0933" style="fill: #000000; fill-opacity: 1; stroke: none;text-anchor:start;font-family:sans-serif;font-style:normal;font-weight:normal" x="420" y="220">
      <tspan x="420" y="220">netfilter</tspan>
    </text>
    <text font-size="27.0933" style="fill: #000000; fill-opacity: 1; stroke: none;text-anchor:start;font-family:sans-serif;font-style:normal;font-weight:normal" x="1180" y="320">
      <tspan x="1180" y="320">no</tspan>
    </text>
    <text font-size="27.0933" style="fill: #000000; fill-opacity: 1; stroke: none;text-anchor:start;font-family:sans-serif;font-style:normal;font-weight:normal" x="1120" y="380">
      <tspan x="1120" y="380">yes</tspan>
    </text>
    <polygon style="fill: #ffffff; fill-opacity: 1; stroke-opacity: 1; stroke-width: 2; stroke: #000000" fill-rule="evenodd" points="1040,660 1140,760 1240,660 1140,560 "/>
    <line style="fill: none; stroke-opacity: 1; stroke-width: 2; stroke-dasharray: 20; stroke: #000000" x1="1160" y1="740" x2="1580" y2="740"/>
    <line style="fill: none; stroke-opacity: 1; stroke-width: 2; stroke-dasharray: 20; stroke: #000000" x1="1160" y1="760" x2="1580" y2="760"/>
    <line style="fill: none; stroke-opacity: 1; stroke-width: 2; stroke-dasharray: 20; stroke: #000000" x1="1120" y1="960" x2="1420" y2="960"/>
    <line style="fill: none; stroke-opacity: 1; stroke-width: 2; stroke-dasharray: 20; stroke: #000000" x1="1160" y1="940" x2="1420" y2="940"/>
    <text font-size="24.8356" style="fill: #000000; fill-opacity: 1; stroke: none;text-anchor:start;font-family:sans-serif;font-style:normal;font-weight:normal" x="1580" y="220">
      <tspan x="1580" y="220">Unicaster</tspan>
    </text>
    <text font-size="19.1911" style="fill: #000000; fill-opacity: 1; stroke: none;text-anchor:start;font-family:sans-serif;font-style:normal;font-weight:normal" x="1580" y="560">
      <tspan x="1580" y="560">Broadcaster</tspan>
    </text>
    <line style="fill: none; stroke-opacity: 1; stroke-width: 2; stroke-dasharray: 20; stroke: #000000" x1="1120" y1="420" x2="1120" y2="580"/>
    <line style="fill: none; stroke-opacity: 1; stroke-width: 2; stroke-dasharray: 20; stroke: #000000" x1="1160" y1="420" x2="1160" y2="580"/>
    <line style="fill: none; stroke-opacity: 1; stroke-width: 2; stroke-dasharray: 20; stroke: #000000" x1="1160" y1="760" x2="1160" y2="920"/>
    <line style="fill: none; stroke-opacity: 1; stroke-width: 2; stroke-dasharray: 20; stroke: #000000" x1="1120" y1="740" x2="1120" y2="960"/>
    <text font-size="27.0933" style="fill: #000000; fill-opacity: 1; stroke: none;text-anchor:start;font-family:sans-serif;font-style:normal;font-weight:normal" x="1180" y="580">
      <tspan x="1180" y="580">noflood-mark?</tspan>
    </text>
    <text font-size="27.0933" style="fill: #000000; fill-opacity: 1; stroke: none;text-anchor:start;font-family:sans-serif;font-style:normal;font-weight:normal" x="1180" y="660">
      <tspan x="1180" y="660">no</tspan>
    </text>
    <text font-size="27.0933" style="fill: #000000; fill-opacity: 1; stroke: none;text-anchor:start;font-family:sans-serif;font-style:normal;font-weight:normal" x="1120" y="720">
      <tspan x="1120" y="720">yes</tspan>
    </text>
    <text font-size="27.0933" style="fill: #000000; fill-opacity: 1; stroke: none;text-anchor:start;font-family:sans-serif;font-style:normal;font-weight:normal" x="980" y="100">
      <tspan x="980" y="100">batman-adv</tspan>
    </text>
    <line style="fill: none; stroke-opacity: 1; stroke-width: 2; stroke: #000000" x1="420" y1="240" x2="540" y2="240"/>
    <text font-size="40.64" style="fill: #000000; fill-opacity: 1; stroke: none;text-anchor:start;font-family:sans-serif;font-style:normal;font-weight:normal" x="60" y="320">
      <tspan x="60" y="320">Video</tspan>
    </text>
    <rect style="fill: #ffffff; fill-opacity: 1; stroke-opacity: 1; stroke-width: 2; stroke: #000000" x="240" y="340" width="160" height="40" rx="0" ry="0"/>
    <text font-size="27.0933" style="fill: #000000; fill-opacity: 1; stroke: none;text-anchor:start;font-family:sans-serif;font-style:normal;font-weight:normal" x="290" y="367">
      <tspan x="290" y="367">TXT</tspan>
    </text>
    <text font-size="40.64" style="fill: #000000; fill-opacity: 1; stroke: none;text-anchor:start;font-family:sans-serif;font-style:normal;font-weight:normal" x="1320" y="320">
      <tspan x="1320" y="320">Video</tspan>
    </text>
    <rect style="fill: #ffffff; fill-opacity: 1; stroke-opacity: 1; stroke-width: 2; stroke: #000000" x="1290" y="680" width="190" height="40" rx="0" ry="0"/>
    <text font-size="27.0933" style="fill: #000000; fill-opacity: 1; stroke: none;text-anchor:start;font-family:sans-serif;font-style:normal;font-weight:normal" x="1296" y="708">
      <tspan x="1296" y="708">TXT</tspan>
    </text>
    <text font-size="22.5778" style="fill: #ff0000; fill-opacity: 1; stroke: none;text-anchor:start;font-family:sans-serif;font-style:normal;font-weight:normal" x="440" y="280">
      <tspan x="440" y="280">marker</tspan>
    </text>
    <text font-size="40.64" style="fill: #000000; fill-opacity: 1; stroke: none;text-anchor:start;font-family:sans-serif;font-style:normal;font-weight:normal" x="1220" y="860">
      <tspan x="1220" y="860">Video</tspan>
    </text>
    <g>
      <line style="fill: none; stroke-opacity: 1; stroke-width: 3; stroke-dasharray: 4; stroke: #000000" x1="180" y1="580" x2="453.292" y2="580"/>
      <polyline style="fill: none; stroke-opacity: 1; stroke-width: 3; stroke: #000000" points="436.646,590 456.646,580 436.646,570 "/>
    </g>
    <rect style="fill: #ffffff; fill-opacity: 1; stroke-opacity: 1; stroke-width: 2; stroke: #000000" x="580" y="340" width="160" height="40" rx="0" ry="0"/>
    <text font-size="27.0933" style="fill: #000000; fill-opacity: 1; stroke: none;text-anchor:start;font-family:sans-serif;font-style:normal;font-weight:normal" x="630" y="367">
      <tspan x="630" y="367">TXT</tspan>
    </text>
    <text font-size="22.5778" style="fill: #000000; fill-opacity: 1; stroke: none;text-anchor:start;font-family:sans-serif;font-style:normal;font-weight:normal" x="1220" y="900">
      <tspan x="1220" y="900">to: &gt;9000</tspan>
    </text>
    <text font-size="22.5778" style="fill: #000000; fill-opacity: 1; stroke: none;text-anchor:start;font-family:sans-serif;font-style:normal;font-weight:normal" x="1320" y="360">
      <tspan x="1320" y="360">to: 3</tspan>
    </text>
    <text font-size="22.5778" style="fill: #000000; fill-opacity: 1; stroke: none;text-anchor:start;font-family:sans-serif;font-style:normal;font-weight:normal" x="1360" y="709">
      <tspan x="1360" y="709">to: &gt;9000</tspan>
    </text>
  </g>
</svg>
