<?xml version="1.0" encoding="UTF-8" standalone="no"?>
<!DOCTYPE svg PUBLIC "-//W3C//DTD SVG 1.0//EN" "http://www.w3.org/TR/2001/PR-SVG-20010719/DTD/svg10.dtd">
<svg width="31cm" height="20cm" viewBox="138 157 604 394" xmlns="http://www.w3.org/2000/svg" xmlns:xlink="http://www.w3.org/1999/xlink">
  <defs/>
  <g id="Background">
    <ellipse style="fill: #ffffff; fill-opacity: 1; stroke-opacity: 1; stroke-width: 3; stroke: #000000" cx="210" cy="370" rx="30" ry="30"/>
    <text font-size="22.5778" style="fill: #000000; fill-opacity: 1; stroke: none;text-anchor:middle;font-family:sans-serif;font-style:normal;font-weight:normal" x="210" y="377.825">
      <tspan x="210" y="377.825">A</tspan>
    </text>
    <ellipse style="fill: #ffffff; fill-opacity: 1; stroke-opacity: 1; stroke-width: 3; stroke: #000000" cx="370" cy="370" rx="30" ry="30"/>
    <text font-size="22.5778" style="fill: #000000; fill-opacity: 1; stroke: none;text-anchor:middle;font-family:sans-serif;font-style:normal;font-weight:normal" x="370" y="377.825">
      <tspan x="370" y="377.825">B</tspan>
    </text>
    <ellipse style="fill: #ffffff; fill-opacity: 1; stroke-opacity: 1; stroke-width: 3; stroke: #000000" cx="530" cy="370" rx="30" ry="30"/>
    <text font-size="22.5778" style="fill: #000000; fill-opacity: 1; stroke: none;text-anchor:middle;font-family:sans-serif;font-style:normal;font-weight:normal" x="530" y="377.825">
      <tspan x="530" y="377.825">C</tspan>
    </text>
    <ellipse style="fill: #ffffff; fill-opacity: 1; stroke-opacity: 1; stroke-width: 3; stroke: #000000" cx="710" cy="370" rx="30" ry="30"/>
    <text font-size="22.5778" style="fill: #000000; fill-opacity: 1; stroke: none;text-anchor:middle;font-family:sans-serif;font-style:normal;font-weight:normal" x="710" y="377.825">
      <tspan x="710" y="377.825">D</tspan>
    </text>
    <line style="fill: none; stroke-opacity: 1; stroke-width: 4; stroke: #000000" x1="210" y1="300" x2="210" y2="340"/>
    <line style="fill: none; stroke-opacity: 1; stroke-width: 4; stroke: #000000" x1="210" y1="300" x2="370" y2="300"/>
    <line style="fill: none; stroke-opacity: 1; stroke-width: 4; stroke: #000000" x1="370" y1="300" x2="370" y2="340"/>
    <line style="fill: none; stroke-opacity: 1; stroke-width: 4; stroke: #000000" x1="530" y1="300" x2="530" y2="340"/>
    <line style="fill: none; stroke-opacity: 1; stroke-width: 4; stroke: #000000" x1="530" y1="300" x2="710" y2="300"/>
    <line style="fill: none; stroke-opacity: 1; stroke-width: 4; stroke: #000000" x1="710" y1="300" x2="710" y2="340"/>
    <ellipse style="fill: #ffffff; fill-opacity: 1; stroke-opacity: 1; stroke-width: 3; stroke: #000000" cx="420" cy="520" rx="30" ry="30"/>
    <text font-size="22.5778" style="fill: #000000; fill-opacity: 1; stroke: none;text-anchor:middle;font-family:sans-serif;font-style:normal;font-weight:normal" x="420" y="527.825">
      <tspan x="420" y="527.825">E</tspan>
    </text>
    <line style="fill: none; stroke-opacity: 1; stroke-width: 2; stroke-dasharray: 0.4; stroke: #000000" x1="235.532" y1="388.237" x2="394.468" y2="501.763"/>
    <line style="fill: none; stroke-opacity: 1; stroke-width: 2; stroke-dasharray: 0.4; stroke: #000000" x1="379.964" y1="399.892" x2="410.036" y2="490.108"/>
    <line style="fill: none; stroke-opacity: 1; stroke-width: 2; stroke-dasharray: 0.4; stroke: #000000" x1="401.494" y1="370" x2="498.506" y2="370"/>
    <line style="fill: none; stroke-opacity: 1; stroke-width: 2; stroke-dasharray: 0.4; stroke: #000000" x1="241.494" y1="370" x2="338.506" y2="370"/>
    <line style="fill: none; stroke-opacity: 1; stroke-width: 2; stroke-dasharray: 0.4; stroke: #000000" x1="511.389" y1="395.378" x2="438.611" y2="494.622"/>
    <line style="fill: none; stroke-opacity: 1; stroke-width: 2; stroke-dasharray: 0.4; stroke: #000000" x1="447.975" y1="505.53" x2="682.025" y2="384.47"/>
    <line style="fill: none; stroke-opacity: 1; stroke-width: 2; stroke-dasharray: 0.4; stroke: #000000" x1="678.513" y1="370" x2="561.487" y2="370"/>
    <ellipse style="fill: #ffffff; fill-opacity: 1; stroke-opacity: 1; stroke-width: 3; stroke: #7f7f7f" cx="170" cy="210" rx="30" ry="30"/>
    <text font-size="22.5778" style="fill: #7f7f7f; fill-opacity: 1; stroke: none;text-anchor:middle;font-family:sans-serif;font-style:normal;font-weight:normal" x="170" y="217.825">
      <tspan x="170" y="217.825">X</tspan>
    </text>
    <line style="fill: none; stroke-opacity: 1; stroke-width: 4; stroke: #000000" x1="210" y1="210" x2="210" y2="310"/>
    <line style="fill: none; stroke-opacity: 1; stroke-width: 4; stroke: #000000" x1="210" y1="210" x2="200" y2="210"/>
    <ellipse style="fill: #ffffff; fill-opacity: 1; stroke-opacity: 1; stroke-width: 3; stroke: #7f7f7f" cx="490" cy="210" rx="30" ry="30"/>
    <text font-size="22.5778" style="fill: #7f7f7f; fill-opacity: 1; stroke: none;text-anchor:middle;font-family:sans-serif;font-style:normal;font-weight:normal" x="490" y="217.825">
      <tspan x="490" y="217.825">X</tspan>
    </text>
    <line style="fill: none; stroke-opacity: 1; stroke-width: 4; stroke: #000000" x1="530" y1="210" x2="520" y2="210"/>
    <line style="fill: none; stroke-opacity: 1; stroke-width: 4; stroke: #000000" x1="530" y1="210" x2="530" y2="310"/>
    <g>
      <path style="fill: none; stroke-opacity: 1; stroke-width: 4; stroke: #0000ff" d="M 201.507,209.988 A 190.138,190.138 0 0 1 449.41,202.173"/>
      <polygon style="fill: #0000ff; fill-opacity: 1; stroke-opacity: 1; stroke-width: 4; stroke: #0000ff" fill-rule="evenodd" points="446.269,205.564 457.019,208.637 453.027,198.193 "/>
    </g>
  </g>
</svg>
