<?xml version="1.0" encoding="UTF-8" standalone="no"?>
<!DOCTYPE svg PUBLIC "-//W3C//DTD SVG 1.0//EN" "http://www.w3.org/TR/2001/PR-SVG-20010719/DTD/svg10.dtd">
<svg width="15cm" height="15cm" viewBox="1 -101 293 294" xmlns="http://www.w3.org/2000/svg" xmlns:xlink="http://www.w3.org/1999/xlink">
  <defs/>
  <g id="Background">
    <ellipse style="fill: #d8e5e5; fill-opacity: 1; stroke-opacity: 1; stroke-width: 2; stroke: #000000" cx="48.52" cy="48.58" rx="45.742" ry="45.742"/>
    <text font-size="80" style="fill: #000000; fill-opacity: 1; stroke: none;text-anchor:start;font-family:sans-serif;font-style:normal;font-weight:normal" x="25.1356" y="74.5244">
      <tspan x="25.1356" y="74.5244">A</tspan>
    </text>
    <ellipse style="fill: #d8e5e5; fill-opacity: 1; stroke-opacity: 1; stroke-width: 2; stroke: #000000" cx="246.563" cy="-53.4369" rx="46.5631" ry="46.5631"/>
    <text font-size="80" style="fill: #000000; fill-opacity: 1; stroke: none;text-anchor:start;font-family:sans-serif;font-style:normal;font-weight:normal" x="224.084" y="-26.677">
      <tspan x="224.084" y="-26.677">B</tspan>
    </text>
    <g>
      <path style="fill: none; stroke-opacity: 1; stroke-width: 10; stroke: #000000" d="M 73.9341 9.36098 C 105.414,-39.219 132.66,-64.6676 180.634,-59.9375"/>
      <polygon style="fill: #000000; fill-opacity: 1; stroke-opacity: 1; stroke-width: 10; stroke: #000000" fill-rule="evenodd" points="188.098,-59.2016 177.655,-55.2069 180.634,-59.9375 178.636,-65.1587 "/>
    </g>
    <g>
      <path style="fill: none; stroke-opacity: 1; stroke-width: 2; stroke: #000000" d="M 207.925 -25.6906 C 161.361,7.74642 163.393,2.64995 100.954,27.6154"/>
      <polygon style="fill: #000000; fill-opacity: 1; stroke-opacity: 1; stroke-width: 2; stroke: #000000" fill-rule="evenodd" points="93.9896,30.3998 101.419,22.0446 100.954,27.6154 105.131,31.3299 "/>
    </g>
    <ellipse style="fill: #d8e5e5; fill-opacity: 1; stroke-opacity: 1; stroke-width: 2; stroke: #000000" cx="245.742" cy="145.742" rx="45.742" ry="45.742"/>
    <text font-size="80" style="fill: #000000; fill-opacity: 1; stroke: none;text-anchor:start;font-family:sans-serif;font-style:normal;font-weight:normal" x="218" y="169.7">
      <tspan x="218" y="169.7">C</tspan>
    </text>
    <g>
      <path style="fill: none; stroke-opacity: 1; stroke-width: 2; stroke: #000000" d="M 94.6598 55.9515 C 166.14,67.3715 166.96,66.9605 205.818,105.818"/>
      <polygon style="fill: #000000; fill-opacity: 1; stroke-opacity: 1; stroke-width: 2; stroke: #000000" fill-rule="evenodd" points="211.121,111.121 200.515,107.586 205.818,105.818 207.586,100.515 "/>
    </g>
    <g>
      <path style="fill: none; stroke-opacity: 1; stroke-width: 10; stroke: #000000" d="M 199.381 139.922 C 153.639,134.18 133.059,133.02 94.7955,94.8015"/>
      <polygon style="fill: #000000; fill-opacity: 1; stroke-opacity: 1; stroke-width: 10; stroke: #000000" fill-rule="evenodd" points="89.4891,89.5013 100.098,93.0307 94.7955,94.8015 93.0308,100.106 "/>
    </g>
    <g>
      <path style="fill: none; stroke-opacity: 1; stroke-width: 2; stroke: #000000" d="M 255.649 100.06 C 269.907,34.3182 268.561,66.7937 256.878,2.93379"/>
      <polygon style="fill: #000000; fill-opacity: 1; stroke-opacity: 1; stroke-width: 2; stroke: #000000" fill-rule="evenodd" points="255.528,-4.44375 262.246,4.49311 256.878,2.93379 252.409,6.29283 "/>
    </g>
    <g>
      <path style="fill: none; stroke-opacity: 1; stroke-width: 10; stroke: #000000" d="M 240.764 -6.22144 C 234.2,47.2156 235.933,33.4335 240.049,80.566"/>
      <polygon style="fill: #000000; fill-opacity: 1; stroke-opacity: 1; stroke-width: 10; stroke: #000000" fill-rule="evenodd" points="240.702,88.0376 234.851,78.5106 240.049,80.566 244.813,77.6405 "/>
    </g>
  </g>
</svg>
