<?xml version="1.0" encoding="UTF-8" standalone="no"?>
<!DOCTYPE svg PUBLIC "-//W3C//DTD SVG 1.0//EN" "http://www.w3.org/TR/2001/PR-SVG-20010719/DTD/svg10.dtd">
<svg width="37cm" height="10cm" viewBox="77 113 725 199" xmlns="http://www.w3.org/2000/svg" xmlns:xlink="http://www.w3.org/1999/xlink">
  <g id="Hintergrund">
    <g>
      <rect style="fill: #b3b3b3; fill-opacity: 1; stroke-opacity: 1; stroke-width: 1.6; stroke: #000000" x="220" y="140" width="566.667" height="40" rx="0" ry="0"/>
      <rect style="fill: #000000; fill-opacity: 1; stroke: none" x="242.222" y="154.667" width="11.1111" height="10.6667" rx="0" ry="0"/>
      <rect style="fill: #000000; fill-opacity: 1; stroke: none" x="264.444" y="154.667" width="11.1111" height="10.6667" rx="0" ry="0"/>
      <rect style="fill: #000000; fill-opacity: 1; stroke: none" x="286.667" y="154.667" width="11.1111" height="10.6667" rx="0" ry="0"/>
      <rect style="fill: #000000; fill-opacity: 1; stroke: none" x="308.889" y="154.667" width="11.1111" height="10.6667" rx="0" ry="0"/>
      <rect style="fill: #000000; fill-opacity: 1; stroke: none" x="331.111" y="154.667" width="11.1111" height="10.6667" rx="0" ry="0"/>
      <rect style="fill: #000000; fill-opacity: 1; stroke: none" x="353.333" y="154.667" width="11.1111" height="10.6667" rx="0" ry="0"/>
      <rect style="fill: #000000; fill-opacity: 1; stroke: none" x="375.556" y="154.667" width="11.1111" height="10.6667" rx="0" ry="0"/>
      <rect style="fill: #000000; fill-opacity: 1; stroke: none" x="397.778" y="154.667" width="11.1111" height="10.6667" rx="0" ry="0"/>
      <rect style="fill: #000000; fill-opacity: 1; stroke: none" x="420" y="154.667" width="11.1111" height="10.6667" rx="0" ry="0"/>
      <rect style="fill: #000000; fill-opacity: 1; stroke: none" x="442.222" y="154.667" width="11.1111" height="10.6667" rx="0" ry="0"/>
      <rect style="fill: #000000; fill-opacity: 1; stroke: none" x="464.444" y="154.667" width="11.1111" height="10.6667" rx="0" ry="0"/>
      <rect style="fill: #000000; fill-opacity: 1; stroke: none" x="486.667" y="154.667" width="11.1111" height="10.6667" rx="0" ry="0"/>
      <rect style="fill: #000000; fill-opacity: 1; stroke: none" x="508.889" y="154.667" width="11.1111" height="10.6667" rx="0" ry="0"/>
      <rect style="fill: #000000; fill-opacity: 1; stroke: none" x="531.111" y="154.667" width="11.1111" height="10.6667" rx="0" ry="0"/>
      <rect style="fill: #000000; fill-opacity: 1; stroke: none" x="553.333" y="154.667" width="11.1111" height="10.6667" rx="0" ry="0"/>
      <rect style="fill: #000000; fill-opacity: 1; stroke: none" x="575.556" y="154.667" width="11.1111" height="10.6667" rx="0" ry="0"/>
      <rect style="fill: #000000; fill-opacity: 1; stroke: none" x="597.778" y="154.667" width="11.1111" height="10.6667" rx="0" ry="0"/>
      <rect style="fill: #000000; fill-opacity: 1; stroke: none" x="620" y="154.667" width="11.1111" height="10.6667" rx="0" ry="0"/>
      <rect style="fill: #000000; fill-opacity: 1; stroke: none" x="642.222" y="154.667" width="11.1111" height="10.6667" rx="0" ry="0"/>
      <rect style="fill: #000000; fill-opacity: 1; stroke: none" x="664.444" y="154.667" width="11.1111" height="10.6667" rx="0" ry="0"/>
      <rect style="fill: #000000; fill-opacity: 1; stroke: none" x="686.667" y="154.667" width="11.1111" height="10.6667" rx="0" ry="0"/>
      <rect style="fill: #000000; fill-opacity: 1; stroke: none" x="708.889" y="154.667" width="11.1111" height="10.6667" rx="0" ry="0"/>
      <rect style="fill: #000000; fill-opacity: 1; stroke: none" x="731.111" y="154.667" width="11.1111" height="10.6667" rx="0" ry="0"/>
      <rect style="fill: #000000; fill-opacity: 1; stroke: none" x="753.333" y="154.667" width="11.1111" height="10.6667" rx="0" ry="0"/>
    </g>
    <g>
      <path style="fill: none; stroke-opacity: 1; stroke-width: 0.8; stroke: #00aed9" d="M 137.481 272.165 L 137.481,240.82"/>
      <path style="fill: none; stroke-opacity: 1; stroke-width: 4; stroke: #00aed9" d="M 137.481 271.659 L 137.481,250.158"/>
      <path style="fill: #000000; fill-opacity: 1; stroke: none" fill-rule="evenodd" d="M 138.391 243.832 L 136.475,243.832 L 136.475,240 L 138.391,240 L 138.391,243.832z"/>
      <path style="fill: none; stroke-opacity: 1; stroke-width: 2; stroke: #00aed9" d="M 138.391 243.832 L 136.475,243.832 L 136.475,240 L 138.391,240 L 138.391,243.832"/>
      <path style="fill: none; stroke-opacity: 1; stroke-width: 0.8; stroke: #00aed9" d="M 91.0187 272.165 L 91.0187,240.82"/>
      <path style="fill: none; stroke-opacity: 1; stroke-width: 4; stroke: #00aed9" d="M 91.0187 271.659 L 91.0187,250.158"/>
      <path style="fill: #000000; fill-opacity: 1; stroke: none" fill-rule="evenodd" d="M 91.9288 243.832 L 90.0128,243.832 L 90.0128,240 L 91.9288,240 L 91.9288,243.832z"/>
      <path style="fill: none; stroke-opacity: 1; stroke-width: 2; stroke: #00aed9" d="M 91.9288 243.832 L 90.0128,243.832 L 90.0128,240 L 91.9288,240 L 91.9288,243.832"/>
      <path style="fill: #00aed9; fill-opacity: 1; stroke: none" fill-rule="evenodd" d="M 150.477 276.145 C 150.477,283.713 134.701,289.848 115.238,289.848 C 95.776,289.848 80,283.713 80,276.145 L 80,296.216 C 80,303.786 95.776,309.921 115.238,309.921 C 134.701,309.921 150.477,303.786 150.477,296.216 L 150.477,276.145z"/>
      <path style="fill: none; stroke-opacity: 1; stroke-width: 0.8; stroke: #ffffff" d="M 150.477 276.145 C 150.477,283.713 134.701,289.848 115.238,289.848 C 95.776,289.848 80,283.713 80,276.145 L 80,296.216 C 80,303.786 95.776,309.921 115.238,309.921 C 134.701,309.921 150.477,303.786 150.477,296.216 L 150.477,276.145"/>
      <path style="fill: #00aed9; fill-opacity: 1; stroke: none" fill-rule="evenodd" d="M 115.238 289.848 C 134.701,289.848 150.477,283.713 150.477,276.145 C 150.477,268.575 134.701,262.44 115.238,262.44 C 95.776,262.44 80,268.575 80,276.145 C 80,283.713 95.776,289.848 115.238,289.848z"/>
      <path style="fill: none; stroke-opacity: 1; stroke-width: 0.8; stroke: #ffffff" d="M 115.238 289.848 C 134.701,289.848 150.477,283.713 150.477,276.145 C 150.477,268.575 134.701,262.44 115.238,262.44 C 95.776,262.44 80,268.575 80,276.145 C 80,283.713 95.776,289.848 115.238,289.848"/>
      <path style="fill: #ffffff; fill-opacity: 1; stroke: none" fill-rule="evenodd" d="M 107.191 270.786 L 110.102,275.15 L 99.1002,277.693 L 101.503,275.692 L 84.4987,272.786 L 88.7655,269.588 L 105.172,272.366 L 107.191,270.786z"/>
      <path style="fill: #ffffff; fill-opacity: 1; stroke: none" fill-rule="evenodd" d="M 122.674 281.369 L 120.687,276.871 L 130.61,274.888 L 128.89,276.428 L 145.43,279.254 L 141.464,282.429 L 125.019,279.342 L 122.674,281.369z"/>
      <path style="fill: #ffffff; fill-opacity: 1; stroke: none" fill-rule="evenodd" d="M 117.246 268.402 L 128.363,265.36 L 128.493,270.125 L 125.717,269.594 L 120.289,274.093 L 115.114,273.338 L 120.712,268.937 L 117.246,268.402z"/>
      <path style="fill: #ffffff; fill-opacity: 1; stroke: none" fill-rule="evenodd" d="M 112.483 285.473 L 101.899,287.456 L 101.503,282.563 L 104.543,283.222 L 110.37,278.246 L 115.528,279.12 L 109.308,284.546 L 112.483,285.473z"/>
    </g>
    <g>
      <path style="fill: none; stroke-opacity: 1; stroke-width: 0.8; stroke: #00aed9" d="M 237.351 272.093 L 237.351,240.818"/>
      <path style="fill: none; stroke-opacity: 1; stroke-width: 4; stroke: #00aed9" d="M 237.351 271.588 L 237.351,250.136"/>
      <path style="fill: #000000; fill-opacity: 1; stroke: none" fill-rule="evenodd" d="M 238.259 243.823 L 236.348,243.823 L 236.348,240 L 238.259,240 L 238.259,243.823z"/>
      <path style="fill: none; stroke-opacity: 1; stroke-width: 2; stroke: #00aed9" d="M 238.259 243.823 L 236.348,243.823 L 236.348,240 L 238.259,240 L 238.259,243.823"/>
      <path style="fill: none; stroke-opacity: 1; stroke-width: 0.8; stroke: #00aed9" d="M 190.994 272.093 L 190.994,240.818"/>
      <path style="fill: none; stroke-opacity: 1; stroke-width: 4; stroke: #00aed9" d="M 190.994 271.588 L 190.994,250.136"/>
      <path style="fill: #000000; fill-opacity: 1; stroke: none" fill-rule="evenodd" d="M 191.902 243.823 L 189.99,243.823 L 189.99,240 L 191.902,240 L 191.902,243.823z"/>
      <path style="fill: none; stroke-opacity: 1; stroke-width: 2; stroke: #00aed9" d="M 191.902 243.823 L 189.99,243.823 L 189.99,240 L 191.902,240 L 191.902,243.823"/>
      <path style="fill: #00aed9; fill-opacity: 1; stroke: none" fill-rule="evenodd" d="M 250.318 276.063 C 250.318,283.614 234.577,289.735 215.159,289.735 C 195.74,289.735 180,283.614 180,276.063 L 180,296.09 C 180,303.642 195.74,309.763 215.159,309.763 C 234.577,309.763 250.318,303.642 250.318,296.09 L 250.318,276.063z"/>
      <path style="fill: none; stroke-opacity: 1; stroke-width: 0.8; stroke: #ffffff" d="M 250.318 276.063 C 250.318,283.614 234.577,289.735 215.159,289.735 C 195.74,289.735 180,283.614 180,276.063 L 180,296.09 C 180,303.642 195.74,309.763 215.159,309.763 C 234.577,309.763 250.318,303.642 250.318,296.09 L 250.318,276.063"/>
      <path style="fill: #00aed9; fill-opacity: 1; stroke: none" fill-rule="evenodd" d="M 215.159 289.735 C 234.577,289.735 250.318,283.614 250.318,276.063 C 250.318,268.51 234.577,262.389 215.159,262.389 C 195.74,262.389 180,268.51 180,276.063 C 180,283.614 195.74,289.735 215.159,289.735z"/>
      <path style="fill: none; stroke-opacity: 1; stroke-width: 0.8; stroke: #ffffff" d="M 215.159 289.735 C 234.577,289.735 250.318,283.614 250.318,276.063 C 250.318,268.51 234.577,262.389 215.159,262.389 C 195.74,262.389 180,268.51 180,276.063 C 180,283.614 195.74,289.735 215.159,289.735"/>
      <path style="fill: #ffffff; fill-opacity: 1; stroke: none" fill-rule="evenodd" d="M 207.13 270.716 L 210.034,275.071 L 199.057,277.608 L 201.454,275.612 L 184.489,272.712 L 188.746,269.521 L 205.115,272.293 L 207.13,270.716z"/>
      <path style="fill: #ffffff; fill-opacity: 1; stroke: none" fill-rule="evenodd" d="M 222.578 281.276 L 220.596,276.788 L 230.496,274.809 L 228.779,276.346 L 245.283,279.166 L 241.325,282.333 L 224.918,279.254 L 222.578,281.276z"/>
      <path style="fill: #ffffff; fill-opacity: 1; stroke: none" fill-rule="evenodd" d="M 217.162 268.338 L 228.254,265.303 L 228.384,270.057 L 225.614,269.527 L 220.198,274.016 L 215.035,273.263 L 220.62,268.872 L 217.162,268.338z"/>
      <path style="fill: #ffffff; fill-opacity: 1; stroke: none" fill-rule="evenodd" d="M 212.41 285.371 L 201.85,287.349 L 201.454,282.467 L 204.488,283.125 L 210.301,278.16 L 215.448,279.032 L 209.242,284.446 L 212.41,285.371z"/>
    </g>
    <g>
      <path style="fill: none; stroke-opacity: 1; stroke-width: 0.8; stroke: #00aed9" d="M 337.286 272.056 L 337.286,240.817"/>
      <path style="fill: none; stroke-opacity: 1; stroke-width: 4; stroke: #00aed9" d="M 337.286 271.552 L 337.286,250.124"/>
      <path style="fill: #000000; fill-opacity: 1; stroke: none" fill-rule="evenodd" d="M 338.193 243.819 L 336.284,243.819 L 336.284,240 L 338.193,240 L 338.193,243.819z"/>
      <path style="fill: none; stroke-opacity: 1; stroke-width: 2; stroke: #00aed9" d="M 338.193 243.819 L 336.284,243.819 L 336.284,240 L 338.193,240 L 338.193,243.819"/>
      <path style="fill: none; stroke-opacity: 1; stroke-width: 0.8; stroke: #00aed9" d="M 290.981 272.056 L 290.981,240.817"/>
      <path style="fill: none; stroke-opacity: 1; stroke-width: 4; stroke: #00aed9" d="M 290.981 271.552 L 290.981,250.124"/>
      <path style="fill: #000000; fill-opacity: 1; stroke: none" fill-rule="evenodd" d="M 291.888 243.819 L 289.979,243.819 L 289.979,240 L 291.888,240 L 291.888,243.819z"/>
      <path style="fill: none; stroke-opacity: 1; stroke-width: 2; stroke: #00aed9" d="M 291.888 243.819 L 289.979,243.819 L 289.979,240 L 291.888,240 L 291.888,243.819"/>
      <path style="fill: #00aed9; fill-opacity: 1; stroke: none" fill-rule="evenodd" d="M 350.238 276.022 C 350.238,283.565 334.516,289.679 315.119,289.679 C 295.723,289.679 280,283.565 280,276.022 L 280,296.026 C 280,303.57 295.723,309.685 315.119,309.685 C 334.516,309.685 350.238,303.57 350.238,296.026 L 350.238,276.022z"/>
      <path style="fill: none; stroke-opacity: 1; stroke-width: 0.8; stroke: #ffffff" d="M 350.238 276.022 C 350.238,283.565 334.516,289.679 315.119,289.679 C 295.723,289.679 280,283.565 280,276.022 L 280,296.026 C 280,303.57 295.723,309.685 315.119,309.685 C 334.516,309.685 350.238,303.57 350.238,296.026 L 350.238,276.022"/>
      <path style="fill: #00aed9; fill-opacity: 1; stroke: none" fill-rule="evenodd" d="M 315.119 289.679 C 334.516,289.679 350.238,283.565 350.238,276.022 C 350.238,268.478 334.516,262.364 315.119,262.364 C 295.723,262.364 280,268.478 280,276.022 C 280,283.565 295.723,289.679 315.119,289.679z"/>
      <path style="fill: none; stroke-opacity: 1; stroke-width: 0.8; stroke: #ffffff" d="M 315.119 289.679 C 334.516,289.679 350.238,283.565 350.238,276.022 C 350.238,268.478 334.516,262.364 315.119,262.364 C 295.723,262.364 280,268.478 280,276.022 C 280,283.565 295.723,289.679 315.119,289.679"/>
      <path style="fill: #ffffff; fill-opacity: 1; stroke: none" fill-rule="evenodd" d="M 307.099 270.682 L 310,275.031 L 299.036,277.565 L 301.43,275.572 L 284.483,272.675 L 288.736,269.488 L 305.087,272.257 L 307.099,270.682z"/>
      <path style="fill: #ffffff; fill-opacity: 1; stroke: none" fill-rule="evenodd" d="M 322.53 281.23 L 320.55,276.746 L 330.439,274.77 L 328.724,276.305 L 345.209,279.121 L 341.256,282.285 L 324.867,279.209 L 322.53,281.23z"/>
      <path style="fill: #ffffff; fill-opacity: 1; stroke: none" fill-rule="evenodd" d="M 317.12 268.306 L 328.199,265.274 L 328.329,270.023 L 325.562,269.494 L 320.153,273.977 L 314.995,273.225 L 320.575,268.839 L 317.12,268.306z"/>
      <path style="fill: #ffffff; fill-opacity: 1; stroke: none" fill-rule="evenodd" d="M 312.373 285.32 L 301.825,287.296 L 301.43,282.419 L 304.46,283.076 L 310.267,278.117 L 315.408,278.988 L 309.209,284.395 L 312.373,285.32z"/>
    </g>
    <g>
      <path style="fill: none; stroke-opacity: 1; stroke-width: 0.8; stroke: #00aed9" d="M 732.883 258.401 L 732.883,240.469"/>
      <path style="fill: none; stroke-opacity: 1; stroke-width: 4; stroke: #00aed9" d="M 732.883 258.111 L 732.883,245.811"/>
      <path style="fill: #000000; fill-opacity: 1; stroke: none" fill-rule="evenodd" d="M 733.404 242.192 L 732.308,242.192 L 732.308,240 L 733.404,240 L 733.404,242.192z"/>
      <path style="fill: none; stroke-opacity: 1; stroke-width: 2; stroke: #00aed9" d="M 733.404 242.192 L 732.308,242.192 L 732.308,240 L 733.404,240 L 733.404,242.192"/>
      <path style="fill: none; stroke-opacity: 1; stroke-width: 0.8; stroke: #00aed9" d="M 706.304 258.401 L 706.304,240.469"/>
      <path style="fill: none; stroke-opacity: 1; stroke-width: 4; stroke: #00aed9" d="M 706.304 258.111 L 706.304,245.811"/>
      <path style="fill: #000000; fill-opacity: 1; stroke: none" fill-rule="evenodd" d="M 706.824 242.192 L 705.728,242.192 L 705.728,240 L 706.824,240 L 706.824,242.192z"/>
      <path style="fill: none; stroke-opacity: 1; stroke-width: 2; stroke: #00aed9" d="M 706.824 242.192 L 705.728,242.192 L 705.728,240 L 706.824,240 L 706.824,242.192"/>
      <path style="fill: #00aed9; fill-opacity: 1; stroke: none" fill-rule="evenodd" d="M 740.318 260.677 C 740.318,265.007 731.293,268.516 720.159,268.516 C 709.025,268.516 700,265.007 700,260.677 L 700,272.16 C 700,276.49 709.025,280 720.159,280 C 731.293,280 740.318,276.49 740.318,272.16 L 740.318,260.677z"/>
      <path style="fill: none; stroke-opacity: 1; stroke-width: 0.8; stroke: #ffffff" d="M 740.318 260.677 C 740.318,265.007 731.293,268.516 720.159,268.516 C 709.025,268.516 700,265.007 700,260.677 L 700,272.16 C 700,276.49 709.025,280 720.159,280 C 731.293,280 740.318,276.49 740.318,272.16 L 740.318,260.677"/>
      <path style="fill: #00aed9; fill-opacity: 1; stroke: none" fill-rule="evenodd" d="M 720.159 268.516 C 731.293,268.516 740.318,265.007 740.318,260.677 C 740.318,256.347 731.293,252.837 720.159,252.837 C 709.025,252.837 700,256.347 700,260.677 C 700,265.007 709.025,268.516 720.159,268.516z"/>
      <path style="fill: none; stroke-opacity: 1; stroke-width: 0.8; stroke: #ffffff" d="M 720.159 268.516 C 731.293,268.516 740.318,265.007 740.318,260.677 C 740.318,256.347 731.293,252.837 720.159,252.837 C 709.025,252.837 700,256.347 700,260.677 C 700,265.007 709.025,268.516 720.159,268.516"/>
      <path style="fill: #ffffff; fill-opacity: 1; stroke: none" fill-rule="evenodd" d="M 715.555 257.612 L 717.22,260.109 L 710.927,261.563 L 712.301,260.419 L 702.574,258.756 L 705.015,256.927 L 714.4,258.516 L 715.555,257.612z"/>
      <path style="fill: #ffffff; fill-opacity: 1; stroke: none" fill-rule="evenodd" d="M 724.413 263.666 L 723.276,261.093 L 728.953,259.958 L 727.968,260.84 L 737.431,262.456 L 735.162,264.272 L 725.754,262.507 L 724.413,263.666z"/>
      <path style="fill: #ffffff; fill-opacity: 1; stroke: none" fill-rule="evenodd" d="M 721.308 256.248 L 727.667,254.508 L 727.742,257.234 L 726.153,256.93 L 723.048,259.503 L 720.088,259.072 L 723.29,256.554 L 721.308,256.248z"/>
      <path style="fill: #ffffff; fill-opacity: 1; stroke: none" fill-rule="evenodd" d="M 718.583 266.014 L 712.528,267.149 L 712.301,264.349 L 714.041,264.726 L 717.374,261.88 L 720.324,262.38 L 716.767,265.484 L 718.583,266.014z"/>
    </g>
    <g>
      <path style="fill: none; stroke-opacity: 1; stroke-width: 0.8; stroke: #00aed9" d="M 792.883 258.401 L 792.883,240.469"/>
      <path style="fill: none; stroke-opacity: 1; stroke-width: 4; stroke: #00aed9" d="M 792.883 258.111 L 792.883,245.811"/>
      <path style="fill: #000000; fill-opacity: 1; stroke: none" fill-rule="evenodd" d="M 793.404 242.192 L 792.308,242.192 L 792.308,240 L 793.404,240 L 793.404,242.192z"/>
      <path style="fill: none; stroke-opacity: 1; stroke-width: 2; stroke: #00aed9" d="M 793.404 242.192 L 792.308,242.192 L 792.308,240 L 793.404,240 L 793.404,242.192"/>
      <path style="fill: none; stroke-opacity: 1; stroke-width: 0.8; stroke: #00aed9" d="M 766.304 258.401 L 766.304,240.469"/>
      <path style="fill: none; stroke-opacity: 1; stroke-width: 4; stroke: #00aed9" d="M 766.304 258.111 L 766.304,245.811"/>
      <path style="fill: #000000; fill-opacity: 1; stroke: none" fill-rule="evenodd" d="M 766.824 242.192 L 765.728,242.192 L 765.728,240 L 766.824,240 L 766.824,242.192z"/>
      <path style="fill: none; stroke-opacity: 1; stroke-width: 2; stroke: #00aed9" d="M 766.824 242.192 L 765.728,242.192 L 765.728,240 L 766.824,240 L 766.824,242.192"/>
      <path style="fill: #00aed9; fill-opacity: 1; stroke: none" fill-rule="evenodd" d="M 800.318 260.677 C 800.318,265.007 791.293,268.516 780.159,268.516 C 769.025,268.516 760,265.007 760,260.677 L 760,272.16 C 760,276.49 769.025,280 780.159,280 C 791.293,280 800.318,276.49 800.318,272.16 L 800.318,260.677z"/>
      <path style="fill: none; stroke-opacity: 1; stroke-width: 0.8; stroke: #ffffff" d="M 800.318 260.677 C 800.318,265.007 791.293,268.516 780.159,268.516 C 769.025,268.516 760,265.007 760,260.677 L 760,272.16 C 760,276.49 769.025,280 780.159,280 C 791.293,280 800.318,276.49 800.318,272.16 L 800.318,260.677"/>
      <path style="fill: #00aed9; fill-opacity: 1; stroke: none" fill-rule="evenodd" d="M 780.159 268.516 C 791.293,268.516 800.318,265.007 800.318,260.677 C 800.318,256.347 791.293,252.837 780.159,252.837 C 769.025,252.837 760,256.347 760,260.677 C 760,265.007 769.025,268.516 780.159,268.516z"/>
      <path style="fill: none; stroke-opacity: 1; stroke-width: 0.8; stroke: #ffffff" d="M 780.159 268.516 C 791.293,268.516 800.318,265.007 800.318,260.677 C 800.318,256.347 791.293,252.837 780.159,252.837 C 769.025,252.837 760,256.347 760,260.677 C 760,265.007 769.025,268.516 780.159,268.516"/>
      <path style="fill: #ffffff; fill-opacity: 1; stroke: none" fill-rule="evenodd" d="M 775.555 257.612 L 777.22,260.109 L 770.927,261.563 L 772.301,260.419 L 762.574,258.756 L 765.015,256.927 L 774.4,258.516 L 775.555,257.612z"/>
      <path style="fill: #ffffff; fill-opacity: 1; stroke: none" fill-rule="evenodd" d="M 784.413 263.666 L 783.276,261.093 L 788.953,259.958 L 787.968,260.84 L 797.431,262.456 L 795.162,264.272 L 785.754,262.507 L 784.413,263.666z"/>
      <path style="fill: #ffffff; fill-opacity: 1; stroke: none" fill-rule="evenodd" d="M 781.308 256.248 L 787.667,254.508 L 787.742,257.234 L 786.153,256.93 L 783.048,259.503 L 780.088,259.072 L 783.29,256.554 L 781.308,256.248z"/>
      <path style="fill: #ffffff; fill-opacity: 1; stroke: none" fill-rule="evenodd" d="M 778.583 266.014 L 772.528,267.149 L 772.301,264.349 L 774.041,264.726 L 777.374,261.88 L 780.324,262.38 L 776.767,265.484 L 778.583,266.014z"/>
    </g>
    <polyline style="fill: none; stroke-opacity: 1; stroke-width: 2; stroke: #000000" points="247.778,160 247.778,200 115.008,200 115.008,262.053 "/>
    <polyline style="fill: none; stroke-opacity: 1; stroke-width: 2; stroke: #000000" points="270,160 270,220 214.929,220 214.929,262.01 "/>
    <polyline style="fill: none; stroke-opacity: 1; stroke-width: 2; stroke: #000000" points="292.222,160 292.222,220 314.89,220 314.89,261.979 "/>
    <text font-size="40.64" style="fill: #000000; fill-opacity: 1; stroke: none;text-anchor:start;font-family:sans-serif;font-style:normal;font-weight:normal" x="380" y="300">
      <tspan x="380" y="300">...</tspan>
    </text>
    <polyline style="fill: none; stroke-opacity: 1; stroke-width: 2; stroke: #000000" points="736.666,160 736.666,220 720.027,220 720.027,252.436 "/>
    <polyline style="fill: none; stroke-opacity: 1; stroke-width: 2; stroke: #000000" points="758.888,160 758.888,200 780.027,200 780.027,252.444 "/>
    <g>
      <path style="fill: none; stroke-opacity: 1; stroke-width: 0.8; stroke: #00aed9" d="M 672.883 258.401 L 672.883,240.469"/>
      <path style="fill: none; stroke-opacity: 1; stroke-width: 4; stroke: #00aed9" d="M 672.883 258.111 L 672.883,245.811"/>
      <path style="fill: #000000; fill-opacity: 1; stroke: none" fill-rule="evenodd" d="M 673.404 242.192 L 672.308,242.192 L 672.308,240 L 673.404,240 L 673.404,242.192z"/>
      <path style="fill: none; stroke-opacity: 1; stroke-width: 2; stroke: #00aed9" d="M 673.404 242.192 L 672.308,242.192 L 672.308,240 L 673.404,240 L 673.404,242.192"/>
      <path style="fill: none; stroke-opacity: 1; stroke-width: 0.8; stroke: #00aed9" d="M 646.304 258.401 L 646.304,240.469"/>
      <path style="fill: none; stroke-opacity: 1; stroke-width: 4; stroke: #00aed9" d="M 646.304 258.111 L 646.304,245.811"/>
      <path style="fill: #000000; fill-opacity: 1; stroke: none" fill-rule="evenodd" d="M 646.824 242.192 L 645.728,242.192 L 645.728,240 L 646.824,240 L 646.824,242.192z"/>
      <path style="fill: none; stroke-opacity: 1; stroke-width: 2; stroke: #00aed9" d="M 646.824 242.192 L 645.728,242.192 L 645.728,240 L 646.824,240 L 646.824,242.192"/>
      <path style="fill: #00aed9; fill-opacity: 1; stroke: none" fill-rule="evenodd" d="M 680.318 260.677 C 680.318,265.007 671.293,268.516 660.159,268.516 C 649.025,268.516 640,265.007 640,260.677 L 640,272.16 C 640,276.49 649.025,280 660.159,280 C 671.293,280 680.318,276.49 680.318,272.16 L 680.318,260.677z"/>
      <path style="fill: none; stroke-opacity: 1; stroke-width: 0.8; stroke: #ffffff" d="M 680.318 260.677 C 680.318,265.007 671.293,268.516 660.159,268.516 C 649.025,268.516 640,265.007 640,260.677 L 640,272.16 C 640,276.49 649.025,280 660.159,280 C 671.293,280 680.318,276.49 680.318,272.16 L 680.318,260.677"/>
      <path style="fill: #00aed9; fill-opacity: 1; stroke: none" fill-rule="evenodd" d="M 660.159 268.516 C 671.293,268.516 680.318,265.007 680.318,260.677 C 680.318,256.347 671.293,252.837 660.159,252.837 C 649.025,252.837 640,256.347 640,260.677 C 640,265.007 649.025,268.516 660.159,268.516z"/>
      <path style="fill: none; stroke-opacity: 1; stroke-width: 0.8; stroke: #ffffff" d="M 660.159 268.516 C 671.293,268.516 680.318,265.007 680.318,260.677 C 680.318,256.347 671.293,252.837 660.159,252.837 C 649.025,252.837 640,256.347 640,260.677 C 640,265.007 649.025,268.516 660.159,268.516"/>
      <path style="fill: #ffffff; fill-opacity: 1; stroke: none" fill-rule="evenodd" d="M 655.555 257.612 L 657.22,260.109 L 650.927,261.563 L 652.301,260.419 L 642.574,258.756 L 645.015,256.927 L 654.4,258.516 L 655.555,257.612z"/>
      <path style="fill: #ffffff; fill-opacity: 1; stroke: none" fill-rule="evenodd" d="M 664.413 263.666 L 663.276,261.093 L 668.953,259.958 L 667.968,260.84 L 677.431,262.456 L 675.162,264.272 L 665.754,262.507 L 664.413,263.666z"/>
      <path style="fill: #ffffff; fill-opacity: 1; stroke: none" fill-rule="evenodd" d="M 661.308 256.248 L 667.667,254.508 L 667.742,257.234 L 666.153,256.93 L 663.048,259.503 L 660.088,259.072 L 663.29,256.554 L 661.308,256.248z"/>
      <path style="fill: #ffffff; fill-opacity: 1; stroke: none" fill-rule="evenodd" d="M 658.583 266.014 L 652.528,267.149 L 652.301,264.349 L 654.041,264.726 L 657.374,261.88 L 660.324,262.38 L 656.767,265.484 L 658.583,266.014z"/>
    </g>
    <polyline style="fill: none; stroke-opacity: 1; stroke-width: 2; stroke: #000000" points="714.444,160 714.444,200 660.027,200 660.027,252.444 "/>
    <text font-size="40.64" style="fill: #000000; fill-opacity: 1; stroke: none;text-anchor:start;font-family:sans-serif;font-style:normal;font-weight:normal" x="600" y="280">
      <tspan x="600" y="280">...</tspan>
    </text>
    <text font-size="16.9785" style="fill: #000000; fill-opacity: 1; stroke: none;text-anchor:start;font-family:sans-serif;font-style:normal;font-weight:normal" x="240" y="129">
      <tspan x="240" y="129">Big Switch</tspan>
    </text>
  </g>
</svg>
