<?xml version="1.0" encoding="UTF-8" standalone="no"?>
<!DOCTYPE svg PUBLIC "-//W3C//DTD SVG 1.0//EN" "http://www.w3.org/TR/2001/PR-SVG-20010719/DTD/svg10.dtd">
<svg width="48cm" height="28cm" viewBox="18 172 943 549" xmlns="http://www.w3.org/2000/svg" xmlns:xlink="http://www.w3.org/1999/xlink">
  <g id="Background">
    <g>
      <ellipse style="fill: #ffffff; fill-opacity: 1; stroke-opacity: 1; stroke-width: 2; stroke: #000000" cx="222.067" cy="304.034" rx="42.0673" ry="44.0336"/>
      <text font-size="18.0622" style="fill: #000000; fill-opacity: 1; stroke: none;text-anchor:middle;font-family:sans-serif;font-style:normal;font-weight:normal" x="222.067" y="309.495">
        <tspan x="222.067" y="309.495">N1</tspan>
      </text>
    </g>
    <g>
      <ellipse style="fill: #ffffff; fill-opacity: 1; stroke-opacity: 1; stroke-width: 2; stroke: #000000" cx="62.0673" cy="404.034" rx="42.0673" ry="44.0336"/>
      <text font-size="18.0622" style="fill: #000000; fill-opacity: 1; stroke: none;text-anchor:middle;font-family:sans-serif;font-style:normal;font-weight:normal" x="62.0673" y="409.495">
        <tspan x="62.0673" y="409.495">A</tspan>
      </text>
    </g>
    <g>
      <ellipse style="fill: #ffffff; fill-opacity: 1; stroke-opacity: 1; stroke-width: 2; stroke: #000000" cx="902.067" cy="404.034" rx="42.0673" ry="44.0336"/>
      <text font-size="18.0622" style="fill: #000000; fill-opacity: 1; stroke: none;text-anchor:middle;font-family:sans-serif;font-style:normal;font-weight:normal" x="902.067" y="409.495">
        <tspan x="902.067" y="409.495">B</tspan>
      </text>
    </g>
    <text font-size="12.8" style="fill: #000000; fill-opacity: 1; stroke: none;text-anchor:start;font-family:sans-serif;font-style:normal;font-weight:normal" x="580" y="300">
      <tspan x="580" y="300"></tspan>
    </text>
    <text font-size="12.8" style="fill: #000000; fill-opacity: 1; stroke: none;text-anchor:start;font-family:sans-serif;font-style:normal;font-weight:normal" x="62.0672" y="404.034">
      <tspan x="62.0672" y="404.034"></tspan>
    </text>
    <text font-size="12.8" style="fill: #000000; fill-opacity: 1; stroke: none;text-anchor:start;font-family:sans-serif;font-style:normal;font-weight:normal" x="62.0672" y="404.034">
      <tspan x="62.0672" y="404.034"></tspan>
    </text>
    <text font-size="12.8" style="fill: #000000; fill-opacity: 1; stroke: none;text-anchor:start;font-family:sans-serif;font-style:normal;font-weight:normal" x="860" y="400">
      <tspan x="860" y="400"></tspan>
    </text>
    <text font-size="12.8" style="fill: #000000; fill-opacity: 1; stroke: none;text-anchor:start;font-family:sans-serif;font-style:normal;font-weight:normal" x="62.0672" y="404.034">
      <tspan x="62.0672" y="404.034"></tspan>
    </text>
    <g>
      <ellipse style="fill: #ffffff; fill-opacity: 1; stroke-opacity: 1; stroke-width: 2; stroke: #000000" cx="782.067" cy="304.034" rx="42.0673" ry="44.0336"/>
      <text font-size="18.0622" style="fill: #000000; fill-opacity: 1; stroke: none;text-anchor:middle;font-family:sans-serif;font-style:normal;font-weight:normal" x="782.067" y="309.495">
        <tspan x="782.067" y="309.495">N5</tspan>
      </text>
    </g>
    <g>
      <ellipse style="fill: #ffffff; fill-opacity: 1; stroke-opacity: 1; stroke-width: 2; stroke: #000000" cx="360" cy="304.034" rx="40" ry="44.0336"/>
      <text font-size="18.0622" style="fill: #000000; fill-opacity: 1; stroke: none;text-anchor:middle;font-family:sans-serif;font-style:normal;font-weight:normal" x="360" y="309.495">
        <tspan x="360" y="309.495">N2</tspan>
      </text>
    </g>
    <g>
      <ellipse style="fill: #ffffff; fill-opacity: 1; stroke-opacity: 1; stroke-width: 2; stroke: #000000" cx="642.067" cy="304.034" rx="42.0673" ry="44.0336"/>
      <text font-size="18.0622" style="fill: #000000; fill-opacity: 1; stroke: none;text-anchor:middle;font-family:sans-serif;font-style:normal;font-weight:normal" x="642.067" y="309.495">
        <tspan x="642.067" y="309.495">N4</tspan>
      </text>
    </g>
    <g>
      <ellipse style="fill: #ffffff; fill-opacity: 1; stroke-opacity: 1; stroke-width: 2; stroke: #000000" cx="222.067" cy="504.034" rx="42.0673" ry="44.0336"/>
      <text font-size="18.0622" style="fill: #000000; fill-opacity: 1; stroke: none;text-anchor:middle;font-family:sans-serif;font-style:normal;font-weight:normal" x="222.067" y="509.495">
        <tspan x="222.067" y="509.495">N6</tspan>
      </text>
    </g>
    <text font-size="12.8" style="fill: #000000; fill-opacity: 1; stroke: none;text-anchor:start;font-family:sans-serif;font-style:normal;font-weight:normal" x="580" y="480">
      <tspan x="580" y="480"></tspan>
    </text>
    <g>
      <ellipse style="fill: #ffffff; fill-opacity: 1; stroke-opacity: 1; stroke-width: 2; stroke: #000000" cx="782.067" cy="504.034" rx="42.0673" ry="44.0336"/>
      <text font-size="18.0622" style="fill: #000000; fill-opacity: 1; stroke: none;text-anchor:middle;font-family:sans-serif;font-style:normal;font-weight:normal" x="782.067" y="509.495">
        <tspan x="782.067" y="509.495">N10</tspan>
      </text>
    </g>
    <g>
      <ellipse style="fill: #ffffff; fill-opacity: 1; stroke-opacity: 1; stroke-width: 2; stroke: #000000" cx="360" cy="504.034" rx="40" ry="44.0336"/>
      <text font-size="18.0622" style="fill: #000000; fill-opacity: 1; stroke: none;text-anchor:middle;font-family:sans-serif;font-style:normal;font-weight:normal" x="360" y="509.495">
        <tspan x="360" y="509.495">N7</tspan>
      </text>
    </g>
    <g>
      <ellipse style="fill: #ffffff; fill-opacity: 1; stroke-opacity: 1; stroke-width: 2; stroke: #000000" cx="642.067" cy="504.034" rx="42.0673" ry="44.0336"/>
      <text font-size="18.0622" style="fill: #000000; fill-opacity: 1; stroke: none;text-anchor:middle;font-family:sans-serif;font-style:normal;font-weight:normal" x="642.067" y="509.495">
        <tspan x="642.067" y="509.495">N9</tspan>
      </text>
    </g>
    <g>
      <path style="fill: none; stroke-opacity: 1; stroke-width: 2; stroke: #000000" d="M 640 720 C 720,720 740,720 780,720 C 820,720 840,700 840,660 C 840,620 840,640 840,580 C 840,520 853.334,510 880,480 C 906.666,450 960,460 960,400 C 960,340 940,340 900,300 C 860,260 840,240 780,240 C 720,240 420,240 280,240 C 140,240 60,280 60,330.264"/>
      <polygon style="fill: #000000; fill-opacity: 1; stroke-opacity: 1; stroke-width: 2; stroke: #000000" fill-rule="evenodd" points="60,337.764 55,327.764 60,330.264 65,327.764 "/>
    </g>
    <text font-size="12.8" style="fill: #000000; fill-opacity: 1; stroke: none;text-anchor:start;font-family:sans-serif;font-style:normal;font-weight:normal" x="222.068" y="304.034">
      <tspan x="222.068" y="304.034"></tspan>
    </text>
    <g>
      <ellipse style="fill: #ffffff; fill-opacity: 1; stroke-opacity: 1; stroke-width: 2; stroke: #000000" cx="500" cy="304.034" rx="40" ry="44.0336"/>
      <text font-size="18.0622" style="fill: #000000; fill-opacity: 1; stroke: none;text-anchor:middle;font-family:sans-serif;font-style:normal;font-weight:normal" x="500" y="309.495">
        <tspan x="500" y="309.495">N3</tspan>
      </text>
    </g>
    <g>
      <ellipse style="fill: #ffffff; fill-opacity: 1; stroke-opacity: 1; stroke-width: 2; stroke: #000000" cx="500" cy="504.034" rx="40" ry="44.0336"/>
      <text font-size="18.0622" style="fill: #000000; fill-opacity: 1; stroke: none;text-anchor:middle;font-family:sans-serif;font-style:normal;font-weight:normal" x="500" y="509.495">
        <tspan x="500" y="509.495">N8</tspan>
      </text>
    </g>
    <text font-size="12.8" style="fill: #000000; fill-opacity: 1; stroke: none;text-anchor:start;font-family:sans-serif;font-style:normal;font-weight:normal" x="500" y="304.034">
      <tspan x="500" y="304.034"></tspan>
    </text>
    <g>
      <ellipse style="fill: #ffffff; fill-opacity: 1; stroke-opacity: 1; stroke-width: 2; stroke: #000000" cx="782.067" cy="664.034" rx="42.0673" ry="44.0336"/>
      <text font-size="18.0622" style="fill: #000000; fill-opacity: 1; stroke: none;text-anchor:middle;font-family:sans-serif;font-style:normal;font-weight:normal" x="782.067" y="669.495">
        <tspan x="782.067" y="669.495">N11</tspan>
      </text>
    </g>
    <g>
      <ellipse style="fill: #ffffff; fill-opacity: 1; stroke-opacity: 1; stroke-width: 2; stroke: #000000" cx="642.067" cy="664.034" rx="42.0673" ry="44.0336"/>
      <text font-size="18.0622" style="fill: #000000; fill-opacity: 1; stroke: none;text-anchor:middle;font-family:sans-serif;font-style:normal;font-weight:normal" x="642.067" y="669.495">
        <tspan x="642.067" y="669.495">N12</tspan>
      </text>
    </g>
    <line style="fill: none; stroke-opacity: 1; stroke-width: 2; stroke: #0000ff" x1="99.0302" y1="380.932" x2="185.104" y2="327.135"/>
    <line style="fill: none; stroke-opacity: 1; stroke-width: 2; stroke: #0000ff" x1="265.121" y1="304.034" x2="319.018" y2="304.034"/>
    <line style="fill: none; stroke-opacity: 1; stroke-width: 2; stroke-dasharray: 20; stroke: #ff0000" x1="400.742" y1="304.034" x2="459.258" y2="304.034"/>
    <line style="fill: none; stroke-opacity: 1; stroke-width: 2; stroke: #0000ff" x1="541.006" y1="304.034" x2="599.024" y2="304.034"/>
    <line style="fill: none; stroke-opacity: 1; stroke-width: 2; stroke: #0000ff" x1="685.142" y1="304.034" x2="738.992" y2="304.034"/>
    <line style="fill: none; stroke-opacity: 1; stroke-width: 2; stroke: #0000ff" x1="868.405" y1="375.982" x2="815.729" y2="332.085"/>
    <line style="fill: none; stroke-opacity: 1; stroke-width: 2; stroke: #0000ff" x1="815.729" y1="475.982" x2="868.405" y2="432.085"/>
    <line style="fill: none; stroke-opacity: 1; stroke-width: 2; stroke: #0000ff" x1="782.067" y1="619.014" x2="782.067" y2="549.053"/>
    <line style="fill: none; stroke-opacity: 1; stroke-width: 2; stroke: #0000ff" x1="738.992" y1="664.034" x2="685.142" y2="664.034"/>
    <line style="fill: none; stroke-opacity: 1; stroke-width: 2; stroke-dasharray: 20 4 4 4 4 4; stroke: #0000ff" x1="671.141" y1="630.806" x2="752.993" y2="537.261"/>
    <line style="fill: none; stroke-opacity: 1; stroke-width: 2; stroke: #0000ff" x1="738.992" y1="504.034" x2="685.142" y2="504.034"/>
    <line style="fill: none; stroke-opacity: 1; stroke-width: 2; stroke: #0000ff" x1="541.006" y1="504.034" x2="599.024" y2="504.034"/>
    <line style="fill: none; stroke-opacity: 1; stroke-width: 2; stroke: #0000ff" x1="400.742" y1="504.034" x2="459.258" y2="504.034"/>
    <line style="fill: none; stroke-opacity: 1; stroke-width: 2; stroke: #0000ff" x1="265.121" y1="504.034" x2="319.018" y2="504.034"/>
    <line style="fill: none; stroke-opacity: 1; stroke-width: 2; stroke: #0000ff" x1="99.0302" y1="427.135" x2="185.104" y2="480.932"/>
    <g>
      <path style="fill: none; stroke-opacity: 1; stroke-width: 2; stroke: #000000" d="M 60 469.736 C 60,500 180,560 220,560 C 260,560 360,560 400,560 C 440,560 634.024,560 640,560"/>
      <polygon style="fill: #000000; fill-opacity: 1; stroke-opacity: 1; stroke-width: 2; stroke: #000000" fill-rule="evenodd" points="60,462.236 65,472.236 60,469.736 55,472.236 "/>
    </g>
    <text font-size="16.9785" style="fill: #ff0000; fill-opacity: 1; stroke: none;text-anchor:start;font-family:sans-serif;font-style:normal;font-weight:normal" x="280" y="600">
      <tspan x="280" y="600">broken link</tspan>
    </text>
    <text font-size="16.9785" style="fill: #0000ff; fill-opacity: 1; stroke: none;text-anchor:start;font-family:sans-serif;font-style:normal;font-weight:normal" x="280" y="640">
      <tspan x="280" y="640">working link</tspan>
    </text>
    <text font-size="16.9785" style="fill: #000000; fill-opacity: 1; stroke: none;text-anchor:start;font-family:sans-serif;font-style:normal;font-weight:normal" x="280" y="680">
      <tspan x="280" y="680">previously selected path to A</tspan>
    </text>
    <g>
      <line style="fill: none; stroke-opacity: 1; stroke-width: 2; stroke: #000000" x1="240" y1="680" x2="169.736" y2="680"/>
      <polygon style="fill: #000000; fill-opacity: 1; stroke-opacity: 1; stroke-width: 2; stroke: #000000" fill-rule="evenodd" points="162.236,680 172.236,675 169.736,680 172.236,685 "/>
    </g>
    <line style="fill: none; stroke-opacity: 1; stroke-width: 2; stroke: #0000ff" x1="160" y1="640" x2="240" y2="640"/>
    <line style="fill: none; stroke-opacity: 1; stroke-width: 2; stroke: #ff0000" x1="160" y1="600" x2="240" y2="600"/>
    <g>
      <line style="fill: none; stroke-opacity: 1; stroke-width: 2; stroke-dasharray: 4; stroke: #7f7f7f" x1="60" y1="180" x2="215.528" y2="180"/>
      <polyline style="fill: none; stroke-opacity: 1; stroke-width: 2; stroke: #7f7f7f" points="207.764,185 217.764,180 207.764,175 "/>
    </g>
    <g>
      <line style="fill: none; stroke-opacity: 1; stroke-width: 2; stroke: #000000" x1="749.736" y1="180" x2="900" y2="180"/>
      <polygon style="fill: #000000; fill-opacity: 1; stroke-opacity: 1; stroke-width: 2; stroke: #000000" fill-rule="evenodd" points="742.236,180 752.236,175 749.736,180 752.236,185 "/>
    </g>
    <text font-size="16.9785" style="fill: #7f7f7f; fill-opacity: 1; stroke: none;text-anchor:start;font-family:sans-serif;font-style:normal;font-weight:normal" x="60" y="200">
      <tspan x="60" y="200">OGM direction</tspan>
    </text>
    <text font-size="16.9785" style="fill: #000000; fill-opacity: 1; stroke: none;text-anchor:start;font-family:sans-serif;font-style:normal;font-weight:normal" x="780" y="200">
      <tspan x="780" y="200">route direction</tspan>
    </text>
    <g>
      <polyline style="fill: none; stroke-opacity: 1; stroke-width: 2; stroke: #ff0000" points="421.414,355.757 440,300 420,320 440,260 "/>
      <polyline style="fill: none; stroke-opacity: 1; stroke-width: 2; stroke: #ff0000" points="419.126,346.811 420.707,357.879 428.613,349.973 "/>
    </g>
  </g>
</svg>
